<svg width="170" height="72" viewBox="0 0 170 72" fill="none" xmlns="http://www.w3.org/2000/svg">
<g clip-path="url(#clip0_1_873)">
<rect width="88" height="40" transform="translate(41 19)" fill="white"/>
<path d="M64.3247 37.7913C61.1912 37.7913 60.9423 35.3585 60.9423 34.6421C60.9423 33.7913 61.1327 32.2092 63.1679 31.4481C65.2032 30.6869 65.6425 30.5973 67.0921 30.1346V29.7764C67.0921 29.06 67.0921 28.9257 66.931 28.463C66.6821 27.6421 65.8914 27.0898 64.7932 27.0898C63.7536 27.0898 62.8605 27.6869 62.4505 28.5675L61.8648 28.2092C62.2162 26.8958 63.5486 25.5824 65.8328 25.5824C67.4142 25.5824 68.5124 26.0451 69.1566 27.06C69.6398 27.8809 69.6984 28.9854 69.6984 30.1048C69.6984 31.1197 69.6398 32.2391 69.6398 33.1495C69.6398 33.7466 69.5813 34.3286 69.5813 34.657C69.5813 35.4779 69.7423 36.1346 70.3866 36.1346C70.6794 36.1346 70.738 36.0301 70.9723 35.8809L71.3237 36.3436C70.738 37.1645 70.0352 37.8212 68.8784 37.8212C67.9852 37.8212 67.341 37.3585 67.0774 36.6122C66.7114 37.1346 65.7596 37.7913 64.3247 37.7913ZM67.0921 31.5973C65.5546 32.06 64.9982 32.3137 64.559 32.5525C63.8561 32.9107 63.5633 33.5675 63.5633 34.4182C63.5633 35.0749 63.8122 36.1346 65.3057 36.1346C65.7889 36.1346 66.4917 36.0301 67.136 35.5824V31.5824H67.0921V31.5973ZM41.2192 37.1645C41.2192 35.9854 41.2192 34.9854 41.1167 33.7764H41.8195C41.8195 34.5376 42.0099 35.0898 42.3613 35.4481C42.8445 36.0003 44.0012 36.3585 45.0408 36.3585C47.2225 36.3585 48.2621 35.5078 48.2621 33.6719C48.2621 32.1048 47.325 31.4481 46.0365 30.5227L45.8461 30.3585L44.4551 29.4033C42.5224 28.0898 41.5267 27.0749 41.5267 25.0003C41.5267 23.9854 41.922 20.6421 46.7393 20.6421C47.9839 20.6421 49.5653 20.8063 50.517 20.9406C50.517 21.1048 50.4585 21.851 50.4585 22.5078C50.4585 23.2689 50.4585 23.463 50.517 24.3734H49.9313C49.9313 23.5525 49.6824 23.06 49.3457 22.7018C48.8917 22.2391 47.8668 21.9854 46.7686 21.9854C44.1916 21.9854 43.8987 23.2988 43.8987 24.3137C43.8987 25.6869 44.6016 26.1794 46.1244 27.1943L47.8668 28.3734C49.3457 29.3884 50.7367 30.3436 50.7367 32.8809C50.7367 37.1346 46.8125 37.5824 45.1726 37.5824C43.6645 37.7913 42.4052 37.5675 41.2192 37.1645ZM72.4072 26.3436C72.9929 26.4033 73.8861 26.3436 74.75 26.1794C75.4967 26.0152 75.7457 25.9257 76.2874 25.6869L76.5363 25.851V26.7615C77.122 26.2988 78.2788 25.6421 79.9187 25.6421C82.0125 25.6421 83.3596 26.657 83.7403 28.4331C83.8428 28.8958 83.9014 29.9406 83.9014 30.5675V34.0152C83.9014 35.9406 84.0039 36.5078 84.3553 36.851C84.5457 37.0152 84.941 37.2092 85.512 37.2092V37.7615C84.7653 37.7018 83.4182 37.657 82.6422 37.657C81.6026 37.657 80.4165 37.7167 79.7723 37.7615V37.2092C80.358 37.1495 80.7094 36.9555 80.929 36.8063C81.2804 36.448 81.3244 35.7913 81.3829 34.3137C81.3829 33.851 81.4415 32.9406 81.4415 32.2839C81.4415 31.4331 81.4415 30.5078 81.339 29.5973C81.1779 28.0898 80.4019 27.3734 78.8937 27.3734C77.8541 27.3734 77.2099 27.6272 76.712 27.866V34.0451C76.712 35.9704 76.8145 36.5376 77.166 36.8809C77.3563 37.0451 77.8102 37.2391 78.2641 37.2391V37.7913C77.327 37.7316 76.1703 37.6869 75.4382 37.6869C73.9007 37.6869 73.4029 37.7466 72.5097 37.7913V37.2092C72.9929 37.2092 73.5054 37.0152 73.7543 36.7167C74.1057 36.3137 74.1496 35.2988 74.1496 33.3286V29.8212C74.1496 28.3436 74.0911 27.7466 73.9007 27.4331C73.7397 27.1794 73.359 26.9704 72.5536 26.9704V26.3137H72.4511V26.3436H72.4072ZM86.7713 37.1346C87.2545 37.1346 87.7669 36.9704 88.0159 36.6421C88.3673 36.2391 88.4112 35.2242 88.4112 33.254V27.3585H86.9323V26.7018C87.5766 26.4481 88.1184 26.1495 88.4112 25.8809C88.4112 24.8212 88.4698 23.4928 88.6016 22.7316C89.0555 20.2988 90.5929 19.0898 93.2139 19.0898C94.3706 19.0898 95.4395 19.4928 96.1423 20.0451L96.2009 20.2988L95.0442 21.9107H94.7513C94.356 20.9555 93.7556 20.4033 92.716 20.4033C92.3646 20.4033 91.8814 20.5078 91.5593 20.8063C91.0761 21.2988 90.9736 22.0749 90.9736 23.5973V25.866H93.5506V27.3436H90.9736V33.8809C90.9736 35.4481 91.0322 36.2092 91.2225 36.5078C91.5154 37.0003 92.5696 37.06 93.0528 37.06V37.657C92.2182 37.5973 90.8711 37.5525 89.9194 37.5525C88.4698 37.5525 87.5327 37.6122 86.7859 37.657L86.7713 37.1346ZM100.081 37.8809C96.5669 37.8809 94.4731 35.657 94.4731 31.9107C94.4731 28.9854 96.0105 25.5824 100.33 25.5824C103.844 25.5824 105.938 27.8063 105.938 31.5525C105.938 34.4779 104.386 37.8809 100.081 37.8809ZM100.228 26.9406C99.5247 26.9406 98.9829 27.1346 98.5876 27.4928C97.6505 28.3137 97.1966 29.7167 97.1966 31.7913C97.1966 32.6122 97.3576 36.5525 100.184 36.5525C100.886 36.5525 101.428 36.3585 101.824 36.0003C102.761 35.1794 103.215 33.7764 103.215 31.7018C103.2 30.8958 103.068 26.9406 100.228 26.9406ZM107.124 26.2839C107.929 26.3436 108.764 26.2242 109.657 26.0898C110.36 25.9854 110.814 25.8361 111.048 25.6869L111.238 25.7913V26.8063C111.78 26.254 112.688 25.6869 113.918 25.6869C114.811 25.6869 115.397 25.9406 115.953 26.4033V26.7615L114.958 28.5973H114.474C114.182 28.0451 113.581 27.5376 112.542 27.5376C112.058 27.5376 111.648 27.6421 111.297 27.8958V33.9257C111.297 35.4928 111.356 36.1943 111.546 36.5078C111.839 37.0003 112.835 37.06 113.376 37.0003V37.657C112.571 37.5973 111.195 37.5525 110.243 37.5525C109.145 37.5525 108.017 37.5525 107.109 37.657V37.06C107.754 37.0003 108.105 36.866 108.354 36.5675C108.705 36.1645 108.749 35.1943 108.749 33.1794V29.8958C108.749 28.4182 108.749 27.8212 108.5 27.5078C108.31 27.254 107.915 27.1048 107.153 27.1048V26.3436L107.124 26.2839ZM123.377 19.8063C124.08 19.8063 124.958 19.6421 126.115 19.4481C126.759 19.3436 127.155 19.1943 127.36 19.1495L127.55 19.254C127.447 20.2092 127.447 22.4033 127.447 23.9555V33.5675C127.447 34.9854 127.447 35.8958 127.638 36.1943C127.828 36.4481 128.224 36.657 128.985 36.657V37.254C128.238 37.254 127.404 37.3585 126.51 37.5078C125.925 37.6122 125.471 37.7018 125.222 37.8063L124.929 37.7018V36.6869C124.343 37.1495 123.245 37.8063 121.708 37.8063C118.53 37.8063 116.495 35.5824 116.495 32.0898C116.495 30.9107 116.685 29.866 117.081 28.8958C118.076 26.7615 120.068 25.5525 122.586 25.5525C123.523 25.5525 124.329 25.657 124.812 25.7466V23.254C124.812 21.7764 124.812 21.0301 124.563 20.6719C124.402 20.4182 124.168 20.3137 123.318 20.2689V19.7913H123.377V19.8063ZM122.967 36.1495C123.772 36.1495 124.314 36.0451 124.856 35.6869V27.8063C124.665 27.6122 123.963 26.9854 122.572 26.9854C120.346 26.9854 119.248 28.5525 119.248 31.8063C119.204 33.1645 119.599 36.1495 122.967 36.1495ZM59.8002 36.5078C59.4488 36.9704 58.5556 37.8809 56.6668 37.8809C54.8658 37.8809 53.8848 37.2242 53.4455 35.7466C53.2551 35.1943 53.2551 34.0301 53.2551 33.3585C53.2551 31.4928 53.2551 29.9704 53.3137 28.1943V27.3734H51.7616V26.9107C52.3473 26.657 52.8012 26.4182 53.2112 26.0898C54.1044 25.3734 54.6901 24.5227 55.349 23.254H55.8322V25.8809H59.7563V27.3585H55.8322V33.5376C55.8322 35.4033 56.1836 36.4182 57.8674 36.4182C58.6728 36.4182 59.2145 36.1645 59.5074 35.9555L59.8002 36.5078Z" fill="#8C1515"/>
<path d="M114.84 47.5527C114.65 47.5527 114.386 47.6124 114.254 47.7467C114.093 47.8512 114.093 48.0004 114.093 48.1049C114.093 48.2989 114.152 48.4631 114.284 48.8661L115.382 51.7915C115.543 52.2542 115.675 52.6124 115.733 52.8512L117.08 48.8512C117.241 48.3885 117.271 48.2989 117.271 48.09C117.271 47.9855 117.212 47.8959 117.11 47.7915C116.949 47.687 116.758 47.5974 116.524 47.5974V47.1348C116.685 47.1348 117.007 47.1348 117.168 47.1945C117.329 47.1945 117.622 47.2542 117.871 47.2542C118.354 47.2542 119.057 47.1945 119.35 47.1945V47.6571C119.16 47.7168 118.706 47.5974 118.31 48.7765L115.484 56.4631C115.089 57.5825 114.547 58.9556 112.614 58.9556C111.809 58.9556 111.267 58.7616 110.813 58.3586V58.1646L111.516 57.3139H111.707C111.897 57.7765 112.292 57.9706 112.863 57.9706C113.757 57.9706 114.152 57.1497 114.752 55.5377L114.913 55.0751L112.541 48.7616C112.541 48.7019 112.483 48.5974 112.439 48.5079C112.38 48.3437 112.248 48.0452 112.248 48.0452C112.087 47.7467 111.853 47.6422 111.546 47.6422V47.1795C111.999 47.2392 112.79 47.2392 113.185 47.2392C113.434 47.2392 113.83 47.2392 114.225 47.1795C114.415 47.1795 114.767 47.1198 114.928 47.1198V47.5228H114.869V47.5527H114.84ZM88.5425 47.4482C89.0257 47.5079 89.5821 47.3885 90.1239 47.284C90.5778 47.1795 90.8267 47.1198 91.0171 47.0303L91.1782 47.09V47.7467C91.5296 47.3885 92.0713 47.0303 92.862 47.0303C93.4477 47.0303 93.7991 47.1945 94.1505 47.493V47.7467L93.5648 48.9258H93.272C93.0816 48.5676 92.7302 48.2691 92.0274 48.2691C91.7346 48.2691 91.4856 48.3736 91.2221 48.5228V52.3288C91.2221 53.3437 91.2806 53.8064 91.3831 54.0004C91.5735 54.2989 92.1885 54.3586 92.5399 54.3586V54.7616C92.0567 54.7019 91.1489 54.7019 90.5485 54.7019C89.8457 54.7019 89.0989 54.7019 88.5572 54.8064V54.4034C88.9525 54.4034 89.2014 54.2392 89.3625 54.1049C89.6114 53.8512 89.6114 53.2542 89.6114 51.9258V49.7915C89.6114 48.881 89.6114 48.478 89.4504 48.284C89.3479 48.1198 89.055 48.0303 88.6158 48.0303V47.478H88.5425V47.4482ZM55.4803 54.7915C53.3865 54.7915 52.1565 54.1348 51.7026 52.7168C51.4537 52.0004 51.4537 51.1049 51.4537 50.3885V46.3437C51.4537 45.1348 51.3951 44.9258 51.1608 44.7318C51.0583 44.6273 50.8094 44.5377 50.458 44.478V44.0751C50.9412 44.1348 51.8051 44.1795 52.2883 44.1795C53.1229 44.1795 53.6354 44.1795 54.1771 44.0751V44.5377C53.8257 44.5377 53.5915 44.6422 53.3718 44.8362C53.1229 45.09 53.1229 45.5527 53.1229 46.8661V50.4482C53.1229 52.5825 53.3132 53.9557 55.656 53.9557C58.0427 53.9557 58.1891 52.5377 58.1891 50.3736V46.4333C58.1891 45.2243 58.1306 45.0153 57.8963 44.8213C57.7352 44.7168 57.5009 44.6273 57.1935 44.5676V44.1646C57.6474 44.1646 58.2331 44.2243 58.8334 44.2243C59.3751 44.2243 59.9316 44.2243 60.5758 44.1198V44.5825C60.2244 44.5825 59.9901 44.687 59.7705 44.881C59.5216 45.1348 59.5216 45.5974 59.5216 46.9109V49.9556C59.5216 50.9109 59.5216 51.9855 59.2287 52.8362C58.7602 54.1348 57.5595 54.7915 55.4803 54.7915ZM69.6394 54.3288C70.0347 54.2691 70.2836 54.2243 70.474 54.0303C70.7229 53.7765 70.7229 53.1795 70.7229 51.8512V49.7168C70.7229 48.8064 70.7229 48.3437 70.5618 48.1497C70.4593 47.9855 70.269 47.8959 69.7272 47.8512V47.3885C70.0201 47.4482 70.8254 47.3288 71.4111 47.2243C71.7039 47.1646 71.9968 47.0601 72.2164 46.9706L72.3775 47.1348C72.3189 47.6273 72.3189 48.7019 72.3189 50.1198V52.2989C72.3189 53.3139 72.3775 53.7765 72.48 53.9706C72.641 54.1646 72.9339 54.3288 73.3732 54.3288V54.687C72.9778 54.6273 72.2164 54.6273 71.5722 54.6273C70.8254 54.6273 70.0347 54.687 69.6394 54.7318V54.3288ZM71.4697 45.6721C70.884 45.6721 70.5326 45.3139 70.5326 44.7616C70.5326 44.2094 70.9279 43.8064 71.5282 43.8064C72.1139 43.8064 72.4653 44.1646 72.4653 44.7168C72.4507 45.3139 72.0553 45.6721 71.4697 45.6721ZM101.032 54.3288C101.428 54.2691 101.677 54.2243 101.867 54.0303C102.116 53.7765 102.116 53.1795 102.116 51.8512V49.7168C102.116 48.8064 102.116 48.3437 101.955 48.1497C101.852 47.9855 101.662 47.8959 101.12 47.8512V47.3885C101.413 47.4482 102.218 47.3288 102.804 47.2243C103.097 47.1646 103.448 47.0601 103.609 46.9706L103.77 47.1348C103.712 47.6273 103.712 48.7019 103.712 50.1198V52.2989C103.712 53.3139 103.77 53.7765 103.873 53.9706C104.034 54.1646 104.327 54.3288 104.766 54.3288V54.687C104.312 54.6273 103.58 54.6273 102.936 54.6273C102.189 54.6273 101.398 54.687 101.003 54.7318V54.3288H101.032ZM102.863 45.6721C102.277 45.6721 101.926 45.3139 101.926 44.7616C101.926 44.2094 102.321 43.8064 102.921 43.8064C103.507 43.8064 103.858 44.1646 103.858 44.7168C103.858 45.3139 103.448 45.6721 102.863 45.6721ZM95.0144 54.4333C95.0144 53.6721 94.9559 52.8661 94.9119 52.4631H95.3951C95.3951 52.8661 95.4976 53.2243 95.688 53.4183C95.9808 53.7765 96.3322 53.9109 96.9765 53.9109H97.079C97.8843 53.9109 98.3236 53.5527 98.3236 52.8512C98.3236 52.2989 97.9722 52.0303 97.3865 51.6721L96.3469 51.0153C95.8051 50.6571 95.1608 50.1646 95.1608 49.09C95.1608 48.2392 95.5123 47.5825 96.2004 47.2243C96.6544 46.9706 97.3572 46.9706 97.6793 46.9706C98.265 46.9706 99.1289 47.0751 99.6121 47.1646C99.5535 47.3586 99.5535 47.881 99.5535 48.075C99.5535 48.2392 99.5535 48.9258 99.6121 49.09H99.1289C99.1289 48.7915 99.0264 48.493 98.8361 48.2392C98.6457 47.9855 98.1918 47.8362 97.65 47.8362C96.9033 47.8362 96.4933 48.1348 96.4933 48.7915C96.4933 49.284 96.8886 49.5527 97.24 49.8064H97.2986L98.2943 50.4034C98.9385 50.8064 99.7732 51.3139 99.7732 52.478C99.7732 54.4482 97.9722 54.7467 96.9472 54.7467C96.3615 54.7318 95.7172 54.687 95.0144 54.4333ZM110.608 53.9407C110.36 54.1945 109.803 54.7915 108.617 54.7915C107.46 54.7915 106.816 54.3885 106.582 53.4183C106.479 53.0601 106.479 52.2989 106.479 51.9109C106.479 50.7019 106.479 49.7318 106.479 48.6273V48.1348H105.484V47.8362C105.879 47.6721 106.128 47.5377 106.421 47.3437C106.963 46.881 107.358 46.3288 107.812 45.5079H108.163V47.1795H110.638V48.09H108.163V52.0303C108.163 53.2094 108.354 53.8959 109.452 53.8959C109.935 53.8959 110.286 53.7318 110.491 53.5974L110.608 53.9407ZM77.0191 47.1497C76.858 47.1497 76.5359 47.1497 76.3162 47.2094C75.9209 47.2094 75.5109 47.2691 75.2181 47.2691C74.6763 47.2691 73.871 47.2094 73.6367 47.2094V47.6721C73.7392 47.6721 74.1199 47.6124 74.3835 48.1348C74.486 48.3288 74.5445 48.493 74.5738 48.5974C74.6324 48.7019 74.6763 48.7915 74.6763 48.8512L77.063 54.9258L77.8098 54.7616L80.4454 48.7915C80.4454 48.7318 80.5039 48.687 80.5479 48.5974C80.6064 48.5377 80.6064 48.4333 80.7968 48.1348C80.9578 47.8362 81.28 47.6721 81.5435 47.6721V47.2094C81.2507 47.2094 80.6064 47.2691 80.094 47.2691C79.845 47.2691 79.6108 47.2691 79.3472 47.2094C79.1568 47.2094 78.864 47.1497 78.6444 47.1497V47.5527C78.8933 47.5527 79.1276 47.6571 79.2301 47.7467C79.2886 47.8064 79.3911 47.9407 79.3911 48.0452C79.3911 48.2094 79.3326 48.3437 79.2008 48.8064L77.7512 52.3885C77.6926 52.1945 77.5901 51.8959 77.4583 51.478L76.4627 48.7915C76.3016 48.3885 76.2723 48.2392 76.2723 48.0303C76.2723 47.9258 76.2723 47.8362 76.3748 47.7765C76.5359 47.6124 76.7702 47.5228 77.0191 47.5228V47.1198V47.1497ZM60.7954 47.4482C61.1908 47.5079 61.7326 47.4482 62.2743 47.3437C62.7282 47.2392 62.9186 47.1795 63.27 47.0452L63.4311 47.1497V47.7467C63.7825 47.4482 64.5878 47.0303 65.5688 47.0303C66.9159 47.0303 67.7505 47.687 68.0141 48.8064C68.0727 49.1049 68.1166 49.7616 68.1166 50.1795V52.3586C68.1166 53.5676 68.1751 53.9258 68.4094 54.1945C68.5119 54.2989 68.8048 54.3885 69.1123 54.3885V54.7467C68.6291 54.7467 67.7652 54.687 67.282 54.687C66.5791 54.687 65.8324 54.7467 65.4517 54.7915V54.4333C65.8031 54.3736 66.0374 54.2691 66.1984 54.1795C66.3888 53.9855 66.4474 53.5228 66.4913 52.6124C66.4913 52.3139 66.4913 51.7616 66.4913 51.2989C66.4913 50.7467 66.4913 50.1198 66.4327 49.5825C66.3302 48.6273 65.847 48.1646 64.8953 48.1646C64.251 48.1646 63.7971 48.3288 63.5043 48.4631V52.4333C63.5043 53.6422 63.5628 54.0004 63.7971 54.2691C63.8996 54.3736 64.1925 54.4631 64.4999 54.4631V54.8213C63.8557 54.6571 63.1089 54.6571 62.6111 54.6571C61.6154 54.6571 61.3226 54.6571 60.7808 54.7616V54.4034C61.0737 54.4034 61.4251 54.2989 61.5861 54.1049C61.7765 53.8512 61.835 53.1945 61.835 51.9258V49.7915C61.835 48.881 61.835 48.478 61.674 48.284C61.5715 48.1198 61.3226 47.9855 60.8394 48.0303V47.4631H60.7954V47.4482ZM84.9259 54.7915C82.7003 54.7915 81.485 53.478 81.485 51.09C81.485 50.687 81.5875 46.9855 84.9552 46.9855C85.9509 46.9855 86.844 47.3885 87.2394 48.1049C87.6933 48.8213 87.7226 49.5228 87.7226 50.1348V50.5974H83.1103C83.1103 51.0004 83.1688 51.3139 83.2128 51.5527C83.4617 53.0303 84.2524 53.7318 85.658 53.7318C86.4633 53.7318 86.9465 53.5676 87.4004 53.2691L87.5908 53.6273C87.1222 54.2989 86.1266 54.7915 84.9259 54.7915ZM83.1395 49.7318H86.0094C86.0094 48.8213 85.8484 47.8064 84.5598 47.8064C83.4324 47.8661 83.1981 48.9556 83.1395 49.7318Z" fill="#8C1515"/>
</g>
<defs>
<clipPath id="clip0_1_873">
<rect width="88" height="40" fill="white" transform="translate(41 19)"/>
</clipPath>
</defs>
</svg>
