<svg width="170" height="72" viewBox="0 0 170 72" fill="none" xmlns="http://www.w3.org/2000/svg">
<g clip-path="url(#clip0_1_868)">
<rect width="122" height="20" transform="translate(24 26)" fill="white"/>
<path d="M100.64 32.2752H102.635V32.3144L99.9562 45.7066H98.0206V45.6673L98.2748 44.2752C97.3168 45.334 96.0068 45.8634 94.3645 45.8634C92.1357 45.8634 90.6302 44.334 90.6302 42.0595C90.6302 41.5889 90.6889 41.236 90.7671 40.8438L90.7866 40.7262L92.4876 32.2752H94.4427V32.3144L92.7809 40.5497C92.7027 41.0007 92.644 41.4517 92.644 41.785C92.644 43.236 93.5434 44.1183 95.0684 44.1183C95.5962 44.1183 98.2943 43.9419 98.9982 40.4713L100.64 32.2752ZM112.41 32.0987C110.885 32.0987 109.556 32.7066 108.696 33.8046L109.008 32.2948V32.2556H107.073L104.394 45.6477V45.687H106.369L108.011 37.4713C108.422 35.3732 110.064 33.8438 111.882 33.8438C112.665 33.8438 113.29 34.1575 113.759 34.785L113.779 34.8046L115.382 33.3732L115.363 33.3536C114.6 32.5105 113.642 32.0987 112.41 32.0987ZM79.9161 33.9615V34.0007H86.6222L77.6873 44.0399L77.3549 45.687H86.8764L87.2087 43.9419H80.0921L89.0466 33.9026L89.3789 32.2556H80.2485L79.9161 33.9615ZM115.597 45.6477V45.687H117.552L120.231 32.2752H118.295L115.597 45.6477ZM142.246 32.0987C140.623 32.0987 139.372 32.5889 138.394 33.6085L139.919 26.1379H137.944L133.995 45.687H135.95L137.592 37.4713C138.296 34.0007 141.014 33.8242 141.542 33.8242C143.047 33.8242 143.947 34.687 143.947 36.1575C143.947 36.4909 143.888 36.9419 143.81 37.3928L142.148 45.6673H144.103L145.823 37.2164C145.902 36.7654 145.96 36.3928 145.96 35.883C145.98 33.6281 144.474 32.0987 142.246 32.0987ZM129.224 32.0987C125.666 32.0987 123.164 34.5889 122.362 38.9615C122.225 39.687 122.166 40.5105 122.166 41.0203C122.166 44.0007 123.985 45.8438 126.917 45.8438C128.618 45.8438 130.163 45.1968 131.414 43.9615L131.434 43.9419L130.3 42.5693L130.28 42.5497L130.261 42.5693C129.224 43.6673 128.286 44.0987 127.035 44.0987C125.647 44.0987 124.141 43.2752 124.141 40.9615C124.141 40.236 124.219 39.6281 124.356 38.9615C124.571 37.8242 125.04 36.236 126.096 35.1379C126.937 34.2752 127.934 33.8438 129.048 33.8438C130.222 33.8438 130.965 34.2556 131.668 35.3144L131.688 35.334L133.135 34.1183L133.154 34.0987L133.135 34.0791C132.118 32.7066 130.925 32.0987 129.224 32.0987ZM119.038 28.5889H121.013L121.502 26.1379H119.547L119.038 28.5889ZM99.9366 28.5889H101.911L102.4 26.1379H100.445L99.9366 28.5889ZM94.6969 28.5889H96.6716L97.1604 26.1379H95.2052L94.6969 28.5889ZM68.4395 33.7066H64.0209L65.5655 26.1379H28.0075L24.0581 45.687H39.0344L40.012 40.8046H31.1748L31.7027 38.1183H40.5398L41.4392 33.7262H32.602L33.1299 31.0399H47.1482L44.1959 45.7066H50.335L53.2873 31.0399H58.4488L55.4966 45.7066H61.6357L63.1411 38.1379H67.5597L66.0347 45.7066H72.1738L76.1232 26.1575H69.9841L68.4395 33.7066Z" fill="#17181A"/>
</g>
<defs>
<clipPath id="clip0_1_868">
<rect width="122" height="20" fill="white" transform="translate(24 26)"/>
</clipPath>
</defs>
</svg>
