<svg width="56" height="56" viewBox="0 0 56 56" fill="none" xmlns="http://www.w3.org/2000/svg">
<g clip-path="url(#clip0_148_204)">
<path d="M36 25.3333H44L40 20L36 25.3333ZM36 30.6667H44L40 36L36 30.6667Z" fill="#D6B1FF"/>
<path d="M13.3333 12H21.3333V44H13.3333C12.9797 44 12.6406 43.8595 12.3905 43.6095C12.1405 43.3594 12 43.0203 12 42.6667V13.3333C12 12.9797 12.1405 12.6406 12.3905 12.3905C12.6406 12.1405 12.9797 12 13.3333 12Z" fill="#8C30F5"/>
<path d="M24 12H32C32.3536 12 32.6928 12.1405 32.9428 12.3905C33.1929 12.6406 33.3333 12.9797 33.3333 13.3333V42.6667C33.3333 43.0203 33.1929 43.3594 32.9428 43.6095C32.6928 43.8595 32.3536 44 32 44H24V12Z" fill="#2EC5CE"/>
</g>
<defs>
<clipPath id="clip0_148_204">
<rect width="32" height="32" fill="white" transform="translate(12 12)"/>
</clipPath>
</defs>
</svg>
