<svg width="283" height="176" viewBox="0 0 283 176" fill="none" xmlns="http://www.w3.org/2000/svg">
<g clip-path="url(#clip0_1_844)">
<path d="M7.85728 26.4286C11.4077 26.4286 14.2859 23.5504 14.2859 20C14.2859 16.4496 11.4077 13.5714 7.85728 13.5714C4.30688 13.5714 1.42871 16.4496 1.42871 20C1.42871 23.5504 4.30688 26.4286 7.85728 26.4286Z" stroke="#0070F0" stroke-width="2.5" stroke-linecap="round" stroke-linejoin="round"/>
<path d="M32.1429 38.5715C35.6933 38.5715 38.5715 35.6933 38.5715 32.1429C38.5715 28.5925 35.6933 25.7144 32.1429 25.7144C28.5925 25.7144 25.7144 28.5925 25.7144 32.1429C25.7144 35.6933 28.5925 38.5715 32.1429 38.5715Z" stroke="#0070F0" stroke-width="2.5" stroke-linecap="round" stroke-linejoin="round"/>
<path d="M32.1429 14.2857C35.6933 14.2857 38.5715 11.4076 38.5715 7.85716C38.5715 4.30676 35.6933 1.42859 32.1429 1.42859C28.5925 1.42859 25.7144 4.30676 25.7144 7.85716C25.7144 11.4076 28.5925 14.2857 32.1429 14.2857Z" stroke="#0070F0" stroke-width="2.5" stroke-linecap="round" stroke-linejoin="round"/>
<path d="M13.6001 17.1429L26.4001 10.7144" stroke="#0070F0" stroke-width="2.5" stroke-linecap="round" stroke-linejoin="round"/>
<path d="M13.6001 22.8572L26.4001 29.2857" stroke="#0070F0" stroke-width="2.5" stroke-linecap="round" stroke-linejoin="round"/>
</g>
<path d="M5.364 84.126C4.536 84.126 3.792 83.982 3.132 83.694C2.484 83.394 1.974 82.986 1.602 82.47C1.23 81.942 1.038 81.336 1.026 80.652H2.772C2.832 81.24 3.072 81.738 3.492 82.146C3.924 82.542 4.548 82.74 5.364 82.74C6.144 82.74 6.756 82.548 7.2 82.164C7.656 81.768 7.884 81.264 7.884 80.652C7.884 80.172 7.752 79.782 7.488 79.482C7.224 79.182 6.894 78.954 6.498 78.798C6.102 78.642 5.568 78.474 4.896 78.294C4.068 78.078 3.402 77.862 2.898 77.646C2.406 77.43 1.98 77.094 1.62 76.638C1.272 76.17 1.098 75.546 1.098 74.766C1.098 74.082 1.272 73.476 1.62 72.948C1.968 72.42 2.454 72.012 3.078 71.724C3.714 71.436 4.44 71.292 5.256 71.292C6.432 71.292 7.392 71.586 8.136 72.174C8.892 72.762 9.318 73.542 9.414 74.514H7.614C7.554 74.034 7.302 73.614 6.858 73.254C6.414 72.882 5.826 72.696 5.094 72.696C4.41 72.696 3.852 72.876 3.42 73.236C2.988 73.584 2.772 74.076 2.772 74.712C2.772 75.168 2.898 75.54 3.15 75.828C3.414 76.116 3.732 76.338 4.104 76.494C4.488 76.638 5.022 76.806 5.706 76.998C6.534 77.226 7.2 77.454 7.704 77.682C8.208 77.898 8.64 78.24 9 78.708C9.36 79.164 9.54 79.788 9.54 80.58C9.54 81.192 9.378 81.768 9.054 82.308C8.73 82.848 8.25 83.286 7.614 83.622C6.978 83.958 6.228 84.126 5.364 84.126ZM16.8465 73.956C17.5905 73.956 18.2625 74.118 18.8625 74.442C19.4625 74.754 19.9305 75.228 20.2665 75.864C20.6145 76.5 20.7885 77.274 20.7885 78.186V84H19.1685V78.42C19.1685 77.436 18.9225 76.686 18.4305 76.17C17.9385 75.642 17.2665 75.378 16.4145 75.378C15.5505 75.378 14.8605 75.648 14.3445 76.188C13.8405 76.728 13.5885 77.514 13.5885 78.546V84H11.9505V70.68H13.5885V75.54C13.9125 75.036 14.3565 74.646 14.9205 74.37C15.4965 74.094 16.1385 73.956 16.8465 73.956ZM22.8521 79.032C22.8521 78.024 23.0561 77.142 23.4641 76.386C23.8721 75.618 24.4301 75.024 25.1381 74.604C25.8581 74.184 26.6561 73.974 27.5321 73.974C28.3961 73.974 29.1461 74.16 29.7821 74.532C30.4181 74.904 30.8921 75.372 31.2041 75.936V74.136H32.8601V84H31.2041V82.164C30.8801 82.74 30.3941 83.22 29.7461 83.604C29.1101 83.976 28.3661 84.162 27.5141 84.162C26.6381 84.162 25.8461 83.946 25.1381 83.514C24.4301 83.082 23.8721 82.476 23.4641 81.696C23.0561 80.916 22.8521 80.028 22.8521 79.032ZM31.2041 79.05C31.2041 78.306 31.0541 77.658 30.7541 77.106C30.4541 76.554 30.0461 76.134 29.5301 75.846C29.0261 75.546 28.4681 75.396 27.8561 75.396C27.2441 75.396 26.6861 75.54 26.1821 75.828C25.6781 76.116 25.2761 76.536 24.9761 77.088C24.6761 77.64 24.5261 78.288 24.5261 79.032C24.5261 79.788 24.6761 80.448 24.9761 81.012C25.2761 81.564 25.6781 81.99 26.1821 82.29C26.6861 82.578 27.2441 82.722 27.8561 82.722C28.4681 82.722 29.0261 82.578 29.5301 82.29C30.0461 81.99 30.4541 81.564 30.7541 81.012C31.0541 80.448 31.2041 79.794 31.2041 79.05ZM37.2662 75.738C37.5542 75.174 37.9622 74.736 38.4902 74.424C39.0302 74.112 39.6842 73.956 40.4522 73.956V75.648H40.0202C38.1842 75.648 37.2662 76.644 37.2662 78.636V84H35.6282V74.136H37.2662V75.738ZM51.343 78.69C51.343 79.002 51.325 79.332 51.289 79.68H43.405C43.465 80.652 43.795 81.414 44.395 81.966C45.007 82.506 45.745 82.776 46.609 82.776C47.317 82.776 47.905 82.614 48.373 82.29C48.853 81.954 49.189 81.51 49.381 80.958H51.145C50.881 81.906 50.353 82.68 49.561 83.28C48.769 83.868 47.785 84.162 46.609 84.162C45.673 84.162 44.833 83.952 44.089 83.532C43.357 83.112 42.781 82.518 42.361 81.75C41.941 80.97 41.731 80.07 41.731 79.05C41.731 78.03 41.935 77.136 42.343 76.368C42.751 75.6 43.321 75.012 44.053 74.604C44.797 74.184 45.649 73.974 46.609 73.974C47.545 73.974 48.373 74.178 49.093 74.586C49.813 74.994 50.365 75.558 50.749 76.278C51.145 76.986 51.343 77.79 51.343 78.69ZM49.651 78.348C49.651 77.724 49.513 77.19 49.237 76.746C48.961 76.29 48.583 75.948 48.103 75.72C47.635 75.48 47.113 75.36 46.537 75.36C45.709 75.36 45.001 75.624 44.413 76.152C43.837 76.68 43.507 77.412 43.423 78.348H49.651ZM66.8 74.136L60.86 88.644H59.168L61.112 83.892L57.134 74.136H58.952L62.048 82.128L65.108 74.136H66.8ZM72.7485 84.162C71.8245 84.162 70.9845 83.952 70.2285 83.532C69.4845 83.112 68.8965 82.518 68.4645 81.75C68.0445 80.97 67.8345 80.07 67.8345 79.05C67.8345 78.042 68.0505 77.154 68.4825 76.386C68.9265 75.606 69.5265 75.012 70.2825 74.604C71.0385 74.184 71.8845 73.974 72.8205 73.974C73.7565 73.974 74.6025 74.184 75.3585 74.604C76.1145 75.012 76.7085 75.6 77.1405 76.368C77.5845 77.136 77.8065 78.03 77.8065 79.05C77.8065 80.07 77.5785 80.97 77.1225 81.75C76.6785 82.518 76.0725 83.112 75.3045 83.532C74.5365 83.952 73.6845 84.162 72.7485 84.162ZM72.7485 82.722C73.3365 82.722 73.8885 82.584 74.4045 82.308C74.9205 82.032 75.3345 81.618 75.6465 81.066C75.9705 80.514 76.1325 79.842 76.1325 79.05C76.1325 78.258 75.9765 77.586 75.6645 77.034C75.3525 76.482 74.9445 76.074 74.4405 75.81C73.9365 75.534 73.3905 75.396 72.8025 75.396C72.2025 75.396 71.6505 75.534 71.1465 75.81C70.6545 76.074 70.2585 76.482 69.9585 77.034C69.6585 77.586 69.5085 78.258 69.5085 79.05C69.5085 79.854 69.6525 80.532 69.9405 81.084C70.2405 81.636 70.6365 82.05 71.1285 82.326C71.6205 82.59 72.1605 82.722 72.7485 82.722ZM88.7082 74.136V84H87.0702V82.542C86.7582 83.046 86.3202 83.442 85.7562 83.73C85.2042 84.006 84.5922 84.144 83.9202 84.144C83.1522 84.144 82.4622 83.988 81.8502 83.676C81.2382 83.352 80.7522 82.872 80.3922 82.236C80.0442 81.6 79.8702 80.826 79.8702 79.914V74.136H81.4902V79.698C81.4902 80.67 81.7362 81.42 82.2282 81.948C82.7202 82.464 83.3922 82.722 84.2442 82.722C85.1202 82.722 85.8102 82.452 86.3142 81.912C86.8182 81.372 87.0702 80.586 87.0702 79.554V74.136H88.7082ZM93.1119 75.738C93.3999 75.174 93.8079 74.736 94.3359 74.424C94.8759 74.112 95.5299 73.956 96.2979 73.956V75.648H95.8659C94.0299 75.648 93.1119 76.644 93.1119 78.636V84H91.4739V74.136H93.1119V75.738ZM111.988 78.69C111.988 79.002 111.97 79.332 111.934 79.68H104.05C104.11 80.652 104.44 81.414 105.04 81.966C105.652 82.506 106.39 82.776 107.254 82.776C107.962 82.776 108.55 82.614 109.018 82.29C109.498 81.954 109.834 81.51 110.026 80.958H111.79C111.526 81.906 110.998 82.68 110.206 83.28C109.414 83.868 108.43 84.162 107.254 84.162C106.318 84.162 105.478 83.952 104.734 83.532C104.002 83.112 103.426 82.518 103.006 81.75C102.586 80.97 102.376 80.07 102.376 79.05C102.376 78.03 102.58 77.136 102.988 76.368C103.396 75.6 103.966 75.012 104.698 74.604C105.442 74.184 106.294 73.974 107.254 73.974C108.19 73.974 109.018 74.178 109.738 74.586C110.458 74.994 111.01 75.558 111.394 76.278C111.79 76.986 111.988 77.79 111.988 78.69ZM110.296 78.348C110.296 77.724 110.158 77.19 109.882 76.746C109.606 76.29 109.228 75.948 108.748 75.72C108.28 75.48 107.758 75.36 107.182 75.36C106.354 75.36 105.646 75.624 105.058 76.152C104.482 76.68 104.152 77.412 104.068 78.348H110.296ZM118.956 73.956C120.156 73.956 121.128 74.322 121.872 75.054C122.616 75.774 122.988 76.818 122.988 78.186V84H121.368V78.42C121.368 77.436 121.122 76.686 120.63 76.17C120.138 75.642 119.466 75.378 118.614 75.378C117.75 75.378 117.06 75.648 116.544 76.188C116.04 76.728 115.788 77.514 115.788 78.546V84H114.15V74.136H115.788V75.54C116.112 75.036 116.55 74.646 117.102 74.37C117.666 74.094 118.284 73.956 118.956 73.956ZM127.661 75.486V81.3C127.661 81.78 127.763 82.122 127.967 82.326C128.171 82.518 128.525 82.614 129.029 82.614H130.235V84H128.759C127.847 84 127.163 83.79 126.707 83.37C126.251 82.95 126.023 82.26 126.023 81.3V75.486H124.745V74.136H126.023V71.652H127.661V74.136H130.235V75.486H127.661ZM133.858 75.738C134.146 75.174 134.554 74.736 135.082 74.424C135.622 74.112 136.276 73.956 137.044 73.956V75.648H136.612C134.776 75.648 133.858 76.644 133.858 78.636V84H132.22V74.136H133.858V75.738ZM147.935 78.69C147.935 79.002 147.917 79.332 147.881 79.68H139.997C140.057 80.652 140.387 81.414 140.987 81.966C141.599 82.506 142.337 82.776 143.201 82.776C143.909 82.776 144.497 82.614 144.965 82.29C145.445 81.954 145.781 81.51 145.973 80.958H147.737C147.473 81.906 146.945 82.68 146.153 83.28C145.361 83.868 144.377 84.162 143.201 84.162C142.265 84.162 141.425 83.952 140.681 83.532C139.949 83.112 139.373 82.518 138.953 81.75C138.533 80.97 138.323 80.07 138.323 79.05C138.323 78.03 138.527 77.136 138.935 76.368C139.343 75.6 139.913 75.012 140.645 74.604C141.389 74.184 142.241 73.974 143.201 73.974C144.137 73.974 144.965 74.178 145.685 74.586C146.405 74.994 146.957 75.558 147.341 76.278C147.737 76.986 147.935 77.79 147.935 78.69ZM146.243 78.348C146.243 77.724 146.105 77.19 145.829 76.746C145.553 76.29 145.175 75.948 144.695 75.72C144.227 75.48 143.705 75.36 143.129 75.36C142.301 75.36 141.593 75.624 141.005 76.152C140.429 76.68 140.099 77.412 140.015 78.348H146.243ZM151.735 75.954C152.059 75.39 152.539 74.922 153.175 74.55C153.823 74.166 154.573 73.974 155.425 73.974C156.301 73.974 157.093 74.184 157.801 74.604C158.521 75.024 159.085 75.618 159.493 76.386C159.901 77.142 160.105 78.024 160.105 79.032C160.105 80.028 159.901 80.916 159.493 81.696C159.085 82.476 158.521 83.082 157.801 83.514C157.093 83.946 156.301 84.162 155.425 84.162C154.585 84.162 153.841 83.976 153.193 83.604C152.557 83.22 152.071 82.746 151.735 82.182V88.68H150.097V74.136H151.735V75.954ZM158.431 79.032C158.431 78.288 158.281 77.64 157.981 77.088C157.681 76.536 157.273 76.116 156.757 75.828C156.253 75.54 155.695 75.396 155.083 75.396C154.483 75.396 153.925 75.546 153.409 75.846C152.905 76.134 152.497 76.56 152.185 77.124C151.885 77.676 151.735 78.318 151.735 79.05C151.735 79.794 151.885 80.448 152.185 81.012C152.497 81.564 152.905 81.99 153.409 82.29C153.925 82.578 154.483 82.722 155.083 82.722C155.695 82.722 156.253 82.578 156.757 82.29C157.273 81.99 157.681 81.564 157.981 81.012C158.281 80.448 158.431 79.788 158.431 79.032ZM163.899 75.738C164.187 75.174 164.595 74.736 165.123 74.424C165.663 74.112 166.317 73.956 167.085 73.956V75.648H166.653C164.817 75.648 163.899 76.644 163.899 78.636V84H162.261V74.136H163.899V75.738ZM177.976 78.69C177.976 79.002 177.958 79.332 177.922 79.68H170.038C170.098 80.652 170.428 81.414 171.028 81.966C171.64 82.506 172.378 82.776 173.242 82.776C173.95 82.776 174.538 82.614 175.006 82.29C175.486 81.954 175.822 81.51 176.014 80.958H177.778C177.514 81.906 176.986 82.68 176.194 83.28C175.402 83.868 174.418 84.162 173.242 84.162C172.306 84.162 171.466 83.952 170.722 83.532C169.99 83.112 169.414 82.518 168.994 81.75C168.574 80.97 168.364 80.07 168.364 79.05C168.364 78.03 168.568 77.136 168.976 76.368C169.384 75.6 169.954 75.012 170.686 74.604C171.43 74.184 172.282 73.974 173.242 73.974C174.178 73.974 175.006 74.178 175.726 74.586C176.446 74.994 176.998 75.558 177.382 76.278C177.778 76.986 177.976 77.79 177.976 78.69ZM176.284 78.348C176.284 77.724 176.146 77.19 175.87 76.746C175.594 76.29 175.216 75.948 174.736 75.72C174.268 75.48 173.746 75.36 173.17 75.36C172.342 75.36 171.634 75.624 171.046 76.152C170.47 76.68 170.14 77.412 170.056 78.348H176.284ZM184.944 73.956C186.144 73.956 187.116 74.322 187.86 75.054C188.604 75.774 188.976 76.818 188.976 78.186V84H187.356V78.42C187.356 77.436 187.11 76.686 186.618 76.17C186.126 75.642 185.454 75.378 184.602 75.378C183.738 75.378 183.048 75.648 182.532 76.188C182.028 76.728 181.776 77.514 181.776 78.546V84H180.138V74.136H181.776V75.54C182.1 75.036 182.538 74.646 183.09 74.37C183.654 74.094 184.272 73.956 184.944 73.956ZM200.652 78.69C200.652 79.002 200.634 79.332 200.598 79.68H192.714C192.774 80.652 193.104 81.414 193.704 81.966C194.316 82.506 195.054 82.776 195.918 82.776C196.626 82.776 197.214 82.614 197.682 82.29C198.162 81.954 198.498 81.51 198.69 80.958H200.454C200.19 81.906 199.662 82.68 198.87 83.28C198.078 83.868 197.094 84.162 195.918 84.162C194.982 84.162 194.142 83.952 193.398 83.532C192.666 83.112 192.09 82.518 191.67 81.75C191.25 80.97 191.04 80.07 191.04 79.05C191.04 78.03 191.244 77.136 191.652 76.368C192.06 75.6 192.63 75.012 193.362 74.604C194.106 74.184 194.958 73.974 195.918 73.974C196.854 73.974 197.682 74.178 198.402 74.586C199.122 74.994 199.674 75.558 200.058 76.278C200.454 76.986 200.652 77.79 200.652 78.69ZM198.96 78.348C198.96 77.724 198.822 77.19 198.546 76.746C198.27 76.29 197.892 75.948 197.412 75.72C196.944 75.48 196.422 75.36 195.846 75.36C195.018 75.36 194.31 75.624 193.722 76.152C193.146 76.68 192.816 77.412 192.732 78.348H198.96ZM211.562 74.136V84H209.924V82.542C209.612 83.046 209.174 83.442 208.61 83.73C208.058 84.006 207.446 84.144 206.774 84.144C206.006 84.144 205.316 83.988 204.704 83.676C204.092 83.352 203.606 82.872 203.246 82.236C202.898 81.6 202.724 80.826 202.724 79.914V74.136H204.344V79.698C204.344 80.67 204.59 81.42 205.082 81.948C205.574 82.464 206.246 82.722 207.098 82.722C207.974 82.722 208.664 82.452 209.168 81.912C209.672 81.372 209.924 80.586 209.924 79.554V74.136H211.562ZM215.965 75.738C216.253 75.174 216.661 74.736 217.189 74.424C217.729 74.112 218.383 73.956 219.151 73.956V75.648H218.719C216.883 75.648 215.965 76.644 215.965 78.636V84H214.327V74.136H215.965V75.738ZM221.888 72.534C221.576 72.534 221.312 72.426 221.096 72.21C220.88 71.994 220.772 71.73 220.772 71.418C220.772 71.106 220.88 70.842 221.096 70.626C221.312 70.41 221.576 70.302 221.888 70.302C222.188 70.302 222.44 70.41 222.644 70.626C222.86 70.842 222.968 71.106 222.968 71.418C222.968 71.73 222.86 71.994 222.644 72.21C222.44 72.426 222.188 72.534 221.888 72.534ZM222.68 74.136V84H221.042V74.136H222.68ZM224.86 79.032C224.86 78.024 225.064 77.142 225.472 76.386C225.88 75.618 226.438 75.024 227.146 74.604C227.866 74.184 228.664 73.974 229.54 73.974C230.404 73.974 231.154 74.16 231.79 74.532C232.426 74.904 232.9 75.372 233.212 75.936V74.136H234.868V84H233.212V82.164C232.888 82.74 232.402 83.22 231.754 83.604C231.118 83.976 230.374 84.162 229.522 84.162C228.646 84.162 227.854 83.946 227.146 83.514C226.438 83.082 225.88 82.476 225.472 81.696C225.064 80.916 224.86 80.028 224.86 79.032ZM233.212 79.05C233.212 78.306 233.062 77.658 232.762 77.106C232.462 76.554 232.054 76.134 231.538 75.846C231.034 75.546 230.476 75.396 229.864 75.396C229.252 75.396 228.694 75.54 228.19 75.828C227.686 76.116 227.284 76.536 226.984 77.088C226.684 77.64 226.534 78.288 226.534 79.032C226.534 79.788 226.684 80.448 226.984 81.012C227.284 81.564 227.686 81.99 228.19 82.29C228.694 82.578 229.252 82.722 229.864 82.722C230.476 82.722 231.034 82.578 231.538 82.29C232.054 81.99 232.462 81.564 232.762 81.012C233.062 80.448 233.212 79.794 233.212 79.05ZM239.274 70.68V84H237.636V70.68H239.274ZM3.024 103.954C3.348 103.39 3.828 102.922 4.464 102.55C5.112 102.166 5.862 101.974 6.714 101.974C7.59 101.974 8.382 102.184 9.09 102.604C9.81 103.024 10.374 103.618 10.782 104.386C11.19 105.142 11.394 106.024 11.394 107.032C11.394 108.028 11.19 108.916 10.782 109.696C10.374 110.476 9.81 111.082 9.09 111.514C8.382 111.946 7.59 112.162 6.714 112.162C5.874 112.162 5.13 111.976 4.482 111.604C3.846 111.22 3.36 110.746 3.024 110.182V116.68H1.386V102.136H3.024V103.954ZM9.72 107.032C9.72 106.288 9.57 105.64 9.27 105.088C8.97 104.536 8.562 104.116 8.046 103.828C7.542 103.54 6.984 103.396 6.372 103.396C5.772 103.396 5.214 103.546 4.698 103.846C4.194 104.134 3.786 104.56 3.474 105.124C3.174 105.676 3.024 106.318 3.024 107.05C3.024 107.794 3.174 108.448 3.474 109.012C3.786 109.564 4.194 109.99 4.698 110.29C5.214 110.578 5.772 110.722 6.372 110.722C6.984 110.722 7.542 110.578 8.046 110.29C8.562 109.99 8.97 109.564 9.27 109.012C9.57 108.448 9.72 107.788 9.72 107.032ZM22.5501 106.69C22.5501 107.002 22.5321 107.332 22.4961 107.68H14.6121C14.6721 108.652 15.0021 109.414 15.6021 109.966C16.2141 110.506 16.9521 110.776 17.8161 110.776C18.5241 110.776 19.1121 110.614 19.5801 110.29C20.0601 109.954 20.3961 109.51 20.5881 108.958H22.3521C22.0881 109.906 21.5601 110.68 20.7681 111.28C19.9761 111.868 18.9921 112.162 17.8161 112.162C16.8801 112.162 16.0401 111.952 15.2961 111.532C14.5641 111.112 13.9881 110.518 13.5681 109.75C13.1481 108.97 12.9381 108.07 12.9381 107.05C12.9381 106.03 13.1421 105.136 13.5501 104.368C13.9581 103.6 14.5281 103.012 15.2601 102.604C16.0041 102.184 16.8561 101.974 17.8161 101.974C18.7521 101.974 19.5801 102.178 20.3001 102.586C21.0201 102.994 21.5721 103.558 21.9561 104.278C22.3521 104.986 22.5501 105.79 22.5501 106.69ZM20.8581 106.348C20.8581 105.724 20.7201 105.19 20.4441 104.746C20.1681 104.29 19.7901 103.948 19.3101 103.72C18.8421 103.48 18.3201 103.36 17.7441 103.36C16.9161 103.36 16.2081 103.624 15.6201 104.152C15.0441 104.68 14.7141 105.412 14.6301 106.348H20.8581ZM26.3502 103.738C26.6382 103.174 27.0462 102.736 27.5742 102.424C28.1142 102.112 28.7682 101.956 29.5362 101.956V103.648H29.1042C27.2682 103.648 26.3502 104.644 26.3502 106.636V112H24.7122V102.136H26.3502V103.738ZM34.919 112.162C34.163 112.162 33.485 112.036 32.885 111.784C32.285 111.52 31.811 111.16 31.463 110.704C31.115 110.236 30.923 109.702 30.887 109.102H32.579C32.627 109.594 32.855 109.996 33.263 110.308C33.683 110.62 34.229 110.776 34.901 110.776C35.525 110.776 36.017 110.638 36.377 110.362C36.737 110.086 36.917 109.738 36.917 109.318C36.917 108.886 36.725 108.568 36.341 108.364C35.957 108.148 35.363 107.938 34.559 107.734C33.827 107.542 33.227 107.35 32.759 107.158C32.303 106.954 31.907 106.66 31.571 106.276C31.247 105.88 31.085 105.364 31.085 104.728C31.085 104.224 31.235 103.762 31.535 103.342C31.835 102.922 32.261 102.592 32.813 102.352C33.365 102.1 33.995 101.974 34.703 101.974C35.795 101.974 36.677 102.25 37.349 102.802C38.021 103.354 38.381 104.11 38.429 105.07H36.791C36.755 104.554 36.545 104.14 36.161 103.828C35.789 103.516 35.285 103.36 34.649 103.36C34.061 103.36 33.593 103.486 33.245 103.738C32.897 103.99 32.723 104.32 32.723 104.728C32.723 105.052 32.825 105.322 33.029 105.538C33.245 105.742 33.509 105.91 33.821 106.042C34.145 106.162 34.589 106.3 35.153 106.456C35.861 106.648 36.437 106.84 36.881 107.032C37.325 107.212 37.703 107.488 38.015 107.86C38.339 108.232 38.507 108.718 38.519 109.318C38.519 109.858 38.369 110.344 38.069 110.776C37.769 111.208 37.343 111.55 36.791 111.802C36.251 112.042 35.627 112.162 34.919 112.162ZM45.1333 112.162C44.2093 112.162 43.3693 111.952 42.6133 111.532C41.8693 111.112 41.2813 110.518 40.8493 109.75C40.4293 108.97 40.2193 108.07 40.2193 107.05C40.2193 106.042 40.4353 105.154 40.8673 104.386C41.3113 103.606 41.9113 103.012 42.6673 102.604C43.4233 102.184 44.2693 101.974 45.2053 101.974C46.1413 101.974 46.9873 102.184 47.7433 102.604C48.4993 103.012 49.0933 103.6 49.5253 104.368C49.9693 105.136 50.1913 106.03 50.1913 107.05C50.1913 108.07 49.9633 108.97 49.5073 109.75C49.0633 110.518 48.4573 111.112 47.6893 111.532C46.9213 111.952 46.0693 112.162 45.1333 112.162ZM45.1333 110.722C45.7213 110.722 46.2733 110.584 46.7893 110.308C47.3053 110.032 47.7193 109.618 48.0313 109.066C48.3553 108.514 48.5173 107.842 48.5173 107.05C48.5173 106.258 48.3613 105.586 48.0493 105.034C47.7373 104.482 47.3293 104.074 46.8253 103.81C46.3213 103.534 45.7753 103.396 45.1873 103.396C44.5873 103.396 44.0353 103.534 43.5313 103.81C43.0393 104.074 42.6433 104.482 42.3433 105.034C42.0433 105.586 41.8933 106.258 41.8933 107.05C41.8933 107.854 42.0373 108.532 42.3253 109.084C42.6253 109.636 43.0213 110.05 43.5133 110.326C44.0053 110.59 44.5453 110.722 45.1333 110.722ZM57.151 101.956C58.351 101.956 59.323 102.322 60.067 103.054C60.811 103.774 61.183 104.818 61.183 106.186V112H59.563V106.42C59.563 105.436 59.317 104.686 58.825 104.17C58.333 103.642 57.661 103.378 56.809 103.378C55.945 103.378 55.255 103.648 54.739 104.188C54.235 104.728 53.983 105.514 53.983 106.546V112H52.345V102.136H53.983V103.54C54.307 103.036 54.745 102.646 55.297 102.37C55.861 102.094 56.479 101.956 57.151 101.956ZM63.2467 107.032C63.2467 106.024 63.4507 105.142 63.8587 104.386C64.2667 103.618 64.8247 103.024 65.5327 102.604C66.2527 102.184 67.0507 101.974 67.9267 101.974C68.7907 101.974 69.5407 102.16 70.1767 102.532C70.8127 102.904 71.2867 103.372 71.5987 103.936V102.136H73.2547V112H71.5987V110.164C71.2747 110.74 70.7887 111.22 70.1407 111.604C69.5047 111.976 68.7607 112.162 67.9087 112.162C67.0327 112.162 66.2407 111.946 65.5327 111.514C64.8247 111.082 64.2667 110.476 63.8587 109.696C63.4507 108.916 63.2467 108.028 63.2467 107.032ZM71.5987 107.05C71.5987 106.306 71.4487 105.658 71.1487 105.106C70.8487 104.554 70.4407 104.134 69.9247 103.846C69.4207 103.546 68.8627 103.396 68.2507 103.396C67.6387 103.396 67.0807 103.54 66.5767 103.828C66.0727 104.116 65.6707 104.536 65.3707 105.088C65.0707 105.64 64.9207 106.288 64.9207 107.032C64.9207 107.788 65.0707 108.448 65.3707 109.012C65.6707 109.564 66.0727 109.99 66.5767 110.29C67.0807 110.578 67.6387 110.722 68.2507 110.722C68.8627 110.722 69.4207 110.578 69.9247 110.29C70.4407 109.99 70.8487 109.564 71.1487 109.012C71.4487 108.448 71.5987 107.794 71.5987 107.05ZM77.6607 98.68V112H76.0227V98.68H77.6607ZM81.2984 100.534C80.9864 100.534 80.7224 100.426 80.5064 100.21C80.2904 99.994 80.1824 99.73 80.1824 99.418C80.1824 99.106 80.2904 98.842 80.5064 98.626C80.7224 98.41 80.9864 98.302 81.2984 98.302C81.5984 98.302 81.8504 98.41 82.0544 98.626C82.2704 98.842 82.3784 99.106 82.3784 99.418C82.3784 99.73 82.2704 99.994 82.0544 100.21C81.8504 100.426 81.5984 100.534 81.2984 100.534ZM82.0904 102.136V112H80.4524V102.136H82.0904ZM86.8801 103.486V109.3C86.8801 109.78 86.9821 110.122 87.1861 110.326C87.3901 110.518 87.7441 110.614 88.2481 110.614H89.4541V112H87.9781C87.0661 112 86.3821 111.79 85.9261 111.37C85.4701 110.95 85.2421 110.26 85.2421 109.3V103.486H83.9641V102.136H85.2421V99.652H86.8801V102.136H89.4541V103.486H86.8801ZM99.9347 102.136L93.9947 116.644H92.3027L94.2467 111.892L90.2687 102.136H92.0867L95.1827 110.128L98.2427 102.136H99.9347ZM108.378 103.486V109.3C108.378 109.78 108.48 110.122 108.684 110.326C108.888 110.518 109.242 110.614 109.746 110.614H110.952V112H109.476C108.564 112 107.88 111.79 107.424 111.37C106.968 110.95 106.74 110.26 106.74 109.3V103.486H105.462V102.136H106.74V99.652H108.378V102.136H110.952V103.486H108.378ZM121.937 106.69C121.937 107.002 121.919 107.332 121.883 107.68H113.999C114.059 108.652 114.389 109.414 114.989 109.966C115.601 110.506 116.339 110.776 117.203 110.776C117.911 110.776 118.499 110.614 118.967 110.29C119.447 109.954 119.783 109.51 119.975 108.958H121.739C121.475 109.906 120.947 110.68 120.155 111.28C119.363 111.868 118.379 112.162 117.203 112.162C116.267 112.162 115.427 111.952 114.683 111.532C113.951 111.112 113.375 110.518 112.955 109.75C112.535 108.97 112.325 108.07 112.325 107.05C112.325 106.03 112.529 105.136 112.937 104.368C113.345 103.6 113.915 103.012 114.647 102.604C115.391 102.184 116.243 101.974 117.203 101.974C118.139 101.974 118.967 102.178 119.687 102.586C120.407 102.994 120.959 103.558 121.343 104.278C121.739 104.986 121.937 105.79 121.937 106.69ZM120.245 106.348C120.245 105.724 120.107 105.19 119.831 104.746C119.555 104.29 119.177 103.948 118.697 103.72C118.229 103.48 117.707 103.36 117.131 103.36C116.303 103.36 115.595 103.624 115.007 104.152C114.431 104.68 114.101 105.412 114.017 106.348H120.245ZM127.591 112.162C126.835 112.162 126.157 112.036 125.557 111.784C124.957 111.52 124.483 111.16 124.135 110.704C123.787 110.236 123.595 109.702 123.559 109.102H125.251C125.299 109.594 125.527 109.996 125.935 110.308C126.355 110.62 126.901 110.776 127.573 110.776C128.197 110.776 128.689 110.638 129.049 110.362C129.409 110.086 129.589 109.738 129.589 109.318C129.589 108.886 129.397 108.568 129.013 108.364C128.629 108.148 128.035 107.938 127.231 107.734C126.499 107.542 125.899 107.35 125.431 107.158C124.975 106.954 124.579 106.66 124.243 106.276C123.919 105.88 123.757 105.364 123.757 104.728C123.757 104.224 123.907 103.762 124.207 103.342C124.507 102.922 124.933 102.592 125.485 102.352C126.037 102.1 126.667 101.974 127.375 101.974C128.467 101.974 129.349 102.25 130.021 102.802C130.693 103.354 131.053 104.11 131.101 105.07H129.463C129.427 104.554 129.217 104.14 128.833 103.828C128.461 103.516 127.957 103.36 127.321 103.36C126.733 103.36 126.265 103.486 125.917 103.738C125.569 103.99 125.395 104.32 125.395 104.728C125.395 105.052 125.497 105.322 125.701 105.538C125.917 105.742 126.181 105.91 126.493 106.042C126.817 106.162 127.261 106.3 127.825 106.456C128.533 106.648 129.109 106.84 129.553 107.032C129.997 107.212 130.375 107.488 130.687 107.86C131.011 108.232 131.179 108.718 131.191 109.318C131.191 109.858 131.041 110.344 130.741 110.776C130.441 111.208 130.015 111.55 129.463 111.802C128.923 112.042 128.299 112.162 127.591 112.162ZM135.501 103.486V109.3C135.501 109.78 135.603 110.122 135.807 110.326C136.011 110.518 136.365 110.614 136.869 110.614H138.075V112H136.599C135.687 112 135.003 111.79 134.547 111.37C134.091 110.95 133.863 110.26 133.863 109.3V103.486H132.585V102.136H133.863V99.652H135.501V102.136H138.075V103.486H135.501ZM146.497 103.738C146.785 103.174 147.193 102.736 147.721 102.424C148.261 102.112 148.915 101.956 149.683 101.956V103.648H149.251C147.415 103.648 146.497 104.644 146.497 106.636V112H144.859V102.136H146.497V103.738ZM160.574 106.69C160.574 107.002 160.556 107.332 160.52 107.68H152.636C152.696 108.652 153.026 109.414 153.626 109.966C154.238 110.506 154.976 110.776 155.84 110.776C156.548 110.776 157.136 110.614 157.604 110.29C158.084 109.954 158.42 109.51 158.612 108.958H160.376C160.112 109.906 159.584 110.68 158.792 111.28C158 111.868 157.016 112.162 155.84 112.162C154.904 112.162 154.064 111.952 153.32 111.532C152.588 111.112 152.012 110.518 151.592 109.75C151.172 108.97 150.962 108.07 150.962 107.05C150.962 106.03 151.166 105.136 151.574 104.368C151.982 103.6 152.552 103.012 153.284 102.604C154.028 102.184 154.88 101.974 155.84 101.974C156.776 101.974 157.604 102.178 158.324 102.586C159.044 102.994 159.596 103.558 159.98 104.278C160.376 104.986 160.574 105.79 160.574 106.69ZM158.882 106.348C158.882 105.724 158.744 105.19 158.468 104.746C158.192 104.29 157.814 103.948 157.334 103.72C156.866 103.48 156.344 103.36 155.768 103.36C154.94 103.36 154.232 103.624 153.644 104.152C153.068 104.68 152.738 105.412 152.654 106.348H158.882ZM166.228 112.162C165.472 112.162 164.794 112.036 164.194 111.784C163.594 111.52 163.12 111.16 162.772 110.704C162.424 110.236 162.232 109.702 162.196 109.102H163.888C163.936 109.594 164.164 109.996 164.572 110.308C164.992 110.62 165.538 110.776 166.21 110.776C166.834 110.776 167.326 110.638 167.686 110.362C168.046 110.086 168.226 109.738 168.226 109.318C168.226 108.886 168.034 108.568 167.65 108.364C167.266 108.148 166.672 107.938 165.868 107.734C165.136 107.542 164.536 107.35 164.068 107.158C163.612 106.954 163.216 106.66 162.88 106.276C162.556 105.88 162.394 105.364 162.394 104.728C162.394 104.224 162.544 103.762 162.844 103.342C163.144 102.922 163.57 102.592 164.122 102.352C164.674 102.1 165.304 101.974 166.012 101.974C167.104 101.974 167.986 102.25 168.658 102.802C169.33 103.354 169.69 104.11 169.738 105.07H168.1C168.064 104.554 167.854 104.14 167.47 103.828C167.098 103.516 166.594 103.36 165.958 103.36C165.37 103.36 164.902 103.486 164.554 103.738C164.206 103.99 164.032 104.32 164.032 104.728C164.032 105.052 164.134 105.322 164.338 105.538C164.554 105.742 164.818 105.91 165.13 106.042C165.454 106.162 165.898 106.3 166.462 106.456C167.17 106.648 167.746 106.84 168.19 107.032C168.634 107.212 169.012 107.488 169.324 107.86C169.648 108.232 169.816 108.718 169.828 109.318C169.828 109.858 169.678 110.344 169.378 110.776C169.078 111.208 168.652 111.55 168.1 111.802C167.56 112.042 166.936 112.162 166.228 112.162ZM180.888 102.136V112H179.25V110.542C178.938 111.046 178.5 111.442 177.936 111.73C177.384 112.006 176.772 112.144 176.1 112.144C175.332 112.144 174.642 111.988 174.03 111.676C173.418 111.352 172.932 110.872 172.572 110.236C172.224 109.6 172.05 108.826 172.05 107.914V102.136H173.67V107.698C173.67 108.67 173.916 109.42 174.408 109.948C174.9 110.464 175.572 110.722 176.424 110.722C177.3 110.722 177.99 110.452 178.494 109.912C178.998 109.372 179.25 108.586 179.25 107.554V102.136H180.888ZM185.292 98.68V112H183.654V98.68H185.292ZM190.081 103.486V109.3C190.081 109.78 190.183 110.122 190.387 110.326C190.591 110.518 190.945 110.614 191.449 110.614H192.655V112H191.179C190.267 112 189.583 111.79 189.127 111.37C188.671 110.95 188.443 110.26 188.443 109.3V103.486H187.165V102.136H188.443V99.652H190.081V102.136H192.655V103.486H190.081ZM198.132 112.162C197.376 112.162 196.698 112.036 196.098 111.784C195.498 111.52 195.024 111.16 194.676 110.704C194.328 110.236 194.136 109.702 194.1 109.102H195.792C195.84 109.594 196.068 109.996 196.476 110.308C196.896 110.62 197.442 110.776 198.114 110.776C198.738 110.776 199.23 110.638 199.59 110.362C199.95 110.086 200.13 109.738 200.13 109.318C200.13 108.886 199.938 108.568 199.554 108.364C199.17 108.148 198.576 107.938 197.772 107.734C197.04 107.542 196.44 107.35 195.972 107.158C195.516 106.954 195.12 106.66 194.784 106.276C194.46 105.88 194.298 105.364 194.298 104.728C194.298 104.224 194.448 103.762 194.748 103.342C195.048 102.922 195.474 102.592 196.026 102.352C196.578 102.1 197.208 101.974 197.916 101.974C199.008 101.974 199.89 102.25 200.562 102.802C201.234 103.354 201.594 104.11 201.642 105.07H200.004C199.968 104.554 199.758 104.14 199.374 103.828C199.002 103.516 198.498 103.36 197.862 103.36C197.274 103.36 196.806 103.486 196.458 103.738C196.11 103.99 195.936 104.32 195.936 104.728C195.936 105.052 196.038 105.322 196.242 105.538C196.458 105.742 196.722 105.91 197.034 106.042C197.358 106.162 197.802 106.3 198.366 106.456C199.074 106.648 199.65 106.84 200.094 107.032C200.538 107.212 200.916 107.488 201.228 107.86C201.552 108.232 201.72 108.718 201.732 109.318C201.732 109.858 201.582 110.344 201.282 110.776C200.982 111.208 200.556 111.55 200.004 111.802C199.464 112.042 198.84 112.162 198.132 112.162ZM221.983 102.136L218.905 112H217.213L214.837 104.17L212.461 112H210.769L207.673 102.136H209.347L211.615 110.416L214.063 102.136H215.737L218.131 110.434L220.363 102.136H221.983ZM224.455 100.534C224.143 100.534 223.879 100.426 223.663 100.21C223.447 99.994 223.339 99.73 223.339 99.418C223.339 99.106 223.447 98.842 223.663 98.626C223.879 98.41 224.143 98.302 224.455 98.302C224.755 98.302 225.007 98.41 225.211 98.626C225.427 98.842 225.535 99.106 225.535 99.418C225.535 99.73 225.427 99.994 225.211 100.21C225.007 100.426 224.755 100.534 224.455 100.534ZM225.247 102.136V112H223.609V102.136H225.247ZM230.036 103.486V109.3C230.036 109.78 230.138 110.122 230.342 110.326C230.546 110.518 230.9 110.614 231.404 110.614H232.61V112H231.134C230.222 112 229.538 111.79 229.082 111.37C228.626 110.95 228.398 110.26 228.398 109.3V103.486H227.12V102.136H228.398V99.652H230.036V102.136H232.61V103.486H230.036ZM239.491 101.956C240.235 101.956 240.907 102.118 241.507 102.442C242.107 102.754 242.575 103.228 242.911 103.864C243.259 104.5 243.433 105.274 243.433 106.186V112H241.813V106.42C241.813 105.436 241.567 104.686 241.075 104.17C240.583 103.642 239.911 103.378 239.059 103.378C238.195 103.378 237.505 103.648 236.989 104.188C236.485 104.728 236.233 105.514 236.233 106.546V112H234.595V98.68H236.233V103.54C236.557 103.036 237.001 102.646 237.565 102.37C238.141 102.094 238.783 101.956 239.491 101.956ZM9.882 130.136L3.942 144.644H2.25L4.194 139.892L0.216 130.136H2.034L5.13 138.128L8.19 130.136H9.882ZM15.8306 140.162C14.9066 140.162 14.0666 139.952 13.3106 139.532C12.5666 139.112 11.9786 138.518 11.5466 137.75C11.1266 136.97 10.9166 136.07 10.9166 135.05C10.9166 134.042 11.1326 133.154 11.5646 132.386C12.0086 131.606 12.6086 131.012 13.3646 130.604C14.1206 130.184 14.9666 129.974 15.9026 129.974C16.8386 129.974 17.6846 130.184 18.4406 130.604C19.1966 131.012 19.7906 131.6 20.2226 132.368C20.6666 133.136 20.8886 134.03 20.8886 135.05C20.8886 136.07 20.6606 136.97 20.2046 137.75C19.7606 138.518 19.1546 139.112 18.3866 139.532C17.6186 139.952 16.7666 140.162 15.8306 140.162ZM15.8306 138.722C16.4186 138.722 16.9706 138.584 17.4866 138.308C18.0026 138.032 18.4166 137.618 18.7286 137.066C19.0526 136.514 19.2146 135.842 19.2146 135.05C19.2146 134.258 19.0586 133.586 18.7466 133.034C18.4346 132.482 18.0266 132.074 17.5226 131.81C17.0186 131.534 16.4726 131.396 15.8846 131.396C15.2846 131.396 14.7326 131.534 14.2286 131.81C13.7366 132.074 13.3406 132.482 13.0406 133.034C12.7406 133.586 12.5906 134.258 12.5906 135.05C12.5906 135.854 12.7346 136.532 13.0226 137.084C13.3226 137.636 13.7186 138.05 14.2106 138.326C14.7026 138.59 15.2426 138.722 15.8306 138.722ZM31.7903 130.136V140H30.1523V138.542C29.8403 139.046 29.4023 139.442 28.8383 139.73C28.2863 140.006 27.6743 140.144 27.0023 140.144C26.2343 140.144 25.5443 139.988 24.9323 139.676C24.3203 139.352 23.8343 138.872 23.4743 138.236C23.1263 137.6 22.9523 136.826 22.9523 135.914V130.136H24.5723V135.698C24.5723 136.67 24.8183 137.42 25.3103 137.948C25.8023 138.464 26.4743 138.722 27.3263 138.722C28.2023 138.722 28.8923 138.452 29.3963 137.912C29.9003 137.372 30.1523 136.586 30.1523 135.554V130.136H31.7903ZM36.1939 131.738C36.4819 131.174 36.8899 130.736 37.4179 130.424C37.9579 130.112 38.6119 129.956 39.3799 129.956V131.648H38.9479C37.1119 131.648 36.1939 132.644 36.1939 134.636V140H34.5559V130.136H36.1939V131.738ZM50.0836 131.486H48.0136V140H46.3756V131.486H45.0976V130.136H46.3756V129.434C46.3756 128.33 46.6576 127.526 47.2216 127.022C47.7976 126.506 48.7156 126.248 49.9756 126.248V127.616C49.2556 127.616 48.7456 127.76 48.4456 128.048C48.1576 128.324 48.0136 128.786 48.0136 129.434V130.136H50.0836V131.486ZM53.6314 131.738C53.9194 131.174 54.3274 130.736 54.8554 130.424C55.3954 130.112 56.0494 129.956 56.8174 129.956V131.648H56.3854C54.5494 131.648 53.6314 132.644 53.6314 134.636V140H51.9934V130.136H53.6314V131.738ZM59.5543 128.534C59.2423 128.534 58.9783 128.426 58.7623 128.21C58.5463 127.994 58.4383 127.73 58.4383 127.418C58.4383 127.106 58.5463 126.842 58.7623 126.626C58.9783 126.41 59.2423 126.302 59.5543 126.302C59.8543 126.302 60.1063 126.41 60.3103 126.626C60.5263 126.842 60.6343 127.106 60.6343 127.418C60.6343 127.73 60.5263 127.994 60.3103 128.21C60.1063 128.426 59.8543 128.534 59.5543 128.534ZM60.3463 130.136V140H58.7083V130.136H60.3463ZM72.138 134.69C72.138 135.002 72.12 135.332 72.084 135.68H64.2C64.26 136.652 64.59 137.414 65.19 137.966C65.802 138.506 66.54 138.776 67.404 138.776C68.112 138.776 68.7 138.614 69.168 138.29C69.648 137.954 69.984 137.51 70.176 136.958H71.94C71.676 137.906 71.148 138.68 70.356 139.28C69.564 139.868 68.58 140.162 67.404 140.162C66.468 140.162 65.628 139.952 64.884 139.532C64.152 139.112 63.576 138.518 63.156 137.75C62.736 136.97 62.526 136.07 62.526 135.05C62.526 134.03 62.73 133.136 63.138 132.368C63.546 131.6 64.116 131.012 64.848 130.604C65.592 130.184 66.444 129.974 67.404 129.974C68.34 129.974 69.168 130.178 69.888 130.586C70.608 130.994 71.16 131.558 71.544 132.278C71.94 132.986 72.138 133.79 72.138 134.69ZM70.446 134.348C70.446 133.724 70.308 133.19 70.032 132.746C69.756 132.29 69.378 131.948 68.898 131.72C68.43 131.48 67.908 131.36 67.332 131.36C66.504 131.36 65.796 131.624 65.208 132.152C64.632 132.68 64.302 133.412 64.218 134.348H70.446ZM79.1061 129.956C80.3061 129.956 81.2781 130.322 82.0221 131.054C82.7661 131.774 83.1381 132.818 83.1381 134.186V140H81.5181V134.42C81.5181 133.436 81.2721 132.686 80.7801 132.17C80.2881 131.642 79.6161 131.378 78.7641 131.378C77.9001 131.378 77.2101 131.648 76.6941 132.188C76.1901 132.728 75.9381 133.514 75.9381 134.546V140H74.3001V130.136H75.9381V131.54C76.2621 131.036 76.7001 130.646 77.2521 130.37C77.8161 130.094 78.4341 129.956 79.1061 129.956ZM85.2017 135.032C85.2017 134.024 85.4057 133.142 85.8137 132.386C86.2217 131.618 86.7797 131.024 87.4877 130.604C88.2077 130.184 89.0117 129.974 89.8997 129.974C90.6677 129.974 91.3817 130.154 92.0417 130.514C92.7017 130.862 93.2057 131.324 93.5537 131.9V126.68H95.2097V140H93.5537V138.146C93.2297 138.734 92.7497 139.22 92.1137 139.604C91.4777 139.976 90.7337 140.162 89.8817 140.162C89.0057 140.162 88.2077 139.946 87.4877 139.514C86.7797 139.082 86.2217 138.476 85.8137 137.696C85.4057 136.916 85.2017 136.028 85.2017 135.032ZM93.5537 135.05C93.5537 134.306 93.4037 133.658 93.1037 133.106C92.8037 132.554 92.3957 132.134 91.8797 131.846C91.3757 131.546 90.8177 131.396 90.2057 131.396C89.5937 131.396 89.0357 131.54 88.5317 131.828C88.0277 132.116 87.6257 132.536 87.3257 133.088C87.0257 133.64 86.8757 134.288 86.8757 135.032C86.8757 135.788 87.0257 136.448 87.3257 137.012C87.6257 137.564 88.0277 137.99 88.5317 138.29C89.0357 138.578 89.5937 138.722 90.2057 138.722C90.8177 138.722 91.3757 138.578 91.8797 138.29C92.3957 137.99 92.8037 137.564 93.1037 137.012C93.4037 136.448 93.5537 135.794 93.5537 135.05ZM101.47 140.162C100.714 140.162 100.036 140.036 99.4358 139.784C98.8358 139.52 98.3618 139.16 98.0138 138.704C97.6658 138.236 97.4738 137.702 97.4378 137.102H99.1298C99.1778 137.594 99.4058 137.996 99.8138 138.308C100.234 138.62 100.78 138.776 101.452 138.776C102.076 138.776 102.568 138.638 102.928 138.362C103.288 138.086 103.468 137.738 103.468 137.318C103.468 136.886 103.276 136.568 102.892 136.364C102.508 136.148 101.914 135.938 101.11 135.734C100.378 135.542 99.7778 135.35 99.3098 135.158C98.8538 134.954 98.4578 134.66 98.1218 134.276C97.7978 133.88 97.6358 133.364 97.6358 132.728C97.6358 132.224 97.7858 131.762 98.0858 131.342C98.3858 130.922 98.8118 130.592 99.3638 130.352C99.9158 130.1 100.546 129.974 101.254 129.974C102.346 129.974 103.228 130.25 103.9 130.802C104.572 131.354 104.932 132.11 104.98 133.07H103.342C103.306 132.554 103.096 132.14 102.712 131.828C102.34 131.516 101.836 131.36 101.2 131.36C100.612 131.36 100.144 131.486 99.7958 131.738C99.4478 131.99 99.2738 132.32 99.2738 132.728C99.2738 133.052 99.3758 133.322 99.5798 133.538C99.7958 133.742 100.06 133.91 100.372 134.042C100.696 134.162 101.14 134.3 101.704 134.456C102.412 134.648 102.988 134.84 103.432 135.032C103.876 135.212 104.254 135.488 104.566 135.86C104.89 136.232 105.058 136.718 105.07 137.318C105.07 137.858 104.92 138.344 104.62 138.776C104.32 139.208 103.894 139.55 103.342 139.802C102.802 140.042 102.178 140.162 101.47 140.162ZM111.569 135.032C111.569 134.024 111.773 133.142 112.181 132.386C112.589 131.618 113.147 131.024 113.855 130.604C114.575 130.184 115.373 129.974 116.249 129.974C117.113 129.974 117.863 130.16 118.499 130.532C119.135 130.904 119.609 131.372 119.921 131.936V130.136H121.577V140H119.921V138.164C119.597 138.74 119.111 139.22 118.463 139.604C117.827 139.976 117.083 140.162 116.231 140.162C115.355 140.162 114.563 139.946 113.855 139.514C113.147 139.082 112.589 138.476 112.181 137.696C111.773 136.916 111.569 136.028 111.569 135.032ZM119.921 135.05C119.921 134.306 119.771 133.658 119.471 133.106C119.171 132.554 118.763 132.134 118.247 131.846C117.743 131.546 117.185 131.396 116.573 131.396C115.961 131.396 115.403 131.54 114.899 131.828C114.395 132.116 113.993 132.536 113.693 133.088C113.393 133.64 113.243 134.288 113.243 135.032C113.243 135.788 113.393 136.448 113.693 137.012C113.993 137.564 114.395 137.99 114.899 138.29C115.403 138.578 115.961 138.722 116.573 138.722C117.185 138.722 117.743 138.578 118.247 138.29C118.763 137.99 119.171 137.564 119.471 137.012C119.771 136.448 119.921 135.794 119.921 135.05ZM129.151 129.956C130.351 129.956 131.323 130.322 132.067 131.054C132.811 131.774 133.183 132.818 133.183 134.186V140H131.563V134.42C131.563 133.436 131.317 132.686 130.825 132.17C130.333 131.642 129.661 131.378 128.809 131.378C127.945 131.378 127.255 131.648 126.739 132.188C126.235 132.728 125.983 133.514 125.983 134.546V140H124.345V130.136H125.983V131.54C126.307 131.036 126.745 130.646 127.297 130.37C127.861 130.094 128.479 129.956 129.151 129.956ZM135.247 135.032C135.247 134.024 135.451 133.142 135.859 132.386C136.267 131.618 136.825 131.024 137.533 130.604C138.253 130.184 139.057 129.974 139.945 129.974C140.713 129.974 141.427 130.154 142.087 130.514C142.747 130.862 143.251 131.324 143.599 131.9V126.68H145.255V140H143.599V138.146C143.275 138.734 142.795 139.22 142.159 139.604C141.523 139.976 140.779 140.162 139.927 140.162C139.051 140.162 138.253 139.946 137.533 139.514C136.825 139.082 136.267 138.476 135.859 137.696C135.451 136.916 135.247 136.028 135.247 135.032ZM143.599 135.05C143.599 134.306 143.449 133.658 143.149 133.106C142.849 132.554 142.441 132.134 141.925 131.846C141.421 131.546 140.863 131.396 140.251 131.396C139.639 131.396 139.081 131.54 138.577 131.828C138.073 132.116 137.671 132.536 137.371 133.088C137.071 133.64 136.921 134.288 136.921 135.032C136.921 135.788 137.071 136.448 137.371 137.012C137.671 137.564 138.073 137.99 138.577 138.29C139.081 138.578 139.639 138.722 140.251 138.722C140.863 138.722 141.421 138.578 141.925 138.29C142.441 137.99 142.849 137.564 143.149 137.012C143.449 136.448 143.599 135.794 143.599 135.05ZM156.314 140.162C155.558 140.162 154.88 140.036 154.28 139.784C153.68 139.52 153.206 139.16 152.858 138.704C152.51 138.236 152.318 137.702 152.282 137.102H153.974C154.022 137.594 154.25 137.996 154.658 138.308C155.078 138.62 155.624 138.776 156.296 138.776C156.92 138.776 157.412 138.638 157.772 138.362C158.132 138.086 158.312 137.738 158.312 137.318C158.312 136.886 158.12 136.568 157.736 136.364C157.352 136.148 156.758 135.938 155.954 135.734C155.222 135.542 154.622 135.35 154.154 135.158C153.698 134.954 153.302 134.66 152.966 134.276C152.642 133.88 152.48 133.364 152.48 132.728C152.48 132.224 152.63 131.762 152.93 131.342C153.23 130.922 153.656 130.592 154.208 130.352C154.76 130.1 155.39 129.974 156.098 129.974C157.19 129.974 158.072 130.25 158.744 130.802C159.416 131.354 159.776 132.11 159.824 133.07H158.186C158.15 132.554 157.94 132.14 157.556 131.828C157.184 131.516 156.68 131.36 156.044 131.36C155.456 131.36 154.988 131.486 154.64 131.738C154.292 131.99 154.118 132.32 154.118 132.728C154.118 133.052 154.22 133.322 154.424 133.538C154.64 133.742 154.904 133.91 155.216 134.042C155.54 134.162 155.984 134.3 156.548 134.456C157.256 134.648 157.832 134.84 158.276 135.032C158.72 135.212 159.098 135.488 159.41 135.86C159.734 136.232 159.902 136.718 159.914 137.318C159.914 137.858 159.764 138.344 159.464 138.776C159.164 139.208 158.738 139.55 158.186 139.802C157.646 140.042 157.022 140.162 156.314 140.162ZM171.226 134.69C171.226 135.002 171.208 135.332 171.172 135.68H163.288C163.348 136.652 163.678 137.414 164.278 137.966C164.89 138.506 165.628 138.776 166.492 138.776C167.2 138.776 167.788 138.614 168.256 138.29C168.736 137.954 169.072 137.51 169.264 136.958H171.028C170.764 137.906 170.236 138.68 169.444 139.28C168.652 139.868 167.668 140.162 166.492 140.162C165.556 140.162 164.716 139.952 163.972 139.532C163.24 139.112 162.664 138.518 162.244 137.75C161.824 136.97 161.614 136.07 161.614 135.05C161.614 134.03 161.818 133.136 162.226 132.368C162.634 131.6 163.204 131.012 163.936 130.604C164.68 130.184 165.532 129.974 166.492 129.974C167.428 129.974 168.256 130.178 168.976 130.586C169.696 130.994 170.248 131.558 170.632 132.278C171.028 132.986 171.226 133.79 171.226 134.69ZM169.534 134.348C169.534 133.724 169.396 133.19 169.12 132.746C168.844 132.29 168.466 131.948 167.986 131.72C167.518 131.48 166.996 131.36 166.42 131.36C165.592 131.36 164.884 131.624 164.296 132.152C163.72 132.68 163.39 133.412 163.306 134.348H169.534ZM182.388 134.69C182.388 135.002 182.37 135.332 182.334 135.68H174.45C174.51 136.652 174.84 137.414 175.44 137.966C176.052 138.506 176.79 138.776 177.654 138.776C178.362 138.776 178.95 138.614 179.418 138.29C179.898 137.954 180.234 137.51 180.426 136.958H182.19C181.926 137.906 181.398 138.68 180.606 139.28C179.814 139.868 178.83 140.162 177.654 140.162C176.718 140.162 175.878 139.952 175.134 139.532C174.402 139.112 173.826 138.518 173.406 137.75C172.986 136.97 172.776 136.07 172.776 135.05C172.776 134.03 172.98 133.136 173.388 132.368C173.796 131.6 174.366 131.012 175.098 130.604C175.842 130.184 176.694 129.974 177.654 129.974C178.59 129.974 179.418 130.178 180.138 130.586C180.858 130.994 181.41 131.558 181.794 132.278C182.19 132.986 182.388 133.79 182.388 134.69ZM180.696 134.348C180.696 133.724 180.558 133.19 180.282 132.746C180.006 132.29 179.628 131.948 179.148 131.72C178.68 131.48 178.158 131.36 177.582 131.36C176.754 131.36 176.046 131.624 175.458 132.152C174.882 132.68 174.552 133.412 174.468 134.348H180.696ZM194.245 129.956C194.989 129.956 195.661 130.118 196.261 130.442C196.861 130.754 197.329 131.228 197.665 131.864C198.013 132.5 198.187 133.274 198.187 134.186V140H196.567V134.42C196.567 133.436 196.321 132.686 195.829 132.17C195.337 131.642 194.665 131.378 193.813 131.378C192.949 131.378 192.259 131.648 191.743 132.188C191.239 132.728 190.987 133.514 190.987 134.546V140H189.349V126.68H190.987V131.54C191.311 131.036 191.755 130.646 192.319 130.37C192.895 130.094 193.537 129.956 194.245 129.956ZM205.165 140.162C204.241 140.162 203.401 139.952 202.645 139.532C201.901 139.112 201.313 138.518 200.881 137.75C200.461 136.97 200.251 136.07 200.251 135.05C200.251 134.042 200.467 133.154 200.899 132.386C201.343 131.606 201.943 131.012 202.699 130.604C203.455 130.184 204.301 129.974 205.237 129.974C206.173 129.974 207.019 130.184 207.775 130.604C208.531 131.012 209.125 131.6 209.557 132.368C210.001 133.136 210.223 134.03 210.223 135.05C210.223 136.07 209.995 136.97 209.539 137.75C209.095 138.518 208.489 139.112 207.721 139.532C206.953 139.952 206.101 140.162 205.165 140.162ZM205.165 138.722C205.753 138.722 206.305 138.584 206.821 138.308C207.337 138.032 207.751 137.618 208.063 137.066C208.387 136.514 208.549 135.842 208.549 135.05C208.549 134.258 208.393 133.586 208.081 133.034C207.769 132.482 207.361 132.074 206.857 131.81C206.353 131.534 205.807 131.396 205.219 131.396C204.619 131.396 204.067 131.534 203.563 131.81C203.071 132.074 202.675 132.482 202.375 133.034C202.075 133.586 201.925 134.258 201.925 135.05C201.925 135.854 202.069 136.532 202.357 137.084C202.657 137.636 203.053 138.05 203.545 138.326C204.037 138.59 204.577 138.722 205.165 138.722ZM225.516 130.136L222.438 140H220.746L218.37 132.17L215.994 140H214.302L211.206 130.136H212.88L215.148 138.416L217.596 130.136H219.27L221.664 138.434L223.896 130.136H225.516ZM240.437 130.136L234.497 144.644H232.805L234.749 139.892L230.771 130.136H232.589L235.685 138.128L238.745 130.136H240.437ZM246.385 140.162C245.461 140.162 244.621 139.952 243.865 139.532C243.121 139.112 242.533 138.518 242.101 137.75C241.681 136.97 241.471 136.07 241.471 135.05C241.471 134.042 241.687 133.154 242.119 132.386C242.563 131.606 243.163 131.012 243.919 130.604C244.675 130.184 245.521 129.974 246.457 129.974C247.393 129.974 248.239 130.184 248.995 130.604C249.751 131.012 250.345 131.6 250.777 132.368C251.221 133.136 251.443 134.03 251.443 135.05C251.443 136.07 251.215 136.97 250.759 137.75C250.315 138.518 249.709 139.112 248.941 139.532C248.173 139.952 247.321 140.162 246.385 140.162ZM246.385 138.722C246.973 138.722 247.525 138.584 248.041 138.308C248.557 138.032 248.971 137.618 249.283 137.066C249.607 136.514 249.769 135.842 249.769 135.05C249.769 134.258 249.613 133.586 249.301 133.034C248.989 132.482 248.581 132.074 248.077 131.81C247.573 131.534 247.027 131.396 246.439 131.396C245.839 131.396 245.287 131.534 244.783 131.81C244.291 132.074 243.895 132.482 243.595 133.034C243.295 133.586 243.145 134.258 243.145 135.05C243.145 135.854 243.289 136.532 243.577 137.084C243.877 137.636 244.273 138.05 244.765 138.326C245.257 138.59 245.797 138.722 246.385 138.722ZM262.345 130.136V140H260.707V138.542C260.395 139.046 259.957 139.442 259.393 139.73C258.841 140.006 258.229 140.144 257.557 140.144C256.789 140.144 256.099 139.988 255.487 139.676C254.875 139.352 254.389 138.872 254.029 138.236C253.681 137.6 253.507 136.826 253.507 135.914V130.136H255.127V135.698C255.127 136.67 255.373 137.42 255.865 137.948C256.357 138.464 257.029 138.722 257.881 138.722C258.757 138.722 259.447 138.452 259.951 137.912C260.455 137.372 260.707 136.586 260.707 135.554V130.136H262.345ZM0.774 163.032C0.774 162.024 0.978 161.142 1.386 160.386C1.794 159.618 2.352 159.024 3.06 158.604C3.78 158.184 4.578 157.974 5.454 157.974C6.318 157.974 7.068 158.16 7.704 158.532C8.34 158.904 8.814 159.372 9.126 159.936V158.136H10.782V168H9.126V166.164C8.802 166.74 8.316 167.22 7.668 167.604C7.032 167.976 6.288 168.162 5.436 168.162C4.56 168.162 3.768 167.946 3.06 167.514C2.352 167.082 1.794 166.476 1.386 165.696C0.978 164.916 0.774 164.028 0.774 163.032ZM9.126 163.05C9.126 162.306 8.976 161.658 8.676 161.106C8.376 160.554 7.968 160.134 7.452 159.846C6.948 159.546 6.39 159.396 5.778 159.396C5.166 159.396 4.608 159.54 4.104 159.828C3.6 160.116 3.198 160.536 2.898 161.088C2.598 161.64 2.448 162.288 2.448 163.032C2.448 163.788 2.598 164.448 2.898 165.012C3.198 165.564 3.6 165.99 4.104 166.29C4.608 166.578 5.166 166.722 5.778 166.722C6.39 166.722 6.948 166.578 7.452 166.29C7.968 165.99 8.376 165.564 8.676 165.012C8.976 164.448 9.126 163.794 9.126 163.05ZM15.1881 154.68V168H13.5501V154.68H15.1881ZM19.6178 154.68V168H17.9798V154.68H19.6178ZM26.5963 163.05C26.5963 162.03 26.8003 161.142 27.2083 160.386C27.6163 159.618 28.1803 159.024 28.9003 158.604C29.6323 158.184 30.4663 157.974 31.4023 157.974C32.6143 157.974 33.6103 158.268 34.3903 158.856C35.1823 159.444 35.7043 160.26 35.9563 161.304H34.1923C34.0243 160.704 33.6943 160.23 33.2023 159.882C32.7223 159.534 32.1223 159.36 31.4023 159.36C30.4663 159.36 29.7103 159.684 29.1343 160.332C28.5583 160.968 28.2703 161.874 28.2703 163.05C28.2703 164.238 28.5583 165.156 29.1343 165.804C29.7103 166.452 30.4663 166.776 31.4023 166.776C32.1223 166.776 32.7223 166.608 33.2023 166.272C33.6823 165.936 34.0123 165.456 34.1923 164.832H35.9563C35.6923 165.84 35.1643 166.65 34.3723 167.262C33.5803 167.862 32.5903 168.162 31.4023 168.162C30.4663 168.162 29.6323 167.952 28.9003 167.532C28.1803 167.112 27.6163 166.518 27.2083 165.75C26.8003 164.982 26.5963 164.082 26.5963 163.05ZM42.4439 168.162C41.5199 168.162 40.6799 167.952 39.9239 167.532C39.1799 167.112 38.5919 166.518 38.1599 165.75C37.7399 164.97 37.5299 164.07 37.5299 163.05C37.5299 162.042 37.7459 161.154 38.1779 160.386C38.6219 159.606 39.2219 159.012 39.9779 158.604C40.7339 158.184 41.5799 157.974 42.5159 157.974C43.4519 157.974 44.2979 158.184 45.0539 158.604C45.8099 159.012 46.4039 159.6 46.8359 160.368C47.2799 161.136 47.5019 162.03 47.5019 163.05C47.5019 164.07 47.2739 164.97 46.8179 165.75C46.3739 166.518 45.7679 167.112 44.9999 167.532C44.2319 167.952 43.3799 168.162 42.4439 168.162ZM42.4439 166.722C43.0319 166.722 43.5839 166.584 44.0999 166.308C44.6159 166.032 45.0299 165.618 45.3419 165.066C45.6659 164.514 45.8279 163.842 45.8279 163.05C45.8279 162.258 45.6719 161.586 45.3599 161.034C45.0479 160.482 44.6399 160.074 44.1359 159.81C43.6319 159.534 43.0859 159.396 42.4979 159.396C41.8979 159.396 41.3459 159.534 40.8419 159.81C40.3499 160.074 39.9539 160.482 39.6539 161.034C39.3539 161.586 39.2039 162.258 39.2039 163.05C39.2039 163.854 39.3479 164.532 39.6359 165.084C39.9359 165.636 40.3319 166.05 40.8239 166.326C41.3159 166.59 41.8559 166.722 42.4439 166.722ZM61.5175 157.956C62.2855 157.956 62.9695 158.118 63.5695 158.442C64.1695 158.754 64.6435 159.228 64.9915 159.864C65.3395 160.5 65.5135 161.274 65.5135 162.186V168H63.8935V162.42C63.8935 161.436 63.6475 160.686 63.1555 160.17C62.6755 159.642 62.0215 159.378 61.1935 159.378C60.3415 159.378 59.6635 159.654 59.1595 160.206C58.6555 160.746 58.4035 161.532 58.4035 162.564V168H56.7835V162.42C56.7835 161.436 56.5375 160.686 56.0455 160.17C55.5655 159.642 54.9115 159.378 54.0835 159.378C53.2315 159.378 52.5535 159.654 52.0495 160.206C51.5455 160.746 51.2935 161.532 51.2935 162.564V168H49.6555V158.136H51.2935V159.558C51.6175 159.042 52.0495 158.646 52.5895 158.37C53.1415 158.094 53.7475 157.956 54.4075 157.956C55.2355 157.956 55.9675 158.142 56.6035 158.514C57.2395 158.886 57.7135 159.432 58.0255 160.152C58.3015 159.456 58.7575 158.916 59.3935 158.532C60.0295 158.148 60.7375 157.956 61.5175 157.956ZM69.8385 159.954C70.1625 159.39 70.6425 158.922 71.2785 158.55C71.9265 158.166 72.6765 157.974 73.5285 157.974C74.4045 157.974 75.1965 158.184 75.9045 158.604C76.6245 159.024 77.1885 159.618 77.5965 160.386C78.0045 161.142 78.2085 162.024 78.2085 163.032C78.2085 164.028 78.0045 164.916 77.5965 165.696C77.1885 166.476 76.6245 167.082 75.9045 167.514C75.1965 167.946 74.4045 168.162 73.5285 168.162C72.6885 168.162 71.9445 167.976 71.2965 167.604C70.6605 167.22 70.1745 166.746 69.8385 166.182V172.68H68.2005V158.136H69.8385V159.954ZM76.5345 163.032C76.5345 162.288 76.3845 161.64 76.0845 161.088C75.7845 160.536 75.3765 160.116 74.8605 159.828C74.3565 159.54 73.7985 159.396 73.1865 159.396C72.5865 159.396 72.0285 159.546 71.5125 159.846C71.0085 160.134 70.6005 160.56 70.2885 161.124C69.9885 161.676 69.8385 162.318 69.8385 163.05C69.8385 163.794 69.9885 164.448 70.2885 165.012C70.6005 165.564 71.0085 165.99 71.5125 166.29C72.0285 166.578 72.5865 166.722 73.1865 166.722C73.7985 166.722 74.3565 166.578 74.8605 166.29C75.3765 165.99 75.7845 165.564 76.0845 165.012C76.3845 164.448 76.5345 163.788 76.5345 163.032ZM79.7525 163.032C79.7525 162.024 79.9565 161.142 80.3645 160.386C80.7725 159.618 81.3305 159.024 82.0385 158.604C82.7585 158.184 83.5565 157.974 84.4325 157.974C85.2965 157.974 86.0465 158.16 86.6825 158.532C87.3185 158.904 87.7925 159.372 88.1045 159.936V158.136H89.7605V168H88.1045V166.164C87.7805 166.74 87.2945 167.22 86.6465 167.604C86.0105 167.976 85.2665 168.162 84.4145 168.162C83.5385 168.162 82.7465 167.946 82.0385 167.514C81.3305 167.082 80.7725 166.476 80.3645 165.696C79.9565 164.916 79.7525 164.028 79.7525 163.032ZM88.1045 163.05C88.1045 162.306 87.9545 161.658 87.6545 161.106C87.3545 160.554 86.9465 160.134 86.4305 159.846C85.9265 159.546 85.3685 159.396 84.7565 159.396C84.1445 159.396 83.5865 159.54 83.0825 159.828C82.5785 160.116 82.1765 160.536 81.8765 161.088C81.5765 161.64 81.4265 162.288 81.4265 163.032C81.4265 163.788 81.5765 164.448 81.8765 165.012C82.1765 165.564 82.5785 165.99 83.0825 166.29C83.5865 166.578 84.1445 166.722 84.7565 166.722C85.3685 166.722 85.9265 166.578 86.4305 166.29C86.9465 165.99 87.3545 165.564 87.6545 165.012C87.9545 164.448 88.1045 163.794 88.1045 163.05ZM94.1666 159.738C94.4546 159.174 94.8626 158.736 95.3906 158.424C95.9306 158.112 96.5846 157.956 97.3526 157.956V159.648H96.9206C95.0846 159.648 94.1666 160.644 94.1666 162.636V168H92.5286V158.136H94.1666V159.738ZM108.243 162.69C108.243 163.002 108.225 163.332 108.189 163.68H100.305C100.365 164.652 100.695 165.414 101.295 165.966C101.907 166.506 102.645 166.776 103.509 166.776C104.217 166.776 104.805 166.614 105.273 166.29C105.753 165.954 106.089 165.51 106.281 164.958H108.045C107.781 165.906 107.253 166.68 106.461 167.28C105.669 167.868 104.685 168.162 103.509 168.162C102.573 168.162 101.733 167.952 100.989 167.532C100.257 167.112 99.6814 166.518 99.2614 165.75C98.8414 164.97 98.6314 164.07 98.6314 163.05C98.6314 162.03 98.8354 161.136 99.2434 160.368C99.6514 159.6 100.221 159.012 100.953 158.604C101.697 158.184 102.549 157.974 103.509 157.974C104.445 157.974 105.273 158.178 105.993 158.586C106.713 158.994 107.265 159.558 107.649 160.278C108.045 160.986 108.243 161.79 108.243 162.69ZM106.551 162.348C106.551 161.724 106.413 161.19 106.137 160.746C105.861 160.29 105.483 159.948 105.003 159.72C104.535 159.48 104.013 159.36 103.437 159.36C102.609 159.36 101.901 159.624 101.313 160.152C100.737 160.68 100.407 161.412 100.323 162.348H106.551Z" fill="#17181A"/>
<defs>
<clipPath id="clip0_1_844">
<rect width="40" height="40" fill="white"/>
</clipPath>
</defs>
</svg>
