<svg width="283" height="148" viewBox="0 0 283 148" fill="none" xmlns="http://www.w3.org/2000/svg">
<g clip-path="url(#clip0_1_823)">
<path d="M38.5714 30V35.7143C38.5714 36.472 38.2704 37.1988 37.7346 37.7346C37.1988 38.2704 36.472 38.5714 35.7143 38.5714H30" stroke="#FF9752" stroke-width="3" stroke-linecap="round" stroke-linejoin="round"/>
<path d="M30 1.42859H35.7143C36.472 1.42859 37.1988 1.72961 37.7346 2.26543C38.2704 2.80124 38.5714 3.52797 38.5714 4.28573V10" stroke="#FF9752" stroke-width="3" stroke-linecap="round" stroke-linejoin="round"/>
<path d="M1.42871 10V4.28573C1.42871 3.52797 1.72973 2.80124 2.26555 2.26543C2.80137 1.72961 3.52809 1.42859 4.28585 1.42859H10.0001" stroke="#FF9752" stroke-width="3" stroke-linecap="round" stroke-linejoin="round"/>
<path d="M10.0001 38.5714H4.28585C3.52809 38.5714 2.80137 38.2704 2.26555 37.7346C1.72973 37.1988 1.42871 36.472 1.42871 35.7143V30" stroke="#FF9752" stroke-width="3" stroke-linecap="round" stroke-linejoin="round"/>
<path d="M19.9999 18.5714C23.1558 18.5714 25.7142 16.013 25.7142 12.8571C25.7142 9.70119 23.1558 7.14282 19.9999 7.14282C16.844 7.14282 14.2856 9.70119 14.2856 12.8571C14.2856 16.013 16.844 18.5714 19.9999 18.5714Z" stroke="#FF9752" stroke-width="3" stroke-linecap="round" stroke-linejoin="round"/>
<path d="M29.0288 30C28.2163 28.2938 26.937 26.8528 25.3391 25.8438C23.7411 24.8349 21.89 24.2994 20.0003 24.2994C18.1105 24.2994 16.2594 24.8349 14.6614 25.8438C13.0635 26.8528 11.7842 28.2938 10.9717 30" stroke="#FF9752" stroke-width="3" stroke-linecap="round" stroke-linejoin="round"/>
</g>
<path d="M3.024 71.454V84H1.386V71.454H3.024ZM17.6777 73.956C18.4457 73.956 19.1297 74.118 19.7297 74.442C20.3297 74.754 20.8037 75.228 21.1517 75.864C21.4997 76.5 21.6737 77.274 21.6737 78.186V84H20.0537V78.42C20.0537 77.436 19.8077 76.686 19.3157 76.17C18.8357 75.642 18.1817 75.378 17.3537 75.378C16.5017 75.378 15.8237 75.654 15.3197 76.206C14.8157 76.746 14.5637 77.532 14.5637 78.564V84H12.9437V78.42C12.9437 77.436 12.6977 76.686 12.2057 76.17C11.7257 75.642 11.0717 75.378 10.2437 75.378C9.39169 75.378 8.71369 75.654 8.20969 76.206C7.70569 76.746 7.45369 77.532 7.45369 78.564V84H5.81569V74.136H7.45369V75.558C7.77769 75.042 8.20969 74.646 8.74969 74.37C9.30169 74.094 9.90769 73.956 10.5677 73.956C11.3957 73.956 12.1277 74.142 12.7637 74.514C13.3997 74.886 13.8737 75.432 14.1857 76.152C14.4617 75.456 14.9177 74.916 15.5537 74.532C16.1897 74.148 16.8977 73.956 17.6777 73.956ZM25.9986 75.954C26.3226 75.39 26.8026 74.922 27.4386 74.55C28.0866 74.166 28.8366 73.974 29.6886 73.974C30.5646 73.974 31.3566 74.184 32.0646 74.604C32.7846 75.024 33.3486 75.618 33.7566 76.386C34.1646 77.142 34.3686 78.024 34.3686 79.032C34.3686 80.028 34.1646 80.916 33.7566 81.696C33.3486 82.476 32.7846 83.082 32.0646 83.514C31.3566 83.946 30.5646 84.162 29.6886 84.162C28.8486 84.162 28.1046 83.976 27.4566 83.604C26.8206 83.22 26.3346 82.746 25.9986 82.182V88.68H24.3606V74.136H25.9986V75.954ZM32.6946 79.032C32.6946 78.288 32.5446 77.64 32.2446 77.088C31.9446 76.536 31.5366 76.116 31.0206 75.828C30.5166 75.54 29.9586 75.396 29.3466 75.396C28.7466 75.396 28.1886 75.546 27.6726 75.846C27.1686 76.134 26.7606 76.56 26.4486 77.124C26.1486 77.676 25.9986 78.318 25.9986 79.05C25.9986 79.794 26.1486 80.448 26.4486 81.012C26.7606 81.564 27.1686 81.99 27.6726 82.29C28.1886 82.578 28.7466 82.722 29.3466 82.722C29.9586 82.722 30.5166 82.578 31.0206 82.29C31.5366 81.99 31.9446 81.564 32.2446 81.012C32.5446 80.448 32.6946 79.788 32.6946 79.032ZM38.1627 75.738C38.4507 75.174 38.8587 74.736 39.3867 74.424C39.9267 74.112 40.5807 73.956 41.3487 73.956V75.648H40.9167C39.0807 75.648 38.1627 76.644 38.1627 78.636V84H36.5247V74.136H38.1627V75.738ZM47.5415 84.162C46.6175 84.162 45.7775 83.952 45.0215 83.532C44.2775 83.112 43.6895 82.518 43.2575 81.75C42.8375 80.97 42.6275 80.07 42.6275 79.05C42.6275 78.042 42.8435 77.154 43.2755 76.386C43.7195 75.606 44.3195 75.012 45.0755 74.604C45.8315 74.184 46.6775 73.974 47.6135 73.974C48.5495 73.974 49.3955 74.184 50.1515 74.604C50.9075 75.012 51.5015 75.6 51.9335 76.368C52.3775 77.136 52.5995 78.03 52.5995 79.05C52.5995 80.07 52.3715 80.97 51.9155 81.75C51.4715 82.518 50.8655 83.112 50.0975 83.532C49.3295 83.952 48.4775 84.162 47.5415 84.162ZM47.5415 82.722C48.1295 82.722 48.6815 82.584 49.1975 82.308C49.7135 82.032 50.1275 81.618 50.4395 81.066C50.7635 80.514 50.9255 79.842 50.9255 79.05C50.9255 78.258 50.7695 77.586 50.4575 77.034C50.1455 76.482 49.7375 76.074 49.2335 75.81C48.7295 75.534 48.1835 75.396 47.5955 75.396C46.9955 75.396 46.4435 75.534 45.9395 75.81C45.4475 76.074 45.0515 76.482 44.7515 77.034C44.4515 77.586 44.3015 78.258 44.3015 79.05C44.3015 79.854 44.4455 80.532 44.7335 81.084C45.0335 81.636 45.4295 82.05 45.9215 82.326C46.4135 82.59 46.9535 82.722 47.5415 82.722ZM58.4252 82.488L61.4852 74.136H63.2312L59.3612 84H57.4532L53.5832 74.136H55.3472L58.4252 82.488ZM73.843 78.69C73.843 79.002 73.825 79.332 73.789 79.68H65.905C65.965 80.652 66.295 81.414 66.895 81.966C67.507 82.506 68.245 82.776 69.109 82.776C69.817 82.776 70.405 82.614 70.873 82.29C71.353 81.954 71.689 81.51 71.881 80.958H73.645C73.381 81.906 72.853 82.68 72.061 83.28C71.269 83.868 70.285 84.162 69.109 84.162C68.173 84.162 67.333 83.952 66.589 83.532C65.857 83.112 65.281 82.518 64.861 81.75C64.441 80.97 64.231 80.07 64.231 79.05C64.231 78.03 64.435 77.136 64.843 76.368C65.251 75.6 65.821 75.012 66.553 74.604C67.297 74.184 68.149 73.974 69.109 73.974C70.045 73.974 70.873 74.178 71.593 74.586C72.313 74.994 72.865 75.558 73.249 76.278C73.645 76.986 73.843 77.79 73.843 78.69ZM72.151 78.348C72.151 77.724 72.013 77.19 71.737 76.746C71.461 76.29 71.083 75.948 70.603 75.72C70.135 75.48 69.613 75.36 69.037 75.36C68.209 75.36 67.501 75.624 66.913 76.152C66.337 76.68 66.007 77.412 65.923 78.348H72.151ZM89.3 74.136L83.36 88.644H81.668L83.612 83.892L79.634 74.136H81.452L84.548 82.128L87.608 74.136H89.3ZM95.2485 84.162C94.3245 84.162 93.4845 83.952 92.7285 83.532C91.9845 83.112 91.3965 82.518 90.9645 81.75C90.5445 80.97 90.3345 80.07 90.3345 79.05C90.3345 78.042 90.5505 77.154 90.9825 76.386C91.4265 75.606 92.0265 75.012 92.7825 74.604C93.5385 74.184 94.3845 73.974 95.3205 73.974C96.2565 73.974 97.1025 74.184 97.8585 74.604C98.6145 75.012 99.2085 75.6 99.6405 76.368C100.085 77.136 100.307 78.03 100.307 79.05C100.307 80.07 100.079 80.97 99.6225 81.75C99.1785 82.518 98.5725 83.112 97.8045 83.532C97.0365 83.952 96.1845 84.162 95.2485 84.162ZM95.2485 82.722C95.8365 82.722 96.3885 82.584 96.9045 82.308C97.4205 82.032 97.8345 81.618 98.1465 81.066C98.4705 80.514 98.6325 79.842 98.6325 79.05C98.6325 78.258 98.4765 77.586 98.1645 77.034C97.8525 76.482 97.4445 76.074 96.9405 75.81C96.4365 75.534 95.8905 75.396 95.3025 75.396C94.7025 75.396 94.1505 75.534 93.6465 75.81C93.1545 76.074 92.7585 76.482 92.4585 77.034C92.1585 77.586 92.0085 78.258 92.0085 79.05C92.0085 79.854 92.1525 80.532 92.4405 81.084C92.7405 81.636 93.1365 82.05 93.6285 82.326C94.1205 82.59 94.6605 82.722 95.2485 82.722ZM111.208 74.136V84H109.57V82.542C109.258 83.046 108.82 83.442 108.256 83.73C107.704 84.006 107.092 84.144 106.42 84.144C105.652 84.144 104.962 83.988 104.35 83.676C103.738 83.352 103.252 82.872 102.892 82.236C102.544 81.6 102.37 80.826 102.37 79.914V74.136H103.99V79.698C103.99 80.67 104.236 81.42 104.728 81.948C105.22 82.464 105.892 82.722 106.744 82.722C107.62 82.722 108.31 82.452 108.814 81.912C109.318 81.372 109.57 80.586 109.57 79.554V74.136H111.208ZM115.612 75.738C115.9 75.174 116.308 74.736 116.836 74.424C117.376 74.112 118.03 73.956 118.798 73.956V75.648H118.366C116.53 75.648 115.612 76.644 115.612 78.636V84H113.974V74.136H115.612V75.738ZM134.488 78.69C134.488 79.002 134.47 79.332 134.434 79.68H126.55C126.61 80.652 126.94 81.414 127.54 81.966C128.152 82.506 128.89 82.776 129.754 82.776C130.462 82.776 131.05 82.614 131.518 82.29C131.998 81.954 132.334 81.51 132.526 80.958H134.29C134.026 81.906 133.498 82.68 132.706 83.28C131.914 83.868 130.93 84.162 129.754 84.162C128.818 84.162 127.978 83.952 127.234 83.532C126.502 83.112 125.926 82.518 125.506 81.75C125.086 80.97 124.876 80.07 124.876 79.05C124.876 78.03 125.08 77.136 125.488 76.368C125.896 75.6 126.466 75.012 127.198 74.604C127.942 74.184 128.794 73.974 129.754 73.974C130.69 73.974 131.518 74.178 132.238 74.586C132.958 74.994 133.51 75.558 133.894 76.278C134.29 76.986 134.488 77.79 134.488 78.69ZM132.796 78.348C132.796 77.724 132.658 77.19 132.382 76.746C132.106 76.29 131.728 75.948 131.248 75.72C130.78 75.48 130.258 75.36 129.682 75.36C128.854 75.36 128.146 75.624 127.558 76.152C126.982 76.68 126.652 77.412 126.568 78.348H132.796ZM141.456 73.956C142.656 73.956 143.628 74.322 144.372 75.054C145.116 75.774 145.488 76.818 145.488 78.186V84H143.868V78.42C143.868 77.436 143.622 76.686 143.13 76.17C142.638 75.642 141.966 75.378 141.114 75.378C140.25 75.378 139.56 75.648 139.044 76.188C138.54 76.728 138.288 77.514 138.288 78.546V84H136.65V74.136H138.288V75.54C138.612 75.036 139.05 74.646 139.602 74.37C140.166 74.094 140.784 73.956 141.456 73.956ZM150.161 75.486V81.3C150.161 81.78 150.263 82.122 150.467 82.326C150.671 82.518 151.025 82.614 151.529 82.614H152.735V84H151.259C150.347 84 149.663 83.79 149.207 83.37C148.751 82.95 148.523 82.26 148.523 81.3V75.486H147.245V74.136H148.523V71.652H150.161V74.136H152.735V75.486H150.161ZM156.358 75.738C156.646 75.174 157.054 74.736 157.582 74.424C158.122 74.112 158.776 73.956 159.544 73.956V75.648H159.112C157.276 75.648 156.358 76.644 156.358 78.636V84H154.72V74.136H156.358V75.738ZM170.435 78.69C170.435 79.002 170.417 79.332 170.381 79.68H162.497C162.557 80.652 162.887 81.414 163.487 81.966C164.099 82.506 164.837 82.776 165.701 82.776C166.409 82.776 166.997 82.614 167.465 82.29C167.945 81.954 168.281 81.51 168.473 80.958H170.237C169.973 81.906 169.445 82.68 168.653 83.28C167.861 83.868 166.877 84.162 165.701 84.162C164.765 84.162 163.925 83.952 163.181 83.532C162.449 83.112 161.873 82.518 161.453 81.75C161.033 80.97 160.823 80.07 160.823 79.05C160.823 78.03 161.027 77.136 161.435 76.368C161.843 75.6 162.413 75.012 163.145 74.604C163.889 74.184 164.741 73.974 165.701 73.974C166.637 73.974 167.465 74.178 168.185 74.586C168.905 74.994 169.457 75.558 169.841 76.278C170.237 76.986 170.435 77.79 170.435 78.69ZM168.743 78.348C168.743 77.724 168.605 77.19 168.329 76.746C168.053 76.29 167.675 75.948 167.195 75.72C166.727 75.48 166.205 75.36 165.629 75.36C164.801 75.36 164.093 75.624 163.505 76.152C162.929 76.68 162.599 77.412 162.515 78.348H168.743ZM174.235 75.954C174.559 75.39 175.039 74.922 175.675 74.55C176.323 74.166 177.073 73.974 177.925 73.974C178.801 73.974 179.593 74.184 180.301 74.604C181.021 75.024 181.585 75.618 181.993 76.386C182.401 77.142 182.605 78.024 182.605 79.032C182.605 80.028 182.401 80.916 181.993 81.696C181.585 82.476 181.021 83.082 180.301 83.514C179.593 83.946 178.801 84.162 177.925 84.162C177.085 84.162 176.341 83.976 175.693 83.604C175.057 83.22 174.571 82.746 174.235 82.182V88.68H172.597V74.136H174.235V75.954ZM180.931 79.032C180.931 78.288 180.781 77.64 180.481 77.088C180.181 76.536 179.773 76.116 179.257 75.828C178.753 75.54 178.195 75.396 177.583 75.396C176.983 75.396 176.425 75.546 175.909 75.846C175.405 76.134 174.997 76.56 174.685 77.124C174.385 77.676 174.235 78.318 174.235 79.05C174.235 79.794 174.385 80.448 174.685 81.012C174.997 81.564 175.405 81.99 175.909 82.29C176.425 82.578 176.983 82.722 177.583 82.722C178.195 82.722 178.753 82.578 179.257 82.29C179.773 81.99 180.181 81.564 180.481 81.012C180.781 80.448 180.931 79.788 180.931 79.032ZM186.399 75.738C186.687 75.174 187.095 74.736 187.623 74.424C188.163 74.112 188.817 73.956 189.585 73.956V75.648H189.153C187.317 75.648 186.399 76.644 186.399 78.636V84H184.761V74.136H186.399V75.738ZM200.476 78.69C200.476 79.002 200.458 79.332 200.422 79.68H192.538C192.598 80.652 192.928 81.414 193.528 81.966C194.14 82.506 194.878 82.776 195.742 82.776C196.45 82.776 197.038 82.614 197.506 82.29C197.986 81.954 198.322 81.51 198.514 80.958H200.278C200.014 81.906 199.486 82.68 198.694 83.28C197.902 83.868 196.918 84.162 195.742 84.162C194.806 84.162 193.966 83.952 193.222 83.532C192.49 83.112 191.914 82.518 191.494 81.75C191.074 80.97 190.864 80.07 190.864 79.05C190.864 78.03 191.068 77.136 191.476 76.368C191.884 75.6 192.454 75.012 193.186 74.604C193.93 74.184 194.782 73.974 195.742 73.974C196.678 73.974 197.506 74.178 198.226 74.586C198.946 74.994 199.498 75.558 199.882 76.278C200.278 76.986 200.476 77.79 200.476 78.69ZM198.784 78.348C198.784 77.724 198.646 77.19 198.37 76.746C198.094 76.29 197.716 75.948 197.236 75.72C196.768 75.48 196.246 75.36 195.67 75.36C194.842 75.36 194.134 75.624 193.546 76.152C192.97 76.68 192.64 77.412 192.556 78.348H198.784ZM207.444 73.956C208.644 73.956 209.616 74.322 210.36 75.054C211.104 75.774 211.476 76.818 211.476 78.186V84H209.856V78.42C209.856 77.436 209.61 76.686 209.118 76.17C208.626 75.642 207.954 75.378 207.102 75.378C206.238 75.378 205.548 75.648 205.032 76.188C204.528 76.728 204.276 77.514 204.276 78.546V84H202.638V74.136H204.276V75.54C204.6 75.036 205.038 74.646 205.59 74.37C206.154 74.094 206.772 73.956 207.444 73.956ZM223.152 78.69C223.152 79.002 223.134 79.332 223.098 79.68H215.214C215.274 80.652 215.604 81.414 216.204 81.966C216.816 82.506 217.554 82.776 218.418 82.776C219.126 82.776 219.714 82.614 220.182 82.29C220.662 81.954 220.998 81.51 221.19 80.958H222.954C222.69 81.906 222.162 82.68 221.37 83.28C220.578 83.868 219.594 84.162 218.418 84.162C217.482 84.162 216.642 83.952 215.898 83.532C215.166 83.112 214.59 82.518 214.17 81.75C213.75 80.97 213.54 80.07 213.54 79.05C213.54 78.03 213.744 77.136 214.152 76.368C214.56 75.6 215.13 75.012 215.862 74.604C216.606 74.184 217.458 73.974 218.418 73.974C219.354 73.974 220.182 74.178 220.902 74.586C221.622 74.994 222.174 75.558 222.558 76.278C222.954 76.986 223.152 77.79 223.152 78.69ZM221.46 78.348C221.46 77.724 221.322 77.19 221.046 76.746C220.77 76.29 220.392 75.948 219.912 75.72C219.444 75.48 218.922 75.36 218.346 75.36C217.518 75.36 216.81 75.624 216.222 76.152C215.646 76.68 215.316 77.412 215.232 78.348H221.46ZM234.062 74.136V84H232.424V82.542C232.112 83.046 231.674 83.442 231.11 83.73C230.558 84.006 229.946 84.144 229.274 84.144C228.506 84.144 227.816 83.988 227.204 83.676C226.592 83.352 226.106 82.872 225.746 82.236C225.398 81.6 225.224 80.826 225.224 79.914V74.136H226.844V79.698C226.844 80.67 227.09 81.42 227.582 81.948C228.074 82.464 228.746 82.722 229.598 82.722C230.474 82.722 231.164 82.452 231.668 81.912C232.172 81.372 232.424 80.586 232.424 79.554V74.136H234.062ZM238.465 75.738C238.753 75.174 239.161 74.736 239.689 74.424C240.229 74.112 240.883 73.956 241.651 73.956V75.648H241.219C239.383 75.648 238.465 76.644 238.465 78.636V84H236.827V74.136H238.465V75.738ZM244.388 72.534C244.076 72.534 243.812 72.426 243.596 72.21C243.38 71.994 243.272 71.73 243.272 71.418C243.272 71.106 243.38 70.842 243.596 70.626C243.812 70.41 244.076 70.302 244.388 70.302C244.688 70.302 244.94 70.41 245.144 70.626C245.36 70.842 245.468 71.106 245.468 71.418C245.468 71.73 245.36 71.994 245.144 72.21C244.94 72.426 244.688 72.534 244.388 72.534ZM245.18 74.136V84H243.542V74.136H245.18ZM247.36 79.032C247.36 78.024 247.564 77.142 247.972 76.386C248.38 75.618 248.938 75.024 249.646 74.604C250.366 74.184 251.164 73.974 252.04 73.974C252.904 73.974 253.654 74.16 254.29 74.532C254.926 74.904 255.4 75.372 255.712 75.936V74.136H257.368V84H255.712V82.164C255.388 82.74 254.902 83.22 254.254 83.604C253.618 83.976 252.874 84.162 252.022 84.162C251.146 84.162 250.354 83.946 249.646 83.514C248.938 83.082 248.38 82.476 247.972 81.696C247.564 80.916 247.36 80.028 247.36 79.032ZM255.712 79.05C255.712 78.306 255.562 77.658 255.262 77.106C254.962 76.554 254.554 76.134 254.038 75.846C253.534 75.546 252.976 75.396 252.364 75.396C251.752 75.396 251.194 75.54 250.69 75.828C250.186 76.116 249.784 76.536 249.484 77.088C249.184 77.64 249.034 78.288 249.034 79.032C249.034 79.788 249.184 80.448 249.484 81.012C249.784 81.564 250.186 81.99 250.69 82.29C251.194 82.578 251.752 82.722 252.364 82.722C252.976 82.722 253.534 82.578 254.038 82.29C254.554 81.99 254.962 81.564 255.262 81.012C255.562 80.448 255.712 79.794 255.712 79.05ZM261.774 70.68V84H260.136V70.68H261.774ZM4.878 112.162C4.122 112.162 3.444 112.036 2.844 111.784C2.244 111.52 1.77 111.16 1.422 110.704C1.074 110.236 0.882 109.702 0.846 109.102H2.538C2.586 109.594 2.814 109.996 3.222 110.308C3.642 110.62 4.188 110.776 4.86 110.776C5.484 110.776 5.976 110.638 6.336 110.362C6.696 110.086 6.876 109.738 6.876 109.318C6.876 108.886 6.684 108.568 6.3 108.364C5.916 108.148 5.322 107.938 4.518 107.734C3.786 107.542 3.186 107.35 2.718 107.158C2.262 106.954 1.866 106.66 1.53 106.276C1.206 105.88 1.044 105.364 1.044 104.728C1.044 104.224 1.194 103.762 1.494 103.342C1.794 102.922 2.22 102.592 2.772 102.352C3.324 102.1 3.954 101.974 4.662 101.974C5.754 101.974 6.636 102.25 7.308 102.802C7.98 103.354 8.34 104.11 8.388 105.07H6.75C6.714 104.554 6.504 104.14 6.12 103.828C5.748 103.516 5.244 103.36 4.608 103.36C4.02 103.36 3.552 103.486 3.204 103.738C2.856 103.99 2.682 104.32 2.682 104.728C2.682 105.052 2.784 105.322 2.988 105.538C3.204 105.742 3.468 105.91 3.78 106.042C4.104 106.162 4.548 106.3 5.112 106.456C5.82 106.648 6.396 106.84 6.84 107.032C7.284 107.212 7.662 107.488 7.974 107.86C8.298 108.232 8.466 108.718 8.478 109.318C8.478 109.858 8.328 110.344 8.028 110.776C7.728 111.208 7.302 111.55 6.75 111.802C6.21 112.042 5.586 112.162 4.878 112.162ZM16.2983 112L12.4283 107.644V112H10.7903V98.68H12.4283V106.51L16.2263 102.136H18.5123L13.8683 107.05L18.5303 112H16.2983ZM20.9 100.534C20.588 100.534 20.324 100.426 20.108 100.21C19.892 99.994 19.784 99.73 19.784 99.418C19.784 99.106 19.892 98.842 20.108 98.626C20.324 98.41 20.588 98.302 20.9 98.302C21.2 98.302 21.452 98.41 21.656 98.626C21.872 98.842 21.98 99.106 21.98 99.418C21.98 99.73 21.872 99.994 21.656 100.21C21.452 100.426 21.2 100.534 20.9 100.534ZM21.692 102.136V112H20.054V102.136H21.692ZM26.1217 98.68V112H24.4837V98.68H26.1217ZM30.5513 98.68V112H28.9133V98.68H30.5513ZM36.835 112.162C36.079 112.162 35.401 112.036 34.801 111.784C34.201 111.52 33.727 111.16 33.379 110.704C33.031 110.236 32.839 109.702 32.803 109.102H34.495C34.543 109.594 34.771 109.996 35.179 110.308C35.599 110.62 36.145 110.776 36.817 110.776C37.441 110.776 37.933 110.638 38.293 110.362C38.653 110.086 38.833 109.738 38.833 109.318C38.833 108.886 38.641 108.568 38.257 108.364C37.873 108.148 37.279 107.938 36.475 107.734C35.743 107.542 35.143 107.35 34.675 107.158C34.219 106.954 33.823 106.66 33.487 106.276C33.163 105.88 33.001 105.364 33.001 104.728C33.001 104.224 33.151 103.762 33.451 103.342C33.751 102.922 34.177 102.592 34.729 102.352C35.281 102.1 35.911 101.974 36.619 101.974C37.711 101.974 38.593 102.25 39.265 102.802C39.937 103.354 40.297 104.11 40.345 105.07H38.707C38.671 104.554 38.461 104.14 38.077 103.828C37.705 103.516 37.201 103.36 36.565 103.36C35.977 103.36 35.509 103.486 35.161 103.738C34.813 103.99 34.639 104.32 34.639 104.728C34.639 105.052 34.741 105.322 34.945 105.538C35.161 105.742 35.425 105.91 35.737 106.042C36.061 106.162 36.505 106.3 37.069 106.456C37.777 106.648 38.353 106.84 38.797 107.032C39.241 107.212 39.619 107.488 39.931 107.86C40.255 108.232 40.423 108.718 40.435 109.318C40.435 109.858 40.285 110.344 39.985 110.776C39.685 111.208 39.259 111.55 38.707 111.802C38.167 112.042 37.543 112.162 36.835 112.162ZM49.1842 103.972C49.5202 103.384 50.0122 102.904 50.6602 102.532C51.3082 102.16 52.0462 101.974 52.8742 101.974C53.7622 101.974 54.5602 102.184 55.2682 102.604C55.9762 103.024 56.5342 103.618 56.9422 104.386C57.3502 105.142 57.5542 106.024 57.5542 107.032C57.5542 108.028 57.3502 108.916 56.9422 109.696C56.5342 110.476 55.9702 111.082 55.2502 111.514C54.5422 111.946 53.7502 112.162 52.8742 112.162C52.0222 112.162 51.2722 111.976 50.6242 111.604C49.9882 111.232 49.5082 110.758 49.1842 110.182V112H47.5462V98.68H49.1842V103.972ZM55.8802 107.032C55.8802 106.288 55.7302 105.64 55.4302 105.088C55.1302 104.536 54.7222 104.116 54.2062 103.828C53.7022 103.54 53.1442 103.396 52.5322 103.396C51.9322 103.396 51.3742 103.546 50.8582 103.846C50.3542 104.134 49.9462 104.56 49.6342 105.124C49.3342 105.676 49.1842 106.318 49.1842 107.05C49.1842 107.794 49.3342 108.448 49.6342 109.012C49.9462 109.564 50.3542 109.99 50.8582 110.29C51.3742 110.578 51.9322 110.722 52.5322 110.722C53.1442 110.722 53.7022 110.578 54.2062 110.29C54.7222 109.99 55.1302 109.564 55.4302 109.012C55.7302 108.448 55.8802 107.788 55.8802 107.032ZM68.2062 102.136L62.2662 116.644H60.5742L62.5182 111.892L58.5402 102.136H60.3582L63.4542 110.128L66.5142 102.136H68.2062ZM74.0396 107.032C74.0396 106.024 74.2436 105.142 74.6516 104.386C75.0596 103.618 75.6176 103.024 76.3256 102.604C77.0456 102.184 77.8496 101.974 78.7376 101.974C79.5056 101.974 80.2196 102.154 80.8796 102.514C81.5396 102.862 82.0436 103.324 82.3916 103.9V98.68H84.0476V112H82.3916V110.146C82.0676 110.734 81.5876 111.22 80.9516 111.604C80.3156 111.976 79.5716 112.162 78.7196 112.162C77.8436 112.162 77.0456 111.946 76.3256 111.514C75.6176 111.082 75.0596 110.476 74.6516 109.696C74.2436 108.916 74.0396 108.028 74.0396 107.032ZM82.3916 107.05C82.3916 106.306 82.2416 105.658 81.9416 105.106C81.6416 104.554 81.2336 104.134 80.7176 103.846C80.2136 103.546 79.6556 103.396 79.0436 103.396C78.4316 103.396 77.8736 103.54 77.3696 103.828C76.8656 104.116 76.4636 104.536 76.1636 105.088C75.8636 105.64 75.7136 106.288 75.7136 107.032C75.7136 107.788 75.8636 108.448 76.1636 109.012C76.4636 109.564 76.8656 109.99 77.3696 110.29C77.8736 110.578 78.4316 110.722 79.0436 110.722C79.6556 110.722 80.2136 110.578 80.7176 110.29C81.2336 109.99 81.6416 109.564 81.9416 109.012C82.2416 108.448 82.3916 107.794 82.3916 107.05ZM87.6617 100.534C87.3497 100.534 87.0857 100.426 86.8697 100.21C86.6537 99.994 86.5457 99.73 86.5457 99.418C86.5457 99.106 86.6537 98.842 86.8697 98.626C87.0857 98.41 87.3497 98.302 87.6617 98.302C87.9617 98.302 88.2137 98.41 88.4177 98.626C88.6337 98.842 88.7417 99.106 88.7417 99.418C88.7417 99.73 88.6337 99.994 88.4177 100.21C88.2137 100.426 87.9617 100.534 87.6617 100.534ZM88.4537 102.136V112H86.8157V102.136H88.4537ZM94.7374 112.162C93.9814 112.162 93.3034 112.036 92.7034 111.784C92.1034 111.52 91.6294 111.16 91.2814 110.704C90.9334 110.236 90.7414 109.702 90.7054 109.102H92.3974C92.4454 109.594 92.6734 109.996 93.0814 110.308C93.5014 110.62 94.0474 110.776 94.7194 110.776C95.3434 110.776 95.8354 110.638 96.1954 110.362C96.5554 110.086 96.7354 109.738 96.7354 109.318C96.7354 108.886 96.5434 108.568 96.1594 108.364C95.7754 108.148 95.1814 107.938 94.3774 107.734C93.6454 107.542 93.0454 107.35 92.5774 107.158C92.1214 106.954 91.7254 106.66 91.3894 106.276C91.0654 105.88 90.9034 105.364 90.9034 104.728C90.9034 104.224 91.0534 103.762 91.3534 103.342C91.6534 102.922 92.0794 102.592 92.6314 102.352C93.1834 102.1 93.8134 101.974 94.5214 101.974C95.6134 101.974 96.4954 102.25 97.1674 102.802C97.8394 103.354 98.1994 104.11 98.2474 105.07H96.6094C96.5734 104.554 96.3634 104.14 95.9794 103.828C95.6074 103.516 95.1034 103.36 94.4674 103.36C93.8794 103.36 93.4114 103.486 93.0634 103.738C92.7154 103.99 92.5414 104.32 92.5414 104.728C92.5414 105.052 92.6434 105.322 92.8474 105.538C93.0634 105.742 93.3274 105.91 93.6394 106.042C93.9634 106.162 94.4074 106.3 94.9714 106.456C95.6794 106.648 96.2554 106.84 96.6994 107.032C97.1434 107.212 97.5214 107.488 97.8334 107.86C98.1574 108.232 98.3254 108.718 98.3374 109.318C98.3374 109.858 98.1874 110.344 97.8874 110.776C97.5874 111.208 97.1614 111.55 96.6094 111.802C96.0694 112.042 95.4454 112.162 94.7374 112.162ZM100.038 107.05C100.038 106.03 100.242 105.142 100.65 104.386C101.058 103.618 101.622 103.024 102.342 102.604C103.074 102.184 103.908 101.974 104.844 101.974C106.056 101.974 107.052 102.268 107.832 102.856C108.624 103.444 109.146 104.26 109.398 105.304H107.634C107.466 104.704 107.136 104.23 106.644 103.882C106.164 103.534 105.564 103.36 104.844 103.36C103.908 103.36 103.152 103.684 102.576 104.332C102 104.968 101.712 105.874 101.712 107.05C101.712 108.238 102 109.156 102.576 109.804C103.152 110.452 103.908 110.776 104.844 110.776C105.564 110.776 106.164 110.608 106.644 110.272C107.124 109.936 107.454 109.456 107.634 108.832H109.398C109.134 109.84 108.606 110.65 107.814 111.262C107.022 111.862 106.032 112.162 104.844 112.162C103.908 112.162 103.074 111.952 102.342 111.532C101.622 111.112 101.058 110.518 100.65 109.75C100.242 108.982 100.038 108.082 100.038 107.05ZM115.885 112.162C114.961 112.162 114.121 111.952 113.365 111.532C112.621 111.112 112.033 110.518 111.601 109.75C111.181 108.97 110.971 108.07 110.971 107.05C110.971 106.042 111.187 105.154 111.619 104.386C112.063 103.606 112.663 103.012 113.419 102.604C114.175 102.184 115.021 101.974 115.957 101.974C116.893 101.974 117.739 102.184 118.495 102.604C119.251 103.012 119.845 103.6 120.277 104.368C120.721 105.136 120.943 106.03 120.943 107.05C120.943 108.07 120.715 108.97 120.259 109.75C119.815 110.518 119.209 111.112 118.441 111.532C117.673 111.952 116.821 112.162 115.885 112.162ZM115.885 110.722C116.473 110.722 117.025 110.584 117.541 110.308C118.057 110.032 118.471 109.618 118.783 109.066C119.107 108.514 119.269 107.842 119.269 107.05C119.269 106.258 119.113 105.586 118.801 105.034C118.489 104.482 118.081 104.074 117.577 103.81C117.073 103.534 116.527 103.396 115.939 103.396C115.339 103.396 114.787 103.534 114.283 103.81C113.791 104.074 113.395 104.482 113.095 105.034C112.795 105.586 112.645 106.258 112.645 107.05C112.645 107.854 112.789 108.532 113.077 109.084C113.377 109.636 113.773 110.05 114.265 110.326C114.757 110.59 115.297 110.722 115.885 110.722ZM126.769 110.488L129.829 102.136H131.575L127.705 112H125.797L121.927 102.136H123.691L126.769 110.488ZM142.187 106.69C142.187 107.002 142.169 107.332 142.133 107.68H134.249C134.309 108.652 134.639 109.414 135.239 109.966C135.851 110.506 136.589 110.776 137.453 110.776C138.161 110.776 138.749 110.614 139.217 110.29C139.697 109.954 140.033 109.51 140.225 108.958H141.989C141.725 109.906 141.197 110.68 140.405 111.28C139.613 111.868 138.629 112.162 137.453 112.162C136.517 112.162 135.677 111.952 134.933 111.532C134.201 111.112 133.625 110.518 133.205 109.75C132.785 108.97 132.575 108.07 132.575 107.05C132.575 106.03 132.779 105.136 133.187 104.368C133.595 103.6 134.165 103.012 134.897 102.604C135.641 102.184 136.493 101.974 137.453 101.974C138.389 101.974 139.217 102.178 139.937 102.586C140.657 102.994 141.209 103.558 141.593 104.278C141.989 104.986 142.187 105.79 142.187 106.69ZM140.495 106.348C140.495 105.724 140.357 105.19 140.081 104.746C139.805 104.29 139.427 103.948 138.947 103.72C138.479 103.48 137.957 103.36 137.381 103.36C136.553 103.36 135.845 103.624 135.257 104.152C134.681 104.68 134.351 105.412 134.267 106.348H140.495ZM145.987 103.738C146.275 103.174 146.683 102.736 147.211 102.424C147.751 102.112 148.405 101.956 149.173 101.956V103.648H148.741C146.905 103.648 145.987 104.644 145.987 106.636V112H144.349V102.136H145.987V103.738ZM151.91 100.534C151.598 100.534 151.334 100.426 151.118 100.21C150.902 99.994 150.794 99.73 150.794 99.418C150.794 99.106 150.902 98.842 151.118 98.626C151.334 98.41 151.598 98.302 151.91 98.302C152.21 98.302 152.462 98.41 152.666 98.626C152.882 98.842 152.99 99.106 152.99 99.418C152.99 99.73 152.882 99.994 152.666 100.21C152.462 100.426 152.21 100.534 151.91 100.534ZM152.702 102.136V112H151.064V102.136H152.702ZM160.299 101.956C161.499 101.956 162.471 102.322 163.215 103.054C163.959 103.774 164.331 104.818 164.331 106.186V112H162.711V106.42C162.711 105.436 162.465 104.686 161.973 104.17C161.481 103.642 160.809 103.378 159.957 103.378C159.093 103.378 158.403 103.648 157.887 104.188C157.383 104.728 157.131 105.514 157.131 106.546V112H155.493V102.136H157.131V103.54C157.455 103.036 157.893 102.646 158.445 102.37C159.009 102.094 159.627 101.956 160.299 101.956ZM171.075 101.974C171.927 101.974 172.671 102.16 173.307 102.532C173.955 102.904 174.435 103.372 174.747 103.936V102.136H176.403V112.216C176.403 113.116 176.211 113.914 175.827 114.61C175.443 115.318 174.891 115.87 174.171 116.266C173.463 116.662 172.635 116.86 171.687 116.86C170.391 116.86 169.311 116.554 168.447 115.942C167.583 115.33 167.073 114.496 166.917 113.44H168.537C168.717 114.04 169.089 114.52 169.653 114.88C170.217 115.252 170.895 115.438 171.687 115.438C172.587 115.438 173.319 115.156 173.883 114.592C174.459 114.028 174.747 113.236 174.747 112.216V110.146C174.423 110.722 173.943 111.202 173.307 111.586C172.671 111.97 171.927 112.162 171.075 112.162C170.199 112.162 169.401 111.946 168.681 111.514C167.973 111.082 167.415 110.476 167.007 109.696C166.599 108.916 166.395 108.028 166.395 107.032C166.395 106.024 166.599 105.142 167.007 104.386C167.415 103.618 167.973 103.024 168.681 102.604C169.401 102.184 170.199 101.974 171.075 101.974ZM174.747 107.05C174.747 106.306 174.597 105.658 174.297 105.106C173.997 104.554 173.589 104.134 173.073 103.846C172.569 103.546 172.011 103.396 171.399 103.396C170.787 103.396 170.229 103.54 169.725 103.828C169.221 104.116 168.819 104.536 168.519 105.088C168.219 105.64 168.069 106.288 168.069 107.032C168.069 107.788 168.219 108.448 168.519 109.012C168.819 109.564 169.221 109.99 169.725 110.29C170.229 110.578 170.787 110.722 171.399 110.722C172.011 110.722 172.569 110.578 173.073 110.29C173.589 109.99 173.997 109.564 174.297 109.012C174.597 108.448 174.747 107.794 174.747 107.05ZM192.466 102.136L186.526 116.644H184.834L186.778 111.892L182.8 102.136H184.618L187.714 110.128L190.774 102.136H192.466ZM198.415 112.162C197.491 112.162 196.651 111.952 195.895 111.532C195.151 111.112 194.563 110.518 194.131 109.75C193.711 108.97 193.501 108.07 193.501 107.05C193.501 106.042 193.717 105.154 194.149 104.386C194.593 103.606 195.193 103.012 195.949 102.604C196.705 102.184 197.551 101.974 198.487 101.974C199.423 101.974 200.269 102.184 201.025 102.604C201.781 103.012 202.375 103.6 202.807 104.368C203.251 105.136 203.473 106.03 203.473 107.05C203.473 108.07 203.245 108.97 202.789 109.75C202.345 110.518 201.739 111.112 200.971 111.532C200.203 111.952 199.351 112.162 198.415 112.162ZM198.415 110.722C199.003 110.722 199.555 110.584 200.071 110.308C200.587 110.032 201.001 109.618 201.313 109.066C201.637 108.514 201.799 107.842 201.799 107.05C201.799 106.258 201.643 105.586 201.331 105.034C201.019 104.482 200.611 104.074 200.107 103.81C199.603 103.534 199.057 103.396 198.469 103.396C197.869 103.396 197.317 103.534 196.813 103.81C196.321 104.074 195.925 104.482 195.625 105.034C195.325 105.586 195.175 106.258 195.175 107.05C195.175 107.854 195.319 108.532 195.607 109.084C195.907 109.636 196.303 110.05 196.795 110.326C197.287 110.59 197.827 110.722 198.415 110.722ZM214.374 102.136V112H212.736V110.542C212.424 111.046 211.986 111.442 211.422 111.73C210.87 112.006 210.258 112.144 209.586 112.144C208.818 112.144 208.128 111.988 207.516 111.676C206.904 111.352 206.418 110.872 206.058 110.236C205.71 109.6 205.536 108.826 205.536 107.914V102.136H207.156V107.698C207.156 108.67 207.402 109.42 207.894 109.948C208.386 110.464 209.058 110.722 209.91 110.722C210.786 110.722 211.476 110.452 211.98 109.912C212.484 109.372 212.736 108.586 212.736 107.554V102.136H214.374ZM218.778 103.738C219.066 103.174 219.474 102.736 220.002 102.424C220.542 102.112 221.196 101.956 221.964 101.956V103.648H221.532C219.696 103.648 218.778 104.644 218.778 106.636V112H217.14V102.136H218.778V103.738ZM3.024 131.972C3.36 131.384 3.852 130.904 4.5 130.532C5.148 130.16 5.886 129.974 6.714 129.974C7.602 129.974 8.4 130.184 9.108 130.604C9.816 131.024 10.374 131.618 10.782 132.386C11.19 133.142 11.394 134.024 11.394 135.032C11.394 136.028 11.19 136.916 10.782 137.696C10.374 138.476 9.81 139.082 9.09 139.514C8.382 139.946 7.59 140.162 6.714 140.162C5.862 140.162 5.112 139.976 4.464 139.604C3.828 139.232 3.348 138.758 3.024 138.182V140H1.386V126.68H3.024V131.972ZM9.72 135.032C9.72 134.288 9.57 133.64 9.27 133.088C8.97 132.536 8.562 132.116 8.046 131.828C7.542 131.54 6.984 131.396 6.372 131.396C5.772 131.396 5.214 131.546 4.698 131.846C4.194 132.134 3.786 132.56 3.474 133.124C3.174 133.676 3.024 134.318 3.024 135.05C3.024 135.794 3.174 136.448 3.474 137.012C3.786 137.564 4.194 137.99 4.698 138.29C5.214 138.578 5.772 138.722 6.372 138.722C6.984 138.722 7.542 138.578 8.046 138.29C8.562 137.99 8.97 137.564 9.27 137.012C9.57 136.448 9.72 135.788 9.72 135.032ZM22.2981 130.136V140H20.6601V138.542C20.3481 139.046 19.9101 139.442 19.3461 139.73C18.7941 140.006 18.1821 140.144 17.5101 140.144C16.7421 140.144 16.0521 139.988 15.4401 139.676C14.8281 139.352 14.3421 138.872 13.9821 138.236C13.6341 137.6 13.4601 136.826 13.4601 135.914V130.136H15.0801V135.698C15.0801 136.67 15.3261 137.42 15.8181 137.948C16.3101 138.464 16.9821 138.722 17.8341 138.722C18.7101 138.722 19.4001 138.452 19.9041 137.912C20.4081 137.372 20.6601 136.586 20.6601 135.554V130.136H22.2981ZM28.5557 140.162C27.7997 140.162 27.1217 140.036 26.5217 139.784C25.9217 139.52 25.4477 139.16 25.0997 138.704C24.7517 138.236 24.5597 137.702 24.5237 137.102H26.2157C26.2637 137.594 26.4917 137.996 26.8997 138.308C27.3197 138.62 27.8657 138.776 28.5377 138.776C29.1617 138.776 29.6537 138.638 30.0137 138.362C30.3737 138.086 30.5537 137.738 30.5537 137.318C30.5537 136.886 30.3617 136.568 29.9777 136.364C29.5937 136.148 28.9997 135.938 28.1957 135.734C27.4637 135.542 26.8637 135.35 26.3957 135.158C25.9397 134.954 25.5437 134.66 25.2077 134.276C24.8837 133.88 24.7217 133.364 24.7217 132.728C24.7217 132.224 24.8717 131.762 25.1717 131.342C25.4717 130.922 25.8977 130.592 26.4497 130.352C27.0017 130.1 27.6317 129.974 28.3397 129.974C29.4317 129.974 30.3137 130.25 30.9857 130.802C31.6577 131.354 32.0177 132.11 32.0657 133.07H30.4277C30.3917 132.554 30.1817 132.14 29.7977 131.828C29.4257 131.516 28.9217 131.36 28.2857 131.36C27.6977 131.36 27.2297 131.486 26.8817 131.738C26.5337 131.99 26.3597 132.32 26.3597 132.728C26.3597 133.052 26.4617 133.322 26.6657 133.538C26.8817 133.742 27.1457 133.91 27.4577 134.042C27.7817 134.162 28.2257 134.3 28.7897 134.456C29.4977 134.648 30.0737 134.84 30.5177 135.032C30.9617 135.212 31.3397 135.488 31.6517 135.86C31.9757 136.232 32.1437 136.718 32.1557 137.318C32.1557 137.858 32.0057 138.344 31.7057 138.776C31.4057 139.208 30.9797 139.55 30.4277 139.802C29.8877 140.042 29.2637 140.162 28.5557 140.162ZM35.314 128.534C35.002 128.534 34.738 128.426 34.522 128.21C34.306 127.994 34.198 127.73 34.198 127.418C34.198 127.106 34.306 126.842 34.522 126.626C34.738 126.41 35.002 126.302 35.314 126.302C35.614 126.302 35.866 126.41 36.07 126.626C36.286 126.842 36.394 127.106 36.394 127.418C36.394 127.73 36.286 127.994 36.07 128.21C35.866 128.426 35.614 128.534 35.314 128.534ZM36.106 130.136V140H34.468V130.136H36.106ZM43.7037 129.956C44.9037 129.956 45.8757 130.322 46.6197 131.054C47.3637 131.774 47.7357 132.818 47.7357 134.186V140H46.1157V134.42C46.1157 133.436 45.8697 132.686 45.3777 132.17C44.8857 131.642 44.2137 131.378 43.3617 131.378C42.4977 131.378 41.8077 131.648 41.2917 132.188C40.7877 132.728 40.5357 133.514 40.5357 134.546V140H38.8977V130.136H40.5357V131.54C40.8597 131.036 41.2977 130.646 41.8497 130.37C42.4137 130.094 43.0317 129.956 43.7037 129.956ZM59.4114 134.69C59.4114 135.002 59.3934 135.332 59.3574 135.68H51.4734C51.5334 136.652 51.8634 137.414 52.4634 137.966C53.0754 138.506 53.8134 138.776 54.6774 138.776C55.3854 138.776 55.9734 138.614 56.4414 138.29C56.9214 137.954 57.2574 137.51 57.4494 136.958H59.2134C58.9494 137.906 58.4214 138.68 57.6294 139.28C56.8374 139.868 55.8534 140.162 54.6774 140.162C53.7414 140.162 52.9014 139.952 52.1574 139.532C51.4254 139.112 50.8494 138.518 50.4294 137.75C50.0094 136.97 49.7994 136.07 49.7994 135.05C49.7994 134.03 50.0034 133.136 50.4114 132.368C50.8194 131.6 51.3894 131.012 52.1214 130.604C52.8654 130.184 53.7174 129.974 54.6774 129.974C55.6134 129.974 56.4414 130.178 57.1614 130.586C57.8814 130.994 58.4334 131.558 58.8174 132.278C59.2134 132.986 59.4114 133.79 59.4114 134.69ZM57.7194 134.348C57.7194 133.724 57.5814 133.19 57.3054 132.746C57.0294 132.29 56.6514 131.948 56.1714 131.72C55.7034 131.48 55.1814 131.36 54.6054 131.36C53.7774 131.36 53.0694 131.624 52.4814 132.152C51.9054 132.68 51.5754 133.412 51.4914 134.348H57.7194ZM65.0655 140.162C64.3095 140.162 63.6315 140.036 63.0315 139.784C62.4315 139.52 61.9575 139.16 61.6095 138.704C61.2615 138.236 61.0695 137.702 61.0335 137.102H62.7255C62.7735 137.594 63.0015 137.996 63.4095 138.308C63.8295 138.62 64.3755 138.776 65.0475 138.776C65.6715 138.776 66.1635 138.638 66.5235 138.362C66.8835 138.086 67.0635 137.738 67.0635 137.318C67.0635 136.886 66.8715 136.568 66.4875 136.364C66.1035 136.148 65.5095 135.938 64.7055 135.734C63.9735 135.542 63.3735 135.35 62.9055 135.158C62.4495 134.954 62.0535 134.66 61.7175 134.276C61.3935 133.88 61.2315 133.364 61.2315 132.728C61.2315 132.224 61.3815 131.762 61.6815 131.342C61.9815 130.922 62.4075 130.592 62.9595 130.352C63.5115 130.1 64.1415 129.974 64.8495 129.974C65.9415 129.974 66.8235 130.25 67.4955 130.802C68.1675 131.354 68.5275 132.11 68.5755 133.07H66.9375C66.9015 132.554 66.6915 132.14 66.3075 131.828C65.9355 131.516 65.4315 131.36 64.7955 131.36C64.2075 131.36 63.7395 131.486 63.3915 131.738C63.0435 131.99 62.8695 132.32 62.8695 132.728C62.8695 133.052 62.9715 133.322 63.1755 133.538C63.3915 133.742 63.6555 133.91 63.9675 134.042C64.2915 134.162 64.7355 134.3 65.2995 134.456C66.0075 134.648 66.5835 134.84 67.0275 135.032C67.4715 135.212 67.8495 135.488 68.1615 135.86C68.4855 136.232 68.6535 136.718 68.6655 137.318C68.6655 137.858 68.5155 138.344 68.2155 138.776C67.9155 139.208 67.4895 139.55 66.9375 139.802C66.3975 140.042 65.7735 140.162 65.0655 140.162ZM74.4698 140.162C73.7138 140.162 73.0358 140.036 72.4358 139.784C71.8358 139.52 71.3618 139.16 71.0138 138.704C70.6658 138.236 70.4738 137.702 70.4378 137.102H72.1298C72.1778 137.594 72.4058 137.996 72.8138 138.308C73.2338 138.62 73.7798 138.776 74.4518 138.776C75.0758 138.776 75.5678 138.638 75.9278 138.362C76.2878 138.086 76.4678 137.738 76.4678 137.318C76.4678 136.886 76.2758 136.568 75.8918 136.364C75.5078 136.148 74.9138 135.938 74.1098 135.734C73.3778 135.542 72.7778 135.35 72.3098 135.158C71.8538 134.954 71.4578 134.66 71.1218 134.276C70.7978 133.88 70.6358 133.364 70.6358 132.728C70.6358 132.224 70.7858 131.762 71.0858 131.342C71.3858 130.922 71.8118 130.592 72.3638 130.352C72.9158 130.1 73.5458 129.974 74.2538 129.974C75.3458 129.974 76.2278 130.25 76.8998 130.802C77.5718 131.354 77.9318 132.11 77.9798 133.07H76.3418C76.3058 132.554 76.0958 132.14 75.7118 131.828C75.3398 131.516 74.8358 131.36 74.1998 131.36C73.6118 131.36 73.1438 131.486 72.7958 131.738C72.4478 131.99 72.2738 132.32 72.2738 132.728C72.2738 133.052 72.3758 133.322 72.5798 133.538C72.7958 133.742 73.0598 133.91 73.3718 134.042C73.6958 134.162 74.1398 134.3 74.7038 134.456C75.4118 134.648 75.9878 134.84 76.4318 135.032C76.8758 135.212 77.2538 135.488 77.5658 135.86C77.8898 136.232 78.0578 136.718 78.0698 137.318C78.0698 137.858 77.9198 138.344 77.6198 138.776C77.3198 139.208 76.8938 139.55 76.3418 139.802C75.8018 140.042 75.1778 140.162 74.4698 140.162ZM86.8189 131.954C87.1429 131.39 87.6229 130.922 88.2589 130.55C88.9069 130.166 89.6569 129.974 90.5089 129.974C91.3849 129.974 92.1769 130.184 92.8849 130.604C93.6049 131.024 94.1689 131.618 94.5769 132.386C94.9849 133.142 95.1889 134.024 95.1889 135.032C95.1889 136.028 94.9849 136.916 94.5769 137.696C94.1689 138.476 93.6049 139.082 92.8849 139.514C92.1769 139.946 91.3849 140.162 90.5089 140.162C89.6689 140.162 88.9249 139.976 88.2769 139.604C87.6409 139.22 87.1549 138.746 86.8189 138.182V144.68H85.1809V130.136H86.8189V131.954ZM93.5149 135.032C93.5149 134.288 93.3649 133.64 93.0649 133.088C92.7649 132.536 92.3569 132.116 91.8409 131.828C91.3369 131.54 90.7789 131.396 90.1669 131.396C89.5669 131.396 89.0089 131.546 88.4929 131.846C87.9889 132.134 87.5809 132.56 87.2689 133.124C86.9689 133.676 86.8189 134.318 86.8189 135.05C86.8189 135.794 86.9689 136.448 87.2689 137.012C87.5809 137.564 87.9889 137.99 88.4929 138.29C89.0089 138.578 89.5669 138.722 90.1669 138.722C90.7789 138.722 91.3369 138.578 91.8409 138.29C92.3569 137.99 92.7649 137.564 93.0649 137.012C93.3649 136.448 93.5149 135.788 93.5149 135.032ZM106.345 134.69C106.345 135.002 106.327 135.332 106.291 135.68H98.407C98.467 136.652 98.797 137.414 99.397 137.966C100.009 138.506 100.747 138.776 101.611 138.776C102.319 138.776 102.907 138.614 103.375 138.29C103.855 137.954 104.191 137.51 104.383 136.958H106.147C105.883 137.906 105.355 138.68 104.563 139.28C103.771 139.868 102.787 140.162 101.611 140.162C100.675 140.162 99.835 139.952 99.091 139.532C98.359 139.112 97.783 138.518 97.363 137.75C96.943 136.97 96.733 136.07 96.733 135.05C96.733 134.03 96.937 133.136 97.345 132.368C97.753 131.6 98.323 131.012 99.055 130.604C99.799 130.184 100.651 129.974 101.611 129.974C102.547 129.974 103.375 130.178 104.095 130.586C104.815 130.994 105.367 131.558 105.751 132.278C106.147 132.986 106.345 133.79 106.345 134.69ZM104.653 134.348C104.653 133.724 104.515 133.19 104.239 132.746C103.963 132.29 103.585 131.948 103.105 131.72C102.637 131.48 102.115 131.36 101.539 131.36C100.711 131.36 100.003 131.624 99.415 132.152C98.839 132.68 98.509 133.412 98.425 134.348H104.653ZM110.145 131.738C110.433 131.174 110.841 130.736 111.369 130.424C111.909 130.112 112.563 129.956 113.331 129.956V131.648H112.899C111.063 131.648 110.145 132.644 110.145 134.636V140H108.507V130.136H110.145V131.738ZM118.714 140.162C117.958 140.162 117.28 140.036 116.68 139.784C116.08 139.52 115.606 139.16 115.258 138.704C114.91 138.236 114.718 137.702 114.682 137.102H116.374C116.422 137.594 116.65 137.996 117.058 138.308C117.478 138.62 118.024 138.776 118.696 138.776C119.32 138.776 119.812 138.638 120.172 138.362C120.532 138.086 120.712 137.738 120.712 137.318C120.712 136.886 120.52 136.568 120.136 136.364C119.752 136.148 119.158 135.938 118.354 135.734C117.622 135.542 117.022 135.35 116.554 135.158C116.098 134.954 115.702 134.66 115.366 134.276C115.042 133.88 114.88 133.364 114.88 132.728C114.88 132.224 115.03 131.762 115.33 131.342C115.63 130.922 116.056 130.592 116.608 130.352C117.16 130.1 117.79 129.974 118.498 129.974C119.59 129.974 120.472 130.25 121.144 130.802C121.816 131.354 122.176 132.11 122.224 133.07H120.586C120.55 132.554 120.34 132.14 119.956 131.828C119.584 131.516 119.08 131.36 118.444 131.36C117.856 131.36 117.388 131.486 117.04 131.738C116.692 131.99 116.518 132.32 116.518 132.728C116.518 133.052 116.62 133.322 116.824 133.538C117.04 133.742 117.304 133.91 117.616 134.042C117.94 134.162 118.384 134.3 118.948 134.456C119.656 134.648 120.232 134.84 120.676 135.032C121.12 135.212 121.498 135.488 121.81 135.86C122.134 136.232 122.302 136.718 122.314 137.318C122.314 137.858 122.164 138.344 121.864 138.776C121.564 139.208 121.138 139.55 120.586 139.802C120.046 140.042 119.422 140.162 118.714 140.162ZM128.928 140.162C128.004 140.162 127.164 139.952 126.408 139.532C125.664 139.112 125.076 138.518 124.644 137.75C124.224 136.97 124.014 136.07 124.014 135.05C124.014 134.042 124.23 133.154 124.662 132.386C125.106 131.606 125.706 131.012 126.462 130.604C127.218 130.184 128.064 129.974 129 129.974C129.936 129.974 130.782 130.184 131.538 130.604C132.294 131.012 132.888 131.6 133.32 132.368C133.764 133.136 133.986 134.03 133.986 135.05C133.986 136.07 133.758 136.97 133.302 137.75C132.858 138.518 132.252 139.112 131.484 139.532C130.716 139.952 129.864 140.162 128.928 140.162ZM128.928 138.722C129.516 138.722 130.068 138.584 130.584 138.308C131.1 138.032 131.514 137.618 131.826 137.066C132.15 136.514 132.312 135.842 132.312 135.05C132.312 134.258 132.156 133.586 131.844 133.034C131.532 132.482 131.124 132.074 130.62 131.81C130.116 131.534 129.57 131.396 128.982 131.396C128.382 131.396 127.83 131.534 127.326 131.81C126.834 132.074 126.438 132.482 126.138 133.034C125.838 133.586 125.688 134.258 125.688 135.05C125.688 135.854 125.832 136.532 126.12 137.084C126.42 137.636 126.816 138.05 127.308 138.326C127.8 138.59 128.34 138.722 128.928 138.722ZM140.946 129.956C142.146 129.956 143.118 130.322 143.862 131.054C144.606 131.774 144.978 132.818 144.978 134.186V140H143.358V134.42C143.358 133.436 143.112 132.686 142.62 132.17C142.128 131.642 141.456 131.378 140.604 131.378C139.74 131.378 139.05 131.648 138.534 132.188C138.03 132.728 137.778 133.514 137.778 134.546V140H136.14V130.136H137.778V131.54C138.102 131.036 138.54 130.646 139.092 130.37C139.656 130.094 140.274 129.956 140.946 129.956ZM147.042 135.032C147.042 134.024 147.246 133.142 147.654 132.386C148.062 131.618 148.62 131.024 149.328 130.604C150.048 130.184 150.846 129.974 151.722 129.974C152.586 129.974 153.336 130.16 153.972 130.532C154.608 130.904 155.082 131.372 155.394 131.936V130.136H157.05V140H155.394V138.164C155.07 138.74 154.584 139.22 153.936 139.604C153.3 139.976 152.556 140.162 151.704 140.162C150.828 140.162 150.036 139.946 149.328 139.514C148.62 139.082 148.062 138.476 147.654 137.696C147.246 136.916 147.042 136.028 147.042 135.032ZM155.394 135.05C155.394 134.306 155.244 133.658 154.944 133.106C154.644 132.554 154.236 132.134 153.72 131.846C153.216 131.546 152.658 131.396 152.046 131.396C151.434 131.396 150.876 131.54 150.372 131.828C149.868 132.116 149.466 132.536 149.166 133.088C148.866 133.64 148.716 134.288 148.716 135.032C148.716 135.788 148.866 136.448 149.166 137.012C149.466 137.564 149.868 137.99 150.372 138.29C150.876 138.578 151.434 138.722 152.046 138.722C152.658 138.722 153.216 138.578 153.72 138.29C154.236 137.99 154.644 137.564 154.944 137.012C155.244 136.448 155.394 135.794 155.394 135.05ZM161.456 126.68V140H159.818V126.68H161.456ZM165.093 128.534C164.781 128.534 164.517 128.426 164.301 128.21C164.085 127.994 163.977 127.73 163.977 127.418C163.977 127.106 164.085 126.842 164.301 126.626C164.517 126.41 164.781 126.302 165.093 126.302C165.393 126.302 165.645 126.41 165.849 126.626C166.065 126.842 166.173 127.106 166.173 127.418C166.173 127.73 166.065 127.994 165.849 128.21C165.645 128.426 165.393 128.534 165.093 128.534ZM165.885 130.136V140H164.247V130.136H165.885ZM170.675 131.486V137.3C170.675 137.78 170.777 138.122 170.981 138.326C171.185 138.518 171.539 138.614 172.043 138.614H173.249V140H171.773C170.861 140 170.177 139.79 169.721 139.37C169.265 138.95 169.037 138.26 169.037 137.3V131.486H167.759V130.136H169.037V127.652H170.675V130.136H173.249V131.486H170.675ZM183.73 130.136L177.79 144.644H176.098L178.042 139.892L174.064 130.136H175.882L178.978 138.128L182.038 130.136H183.73ZM192.173 131.486V137.3C192.173 137.78 192.275 138.122 192.479 138.326C192.683 138.518 193.037 138.614 193.541 138.614H194.747V140H193.271C192.359 140 191.675 139.79 191.219 139.37C190.763 138.95 190.535 138.26 190.535 137.3V131.486H189.257V130.136H190.535V127.652H192.173V130.136H194.747V131.486H192.173ZM198.37 131.738C198.658 131.174 199.066 130.736 199.594 130.424C200.134 130.112 200.788 129.956 201.556 129.956V131.648H201.124C199.288 131.648 198.37 132.644 198.37 134.636V140H196.732V130.136H198.37V131.738ZM202.835 135.032C202.835 134.024 203.039 133.142 203.447 132.386C203.855 131.618 204.413 131.024 205.121 130.604C205.841 130.184 206.639 129.974 207.515 129.974C208.379 129.974 209.129 130.16 209.765 130.532C210.401 130.904 210.875 131.372 211.187 131.936V130.136H212.843V140H211.187V138.164C210.863 138.74 210.377 139.22 209.729 139.604C209.093 139.976 208.349 140.162 207.497 140.162C206.621 140.162 205.829 139.946 205.121 139.514C204.413 139.082 203.855 138.476 203.447 137.696C203.039 136.916 202.835 136.028 202.835 135.032ZM211.187 135.05C211.187 134.306 211.037 133.658 210.737 133.106C210.437 132.554 210.029 132.134 209.513 131.846C209.009 131.546 208.451 131.396 207.839 131.396C207.227 131.396 206.669 131.54 206.165 131.828C205.661 132.116 205.259 132.536 204.959 133.088C204.659 133.64 204.509 134.288 204.509 135.032C204.509 135.788 204.659 136.448 204.959 137.012C205.259 137.564 205.661 137.99 206.165 138.29C206.669 138.578 207.227 138.722 207.839 138.722C208.451 138.722 209.009 138.578 209.513 138.29C210.029 137.99 210.437 137.564 210.737 137.012C211.037 136.448 211.187 135.794 211.187 135.05ZM216.457 128.534C216.145 128.534 215.881 128.426 215.665 128.21C215.449 127.994 215.341 127.73 215.341 127.418C215.341 127.106 215.449 126.842 215.665 126.626C215.881 126.41 216.145 126.302 216.457 126.302C216.757 126.302 217.009 126.41 217.213 126.626C217.429 126.842 217.537 127.106 217.537 127.418C217.537 127.73 217.429 127.994 217.213 128.21C217.009 128.426 216.757 128.534 216.457 128.534ZM217.249 130.136V140H215.611V130.136H217.249ZM222.038 131.486V137.3C222.038 137.78 222.14 138.122 222.344 138.326C222.548 138.518 222.902 138.614 223.406 138.614H224.612V140H223.136C222.224 140 221.54 139.79 221.084 139.37C220.628 138.95 220.4 138.26 220.4 137.3V131.486H219.122V130.136H220.4V127.652H222.038V130.136H224.612V131.486H222.038ZM230.089 140.162C229.333 140.162 228.655 140.036 228.055 139.784C227.455 139.52 226.981 139.16 226.633 138.704C226.285 138.236 226.093 137.702 226.057 137.102H227.749C227.797 137.594 228.025 137.996 228.433 138.308C228.853 138.62 229.399 138.776 230.071 138.776C230.695 138.776 231.187 138.638 231.547 138.362C231.907 138.086 232.087 137.738 232.087 137.318C232.087 136.886 231.895 136.568 231.511 136.364C231.127 136.148 230.533 135.938 229.729 135.734C228.997 135.542 228.397 135.35 227.929 135.158C227.473 134.954 227.077 134.66 226.741 134.276C226.417 133.88 226.255 133.364 226.255 132.728C226.255 132.224 226.405 131.762 226.705 131.342C227.005 130.922 227.431 130.592 227.983 130.352C228.535 130.1 229.165 129.974 229.873 129.974C230.965 129.974 231.847 130.25 232.519 130.802C233.191 131.354 233.551 132.11 233.599 133.07H231.961C231.925 132.554 231.715 132.14 231.331 131.828C230.959 131.516 230.455 131.36 229.819 131.36C229.231 131.36 228.763 131.486 228.415 131.738C228.067 131.99 227.893 132.32 227.893 132.728C227.893 133.052 227.995 133.322 228.199 133.538C228.415 133.742 228.679 133.91 228.991 134.042C229.315 134.162 229.759 134.3 230.323 134.456C231.031 134.648 231.607 134.84 232.051 135.032C232.495 135.212 232.873 135.488 233.185 135.86C233.509 136.232 233.677 136.718 233.689 137.318C233.689 137.858 233.539 138.344 233.239 138.776C232.939 139.208 232.513 139.55 231.961 139.802C231.421 140.042 230.797 140.162 230.089 140.162Z" fill="#17181A"/>
<defs>
<clipPath id="clip0_1_823">
<rect width="40" height="40" fill="white"/>
</clipPath>
</defs>
</svg>
