<svg width="170" height="72" viewBox="0 0 170 72" fill="none" xmlns="http://www.w3.org/2000/svg">
<g clip-path="url(#clip0_1_1007)">
<path d="M108.117 42.9355L109.789 42.9398C110.272 42.9409 111.001 42.7155 111.481 42.3038C111.133 41.0483 108.851 40.7577 107.904 40.7749L108.117 42.9355Z" fill="#FFCC00" stroke="#B79300" stroke-width="0.8"/>
<path d="M103.623 42.9495L103.553 49.1426L110.054 48.6435C111.063 48.4732 111.228 47.9611 111.254 47.3959L111.504 43.2156C111.504 43.2156 111.545 42.5605 111.508 42.3861C111.439 42.0584 111.19 41.9761 110.995 42.1751C110.752 42.424 110.137 42.8706 109.604 42.8663L103.623 42.9495Z" fill="#FFCC00" stroke="#B79300" stroke-width="0.8"/>
<path d="M62.683 42.9606L61.0114 42.965C60.5284 42.9661 59.7989 42.7407 59.3198 42.3289C59.6675 41.0734 61.9492 40.7829 62.8966 40.8L62.683 42.9606Z" fill="#FFCC00" stroke="#B79300" stroke-width="0.8"/>
<path d="M67.1789 42.9751L67.2489 49.1682L60.7479 48.6692C59.7385 48.4988 59.5736 47.9868 59.5477 47.4216L59.2976 43.2412C59.2976 43.2412 59.2569 42.5861 59.2937 42.4117C59.3629 42.084 59.6121 42.0017 59.8067 42.2007C60.0501 42.4497 60.6647 42.8962 61.198 42.8919L67.1789 42.9751Z" fill="#FFCC00" stroke="#B79300" stroke-width="0.8"/>
<path fill-rule="evenodd" clip-rule="evenodd" d="M85.2297 12.353C84.1452 12.353 83.1324 12.9359 82.5842 13.8755C79.4323 20.6625 77.9915 20.4459 70.9643 20.6661C69.8916 20.7019 68.9261 21.2846 68.4019 22.2003C67.8656 23.128 67.8538 24.2695 68.3783 25.1973C72.4877 31.2662 71.803 32.4019 68.5927 38.4336C68.0921 39.3613 68.116 40.4909 68.6521 41.4068C69.1885 42.3223 70.1537 42.8934 71.2143 42.9291C78.7732 42.4084 79.2894 43.9412 83.168 49.9344C83.7402 50.8264 84.6831 51.3496 85.744 51.3375C86.7927 51.3257 87.8162 50.7667 88.3644 49.8749C91.6471 43.2368 92.8346 43.126 99.7219 43.0841C100.807 43.072 101.807 42.4895 102.356 41.5618C102.892 40.6224 102.904 39.4691 102.379 38.5295C98.1506 32.4282 99.2137 31.1936 102.368 24.9358C102.844 23.9965 102.797 22.8785 102.26 21.9864C100.03 23.3678 100.03 23.3676 102.26 21.9864C101.724 21.0826 100.759 20.5237 99.71 20.4998C92.1091 20.9992 91.476 19.9402 87.8755 13.8517C87.3273 12.9239 86.3143 12.3531 85.2297 12.3531V12.353ZM85.2417 15.4097C89.1299 21.996 91.3026 24.214 99.6383 23.5566C96.2495 30.2803 94.9586 33.3282 99.698 40.0157C92.2242 40.0765 89.2579 40.9294 85.744 48.2811V48.2814C81.5961 41.8381 79.6102 39.2137 71.2979 39.8734C74.7743 33.3418 75.6695 30.3528 71.0596 23.7231C78.645 23.485 81.8451 22.9546 85.2417 15.4098V15.4097Z" fill="#FFCC00"/>
<path fill-rule="evenodd" clip-rule="evenodd" d="M85.3285 14.7305C87.8797 21.0564 91.269 24.4738 99.6373 23.5561C96.2484 30.2798 94.9576 33.3277 99.697 40.0152C92.2231 40.0761 89.2568 40.929 85.743 48.2807V48.2809C81.595 41.8377 79.6092 39.2132 71.2968 39.873C74.7733 33.3414 75.6684 30.3523 71.0586 23.7226C78.644 23.4846 82.2557 22.5777 85.3285 14.7306V14.7305Z" stroke="#B79300" stroke-width="0.8" stroke-linecap="round" stroke-linejoin="round"/>
<path d="M83.1909 42.1177C83.1909 42.1177 83.212 42.1071 83.2436 42.0966C83.2858 42.0755 83.3386 42.0545 83.4124 42.0124C83.5707 41.9387 83.7922 41.8229 84.0665 41.665C84.3514 41.507 84.6784 41.2965 85.0582 41.0438C85.4275 40.7912 85.8389 40.4859 86.2504 40.1174C86.6724 39.7489 87.0943 39.3278 87.5058 38.854C87.9067 38.3698 88.297 37.8223 88.6135 37.2222C88.93 36.6116 89.1832 35.9484 89.3415 35.2535C89.3626 35.1693 89.3837 35.0746 89.3942 34.9903L89.4364 34.7272C89.4681 34.5482 89.4786 34.3692 89.4997 34.1902L89.5103 34.0534V34.0218C89.5103 34.0218 89.5103 34.0112 89.5103 34.0218V34.0112V33.9902V33.9165L89.5208 33.6322C89.5314 33.4427 89.5208 33.2638 89.5208 33.0743C89.5103 32.3373 89.4364 31.5898 89.3309 30.8634C89.2254 30.137 89.0672 29.4211 88.8984 28.7368C88.5502 27.3682 88.1177 26.1259 87.7063 25.0731C87.2948 24.0203 86.8939 23.1571 86.6091 22.5675C86.4614 22.2727 86.3453 22.0411 86.2609 21.8832C86.1765 21.7253 86.1343 21.6411 86.1343 21.6411L86.4192 21.4832C86.4192 21.4832 86.4614 21.5674 86.5563 21.7253C86.6407 21.8832 86.7673 22.1148 86.915 22.4096C87.221 22.9992 87.6324 23.8624 88.0755 24.9152C88.5186 25.968 88.9828 27.2313 89.3626 28.6105C89.7424 29.9896 90.0378 31.5056 90.0905 33.0532C90.0905 33.2427 90.1011 33.4533 90.1011 33.6322V33.9165V33.9902V34.0112V34.0323V34.0639L90.0905 34.2113C90.08 34.4113 90.0694 34.6008 90.0378 34.7903L89.9956 35.0746C89.9745 35.1693 89.9534 35.2641 89.9428 35.3588C89.7846 36.1168 89.5314 36.8432 89.1938 37.5065C88.8562 38.1592 88.4553 38.7593 88.0333 39.2857C87.6113 39.8121 87.1682 40.2648 86.7357 40.6543C86.3031 41.0438 85.8811 41.3807 85.4908 41.6544C85.1004 41.9282 84.7523 42.1493 84.4569 42.3282C84.1615 42.5072 83.9294 42.6335 83.7606 42.7178C83.6762 42.7599 83.6129 42.7914 83.5707 42.8125C83.5285 42.8336 83.4968 42.8441 83.4968 42.8441L83.4652 42.823C83.2542 42.6862 83.1381 42.4019 83.1909 42.1177H83.1909Z" fill="#FFCC00" stroke="#B79300" stroke-width="0.8" stroke-miterlimit="10" stroke-linejoin="round"/>
<path fill-rule="evenodd" clip-rule="evenodd" d="M85.2303 12.3529C84.1457 12.3529 83.1329 12.9357 82.5847 13.8753C79.4328 20.6623 77.992 20.4457 70.9648 20.6659C69.892 20.7017 68.9266 21.2843 68.4024 22.2C67.866 23.1278 67.8543 24.2693 68.3788 25.1971C72.4882 31.266 71.8035 32.4017 68.5932 38.4334C68.0926 39.3611 68.1165 40.4907 68.6526 41.4067C69.189 42.3221 70.1542 42.8932 71.2148 42.9289C78.7737 42.4082 79.2899 43.9411 83.1685 49.9342C83.7407 50.8263 84.7298 51.3494 85.7907 51.3373C86.8394 51.3255 87.8168 50.7665 88.365 49.8747C91.6476 43.2366 92.8351 43.1258 99.7224 43.0839C100.807 43.0718 101.808 42.4892 102.356 41.5615C102.892 40.6221 102.905 39.4689 102.38 38.5294C98.1512 32.4281 99.2143 31.1935 102.368 24.9357C102.845 23.9964 102.797 22.8784 102.261 21.9863V21.986C101.725 21.0822 100.759 20.5233 99.7105 20.4994C92.1096 20.9988 91.4765 19.9398 87.876 13.8513C87.3278 12.9235 86.3148 12.3528 85.2303 12.3528V12.3529Z" stroke="#B79300" stroke-width="0.8"/>
<path d="M83.7393 38.8447V46.0236H85.3851H87.0414V38.8447H83.7393Z" fill="#FFCC00" stroke="#B79300" stroke-width="0.8" stroke-miterlimit="10"/>
<path d="M87.0282 40.6941L83.7788 41.9048L83.8351 42.1072L87.0282 40.9152V40.6941Z" fill="#B79300"/>
<path d="M83.7617 41.0748L87.0005 39.8642V39.6431L83.7617 40.8538V41.0748Z" fill="#B79300"/>
<path d="M81.4717 17.408C81.4717 17.408 86.052 18.4377 86.2502 22.5337L81.4717 17.408Z" fill="#FFCC00"/>
<path d="M81.4717 17.408C81.4717 17.408 86.052 18.4377 86.2502 22.5337" stroke="#B79300" stroke-width="0.8" stroke-miterlimit="10"/>
<path d="M86.2508 22.5337C86.2508 22.5376 86.2508 22.5416 86.2518 22.5455C86.2412 22.535 83.34 23.1667 81.4727 17.408" fill="#B79300"/>
<path d="M86.2508 22.5337C86.2508 22.5376 86.2508 22.5416 86.2518 22.5455C86.2412 22.535 83.34 23.1667 81.4727 17.408" stroke="#B79300" stroke-width="0.8" stroke-miterlimit="10"/>
<path d="M81.4717 17.408C83.2975 19.2714 84.5587 20.9453 86.0187 22.356L86.2508 22.535" stroke="#B79300" stroke-width="0.8" stroke-miterlimit="10"/>
<path d="M84.4149 17.3134L85.396 14.6467V38.3657H83.7397V32.5366V21.1666C83.7397 19.8506 83.9718 18.5557 84.4149 17.3134H84.4149Z" fill="#FFCC00"/>
<path d="M86.3776 17.3134L85.3965 14.6467V38.3657H87.0528V32.5366V21.1666C87.0528 19.8506 86.8207 18.5557 86.3776 17.3134H86.3776Z" fill="#B79300"/>
<path d="M87.0284 44.8064L83.7393 46.0229V46.2545L87.0284 45.038V44.8064Z" fill="#B79300"/>
<path d="M87.559 46.9806H83.2335C83.0331 46.9806 82.8643 46.8121 82.8643 46.6121V46.012C82.8643 45.812 83.0331 45.6436 83.2335 45.6436H87.559C87.7594 45.6436 87.9282 45.812 87.9282 46.012V46.6121C87.9282 46.8121 87.7594 46.9806 87.559 46.9806Z" fill="#FFCC00" stroke="#B79300" stroke-width="0.8" stroke-miterlimit="10"/>
<path d="M87.0298 43.7534L83.7754 44.9689V45.2005L87.0298 43.985V43.7534Z" fill="#B79300"/>
<path d="M87.0289 42.7307L83.7715 43.9392V44.1708L87.0289 42.9623V42.7307Z" fill="#B79300"/>
<path d="M87.0289 41.7219L83.7642 42.9386V43.1597L87.0289 41.943V41.7219Z" fill="#B79300"/>
<path d="M85.396 37.674V14.6934" stroke="#B79300" stroke-width="0.8" stroke-miterlimit="10" stroke-linecap="round" stroke-linejoin="round"/>
<path d="M90.3894 33.6657C90.354 33.676 90.3182 33.6859 90.2821 33.6956C90.2821 33.6956 90.177 29.6265 93.5645 27.3918" fill="#FFCC00"/>
<path d="M90.3894 33.6657C90.354 33.676 90.3182 33.686 90.2821 33.6956C90.2821 33.6956 90.177 29.6265 93.5645 27.3918" stroke="#B79300" stroke-width="0.8" stroke-miterlimit="10"/>
<path d="M93.5628 27.3916C93.5694 27.3873 93.5759 27.383 93.5826 27.3787C93.5858 27.4035 94.2976 32.5284 90.3877 33.6655" fill="#B79300"/>
<path d="M93.5628 27.3916C93.5694 27.3873 93.5759 27.383 93.5826 27.3787C93.5858 27.4035 94.2976 32.5284 90.3877 33.6655" stroke="#B79300" stroke-width="0.8" stroke-miterlimit="10"/>
<path d="M89.9324 19.3032C89.9324 19.3032 92.3061 25.3567 88.9829 27.4623L89.9324 19.3032Z" fill="#B79300"/>
<path d="M89.9324 19.3032C89.9324 19.3032 92.3061 25.3567 88.9829 27.4623" stroke="#B79300" stroke-width="0.8" stroke-miterlimit="10"/>
<path d="M88.9833 27.4623C88.9833 27.4623 87.1054 21.9562 89.9328 19.3032L88.9833 27.4623Z" fill="#FFCC00"/>
<path d="M88.9833 27.4623C88.9833 27.4623 87.1054 21.9562 89.9328 19.3032" stroke="#B79300" stroke-width="0.8" stroke-miterlimit="10"/>
<path d="M94.5281 34.2341C94.4749 34.8087 93.8877 38.9448 87.5913 39.8326L94.5281 34.2341Z" fill="#B79300"/>
<path d="M94.5281 34.2341C94.4749 34.8087 93.8877 38.9448 87.5913 39.8326" stroke="#B79300" stroke-width="0.8" stroke-miterlimit="10"/>
<path d="M85.3587 14.8279L84.4144 17.3135C83.9713 18.5558 83.7393 19.8507 83.7393 21.1667V32.5367V38.3659H85.3955H87.0518V32.5367V21.1667C87.0518 19.8507 86.8197 18.5558 86.3766 17.3135L85.3587 14.8279Z" stroke="#B79300" stroke-width="0.8" stroke-miterlimit="10"/>
<path d="M82.0737 28.042C84.7113 30.2489 87.2597 31.9198 89.7646 33.8849" stroke="black" stroke-width="0.8" stroke-miterlimit="10"/>
<path d="M82.0737 28.042C82.0737 28.042 88.0345 28.6526 89.7541 33.7586C89.7541 33.7579 89.7334 33.7599 89.6939 33.7626" fill="#FFCC00"/>
<path d="M82.0737 28.042C82.0737 28.042 88.0345 28.6526 89.7541 33.7586C89.7541 33.7579 89.7334 33.7599 89.6939 33.7626" stroke="#B79300" stroke-width="0.8" stroke-miterlimit="10"/>
<path d="M89.6939 33.7626C89.1008 33.8035 84.2796 34.0139 82.0737 28.042L89.6939 33.7626Z" fill="#B79300"/>
<path d="M89.6939 33.7626C89.1008 33.8035 84.2796 34.0139 82.0737 28.042" stroke="#B79300" stroke-width="0.8" stroke-miterlimit="10"/>
<path d="M82.0737 28.042C84.7113 30.2489 87.2597 31.9198 89.7647 33.8849" stroke="#B79300" stroke-width="0.8" stroke-miterlimit="10"/>
<path d="M93.5728 27.3784C92.4669 29.6509 91.4401 31.757 90.2812 33.8846" stroke="#B79300" stroke-width="0.8" stroke-miterlimit="10"/>
<path d="M87.5913 39.8321C87.5913 39.8321 92.5244 35.9223 94.5235 34.2788" stroke="#B79300" stroke-width="0.8" stroke-miterlimit="10"/>
<path d="M88.5613 27.567C86.2981 26.1177 84.0465 24.7297 82.1997 22.7664" stroke="black" stroke-width="0.8" stroke-miterlimit="10"/>
<path d="M89.9324 19.3032C89.6775 22.0518 89.3321 24.8908 88.9829 27.1991V27.4623" stroke="#B79300" stroke-width="0.8" stroke-miterlimit="10"/>
<path fill-rule="evenodd" clip-rule="evenodd" d="M67.3524 42.95L63.5596 48.8874C69.2234 56.1935 76.1253 59.7912 85.3779 59.7261C94.6306 59.7912 101.533 56.1935 107.197 48.8874L103.404 42.95C100.594 49.1285 93.5377 53.6719 85.3779 53.6419C77.2183 53.6718 70.1619 49.1284 67.3524 42.95Z" fill="#FFCC00" stroke="#B79300" stroke-width="0.8" stroke-linecap="round" stroke-linejoin="round"/>
<path d="M88.3757 27.5011C87.8468 27.6407 83.71 28.1845 82.0288 22.5781L88.3757 27.5011Z" fill="#B79300"/>
<path d="M88.3757 27.5011C87.8468 27.6407 83.71 28.1845 82.0288 22.5781" stroke="#B79300" stroke-width="0.8" stroke-miterlimit="10"/>
<path d="M82.0288 22.5781C82.0288 22.5781 86.9936 23.1036 88.4259 27.4976C88.4259 27.497 88.4086 27.4987 88.3757 27.5011" fill="#FFCC00"/>
<path d="M82.0288 22.5781C82.0288 22.5781 86.9936 23.1036 88.4259 27.4976C88.4259 27.497 88.4086 27.4987 88.3757 27.5011" stroke="#B79300" stroke-width="0.8" stroke-miterlimit="10"/>
<path d="M82.0288 22.5781C84.2257 24.4773 86.3483 25.9152 88.4347 27.6063" stroke="#B79300" stroke-width="0.8" stroke-miterlimit="10"/>
<path d="M85.396 39.5484L83.75 39.9801L81.4819 38.5693L85.396 38.5952" fill="#B79300"/>
<path d="M85.396 39.5484L83.75 39.9801L81.4819 38.5693L85.396 38.5952" stroke="#B79300" stroke-width="0.8" stroke-miterlimit="10" stroke-linecap="round" stroke-linejoin="round"/>
<path d="M85.396 39.5493L87.2105 39.981L89.0759 38.5718L85.396 38.5961" fill="#B79300"/>
<path d="M85.396 39.5493L87.2105 39.981L89.0759 38.5718L85.396 38.5961" stroke="#B79300" stroke-width="0.8" stroke-miterlimit="10" stroke-linecap="round" stroke-linejoin="round"/>
<path d="M81.5264 38.5691H88.4005" stroke="black" stroke-width="0.8" stroke-miterlimit="10"/>
<path d="M85.396 38.5953L89.0759 38.571L87.0521 37.0588L85.396 37.4905" fill="#FFCC00"/>
<path d="M85.396 38.5953L89.0759 38.571L87.0521 37.0588L85.396 37.4905" stroke="#B79300" stroke-width="0.8" stroke-miterlimit="10" stroke-linecap="round" stroke-linejoin="round"/>
<path d="M85.396 38.5953L81.4819 38.5694L83.7395 37.0588L85.396 37.4905" fill="#FFCC00"/>
<path d="M85.396 38.5953L81.4819 38.5694L83.7395 37.0588L85.396 37.4905" stroke="#B79300" stroke-width="0.8" stroke-miterlimit="10" stroke-linecap="round" stroke-linejoin="round"/>
<path d="M87.5915 39.8322C87.5662 39.8259 90.0237 35.0092 94.5334 34.1682C94.5334 34.1726 94.5319 34.1951 94.5282 34.2338" fill="#FFCC00"/>
<path d="M87.5915 39.8322C87.5662 39.8259 90.0237 35.0092 94.5334 34.1682C94.5334 34.1726 94.5319 34.1951 94.5282 34.2338" stroke="#B79300" stroke-width="0.8" stroke-miterlimit="10"/>
<path d="M83.1909 42.1165C83.1909 42.1165 83.212 42.106 83.2436 42.0955C83.2858 42.0744 83.3386 42.0534 83.4124 42.0113C83.5707 41.9376 83.7922 41.8218 84.0665 41.6639C84.3514 41.5059 84.6784 41.2954 85.0582 41.0427C85.4275 40.79 85.8389 40.4847 86.2504 40.1163C86.6724 39.7478 87.0943 39.3267 87.5058 38.8529C87.9067 38.3686 88.297 37.8212 88.6135 37.2211C88.93 36.6105 89.1832 35.9472 89.3415 35.2524C89.3626 35.1682 89.3837 35.0734 89.3942 34.9892L89.4364 34.726C89.4681 34.5471 89.4786 34.3681 89.4997 34.1891L89.5103 34.0522V34.0206C89.5103 34.0206 89.5103 34.0101 89.5103 34.0206V34.0101V33.989V33.9154L89.5208 33.6311C89.5314 33.4416 89.5208 33.2626 89.5208 33.0731C89.5103 32.3362 89.4364 31.5887 89.3309 30.8623C89.2254 30.1359 88.9674 29.0667 88.7986 28.3824L89.2628 28.2561C89.6426 29.6352 90.0378 31.5045 90.0905 33.0521C90.0905 33.2416 90.1011 33.4521 90.1011 33.6311V33.9154V33.989V34.0101V34.0312V34.0628L90.0905 34.2102C90.08 34.4102 90.0694 34.5997 90.0378 34.7892L89.9956 35.0734C89.9745 35.1682 89.9534 35.2629 89.9428 35.3577C89.7846 36.1157 89.5314 36.8421 89.1938 37.5054C88.8562 38.1581 88.4553 38.7582 88.0333 39.2846C87.6113 39.811 87.1682 40.2637 86.7357 40.6532C86.3031 41.0427 85.8811 41.3796 85.4908 41.6533C85.1004 41.927 84.7523 42.1481 84.4569 42.3271C84.1615 42.5061 83.9294 42.6324 83.7606 42.7166C83.6762 42.7587 83.6129 42.7903 83.5707 42.8114C83.5285 42.8324 83.4968 42.843 83.4968 42.843L83.4652 42.8219C83.2542 42.6851 83.1381 42.4008 83.1909 42.1165H83.1909Z" fill="#B79300" stroke="#B79300" stroke-width="0.8" stroke-miterlimit="10" stroke-linejoin="round"/>
<path d="M88.8771 27.1463C89.183 27.1463 89.4362 27.399 89.4362 27.7043C89.4362 28.0096 89.183 28.2623 88.8771 28.2623C88.5711 28.2623 88.3179 28.0096 88.3179 27.7043C88.3179 27.399 88.5711 27.1463 88.8771 27.1463ZM88.8771 26.9358C88.4445 26.9358 88.1069 27.2832 88.1069 27.7043C88.1069 28.136 88.4551 28.4728 88.8771 28.4728C89.2991 28.4728 89.6472 28.1254 89.6472 27.7043C89.6472 27.2832 89.3096 26.9358 88.8771 26.9358Z" fill="#B79300"/>
<path d="M88.8771 28.3783C88.5078 28.3783 88.2124 28.0835 88.2124 27.715C88.2124 27.3465 88.5078 27.0518 88.8771 27.0518C89.2463 27.0518 89.5417 27.3465 89.5417 27.715C89.5417 28.0835 89.2463 28.3783 88.8771 28.3783Z" fill="url(#paint0_radial_1_1007)"/>
<path d="M89.7533 33.2953C90.0803 33.2953 90.3546 33.5585 90.3546 33.8954C90.3546 34.2217 90.0909 34.4954 89.7533 34.4954C89.4262 34.4954 89.1519 34.2322 89.1519 33.8954C89.1625 33.5585 89.4262 33.2953 89.7533 33.2953ZM89.7533 33.0847C89.3102 33.0847 88.9409 33.4427 88.9409 33.8954C88.9409 34.3375 89.2996 34.706 89.7533 34.706C90.1964 34.706 90.5656 34.3481 90.5656 33.8954C90.5656 33.4427 90.2069 33.0847 89.7533 33.0847Z" fill="#B79300"/>
<path d="M89.7532 34.5904C89.3629 34.5904 89.0464 34.2746 89.0464 33.885C89.0464 33.4955 89.3629 33.1797 89.7532 33.1797C90.1436 33.1797 90.4601 33.4955 90.4601 33.885C90.4601 34.2746 90.1436 34.5904 89.7532 34.5904Z" fill="url(#paint1_radial_1_1007)"/>
<path d="M87.4945 57.2227C87.7071 57.2012 87.9196 57.1773 88.1317 57.1511C88.4355 57.1135 88.554 56.9853 88.4748 56.6949C88.4051 56.4397 88.3366 56.1843 88.269 55.9287C88.2574 55.8915 88.23 55.8756 88.1867 55.8808C87.9746 55.906 87.762 55.9288 87.5493 55.9493C87.6428 55.6831 87.733 55.4165 87.8199 55.1495C88.1217 55.1167 88.4226 55.079 88.7224 55.0361C88.8079 55.0239 88.8678 55.0307 88.9027 55.0572C88.9389 55.0817 88.9699 55.1377 88.9954 55.2254C89.2194 55.9854 89.4527 56.7431 89.6954 57.4983C89.4355 57.6493 89.1719 57.7966 88.9049 57.9402C88.8089 57.6669 88.7145 57.3931 88.6218 57.1189C88.5191 57.3923 88.4126 57.6652 88.3024 57.9375C87.9548 57.98 87.6067 58.0162 87.2585 58.0464C87.3399 57.7722 87.4186 57.4976 87.4945 57.2227Z" fill="#B79300"/>
<path d="M78.747 53.8012C78.4943 53.856 78.2386 53.9052 77.98 53.9482C77.8664 54.2696 77.7527 54.591 77.639 54.9123C77.6233 54.9362 77.6309 54.9536 77.6618 54.9643C78.1175 55.1223 78.5797 55.2619 79.047 55.3843L78.7087 56.6702C78.4382 56.5991 78.169 56.5226 77.9013 56.4404C77.7383 56.6464 77.5722 56.8508 77.4028 57.0533C77.9343 57.2246 78.471 57.3743 79.0114 57.5036C79.2058 57.3497 79.3966 57.1931 79.5837 57.0342L80.0156 55.04C80.0479 54.8909 79.9743 54.8205 79.859 54.7945C79.4171 54.6949 78.98 54.58 78.549 54.4489C78.615 54.233 78.681 54.0171 78.747 53.8012Z" fill="#B79300"/>
<path d="M97.3031 52.4167C97.3563 52.1791 97.4048 51.9419 97.4489 51.7052C98.0914 51.8997 98.7535 52.0658 99.4322 52.2036C99.4658 52.2068 99.473 52.1948 99.4528 52.1687C99.3241 51.9972 99.1953 51.8256 99.0665 51.6541C98.9688 51.7272 98.8705 51.7995 98.7716 51.8711C98.701 51.607 98.6272 51.3442 98.5505 51.0828C98.6357 51.0195 98.7205 50.9554 98.8048 50.8908C98.8898 50.8257 98.9743 50.7599 99.0584 50.6935C99.1701 50.6054 99.2719 50.6199 99.3643 50.74C99.5681 51.0025 99.7717 51.265 99.9751 51.5277C100.015 51.5826 100.022 51.6338 99.9959 51.6813C99.8937 51.8691 99.7884 52.0562 99.68 52.2425C100.073 52.3235 100.472 52.3951 100.875 52.4575C100.784 52.7032 100.687 52.9488 100.586 53.1942C99.8355 53.0656 99.1025 52.9051 98.3908 52.7122C98.3508 52.7035 98.3409 52.7143 98.3614 52.7445C98.5186 52.9819 98.6759 53.2193 98.833 53.4567C98.9547 53.3755 99.0756 53.2931 99.1957 53.2097C99.289 53.441 99.3808 53.673 99.471 53.9058C99.1899 54.098 98.9046 54.2845 98.6151 54.4652C98.5716 54.4923 98.5338 54.4799 98.5017 54.4284L97.8133 53.3223C97.7812 53.2707 97.7786 53.2295 97.8053 53.1986C97.8995 53.0154 97.9905 52.8318 98.0782 52.6479C97.8168 52.5753 97.5584 52.4982 97.3031 52.4167L97.3031 52.4167Z" fill="#B79300"/>
<path d="M93.2057 56.9984L92.7767 55.6126L92.7544 55.5405C92.7571 55.5251 92.7722 55.5078 92.7996 55.4883C93.039 55.3493 93.2749 55.2064 93.5072 55.0596L93.9898 56.4303C93.7336 56.624 93.4721 56.8134 93.2057 56.9984Z" fill="#B79300"/>
<path d="M92.5513 54.1721C92.8209 54.0862 93.0885 53.995 93.3539 53.8984C93.7062 53.7702 94.0546 53.6323 94.3985 53.4846C94.6331 53.3837 94.8045 53.448 94.9132 53.6879L95.8251 55.7008C95.5716 55.922 95.3119 56.1384 95.0464 56.35L94.2825 54.4497C94.2624 54.3997 94.2185 54.3884 94.151 54.415C93.6281 54.6214 93.0969 54.8067 92.5591 54.9719C92.5592 54.7049 92.5566 54.4383 92.5513 54.1721Z" fill="#B79300"/>
<path d="M89.9939 57.7708L89.7424 56.3389L89.7293 56.2644C89.7339 56.2495 89.7511 56.2341 89.7808 56.2182C90.0361 56.1102 90.2888 55.9984 90.5386 55.883L90.8385 57.3071C90.561 57.4661 90.2794 57.6206 89.9939 57.7708Z" fill="#B79300"/>
<path d="M89.7009 54.8781C89.9817 54.8268 90.2613 54.7708 90.5394 54.7098C90.9086 54.6289 91.2752 54.5394 91.6388 54.4408C91.887 54.3735 92.0482 54.4616 92.1218 54.7138L92.7401 56.8317C92.461 57.0152 92.1769 57.1939 91.8881 57.3677L91.3893 55.3808C91.3762 55.3285 91.3342 55.3113 91.2635 55.3287C90.716 55.4627 90.163 55.5776 89.6062 55.6744C89.6402 55.4088 89.6717 55.1434 89.7009 54.8781Z" fill="#B79300"/>
<path d="M99.6957 50.1722C99.8031 50.4166 99.9083 50.6623 100.011 50.9093C100.35 50.6279 100.681 50.337 101.005 50.0375C101.022 50.0219 101.039 50.0064 101.056 49.9908C101.1 49.9493 101.142 49.9493 101.181 49.9913L101.711 50.5549C101.857 50.7099 101.976 50.8317 102.063 50.9131C101.684 51.268 101.294 51.612 100.894 51.944C100.971 52.1876 101.046 52.4325 101.119 52.6786C101.863 52.0757 102.574 51.4328 103.248 50.7566C103.159 50.5091 103.068 50.263 102.975 50.0186C102.857 50.1396 102.738 50.2596 102.618 50.3785C102.314 50.6804 102.623 50.1873 102.39 49.9563L101.376 48.9477C101.262 48.8345 101.133 48.8498 101.045 48.9371C100.61 49.366 100.16 49.7785 99.6957 50.1722L99.6957 50.1722Z" fill="#B79300"/>
<path d="M103.466 50.5345C103.377 50.2954 103.286 50.0578 103.193 49.8217C103.555 49.441 103.907 49.0503 104.247 48.6507C103.981 48.7014 103.576 48.7119 103.105 48.7312C102.975 48.7343 102.727 48.7165 102.377 48.67C102.264 48.7912 102.15 48.9114 102.034 49.0305C101.936 48.763 101.835 48.4974 101.731 48.2339C101.886 48.07 102.038 47.904 102.188 47.7361C102.223 47.697 102.273 47.6923 102.337 47.7221C102.624 47.8459 102.911 47.9133 103.198 47.9219C103.353 47.9246 103.574 47.9126 103.856 47.8813C103.915 47.8777 103.919 47.854 103.866 47.8108L103.441 47.4596C103.377 47.5367 103.313 47.6134 103.248 47.6898C103.121 47.4436 102.991 47.1994 102.859 46.957C102.997 46.7913 103.132 46.624 103.266 46.4552C103.358 46.3386 103.463 46.327 103.58 46.4224C103.828 46.6265 104.075 46.8308 104.321 47.0354C104.256 47.3084 104.186 47.5819 104.111 47.8558C104.403 47.8242 104.736 47.7806 105.077 47.6941C105.164 47.9353 105.249 48.1783 105.331 48.4232C104.745 49.1544 104.123 49.8603 103.466 50.5345L103.466 50.5345Z" fill="#B79300"/>
<path d="M85.1781 58.1519C85.2142 57.9057 85.2492 57.6595 85.2832 57.4133C85.3327 57.4123 85.3822 57.4112 85.4317 57.4099C85.6579 57.405 85.8843 57.3976 86.1107 57.3877L86.0509 56.0551C85.9074 56.0615 85.7639 56.067 85.6204 56.0714C85.6585 55.8144 85.6954 55.5573 85.7312 55.3001C86.0428 55.2887 86.3542 55.2727 86.6652 55.2517C86.7856 55.2435 86.8779 55.2904 86.8893 55.4429L87.0538 57.6423C86.9166 57.7954 86.7774 57.9476 86.6362 58.0988C86.2401 58.1221 85.8442 58.1378 85.4489 58.146C85.3587 58.1484 85.2684 58.1504 85.1781 58.1519L85.1781 58.1519Z" fill="#B79300"/>
<path d="M76.2285 54.3951C76.3745 54.1805 76.5188 53.9651 76.6612 53.7487C76.9005 53.8547 77.1426 53.9547 77.3871 54.049C77.568 54.1186 77.6291 54.2375 77.5658 54.4106L77.5569 54.435C77.4334 54.7732 77.31 55.1114 77.1866 55.4497C76.8803 55.4415 76.5719 55.4254 76.2613 55.4009L76.6142 54.5629C76.485 54.5085 76.3564 54.4526 76.2284 54.3951L76.2285 54.3951Z" fill="#B79300"/>
<path d="M73.2331 51.8108C72.9916 51.9552 72.7475 52.0969 72.5011 52.236C72.6052 52.3099 72.7099 52.3829 72.8151 52.4552C72.4725 53.0801 72.135 53.7081 71.8028 54.3392C72.3162 54.6709 72.8426 54.9865 73.3822 55.2829C73.8963 55.5663 74.3059 55.6698 74.5805 55.623C74.7827 55.5927 74.9973 55.438 75.223 55.1589C75.5881 54.7109 75.9443 54.257 76.2912 53.7972C76.3029 53.7796 76.3119 53.7637 76.3185 53.7495C76.3581 53.6641 76.3255 53.5978 76.222 53.5489C75.9564 53.4236 75.6935 53.2916 75.4331 53.1535C75.2432 53.3421 75.0508 53.5288 74.856 53.7137C74.9678 53.7747 75.0802 53.8347 75.193 53.8936C74.948 54.1688 74.6991 54.4413 74.4465 54.7111C74.3874 54.782 74.3234 54.8156 74.2543 54.8117C74.1627 54.8151 74.0228 54.7687 73.8369 54.6715C73.5232 54.508 73.2133 54.3374 72.9074 54.1605C72.9702 54.0467 73.0331 53.9329 73.0961 53.8192C73.3057 53.9369 73.5169 54.0516 73.7297 54.163C73.8309 54.2161 73.9218 54.2179 74 54.1726C74.4153 53.8017 74.8212 53.4233 75.2168 53.037C74.9396 52.8856 74.6654 52.7273 74.3941 52.5629C74.1622 52.7214 73.9273 52.877 73.6895 53.0299C73.7974 53.0976 73.9059 53.1643 74.0149 53.2302C74.0166 53.2294 74.0183 53.2286 74.02 53.2278C73.889 53.3437 73.7571 53.4588 73.6243 53.5732C73.4957 53.6733 73.4013 53.6496 73.2474 53.5574C73.4506 53.1812 73.6551 52.8057 73.8609 52.4311C73.9176 52.333 73.8947 52.2516 73.7933 52.1857C73.6051 52.0635 73.4184 51.9385 73.2331 51.8108L73.2331 51.8108Z" fill="#B79300"/>
<path d="M71.1673 50.2409C71.2693 50.3256 71.3718 50.4097 71.4747 50.493C71.6232 50.6133 71.7726 50.7321 71.9231 50.8494C72.0735 50.9665 72.2249 51.0821 72.3772 51.1961C72.5854 51.3518 72.6148 51.5341 72.4595 51.7468L71.1555 53.5336C70.8414 53.4269 70.5284 53.3144 70.2169 53.1967L71.4775 51.5775C71.5089 51.5372 71.4994 51.4959 71.4495 51.4535C71.4467 51.4511 71.4437 51.4487 71.4406 51.4463C71.1201 51.196 70.8045 50.9395 70.4933 50.6773C70.7192 50.5332 70.9439 50.3877 71.1673 50.2409L71.1673 50.2409Z" fill="#B79300"/>
<path d="M82.0803 58.0857L82.2272 56.6384L82.2349 56.5631C82.2434 56.55 82.2641 56.5398 82.2971 56.5325C82.5726 56.4977 82.8466 56.458 83.1188 56.4137L83.0239 57.8686C82.7128 57.9469 82.3982 58.0194 82.0803 58.0857Z" fill="#B79300"/>
<path d="M82.5826 55.2184C82.866 55.2442 83.1503 55.2647 83.4352 55.2803C83.8133 55.3009 84.1925 55.3128 84.572 55.3164C84.8313 55.3188 84.9634 55.4481 84.9653 55.7113L84.9813 57.9223C84.6644 58.0236 84.3436 58.1194 84.019 58.2092L84.075 56.1564C84.0765 56.1023 84.0406 56.0745 83.9675 56.0721C83.4022 56.0542 82.8377 56.0174 82.2759 55.9603C82.3807 55.7137 82.4829 55.4664 82.5826 55.2184Z" fill="#B79300"/>
<path d="M68.0289 46.3313C67.7705 46.2425 67.5118 46.1512 67.253 46.0578C67.0004 46.2886 66.7478 46.5195 66.4952 46.7503C66.47 46.764 66.4686 46.7831 66.4912 46.8075C66.824 47.1671 67.1608 47.5228 67.5023 47.8735L66.5439 48.8028C66.3542 48.608 66.1661 48.4118 65.9797 48.2146C65.7374 48.316 65.4945 48.4165 65.2511 48.5161C65.6115 48.9012 65.9783 49.2828 66.352 49.6596C66.5944 49.6262 66.8362 49.5912 67.0772 49.5547L68.5207 48.104C68.6285 47.9956 68.6029 47.8945 68.5163 47.8079C68.1849 47.4764 67.8577 47.1394 67.5341 46.7979C67.6991 46.6424 67.864 46.4868 68.029 46.3313L68.0289 46.3313Z" fill="#B79300"/>
<path d="M68.6012 48.4533C68.848 48.4511 69.0939 48.4467 69.3388 48.4401C69.301 49.1188 69.2791 49.8028 69.2768 50.4931C69.2802 50.5265 69.2934 50.5311 69.3151 50.5063C69.4582 50.3462 69.6014 50.1862 69.7446 50.0261C69.6528 49.9444 69.5615 49.8621 69.4705 49.7795C69.7159 49.6568 69.9602 49.5326 70.2032 49.4068C70.2839 49.479 70.3649 49.5509 70.4462 49.6224C70.5281 49.6944 70.6103 49.7659 70.6928 49.8371C70.8024 49.9316 70.8075 50.035 70.7065 50.1478C70.4859 50.3965 70.2652 50.645 70.0444 50.8934C69.9978 50.9428 69.9487 50.9593 69.8972 50.9427C69.6936 50.8781 69.4901 50.8114 69.2866 50.7427C69.2826 51.1423 69.2853 51.5441 69.2951 51.9482C69.0388 51.9063 68.7822 51.8614 68.5253 51.8138C68.5156 51.063 68.5296 50.3201 68.5632 49.5841C68.5631 49.5432 68.5503 49.5359 68.5252 49.5625C68.3273 49.7683 68.1294 49.974 67.9315 50.1797C68.0358 50.2784 68.1407 50.3767 68.2461 50.4745C68.0397 50.6154 67.8327 50.7556 67.6251 50.8951C67.3838 50.6697 67.1454 50.4418 66.9098 50.2119C66.8745 50.1774 66.8783 50.1384 66.921 50.095L67.8376 49.1635C67.8803 49.12 67.9199 49.1076 67.9562 49.1261C68.1567 49.174 68.357 49.2203 68.557 49.265C68.5692 48.9935 68.584 48.723 68.6012 48.4533Z" fill="#B79300"/>
<path d="M108.117 42.9355L109.789 42.9398C110.272 42.9409 111.001 42.7155 111.481 42.3038C111.133 41.0483 108.851 40.7577 107.904 40.7749L108.117 42.9355Z" fill="#FFCC00" stroke="#B79300" stroke-width="0.8"/>
<path d="M103.623 42.9495L103.553 49.1426L110.054 48.6435C111.063 48.4732 111.228 47.9611 111.254 47.3959L111.504 43.2156C111.504 43.2156 111.545 42.5605 111.508 42.3861C111.439 42.0584 111.19 41.9761 110.995 42.1751C110.752 42.424 110.137 42.8706 109.604 42.8663L103.623 42.9495Z" fill="#FFCC00" stroke="#B79300" stroke-width="0.8"/>
<path d="M62.683 42.9606L61.0114 42.965C60.5284 42.9661 59.7989 42.7407 59.3198 42.3289C59.6675 41.0734 61.9492 40.7829 62.8966 40.8L62.683 42.9606Z" fill="#FFCC00" stroke="#B79300" stroke-width="0.8"/>
<path d="M67.1789 42.9751L67.2489 49.1682L60.7479 48.6692C59.7385 48.4988 59.5736 47.9868 59.5477 47.4216L59.2976 43.2412C59.2976 43.2412 59.2569 42.5861 59.2937 42.4117C59.3629 42.084 59.6121 42.0017 59.8067 42.2007C60.0501 42.4497 60.6647 42.8962 61.198 42.8919L67.1789 42.9751Z" fill="#FFCC00" stroke="#B79300" stroke-width="0.8"/>
<path fill-rule="evenodd" clip-rule="evenodd" d="M85.2297 12.353C84.1452 12.353 83.1324 12.9359 82.5842 13.8755C79.4323 20.6625 77.9915 20.4459 70.9643 20.6661C69.8916 20.7019 68.9261 21.2846 68.4019 22.2003C67.8656 23.128 67.8538 24.2695 68.3783 25.1973C72.4877 31.2662 71.803 32.4019 68.5927 38.4336C68.0921 39.3613 68.116 40.4909 68.6521 41.4068C69.1885 42.3223 70.1537 42.8934 71.2143 42.9291C78.7732 42.4084 79.2894 43.9412 83.168 49.9344C83.7402 50.8264 84.6831 51.3496 85.744 51.3375C86.7927 51.3257 87.8162 50.7667 88.3644 49.8749C91.6471 43.2368 92.8346 43.126 99.7219 43.0841C100.807 43.072 101.807 42.4895 102.356 41.5618C102.892 40.6224 102.904 39.4691 102.379 38.5295C98.1506 32.4282 99.2137 31.1936 102.368 24.9358C102.844 23.9965 102.797 22.8785 102.26 21.9864C100.03 23.3678 100.03 23.3676 102.26 21.9864C101.724 21.0826 100.759 20.5237 99.71 20.4998C92.1091 20.9992 91.476 19.9402 87.8755 13.8517C87.3273 12.9239 86.3143 12.3531 85.2297 12.3531V12.353ZM85.2417 15.4097C89.1299 21.996 91.3026 24.214 99.6383 23.5566C96.2495 30.2803 94.9586 33.3282 99.698 40.0157C92.2242 40.0765 89.2579 40.9294 85.744 48.2811V48.2814C81.5961 41.8381 79.6102 39.2137 71.2979 39.8734C74.7743 33.3418 75.6695 30.3528 71.0596 23.7231C78.645 23.485 81.8451 22.9546 85.2417 15.4098V15.4097Z" fill="#FFCC00"/>
<path fill-rule="evenodd" clip-rule="evenodd" d="M85.3285 14.7305C87.8797 21.0564 91.269 24.4738 99.6373 23.5561C96.2484 30.2798 94.9576 33.3277 99.697 40.0152C92.2231 40.0761 89.2568 40.929 85.743 48.2807V48.2809C81.595 41.8377 79.6092 39.2132 71.2968 39.873C74.7733 33.3414 75.6684 30.3523 71.0586 23.7226C78.644 23.4846 82.2557 22.5777 85.3285 14.7306V14.7305Z" stroke="#B79300" stroke-width="0.8" stroke-linecap="round" stroke-linejoin="round"/>
<path d="M83.1909 42.1177C83.1909 42.1177 83.212 42.1071 83.2436 42.0966C83.2858 42.0755 83.3386 42.0545 83.4124 42.0124C83.5707 41.9387 83.7922 41.8229 84.0665 41.665C84.3514 41.507 84.6784 41.2965 85.0582 41.0438C85.4275 40.7912 85.8389 40.4859 86.2504 40.1174C86.6724 39.7489 87.0943 39.3278 87.5058 38.854C87.9067 38.3698 88.297 37.8223 88.6135 37.2222C88.93 36.6116 89.1832 35.9484 89.3415 35.2535C89.3626 35.1693 89.3837 35.0746 89.3942 34.9903L89.4364 34.7272C89.4681 34.5482 89.4786 34.3692 89.4997 34.1902L89.5103 34.0534V34.0218C89.5103 34.0218 89.5103 34.0112 89.5103 34.0218V34.0112V33.9902V33.9165L89.5208 33.6322C89.5314 33.4427 89.5208 33.2638 89.5208 33.0743C89.5103 32.3373 89.4364 31.5898 89.3309 30.8634C89.2254 30.137 89.0672 29.4211 88.8984 28.7368C88.5502 27.3682 88.1177 26.1259 87.7063 25.0731C87.2948 24.0203 86.8939 23.1571 86.6091 22.5675C86.4614 22.2727 86.3453 22.0411 86.2609 21.8832C86.1765 21.7253 86.1343 21.6411 86.1343 21.6411L86.4192 21.4832C86.4192 21.4832 86.4614 21.5674 86.5563 21.7253C86.6407 21.8832 86.7673 22.1148 86.915 22.4096C87.221 22.9992 87.6324 23.8624 88.0755 24.9152C88.5186 25.968 88.9828 27.2313 89.3626 28.6105C89.7424 29.9896 90.0378 31.5056 90.0905 33.0532C90.0905 33.2427 90.1011 33.4533 90.1011 33.6322V33.9165V33.9902V34.0112V34.0323V34.0639L90.0905 34.2113C90.08 34.4113 90.0694 34.6008 90.0378 34.7903L89.9956 35.0746C89.9745 35.1693 89.9534 35.2641 89.9428 35.3588C89.7846 36.1168 89.5314 36.8432 89.1938 37.5065C88.8562 38.1592 88.4553 38.7593 88.0333 39.2857C87.6113 39.8121 87.1682 40.2648 86.7357 40.6543C86.3031 41.0438 85.8811 41.3807 85.4908 41.6544C85.1004 41.9282 84.7523 42.1493 84.4569 42.3282C84.1615 42.5072 83.9294 42.6335 83.7606 42.7178C83.6762 42.7599 83.6129 42.7914 83.5707 42.8125C83.5285 42.8336 83.4968 42.8441 83.4968 42.8441L83.4652 42.823C83.2542 42.6862 83.1381 42.4019 83.1909 42.1177H83.1909Z" fill="#FFCC00" stroke="#B79300" stroke-width="0.8" stroke-miterlimit="10" stroke-linejoin="round"/>
<path fill-rule="evenodd" clip-rule="evenodd" d="M85.2303 12.3529C84.1457 12.3529 83.1329 12.9357 82.5847 13.8753C79.4328 20.6623 77.992 20.4457 70.9648 20.6659C69.892 20.7017 68.9266 21.2843 68.4024 22.2C67.866 23.1278 67.8543 24.2693 68.3788 25.1971C72.4882 31.266 71.8035 32.4017 68.5932 38.4334C68.0926 39.3611 68.1165 40.4907 68.6526 41.4067C69.189 42.3221 70.1542 42.8932 71.2148 42.9289C78.7737 42.4082 79.2899 43.9411 83.1685 49.9342C83.7407 50.8263 84.7298 51.3494 85.7907 51.3373C86.8394 51.3255 87.8168 50.7665 88.365 49.8747C91.6476 43.2366 92.8351 43.1258 99.7224 43.0839C100.807 43.0718 101.808 42.4892 102.356 41.5615C102.892 40.6221 102.905 39.4689 102.38 38.5294C98.1512 32.4281 99.2143 31.1935 102.368 24.9357C102.845 23.9964 102.797 22.8784 102.261 21.9863V21.986C101.725 21.0822 100.759 20.5233 99.7105 20.4994C92.1096 20.9988 91.4765 19.9398 87.876 13.8513C87.3278 12.9235 86.3148 12.3528 85.2303 12.3528V12.3529Z" stroke="#B79300" stroke-width="0.8"/>
<path d="M83.7393 38.8447V46.0236H85.3851H87.0414V38.8447H83.7393Z" fill="#FFCC00" stroke="#B79300" stroke-width="0.8" stroke-miterlimit="10"/>
<path d="M87.0282 40.6941L83.7788 41.9048L83.8351 42.1072L87.0282 40.9152V40.6941Z" fill="#B79300"/>
<path d="M83.7617 41.0748L87.0005 39.8642V39.6431L83.7617 40.8538V41.0748Z" fill="#B79300"/>
<path d="M81.4717 17.408C81.4717 17.408 86.052 18.4377 86.2502 22.5337L81.4717 17.408Z" fill="#FFCC00"/>
<path d="M81.4717 17.408C81.4717 17.408 86.052 18.4377 86.2502 22.5337" stroke="#B79300" stroke-width="0.8" stroke-miterlimit="10"/>
<path d="M86.2508 22.5337C86.2508 22.5376 86.2508 22.5416 86.2518 22.5455C86.2412 22.535 83.34 23.1667 81.4727 17.408" fill="#B79300"/>
<path d="M86.2508 22.5337C86.2508 22.5376 86.2508 22.5416 86.2518 22.5455C86.2412 22.535 83.34 23.1667 81.4727 17.408" stroke="#B79300" stroke-width="0.8" stroke-miterlimit="10"/>
<path d="M81.4717 17.408C83.2975 19.2714 84.5587 20.9453 86.0187 22.356L86.2508 22.535" stroke="#B79300" stroke-width="0.8" stroke-miterlimit="10"/>
<path d="M84.4149 17.3134L85.396 14.6467V38.3657H83.7397V32.5366V21.1666C83.7397 19.8506 83.9718 18.5557 84.4149 17.3134H84.4149Z" fill="#FFCC00"/>
<path d="M86.3776 17.3134L85.3965 14.6467V38.3657H87.0528V32.5366V21.1666C87.0528 19.8506 86.8207 18.5557 86.3776 17.3134H86.3776Z" fill="#B79300"/>
<path d="M87.0284 44.8064L83.7393 46.0229V46.2545L87.0284 45.038V44.8064Z" fill="#B79300"/>
<path d="M87.559 46.9806H83.2335C83.0331 46.9806 82.8643 46.8121 82.8643 46.6121V46.012C82.8643 45.812 83.0331 45.6436 83.2335 45.6436H87.559C87.7594 45.6436 87.9282 45.812 87.9282 46.012V46.6121C87.9282 46.8121 87.7594 46.9806 87.559 46.9806Z" fill="#FFCC00" stroke="#B79300" stroke-width="0.8" stroke-miterlimit="10"/>
<path d="M87.0298 43.7534L83.7754 44.9689V45.2005L87.0298 43.985V43.7534Z" fill="#B79300"/>
<path d="M87.0289 42.7307L83.7715 43.9392V44.1708L87.0289 42.9623V42.7307Z" fill="#B79300"/>
<path d="M87.0289 41.7219L83.7642 42.9386V43.1597L87.0289 41.943V41.7219Z" fill="#B79300"/>
<path d="M85.396 37.674V14.6934" stroke="#B79300" stroke-width="0.8" stroke-miterlimit="10" stroke-linecap="round" stroke-linejoin="round"/>
<path d="M90.3894 33.6657C90.354 33.676 90.3182 33.6859 90.2821 33.6956C90.2821 33.6956 90.177 29.6265 93.5645 27.3918" fill="#FFCC00"/>
<path d="M90.3894 33.6657C90.354 33.676 90.3182 33.686 90.2821 33.6956C90.2821 33.6956 90.177 29.6265 93.5645 27.3918" stroke="#B79300" stroke-width="0.8" stroke-miterlimit="10"/>
<path d="M93.5628 27.3916C93.5694 27.3873 93.5759 27.383 93.5826 27.3787C93.5858 27.4035 94.2976 32.5284 90.3877 33.6655" fill="#B79300"/>
<path d="M93.5628 27.3916C93.5694 27.3873 93.5759 27.383 93.5826 27.3787C93.5858 27.4035 94.2976 32.5284 90.3877 33.6655" stroke="#B79300" stroke-width="0.8" stroke-miterlimit="10"/>
<path d="M89.9324 19.3032C89.9324 19.3032 92.3061 25.3567 88.9829 27.4623L89.9324 19.3032Z" fill="#B79300"/>
<path d="M89.9324 19.3032C89.9324 19.3032 92.3061 25.3567 88.9829 27.4623" stroke="#B79300" stroke-width="0.8" stroke-miterlimit="10"/>
<path d="M88.9833 27.4623C88.9833 27.4623 87.1054 21.9562 89.9328 19.3032L88.9833 27.4623Z" fill="#FFCC00"/>
<path d="M88.9833 27.4623C88.9833 27.4623 87.1054 21.9562 89.9328 19.3032" stroke="#B79300" stroke-width="0.8" stroke-miterlimit="10"/>
<path d="M94.5281 34.2341C94.4749 34.8087 93.8877 38.9448 87.5913 39.8326L94.5281 34.2341Z" fill="#B79300"/>
<path d="M94.5281 34.2341C94.4749 34.8087 93.8877 38.9448 87.5913 39.8326" stroke="#B79300" stroke-width="0.8" stroke-miterlimit="10"/>
<path d="M85.3587 14.8279L84.4144 17.3135C83.9713 18.5558 83.7393 19.8507 83.7393 21.1667V32.5367V38.3659H85.3955H87.0518V32.5367V21.1667C87.0518 19.8507 86.8197 18.5558 86.3766 17.3135L85.3587 14.8279Z" stroke="#B79300" stroke-width="0.8" stroke-miterlimit="10"/>
<path d="M82.0737 28.042C84.7113 30.2489 87.2597 31.9198 89.7646 33.8849" stroke="black" stroke-width="0.8" stroke-miterlimit="10"/>
<path d="M82.0737 28.042C82.0737 28.042 88.0345 28.6526 89.7541 33.7586C89.7541 33.7579 89.7334 33.7599 89.6939 33.7626" fill="#FFCC00"/>
<path d="M82.0737 28.042C82.0737 28.042 88.0345 28.6526 89.7541 33.7586C89.7541 33.7579 89.7334 33.7599 89.6939 33.7626" stroke="#B79300" stroke-width="0.8" stroke-miterlimit="10"/>
<path d="M89.6939 33.7626C89.1008 33.8035 84.2796 34.0139 82.0737 28.042L89.6939 33.7626Z" fill="#B79300"/>
<path d="M89.6939 33.7626C89.1008 33.8035 84.2796 34.0139 82.0737 28.042" stroke="#B79300" stroke-width="0.8" stroke-miterlimit="10"/>
<path d="M82.0737 28.042C84.7113 30.2489 87.2597 31.9198 89.7647 33.8849" stroke="#B79300" stroke-width="0.8" stroke-miterlimit="10"/>
<path d="M93.5728 27.3784C92.4669 29.6509 91.4401 31.757 90.2812 33.8846" stroke="#B79300" stroke-width="0.8" stroke-miterlimit="10"/>
<path d="M87.5913 39.8321C87.5913 39.8321 92.5244 35.9223 94.5235 34.2788" stroke="#B79300" stroke-width="0.8" stroke-miterlimit="10"/>
<path d="M88.5613 27.567C86.2981 26.1177 84.0465 24.7297 82.1997 22.7664" stroke="black" stroke-width="0.8" stroke-miterlimit="10"/>
<path d="M89.9324 19.3032C89.6775 22.0518 89.3321 24.8908 88.9829 27.1991V27.4623" stroke="#B79300" stroke-width="0.8" stroke-miterlimit="10"/>
<path fill-rule="evenodd" clip-rule="evenodd" d="M67.3524 42.95L63.5596 48.8874C69.2234 56.1935 76.1253 59.7912 85.3779 59.7261C94.6306 59.7912 101.533 56.1935 107.197 48.8874L103.404 42.95C100.594 49.1285 93.5377 53.6719 85.3779 53.6419C77.2183 53.6718 70.1619 49.1284 67.3524 42.95Z" fill="#FFCC00" stroke="#B79300" stroke-width="0.8" stroke-linecap="round" stroke-linejoin="round"/>
<path d="M88.3757 27.5011C87.8468 27.6407 83.71 28.1845 82.0288 22.5781L88.3757 27.5011Z" fill="#B79300"/>
<path d="M88.3757 27.5011C87.8468 27.6407 83.71 28.1845 82.0288 22.5781" stroke="#B79300" stroke-width="0.8" stroke-miterlimit="10"/>
<path d="M82.0288 22.5781C82.0288 22.5781 86.9936 23.1036 88.4259 27.4976C88.4259 27.497 88.4086 27.4987 88.3757 27.5011" fill="#FFCC00"/>
<path d="M82.0288 22.5781C82.0288 22.5781 86.9936 23.1036 88.4259 27.4976C88.4259 27.497 88.4086 27.4987 88.3757 27.5011" stroke="#B79300" stroke-width="0.8" stroke-miterlimit="10"/>
<path d="M82.0288 22.5781C84.2257 24.4773 86.3483 25.9152 88.4347 27.6063" stroke="#B79300" stroke-width="0.8" stroke-miterlimit="10"/>
<path d="M85.396 39.5484L83.75 39.9801L81.4819 38.5693L85.396 38.5952" fill="#B79300"/>
<path d="M85.396 39.5484L83.75 39.9801L81.4819 38.5693L85.396 38.5952" stroke="#B79300" stroke-width="0.8" stroke-miterlimit="10" stroke-linecap="round" stroke-linejoin="round"/>
<path d="M85.396 39.5493L87.2105 39.981L89.0759 38.5718L85.396 38.5961" fill="#B79300"/>
<path d="M85.396 39.5493L87.2105 39.981L89.0759 38.5718L85.396 38.5961" stroke="#B79300" stroke-width="0.8" stroke-miterlimit="10" stroke-linecap="round" stroke-linejoin="round"/>
<path d="M81.5264 38.5691H88.4005" stroke="black" stroke-width="0.8" stroke-miterlimit="10"/>
<path d="M85.396 38.5953L89.0759 38.571L87.0521 37.0588L85.396 37.4905" fill="#FFCC00"/>
<path d="M85.396 38.5953L89.0759 38.571L87.0521 37.0588L85.396 37.4905" stroke="#B79300" stroke-width="0.8" stroke-miterlimit="10" stroke-linecap="round" stroke-linejoin="round"/>
<path d="M85.396 38.5953L81.4819 38.5694L83.7395 37.0588L85.396 37.4905" fill="#FFCC00"/>
<path d="M85.396 38.5953L81.4819 38.5694L83.7395 37.0588L85.396 37.4905" stroke="#B79300" stroke-width="0.8" stroke-miterlimit="10" stroke-linecap="round" stroke-linejoin="round"/>
<path d="M87.5915 39.8322C87.5662 39.8259 90.0237 35.0092 94.5334 34.1682C94.5334 34.1726 94.5319 34.1951 94.5282 34.2338" fill="#FFCC00"/>
<path d="M87.5915 39.8322C87.5662 39.8259 90.0237 35.0092 94.5334 34.1682C94.5334 34.1726 94.5319 34.1951 94.5282 34.2338" stroke="#B79300" stroke-width="0.8" stroke-miterlimit="10"/>
<path d="M83.1909 42.1165C83.1909 42.1165 83.212 42.106 83.2436 42.0955C83.2858 42.0744 83.3386 42.0534 83.4124 42.0113C83.5707 41.9376 83.7922 41.8218 84.0665 41.6639C84.3514 41.5059 84.6784 41.2954 85.0582 41.0427C85.4275 40.79 85.8389 40.4847 86.2504 40.1163C86.6724 39.7478 87.0943 39.3267 87.5058 38.8529C87.9067 38.3686 88.297 37.8212 88.6135 37.2211C88.93 36.6105 89.1832 35.9472 89.3415 35.2524C89.3626 35.1682 89.3837 35.0734 89.3942 34.9892L89.4364 34.726C89.4681 34.5471 89.4786 34.3681 89.4997 34.1891L89.5103 34.0522V34.0206C89.5103 34.0206 89.5103 34.0101 89.5103 34.0206V34.0101V33.989V33.9154L89.5208 33.6311C89.5314 33.4416 89.5208 33.2626 89.5208 33.0731C89.5103 32.3362 89.4364 31.5887 89.3309 30.8623C89.2254 30.1359 88.9674 29.0667 88.7986 28.3824L89.2628 28.2561C89.6426 29.6352 90.0378 31.5045 90.0905 33.0521C90.0905 33.2416 90.1011 33.4521 90.1011 33.6311V33.9154V33.989V34.0101V34.0312V34.0628L90.0905 34.2102C90.08 34.4102 90.0694 34.5997 90.0378 34.7892L89.9956 35.0734C89.9745 35.1682 89.9534 35.2629 89.9428 35.3577C89.7846 36.1157 89.5314 36.8421 89.1938 37.5054C88.8562 38.1581 88.4553 38.7582 88.0333 39.2846C87.6113 39.811 87.1682 40.2637 86.7357 40.6532C86.3031 41.0427 85.8811 41.3796 85.4908 41.6533C85.1004 41.927 84.7523 42.1481 84.4569 42.3271C84.1615 42.5061 83.9294 42.6324 83.7606 42.7166C83.6762 42.7587 83.6129 42.7903 83.5707 42.8114C83.5285 42.8324 83.4968 42.843 83.4968 42.843L83.4652 42.8219C83.2542 42.6851 83.1381 42.4008 83.1909 42.1165H83.1909Z" fill="#B79300" stroke="#B79300" stroke-width="0.8" stroke-miterlimit="10" stroke-linejoin="round"/>
<path d="M88.8771 27.1463C89.183 27.1463 89.4362 27.399 89.4362 27.7043C89.4362 28.0096 89.183 28.2623 88.8771 28.2623C88.5711 28.2623 88.3179 28.0096 88.3179 27.7043C88.3179 27.399 88.5711 27.1463 88.8771 27.1463ZM88.8771 26.9358C88.4445 26.9358 88.1069 27.2832 88.1069 27.7043C88.1069 28.136 88.4551 28.4728 88.8771 28.4728C89.2991 28.4728 89.6472 28.1254 89.6472 27.7043C89.6472 27.2832 89.3096 26.9358 88.8771 26.9358Z" fill="#B79300"/>
<path d="M88.8771 28.3783C88.5078 28.3783 88.2124 28.0835 88.2124 27.715C88.2124 27.3465 88.5078 27.0518 88.8771 27.0518C89.2463 27.0518 89.5417 27.3465 89.5417 27.715C89.5417 28.0835 89.2463 28.3783 88.8771 28.3783Z" fill="url(#paint2_radial_1_1007)"/>
<path d="M89.7533 33.2953C90.0803 33.2953 90.3546 33.5585 90.3546 33.8954C90.3546 34.2217 90.0909 34.4954 89.7533 34.4954C89.4262 34.4954 89.1519 34.2322 89.1519 33.8954C89.1625 33.5585 89.4262 33.2953 89.7533 33.2953ZM89.7533 33.0847C89.3102 33.0847 88.9409 33.4427 88.9409 33.8954C88.9409 34.3375 89.2996 34.706 89.7533 34.706C90.1964 34.706 90.5656 34.3481 90.5656 33.8954C90.5656 33.4427 90.2069 33.0847 89.7533 33.0847Z" fill="#B79300"/>
<path d="M89.7532 34.5904C89.3629 34.5904 89.0464 34.2746 89.0464 33.885C89.0464 33.4955 89.3629 33.1797 89.7532 33.1797C90.1436 33.1797 90.4601 33.4955 90.4601 33.885C90.4601 34.2746 90.1436 34.5904 89.7532 34.5904Z" fill="url(#paint3_radial_1_1007)"/>
<path d="M87.4945 57.2227C87.7071 57.2012 87.9196 57.1773 88.1317 57.1511C88.4355 57.1135 88.554 56.9853 88.4748 56.6949C88.4051 56.4397 88.3366 56.1843 88.269 55.9287C88.2574 55.8915 88.23 55.8756 88.1867 55.8808C87.9746 55.906 87.762 55.9288 87.5493 55.9493C87.6428 55.6831 87.733 55.4165 87.8199 55.1495C88.1217 55.1167 88.4226 55.079 88.7224 55.0361C88.8079 55.0239 88.8678 55.0307 88.9027 55.0572C88.9389 55.0817 88.9699 55.1377 88.9954 55.2254C89.2194 55.9854 89.4527 56.7431 89.6954 57.4983C89.4355 57.6493 89.1719 57.7966 88.9049 57.9402C88.8089 57.6669 88.7145 57.3931 88.6218 57.1189C88.5191 57.3923 88.4126 57.6652 88.3024 57.9375C87.9548 57.98 87.6067 58.0162 87.2585 58.0464C87.3399 57.7722 87.4186 57.4976 87.4945 57.2227Z" fill="#B79300"/>
<path d="M78.747 53.8012C78.4943 53.856 78.2386 53.9052 77.98 53.9482C77.8664 54.2696 77.7527 54.591 77.639 54.9123C77.6233 54.9362 77.6309 54.9536 77.6618 54.9643C78.1175 55.1223 78.5797 55.2619 79.047 55.3843L78.7087 56.6702C78.4382 56.5991 78.169 56.5226 77.9013 56.4404C77.7383 56.6464 77.5722 56.8508 77.4028 57.0533C77.9343 57.2246 78.471 57.3743 79.0114 57.5036C79.2058 57.3497 79.3966 57.1931 79.5837 57.0342L80.0156 55.04C80.0479 54.8909 79.9743 54.8205 79.859 54.7945C79.4171 54.6949 78.98 54.58 78.549 54.4489C78.615 54.233 78.681 54.0171 78.747 53.8012Z" fill="#B79300"/>
<path d="M97.3031 52.4167C97.3563 52.1791 97.4048 51.9419 97.4489 51.7052C98.0914 51.8997 98.7535 52.0658 99.4322 52.2036C99.4658 52.2068 99.473 52.1948 99.4528 52.1687C99.3241 51.9972 99.1953 51.8256 99.0665 51.6541C98.9688 51.7272 98.8705 51.7995 98.7716 51.8711C98.701 51.607 98.6272 51.3442 98.5505 51.0828C98.6357 51.0195 98.7205 50.9554 98.8048 50.8908C98.8898 50.8257 98.9743 50.7599 99.0584 50.6935C99.1701 50.6054 99.2719 50.6199 99.3643 50.74C99.5681 51.0025 99.7717 51.265 99.9751 51.5277C100.015 51.5826 100.022 51.6338 99.9959 51.6813C99.8937 51.8691 99.7884 52.0562 99.68 52.2425C100.073 52.3235 100.472 52.3951 100.875 52.4575C100.784 52.7032 100.687 52.9488 100.586 53.1942C99.8355 53.0656 99.1025 52.9051 98.3908 52.7122C98.3508 52.7035 98.3409 52.7143 98.3614 52.7445C98.5186 52.9819 98.6759 53.2193 98.833 53.4567C98.9547 53.3755 99.0756 53.2931 99.1957 53.2097C99.289 53.441 99.3808 53.673 99.471 53.9058C99.1899 54.098 98.9046 54.2845 98.6151 54.4652C98.5716 54.4923 98.5338 54.4799 98.5017 54.4284L97.8133 53.3223C97.7812 53.2707 97.7786 53.2295 97.8053 53.1986C97.8995 53.0154 97.9905 52.8318 98.0782 52.6479C97.8168 52.5753 97.5584 52.4982 97.3031 52.4167L97.3031 52.4167Z" fill="#B79300"/>
<path d="M93.2057 56.9984L92.7767 55.6126L92.7544 55.5405C92.7571 55.5251 92.7722 55.5078 92.7996 55.4883C93.039 55.3493 93.2749 55.2064 93.5072 55.0596L93.9898 56.4303C93.7336 56.624 93.4721 56.8134 93.2057 56.9984Z" fill="#B79300"/>
<path d="M92.5513 54.1721C92.8209 54.0862 93.0885 53.995 93.3539 53.8984C93.7062 53.7702 94.0546 53.6323 94.3985 53.4846C94.6331 53.3837 94.8045 53.448 94.9132 53.6879L95.8251 55.7008C95.5716 55.922 95.3119 56.1384 95.0464 56.35L94.2825 54.4497C94.2624 54.3997 94.2185 54.3884 94.151 54.415C93.6281 54.6214 93.0969 54.8067 92.5591 54.9719C92.5592 54.7049 92.5566 54.4383 92.5513 54.1721Z" fill="#B79300"/>
<path d="M89.9939 57.7708L89.7424 56.3389L89.7293 56.2644C89.7339 56.2495 89.7511 56.2341 89.7808 56.2182C90.0361 56.1102 90.2888 55.9984 90.5386 55.883L90.8385 57.3071C90.561 57.4661 90.2794 57.6206 89.9939 57.7708Z" fill="#B79300"/>
<path d="M89.7009 54.8781C89.9817 54.8268 90.2613 54.7708 90.5394 54.7098C90.9086 54.6289 91.2752 54.5394 91.6388 54.4408C91.887 54.3735 92.0482 54.4616 92.1218 54.7138L92.7401 56.8317C92.461 57.0152 92.1769 57.1939 91.8881 57.3677L91.3893 55.3808C91.3762 55.3285 91.3342 55.3113 91.2635 55.3287C90.716 55.4627 90.163 55.5776 89.6062 55.6744C89.6402 55.4088 89.6717 55.1434 89.7009 54.8781Z" fill="#B79300"/>
<path d="M99.6957 50.1722C99.8031 50.4166 99.9083 50.6623 100.011 50.9093C100.35 50.6279 100.681 50.337 101.005 50.0375C101.022 50.0219 101.039 50.0064 101.056 49.9908C101.1 49.9493 101.142 49.9493 101.181 49.9913L101.711 50.5549C101.857 50.7099 101.976 50.8317 102.063 50.9131C101.684 51.268 101.294 51.612 100.894 51.944C100.971 52.1876 101.046 52.4325 101.119 52.6786C101.863 52.0757 102.574 51.4328 103.248 50.7566C103.159 50.5091 103.068 50.263 102.975 50.0186C102.857 50.1396 102.738 50.2596 102.618 50.3785C102.314 50.6804 102.623 50.1873 102.39 49.9563L101.376 48.9477C101.262 48.8345 101.133 48.8498 101.045 48.9371C100.61 49.366 100.16 49.7785 99.6957 50.1722L99.6957 50.1722Z" fill="#B79300"/>
<path d="M103.466 50.5345C103.377 50.2954 103.286 50.0578 103.193 49.8217C103.555 49.441 103.907 49.0503 104.247 48.6507C103.981 48.7014 103.576 48.7119 103.105 48.7312C102.975 48.7343 102.727 48.7165 102.377 48.67C102.264 48.7912 102.15 48.9114 102.034 49.0305C101.936 48.763 101.835 48.4974 101.731 48.2339C101.886 48.07 102.038 47.904 102.188 47.7361C102.223 47.697 102.273 47.6923 102.337 47.7221C102.624 47.8459 102.911 47.9133 103.198 47.9219C103.353 47.9246 103.574 47.9126 103.856 47.8813C103.915 47.8777 103.919 47.854 103.866 47.8108L103.441 47.4596C103.377 47.5367 103.313 47.6134 103.248 47.6898C103.121 47.4436 102.991 47.1994 102.859 46.957C102.997 46.7913 103.132 46.624 103.266 46.4552C103.358 46.3386 103.463 46.327 103.58 46.4224C103.828 46.6265 104.075 46.8308 104.321 47.0354C104.256 47.3084 104.186 47.5819 104.111 47.8558C104.403 47.8242 104.736 47.7806 105.077 47.6941C105.164 47.9353 105.249 48.1783 105.331 48.4232C104.745 49.1544 104.123 49.8603 103.466 50.5345L103.466 50.5345Z" fill="#B79300"/>
<path d="M85.1781 58.1519C85.2142 57.9057 85.2492 57.6595 85.2832 57.4133C85.3327 57.4123 85.3822 57.4112 85.4317 57.4099C85.6579 57.405 85.8843 57.3976 86.1107 57.3877L86.0509 56.0551C85.9074 56.0615 85.7639 56.067 85.6204 56.0714C85.6585 55.8144 85.6954 55.5573 85.7312 55.3001C86.0428 55.2887 86.3542 55.2727 86.6652 55.2517C86.7856 55.2435 86.8779 55.2904 86.8893 55.4429L87.0538 57.6423C86.9166 57.7954 86.7774 57.9476 86.6362 58.0988C86.2401 58.1221 85.8442 58.1378 85.4489 58.146C85.3587 58.1484 85.2684 58.1504 85.1781 58.1519L85.1781 58.1519Z" fill="#B79300"/>
<path d="M76.2285 54.3951C76.3745 54.1805 76.5188 53.9651 76.6612 53.7487C76.9005 53.8547 77.1426 53.9547 77.3871 54.049C77.568 54.1186 77.6291 54.2375 77.5658 54.4106L77.5569 54.435C77.4334 54.7732 77.31 55.1114 77.1866 55.4497C76.8803 55.4415 76.5719 55.4254 76.2613 55.4009L76.6142 54.5629C76.485 54.5085 76.3564 54.4526 76.2284 54.3951L76.2285 54.3951Z" fill="#B79300"/>
<path d="M73.2331 51.8108C72.9916 51.9552 72.7475 52.0969 72.5011 52.236C72.6052 52.3099 72.7099 52.3829 72.8151 52.4552C72.4725 53.0801 72.135 53.7081 71.8028 54.3392C72.3162 54.6709 72.8426 54.9865 73.3822 55.2829C73.8963 55.5663 74.3059 55.6698 74.5805 55.623C74.7827 55.5927 74.9973 55.438 75.223 55.1589C75.5881 54.7109 75.9443 54.257 76.2912 53.7972C76.3029 53.7796 76.3119 53.7637 76.3185 53.7495C76.3581 53.6641 76.3255 53.5978 76.222 53.5489C75.9564 53.4236 75.6935 53.2916 75.4331 53.1535C75.2432 53.3421 75.0508 53.5288 74.856 53.7137C74.9678 53.7747 75.0802 53.8347 75.193 53.8936C74.948 54.1688 74.6991 54.4413 74.4465 54.7111C74.3874 54.782 74.3234 54.8156 74.2543 54.8117C74.1627 54.8151 74.0228 54.7687 73.8369 54.6715C73.5232 54.508 73.2133 54.3374 72.9074 54.1605C72.9702 54.0467 73.0331 53.9329 73.0961 53.8192C73.3057 53.9369 73.5169 54.0516 73.7297 54.163C73.8309 54.2161 73.9218 54.2179 74 54.1726C74.4153 53.8017 74.8212 53.4233 75.2168 53.037C74.9396 52.8856 74.6654 52.7273 74.3941 52.5629C74.1622 52.7214 73.9273 52.877 73.6895 53.0299C73.7974 53.0976 73.9059 53.1643 74.0149 53.2302C74.0166 53.2294 74.0183 53.2286 74.02 53.2278C73.889 53.3437 73.7571 53.4588 73.6243 53.5732C73.4957 53.6733 73.4013 53.6496 73.2474 53.5574C73.4506 53.1812 73.6551 52.8057 73.8609 52.4311C73.9176 52.333 73.8947 52.2516 73.7933 52.1857C73.6051 52.0635 73.4184 51.9385 73.2331 51.8108L73.2331 51.8108Z" fill="#B79300"/>
<path d="M71.1673 50.2409C71.2693 50.3256 71.3718 50.4097 71.4747 50.493C71.6232 50.6133 71.7726 50.7321 71.9231 50.8494C72.0735 50.9665 72.2249 51.0821 72.3772 51.1961C72.5854 51.3518 72.6148 51.5341 72.4595 51.7468L71.1555 53.5336C70.8414 53.4269 70.5284 53.3144 70.2169 53.1967L71.4775 51.5775C71.5089 51.5372 71.4994 51.4959 71.4495 51.4535C71.4467 51.4511 71.4437 51.4487 71.4406 51.4463C71.1201 51.196 70.8045 50.9395 70.4933 50.6773C70.7192 50.5332 70.9439 50.3877 71.1673 50.2409L71.1673 50.2409Z" fill="#B79300"/>
<path d="M82.0803 58.0857L82.2272 56.6384L82.2349 56.5631C82.2434 56.55 82.2641 56.5398 82.2971 56.5325C82.5726 56.4977 82.8466 56.458 83.1188 56.4137L83.0239 57.8686C82.7128 57.9469 82.3982 58.0194 82.0803 58.0857Z" fill="#B79300"/>
<path d="M82.5826 55.2184C82.866 55.2442 83.1503 55.2647 83.4352 55.2803C83.8133 55.3009 84.1925 55.3128 84.572 55.3164C84.8313 55.3188 84.9634 55.4481 84.9653 55.7113L84.9813 57.9223C84.6644 58.0236 84.3436 58.1194 84.019 58.2092L84.075 56.1564C84.0765 56.1023 84.0406 56.0745 83.9675 56.0721C83.4022 56.0542 82.8377 56.0174 82.2759 55.9603C82.3807 55.7137 82.4829 55.4664 82.5826 55.2184Z" fill="#B79300"/>
<path d="M68.0289 46.3313C67.7705 46.2425 67.5118 46.1512 67.253 46.0578C67.0004 46.2886 66.7478 46.5195 66.4952 46.7503C66.47 46.764 66.4686 46.7831 66.4912 46.8075C66.824 47.1671 67.1608 47.5228 67.5023 47.8735L66.5439 48.8028C66.3542 48.608 66.1661 48.4118 65.9797 48.2146C65.7374 48.316 65.4945 48.4165 65.2511 48.5161C65.6115 48.9012 65.9783 49.2828 66.352 49.6596C66.5944 49.6262 66.8362 49.5912 67.0772 49.5547L68.5207 48.104C68.6285 47.9956 68.6029 47.8945 68.5163 47.8079C68.1849 47.4764 67.8577 47.1394 67.5341 46.7979C67.6991 46.6424 67.864 46.4868 68.029 46.3313L68.0289 46.3313Z" fill="#B79300"/>
<path d="M68.6012 48.4533C68.848 48.4511 69.0939 48.4467 69.3388 48.4401C69.301 49.1188 69.2791 49.8028 69.2768 50.4931C69.2802 50.5265 69.2934 50.5311 69.3151 50.5063C69.4582 50.3462 69.6014 50.1862 69.7446 50.0261C69.6528 49.9444 69.5615 49.8621 69.4705 49.7795C69.7159 49.6568 69.9602 49.5326 70.2032 49.4068C70.2839 49.479 70.3649 49.5509 70.4462 49.6224C70.5281 49.6944 70.6103 49.7659 70.6928 49.8371C70.8024 49.9316 70.8075 50.035 70.7065 50.1478C70.4859 50.3965 70.2652 50.645 70.0444 50.8934C69.9978 50.9428 69.9487 50.9593 69.8972 50.9427C69.6936 50.8781 69.4901 50.8114 69.2866 50.7427C69.2826 51.1423 69.2853 51.5441 69.2951 51.9482C69.0388 51.9063 68.7822 51.8614 68.5253 51.8138C68.5156 51.063 68.5296 50.3201 68.5632 49.5841C68.5631 49.5432 68.5503 49.5359 68.5252 49.5625C68.3273 49.7683 68.1294 49.974 67.9315 50.1797C68.0358 50.2784 68.1407 50.3767 68.2461 50.4745C68.0397 50.6154 67.8327 50.7556 67.6251 50.8951C67.3838 50.6697 67.1454 50.4418 66.9098 50.2119C66.8745 50.1774 66.8783 50.1384 66.921 50.095L67.8376 49.1635C67.8803 49.12 67.9199 49.1076 67.9562 49.1261C68.1567 49.174 68.357 49.2203 68.557 49.265C68.5692 48.9935 68.584 48.723 68.6012 48.4533Z" fill="#B79300"/>
</g>
<defs>
<radialGradient id="paint0_radial_1_1007" cx="0" cy="0" r="1" gradientUnits="userSpaceOnUse" gradientTransform="translate(88.4533 27.4777) rotate(84.7245) scale(1.51552 1.63211)">
<stop stop-color="#FFCC00"/>
<stop offset="1" stop-color="#B79300"/>
</radialGradient>
<radialGradient id="paint1_radial_1_1007" cx="0" cy="0" r="1" gradientUnits="userSpaceOnUse" gradientTransform="translate(89.7185 33.6578) rotate(95.7868) scale(1.04082 1.20269)">
<stop stop-color="#FFCC00"/>
<stop offset="1" stop-color="#B79300"/>
</radialGradient>
<radialGradient id="paint2_radial_1_1007" cx="0" cy="0" r="1" gradientUnits="userSpaceOnUse" gradientTransform="translate(88.4533 27.4777) rotate(84.7245) scale(1.51552 1.63211)">
<stop stop-color="#FFCC00"/>
<stop offset="1" stop-color="#B79300"/>
</radialGradient>
<radialGradient id="paint3_radial_1_1007" cx="0" cy="0" r="1" gradientUnits="userSpaceOnUse" gradientTransform="translate(89.7185 33.6578) rotate(95.7868) scale(1.04082 1.20269)">
<stop stop-color="#FFCC00"/>
<stop offset="1" stop-color="#B79300"/>
</radialGradient>
<clipPath id="clip0_1_1007">
<rect width="52.8" height="48" fill="white" transform="translate(59 12)"/>
</clipPath>
</defs>
</svg>
