<svg width="32" height="32" viewBox="0 0 32 32" fill="none" xmlns="http://www.w3.org/2000/svg">
<path d="M13.8667 3.19995H18.1334V4.26662H13.8667V3.19995Z" fill="#0070F0" fill-opacity="0.9"/>
<path d="M19.1998 1.59998C19.1998 1.45853 19.1436 1.32288 19.0436 1.22286C18.9436 1.12284 18.8079 1.06665 18.6665 1.06665H13.3331C13.1917 1.06665 13.056 1.12284 12.956 1.22286C12.856 1.32288 12.7998 1.45853 12.7998 1.59998V2.13332H19.1998V1.59998Z" fill="#0070F0" fill-opacity="0.9"/>
<path d="M29.3785 3.55153L25.7956 1.23793C25.6779 1.16173 25.5464 1.10946 25.4086 1.08411C25.2707 1.05877 25.1292 1.06084 24.9921 1.09021C24.8551 1.11958 24.7252 1.17568 24.6098 1.25529C24.4944 1.33491 24.3959 1.43647 24.3198 1.55419L29.6958 5.02779C29.8489 4.78978 29.9015 4.50081 29.842 4.22412C29.7826 3.94744 29.6159 3.70559 29.3785 3.55153Z" fill="#0070F0" fill-opacity="0.9"/>
<path d="M3.47846 6.84428L8.86246 3.38295L8.2598 2.45068L2.88379 5.92428L3.47846 6.84428Z" fill="#0070F0" fill-opacity="0.9"/>
<path d="M4.08224 22.7232C4.1516 22.9386 4.28734 23.1266 4.47004 23.2601C4.65273 23.3937 4.87301 23.466 5.09931 23.4667H6.83531L3.14678 11.3872L1.65824 12.1301C1.43145 12.2453 1.25273 12.437 1.15375 12.6712C1.05476 12.9055 1.0419 13.1673 1.11744 13.4101L4.08224 22.7232Z" fill="#0070F0" fill-opacity="0.9"/>
<path d="M20.8002 29.8667H11.2002V30.4C11.2002 30.5415 11.2564 30.6771 11.3564 30.7771C11.4564 30.8772 11.5921 30.9334 11.7335 30.9334H20.2669C20.4083 30.9334 20.544 30.8772 20.644 30.7771C20.744 30.6771 20.8002 30.5415 20.8002 30.4V29.8667Z" fill="#0070F0" fill-opacity="0.9"/>
<path d="M30.3421 12.1301L28.8562 11.3872L25.165 23.4667H26.901C27.127 23.4661 27.347 23.3941 27.5296 23.2609C27.7121 23.1278 27.848 22.9403 27.9176 22.7253L30.8829 13.4112C30.9587 13.1682 30.946 12.9062 30.847 12.6717C30.748 12.4372 30.5691 12.2453 30.3421 12.1301Z" fill="#0070F0" fill-opacity="0.9"/>
<path d="M9.34285 26.6299C9.56744 26.6906 9.76611 26.8229 9.90874 27.0068C10.0514 27.1906 10.1302 27.4159 10.1333 27.6485V28.2667C10.1333 28.4081 10.1894 28.5438 10.2895 28.6438C10.3895 28.7438 10.5251 28.8 10.6666 28.8H21.3333C21.4747 28.8 21.6104 28.7438 21.7104 28.6438C21.8104 28.5438 21.8666 28.4081 21.8666 28.2667V27.6485C21.8696 27.4159 21.9485 27.1906 22.0911 27.0068C22.2337 26.8229 22.4324 26.6906 22.657 26.6299C22.8008 26.5877 22.9319 26.5105 23.0385 26.4052C23.1452 26.3 23.2241 26.1699 23.2682 26.0267L28.5989 8.58081C28.6289 8.48062 28.6256 8.37341 28.5895 8.27523C28.5535 8.17706 28.4866 8.09322 28.3989 8.03627L22.1055 3.99147C22.0577 3.96063 22.0008 3.94718 21.9443 3.9534C21.8877 3.95962 21.8351 3.98512 21.7951 4.02561L20.6437 5.17707C20.5437 5.2771 20.408 5.33331 20.2666 5.33334H11.7333C11.5918 5.33331 11.4562 5.2771 11.3562 5.17707L10.2021 4.02241C10.1555 3.97581 10.0924 3.94954 10.0266 3.94934C9.97896 3.94955 9.93236 3.96323 9.89219 3.98881L3.59885 8.03361C3.51106 8.09049 3.44411 8.17433 3.40804 8.27252C3.37198 8.37071 3.36875 8.47796 3.39885 8.57814L8.73218 26.024C8.77585 26.1677 8.8545 26.2982 8.96109 26.404C9.06768 26.5097 9.19886 26.5873 9.34285 26.6299ZM6.93325 10.6667C6.93239 9.89266 7.17237 9.13755 7.61991 8.50604C8.06745 7.87452 8.70039 7.3979 9.43096 7.14224C10.1615 6.88659 10.9536 6.86456 11.6972 7.07923C12.4409 7.29389 13.0993 7.73461 13.5813 8.34027L19.6079 9.49281C20.4721 9.03968 21.4795 8.94329 22.4139 9.22432C23.3484 9.50535 24.1355 10.1414 24.6064 10.996C25.0773 11.8507 25.1945 12.8559 24.9329 13.7959C24.6712 14.736 24.0516 15.5361 23.2069 16.0245L20.7434 20.64C20.7791 20.8694 20.798 21.1012 20.7999 21.3333C20.8021 22.0375 20.6493 22.7334 20.3524 23.3719C20.0555 24.0104 19.6217 24.5757 19.0819 25.0278C18.5421 25.4799 17.9095 25.8077 17.2288 25.988C16.5481 26.1683 15.8361 26.1966 15.1433 26.0709C14.4505 25.9453 13.7938 25.6687 13.2198 25.2609C12.6458 24.853 12.1686 24.3239 11.8219 23.711C11.4753 23.0982 11.2677 22.4165 11.214 21.7144C11.1602 21.0124 11.2616 20.3071 11.5109 19.6485L9.16419 14.0827C8.50127 13.7907 7.93749 13.3125 7.54141 12.706C7.14534 12.0995 6.93405 11.391 6.93325 10.6667Z" fill="#0070F0" fill-opacity="0.9"/>
<path d="M15.9999 17.6C15.2616 17.6 14.5398 17.8189 13.9258 18.2292C13.3119 18.6394 12.8334 19.2224 12.5508 19.9046C12.2682 20.5868 12.1943 21.3374 12.3383 22.0616C12.4824 22.7858 12.838 23.4511 13.3601 23.9732C13.8822 24.4953 14.5474 24.8508 15.2716 24.9949C15.9958 25.139 16.7464 25.065 17.4286 24.7825C18.1108 24.4999 18.6939 24.0214 19.1041 23.4074C19.5143 22.7935 19.7333 22.0717 19.7333 21.3333C19.732 20.3436 19.3383 19.3947 18.6384 18.6948C17.9385 17.995 16.9897 17.6012 15.9999 17.6ZM15.9999 23.4666C15.578 23.4666 15.1655 23.3415 14.8147 23.1071C14.4639 22.8727 14.1905 22.5395 14.029 22.1497C13.8675 21.7599 13.8253 21.3309 13.9076 20.9171C13.9899 20.5033 14.1931 20.1232 14.4914 19.8248C14.7898 19.5265 15.1699 19.3233 15.5837 19.241C15.9976 19.1587 16.4265 19.2009 16.8163 19.3624C17.2061 19.5238 17.5393 19.7973 17.7737 20.1481C18.0082 20.4989 18.1333 20.9114 18.1333 21.3333C18.1333 21.8991 17.9085 22.4417 17.5084 22.8418C17.1084 23.2419 16.5657 23.4666 15.9999 23.4666Z" fill="#0070F0" fill-opacity="0.9"/>
<path d="M15.9998 22.4001C16.5889 22.4001 17.0664 21.9225 17.0664 21.3334C17.0664 20.7443 16.5889 20.2667 15.9998 20.2667C15.4107 20.2667 14.9331 20.7443 14.9331 21.3334C14.9331 21.9225 15.4107 22.4001 15.9998 22.4001Z" fill="#0070F0" fill-opacity="0.9"/>
<path d="M2.3049 5.0283L7.67984 1.5547C7.52627 1.31716 7.28465 1.15035 7.00811 1.09094C6.73156 1.03153 6.44274 1.08439 6.20517 1.2379L2.6201 3.55203C2.50243 3.62816 2.40091 3.72673 2.32135 3.84211C2.24178 3.95749 2.18574 4.08742 2.15642 4.22447C2.1271 4.36152 2.12507 4.50301 2.15046 4.64084C2.17584 4.77867 2.22814 4.91015 2.30437 5.02776L2.3049 5.0283Z" fill="#0070F0" fill-opacity="0.9"/>
<path d="M29.1164 5.92428L23.7404 2.45068L23.1377 3.38295L28.5217 6.84428L29.1164 5.92428Z" fill="#0070F0" fill-opacity="0.9"/>
<path d="M10.6666 11.2C10.9612 11.2 11.2 10.9612 11.2 10.6666C11.2 10.3721 10.9612 10.1333 10.6666 10.1333C10.3721 10.1333 10.1333 10.3721 10.1333 10.6666C10.1333 10.9612 10.3721 11.2 10.6666 11.2Z" fill="#0070F0" fill-opacity="0.9"/>
<path d="M13.3333 10.6667C13.3333 10.1393 13.1769 9.62368 12.8839 9.18515C12.5909 8.74662 12.1744 8.40482 11.6872 8.20299C11.1999 8.00116 10.6637 7.94835 10.1464 8.05124C9.62914 8.15413 9.15399 8.40811 8.78105 8.78105C8.40811 9.15399 8.15413 9.62914 8.05124 10.1464C7.94835 10.6637 8.00116 11.1999 8.20299 11.6872C8.40482 12.1744 8.74662 12.5909 9.18515 12.8839C9.62368 13.1769 10.1393 13.3333 10.6667 13.3333C11.3737 13.3325 12.0514 13.0513 12.5514 12.5514C13.0513 12.0514 13.3325 11.3737 13.3333 10.6667ZM9.06667 10.6667C9.06667 10.3502 9.16051 10.0409 9.33632 9.77776C9.51213 9.51464 9.76201 9.30956 10.0544 9.18846C10.3467 9.06736 10.6684 9.03568 10.9788 9.09741C11.2892 9.15915 11.5743 9.31153 11.798 9.5353C12.0218 9.75906 12.1742 10.0442 12.2359 10.3545C12.2977 10.6649 12.266 10.9866 12.1449 11.279C12.0238 11.5713 11.8187 11.8212 11.5556 11.997C11.2925 12.1728 10.9831 12.2667 10.6667 12.2667C10.2423 12.2667 9.83536 12.0981 9.5353 11.798C9.23524 11.498 9.06667 11.091 9.06667 10.6667Z" fill="#0070F0" fill-opacity="0.9"/>
<path d="M10.6665 14.4C10.5945 14.4 10.5241 14.3931 10.4531 14.3893L12.1667 18.4565C12.657 17.7998 13.3076 17.28 14.0563 16.9469C14.8051 16.6137 15.6268 16.4784 16.4428 16.5539C17.2588 16.6294 18.0418 16.9131 18.7167 17.3779C19.3917 17.8427 19.9359 18.4731 20.2974 19.2085L21.7374 16.5104C20.9929 16.5926 20.2409 16.4487 19.5794 16.0973C18.9179 15.7459 18.3775 15.2035 18.0288 14.5406C17.6801 13.8777 17.5392 13.1251 17.6244 12.3809C17.7096 11.6367 18.0169 10.9355 18.5065 10.3685L14.2291 9.55042C14.4043 10.1095 14.4454 10.7019 14.3492 11.2798C14.253 11.8577 14.0221 12.4048 13.6753 12.877C13.3284 13.3491 12.8754 13.733 12.3526 13.9976C11.8299 14.2622 11.2523 14.4 10.6665 14.4Z" fill="#0070F0" fill-opacity="0.9"/>
<path d="M21.3332 15.4666C21.8606 15.4666 22.3762 15.3102 22.8147 15.0172C23.2532 14.7242 23.595 14.3077 23.7969 13.8205C23.9987 13.3332 24.0515 12.797 23.9486 12.2797C23.8457 11.7624 23.5917 11.2873 23.2188 10.9144C22.8459 10.5414 22.3707 10.2874 21.8534 10.1845C21.3361 10.0816 20.8 10.1345 20.3127 10.3363C19.8254 10.5381 19.4089 10.8799 19.1159 11.3184C18.8229 11.757 18.6665 12.2726 18.6665 12.8C18.6674 13.507 18.9486 14.1847 19.4485 14.6847C19.9484 15.1846 20.6262 15.4658 21.3332 15.4666ZM21.3332 11.2C21.6496 11.2 21.959 11.2938 22.2221 11.4696C22.4852 11.6454 22.6903 11.8953 22.8114 12.1877C22.9325 12.48 22.9642 12.8017 22.9024 13.1121C22.8407 13.4225 22.6883 13.7076 22.4645 13.9313C22.2408 14.1551 21.9557 14.3075 21.6453 14.3692C21.3349 14.431 21.0132 14.3993 20.7209 14.2782C20.4285 14.1571 20.1786 13.952 20.0028 13.6889C19.827 13.4258 19.7332 13.1164 19.7332 12.8C19.7332 12.3756 19.9017 11.9687 20.2018 11.6686C20.5019 11.3685 20.9088 11.2 21.3332 11.2Z" fill="#0070F0" fill-opacity="0.9"/>
<path d="M21.3331 13.3334C21.6277 13.3334 21.8665 13.0946 21.8665 12.8001C21.8665 12.5055 21.6277 12.2667 21.3331 12.2667C21.0386 12.2667 20.7998 12.5055 20.7998 12.8001C20.7998 13.0946 21.0386 13.3334 21.3331 13.3334Z" fill="#0070F0" fill-opacity="0.9"/>
</svg>
