<svg width="24" height="24" viewBox="0 0 24 24" fill="none" xmlns="http://www.w3.org/2000/svg">
<g clip-path="url(#clip0_1_1912)">
<path d="M0 0V24H24V0H0ZM6.84229 19.8397V21.2459H2.73285V17.1365H4.1391V18.8335L8.09894 14.8883L9.09155 15.8846L5.12164 19.8397H6.84229ZM8.09894 9.11169L4.1391 5.1665V6.86353H2.73285V2.75409H6.84229V4.16034H5.12164L9.09155 8.11542L8.09894 9.11169ZM21.2672 21.2459H17.1577V19.8397H18.8784L14.9084 15.8846L15.9011 14.8883L19.8609 18.8335V17.1365H21.2672V21.2459ZM21.2672 6.86353H19.8609V5.1665L15.9011 9.11169L14.9084 8.11542L18.8784 4.16034H17.1577V2.75409H21.2672V6.86353Z" fill="#0070F0" fill-opacity="0.9"/>
</g>
<defs>
<clipPath id="clip0_1_1912">
<rect width="24" height="24" rx="2" fill="white"/>
</clipPath>
</defs>
</svg>
