<svg width="32" height="32" viewBox="0 0 32 32" fill="none" xmlns="http://www.w3.org/2000/svg">
<g clip-path="url(#clip0_1_1919)">
<path d="M20.6875 16C20.6875 13.4153 18.5847 11.3125 16 11.3125C13.4153 11.3125 11.3125 13.4153 11.3125 16C11.3125 18.5847 13.4153 20.6875 16 20.6875C18.5847 20.6875 20.6875 18.5847 20.6875 16ZM16 18.8125C14.4492 18.8125 13.1875 17.5508 13.1875 16C13.1875 14.4492 14.4492 13.1875 16 13.1875C17.5508 13.1875 18.8125 14.4492 18.8125 16C18.8125 17.5508 17.5508 18.8125 16 18.8125Z" fill="#0070F0" fill-opacity="0.9"/>
<path d="M16 15.0625C15.4832 15.0625 15.0625 15.4832 15.0625 16C15.0625 16.5168 15.4832 16.9375 16 16.9375C16.5168 16.9375 16.9375 16.5168 16.9375 16C16.9375 15.4832 16.5168 15.0625 16 15.0625Z" fill="#0070F0" fill-opacity="0.9"/>
<path d="M7.6792 16C8.32275 16.9475 9.0769 17.77 9.91235 18.4504C9.60645 17.6929 9.4375 16.866 9.4375 16C9.4375 15.134 9.60645 14.3071 9.91235 13.5496C9.0769 14.23 8.32275 15.0525 7.6792 16Z" fill="#0070F0" fill-opacity="0.9"/>
<path d="M24.321 16C23.6775 15.0525 22.9233 14.23 22.0879 13.5496C22.3938 14.3071 22.5627 15.134 22.5627 16C22.5627 16.866 22.3938 17.6929 22.0879 18.4504C22.9233 17.77 23.6775 16.9475 24.321 16Z" fill="#0070F0" fill-opacity="0.9"/>
<path d="M15.7927 9.44116C15.8616 9.43896 15.9304 9.4375 15.9998 9.4375C16.0691 9.4375 16.1382 9.43896 16.2068 9.44116C19.676 9.50635 22.9441 11.2085 25.2437 14.093C24.3591 9.80005 20.5505 6.5625 15.9998 6.5625C11.449 6.5625 7.64038 9.80005 6.75586 14.093C9.05542 11.2085 12.3235 9.50635 15.7927 9.44116Z" fill="#0070F0" fill-opacity="0.9"/>
<path d="M16.2068 22.5588C16.1379 22.561 16.0691 22.5625 15.9998 22.5625C15.9304 22.5625 15.8616 22.561 15.7927 22.5588C12.3235 22.4937 9.05542 20.7915 6.75586 17.907C7.64038 22.2 11.449 25.4375 15.9998 25.4375C20.5505 25.4375 24.3591 22.2 25.2437 17.907C22.9441 20.7915 19.676 22.4937 16.2068 22.5588Z" fill="#0070F0" fill-opacity="0.9"/>
<path d="M32 19.5811V12.4189L29.5276 11.9243C29.2561 11.0227 28.894 10.1499 28.4463 9.31787L29.8459 7.21851L24.7815 2.15405L22.6821 3.55371C21.8501 3.10596 20.9773 2.7439 20.0757 2.47241L19.5811 0H12.4189L11.9243 2.47241C11.0227 2.7439 10.1497 3.10596 9.31787 3.55371L7.21851 2.15405L2.15405 7.21851L3.55371 9.31787C3.10596 10.1499 2.7439 11.0227 2.47241 11.9243L0 12.4189V19.5811L2.47241 20.0757C2.7439 20.9773 3.10596 21.8501 3.55371 22.6821L2.15405 24.7815L7.21851 29.8459L9.31787 28.4463C10.1499 28.894 11.0227 29.2561 11.9243 29.5276L12.4189 32H19.5811L20.0757 29.5276C20.9773 29.2561 21.8503 28.894 22.6821 28.4463L24.7815 29.8459L29.8459 24.7815L28.4463 22.6821C28.894 21.8501 29.2561 20.9773 29.5276 20.0757L32 19.5811ZM16 27.3125C9.76221 27.3125 4.6875 22.2378 4.6875 16C4.6875 9.76221 9.76221 4.6875 16 4.6875C22.2378 4.6875 27.3125 9.76221 27.3125 16C27.3125 22.2378 22.2378 27.3125 16 27.3125Z" fill="#0070F0" fill-opacity="0.9"/>
</g>
<defs>
<clipPath id="clip0_1_1919">
<rect width="32" height="32" fill="white"/>
</clipPath>
</defs>
</svg>
