<svg width="170" height="72" viewBox="0 0 170 72" fill="none" xmlns="http://www.w3.org/2000/svg">
<path fill-rule="evenodd" clip-rule="evenodd" d="M96.0292 49.4923C90.7109 53.4247 82.9751 55.5198 76.3029 55.5198C66.9555 55.5198 58.5751 52.0709 52.1931 46.3336C51.7096 45.8823 52.1286 45.2699 52.741 45.6244C59.6065 49.6213 68.0837 52.0065 76.8509 52.0065C82.7494 52.0065 89.2604 50.7816 95.2556 48.2353C96.1581 47.8807 96.8995 48.8477 96.0292 49.4923Z" fill="black"/>
<path fill-rule="evenodd" clip-rule="evenodd" d="M98.2546 46.9475C97.5777 46.0772 93.7421 46.5284 92.0338 46.7541C91.518 46.8185 91.4213 46.3673 91.9048 46.045C94.9669 43.8854 99.9629 44.53 100.543 45.2391C101.123 45.9483 100.382 50.9765 97.5133 53.3617C97.062 53.7163 96.643 53.5229 96.8364 53.0394C97.481 51.4278 98.9315 47.85 98.2546 46.9475Z" fill="white"/>
<path fill-rule="evenodd" clip-rule="evenodd" d="M92.1298 30.8951V28.8C92.1298 28.4776 92.3555 28.2843 92.6455 28.2843H101.993C102.283 28.2843 102.541 28.5099 102.541 28.8V30.5728C102.541 30.8629 102.283 31.2496 101.832 31.8943L96.9969 38.792C98.8019 38.7598 100.704 39.0177 102.315 39.9202C102.67 40.1136 102.767 40.4359 102.799 40.726V42.95C102.799 43.2723 102.476 43.6269 102.122 43.4335C99.2532 41.9186 95.4175 41.7574 92.2588 43.4657C91.9364 43.6269 91.5819 43.3046 91.5819 42.9823V40.8549C91.5819 40.5326 91.5819 39.9524 91.9364 39.4367L97.5449 31.4108H92.6778C92.3877 31.4108 92.1298 31.1852 92.1298 30.8951ZM58.0601 43.8848H55.2237C54.9658 43.8525 54.7402 43.6591 54.7079 43.4013V28.8322C54.7079 28.5421 54.9658 28.3165 55.2559 28.3165H57.899C58.1891 28.3165 58.3824 28.5421 58.4147 28.8V30.7017H58.4791C59.156 28.8644 60.4776 27.9942 62.2181 27.9942C63.9909 27.9942 65.119 28.8644 65.8926 30.7017C66.5695 28.8644 68.1489 27.9942 69.825 27.9942C71.0176 27.9942 72.3069 28.4776 73.1127 29.6058C74.0152 30.8306 73.8218 32.6034 73.8218 34.1828V43.4013C73.8218 43.6914 73.5639 43.917 73.2738 43.917H70.4696C70.1795 43.8848 69.9539 43.6591 69.9539 43.4013V35.6655C69.9539 35.0531 70.0184 33.5059 69.8894 32.9257C69.6638 31.9588 69.0514 31.6687 68.2133 31.6687C67.5365 31.6687 66.7951 32.1199 66.505 32.8613C66.2149 33.6026 66.2472 34.8274 66.2472 35.6655V43.4013C66.2472 43.6914 65.9893 43.917 65.6992 43.917H62.8628C62.5727 43.8848 62.347 43.6591 62.347 43.4013V35.6655C62.347 34.0539 62.6049 31.6364 60.6065 31.6364C58.5758 31.6364 58.6403 33.9572 58.6403 35.6655V43.4013C58.6081 43.6591 58.3824 43.8848 58.0601 43.8848ZM110.599 27.9942C114.821 27.9942 117.11 31.6042 117.11 36.2134C117.11 40.6615 114.596 44.2071 110.599 44.2071C106.473 44.2071 104.217 40.5971 104.217 36.0845C104.185 31.5397 106.473 27.9942 110.599 27.9942ZM110.599 30.9918C108.504 30.9918 108.375 33.8605 108.375 35.6333C108.375 37.406 108.343 41.2095 110.567 41.2095C112.759 41.2095 112.888 38.1474 112.888 36.2779C112.888 35.0531 112.823 33.5704 112.469 32.41C112.146 31.3786 111.502 30.9918 110.599 30.9918ZM122.557 43.8848H119.721C119.431 43.8525 119.205 43.6269 119.205 43.3691V28.7677C119.237 28.5099 119.463 28.2843 119.753 28.2843H122.396C122.654 28.2843 122.847 28.4777 122.912 28.7033V30.9273H122.976C123.782 28.9289 124.878 27.9942 126.844 27.9942C128.101 27.9942 129.358 28.4454 130.164 29.7025C130.905 30.8628 130.905 32.829 130.905 34.2473V43.4335C130.873 43.6914 130.648 43.8848 130.358 43.8848H127.521C127.263 43.8525 127.038 43.6591 127.005 43.4335V35.5043C127.005 33.8927 127.199 31.572 125.233 31.572C124.556 31.572 123.911 32.0232 123.589 32.7323C123.202 33.6348 123.137 34.5051 123.137 35.5043V43.3691C123.105 43.6591 122.847 43.8848 122.557 43.8848ZM84.6841 36.9226C84.6841 38.0185 84.7164 38.9532 84.1684 39.9524C83.7172 40.7582 83.008 41.2417 82.2022 41.2417C81.1063 41.2417 80.4617 40.4037 80.4617 39.1788C80.4617 36.7614 82.6213 36.3101 84.6841 36.3101V36.9226ZM87.5528 43.8525C87.3594 44.0137 87.1016 44.0459 86.8759 43.917C85.9412 43.1434 85.7478 42.7566 85.2321 42.0153C83.6849 43.5947 82.5568 44.0782 80.5584 44.0782C78.1732 44.0782 76.3037 42.5955 76.3037 39.6623C76.3037 37.3416 77.5608 35.7944 79.3335 35.0208C80.8807 34.344 83.0403 34.215 84.6841 34.0216V33.6671C84.6841 32.9902 84.7486 32.1844 84.3296 31.6042C83.975 31.0885 83.3304 30.8628 82.7502 30.8628C81.6543 30.8628 80.6873 31.4108 80.4617 32.5712C80.3972 32.829 80.2361 33.0869 79.9782 33.0869L77.2384 32.7968C77.0128 32.7323 76.755 32.5712 76.8194 32.2166C77.4641 28.8644 80.4617 27.8652 83.1692 27.8652C84.5552 27.8652 86.3602 28.2198 87.4561 29.2835C88.8421 30.5728 88.7132 32.3133 88.7132 34.1828V38.5986C88.7132 39.9202 89.2611 40.5004 89.7769 41.2417C89.9703 41.4996 90.0025 41.8219 89.7769 41.983C89.1644 42.4665 88.133 43.3691 87.5528 43.8525ZM47.4556 36.9226C47.4556 38.0185 47.4879 38.9532 46.9399 39.9524C46.4887 40.7582 45.7796 41.2417 44.9737 41.2417C43.8778 41.2417 43.2332 40.4037 43.2332 39.1788C43.2332 36.7614 45.3928 36.3101 47.4556 36.3101V36.9226ZM50.2921 43.8525C50.0987 44.0137 49.8408 44.0459 49.6152 43.917C48.6805 43.1434 48.4871 42.7566 47.9714 42.0153C46.4242 43.5947 45.2961 44.0782 43.2977 44.0782C40.9125 44.0782 39.043 42.5955 39.043 39.6623C39.043 37.3416 40.3 35.7944 42.0728 35.0208C43.62 34.344 45.7796 34.215 47.4234 34.0216V33.6671C47.4234 32.9902 47.4879 32.1844 47.0688 31.6042C46.7143 31.0885 46.0696 30.8628 45.4895 30.8628C44.3936 30.8628 43.4266 31.4108 43.201 32.5712C43.1365 32.829 42.9753 33.0869 42.7175 33.0869L39.9777 32.7968C39.7521 32.7323 39.4942 32.5712 39.5587 32.2166C40.2033 28.8644 43.201 27.8652 45.9085 27.8652C47.2945 27.8652 49.0995 28.2198 50.1954 29.2835C51.5814 30.5728 51.4525 32.3133 51.4525 34.1828V38.5986C51.4525 39.9202 52.0004 40.5004 52.5161 41.2417C52.7095 41.4996 52.7418 41.8219 52.5161 41.983C51.9037 42.4665 50.8723 43.3691 50.2921 43.8525Z" fill="black"/>
</svg>
