<svg width="170" height="72" viewBox="0 0 170 72" fill="none" xmlns="http://www.w3.org/2000/svg">
<g clip-path="url(#clip0_1_952)">
<path d="M33.0542 26.1111H40.7443C42.2091 26.1111 43.3077 26.4858 44.1215 27.1103C45.0166 27.8597 45.5049 28.9423 45.5049 30.2746C45.5049 31.8151 44.8946 32.7727 43.6739 33.3555V33.4388C45.3015 33.9801 46.2373 35.4789 46.2373 37.2692C46.2373 38.9762 45.5863 40.3086 44.5284 41.1412C43.6332 41.8074 42.4939 42.0989 40.9478 42.0989H33.0542V26.1111ZM39.9713 32.3563C40.785 32.3563 41.3954 31.8983 41.3954 30.9407C41.3954 30.0248 40.785 29.5668 39.9306 29.5668H37.2858V32.3147H39.9713V32.3563ZM40.3374 38.5599C41.2733 38.5599 41.965 37.977 41.965 36.9361C41.965 35.812 41.2326 35.3124 40.3374 35.3124H37.3265V38.6015H40.3374V38.5599ZM46.929 26.1111H50.9572V42.1405H46.929V26.1111ZM51.7709 36.4365C51.7709 32.8143 54.0495 30.3995 57.5894 30.3995C61.1293 30.3995 63.3672 32.8559 63.3672 36.4365C63.3672 40.0587 61.1293 42.4736 57.5894 42.4736C54.0495 42.4736 51.7709 40.0587 51.7709 36.4365ZM59.339 36.4365C59.339 34.438 58.7287 33.189 57.508 33.189C56.2874 33.189 55.7177 34.438 55.7177 36.4365C55.7177 38.435 56.2874 39.7257 57.508 39.7257C58.7287 39.684 59.339 38.435 59.339 36.4365ZM63.8147 36.4365C63.8147 32.8143 66.0933 30.3995 69.6332 30.3995C73.1731 30.3995 75.3703 32.8143 75.3703 36.4365C75.3703 40.0587 73.1324 42.4736 69.5925 42.4736C66.0933 42.4736 63.8147 40.0587 63.8147 36.4365ZM71.3828 36.4365C71.3828 34.438 70.7725 33.189 69.5518 33.189C68.3312 33.189 67.7615 34.438 67.7615 36.4365C67.7615 38.435 68.3312 39.7257 69.5518 39.7257C70.7725 39.684 71.3828 38.435 71.3828 36.4365ZM76.1841 30.6909H79.9274V32.3979H80.0088C80.7412 31.0656 81.7584 30.3578 83.3859 30.3578C84.81 30.3578 85.8679 31.0656 86.3969 32.3147H86.4783C87.3734 30.8158 88.5534 30.3578 89.9368 30.3578C92.5409 30.3578 93.6394 32.3147 93.6394 34.9377V42.0989H89.7333V35.6455C89.7333 34.4797 89.3671 33.7303 88.3906 33.7303C87.4141 33.7303 86.9258 34.6462 86.9258 35.8953V42.0989H83.0197V35.6455C83.0197 34.4797 82.6535 33.7303 81.677 33.7303C80.7005 33.7303 80.2122 34.6462 80.2122 35.8953V42.0989H76.1841V30.6909ZM98.5628 40.6H98.5221V42.0989H94.7787V26.1111H98.6848V31.8567H98.7662C99.4986 30.8575 100.516 30.3162 101.94 30.3162C104.747 30.3162 106.375 32.8976 106.375 36.3532C106.375 40.2253 104.625 42.4736 101.696 42.4736C100.475 42.4736 99.2138 41.8907 98.5628 40.6ZM102.347 36.3116C102.347 34.4797 101.696 33.2723 100.516 33.2723C99.2952 33.2723 98.5628 34.4797 98.5628 36.3116C98.5628 38.1435 99.3358 39.351 100.516 39.351C101.696 39.351 102.347 38.1852 102.347 36.3116ZM106.823 36.3949C106.823 32.8143 109.142 30.3578 112.478 30.3578C114.146 30.3578 115.408 30.8991 116.384 31.8567C117.686 33.1474 118.256 35.1458 118.215 37.4774H110.729C110.891 38.893 111.542 39.6424 112.722 39.6424C113.414 39.6424 114.024 39.3093 114.269 38.5599H118.053C117.402 41.1829 115.408 42.4736 112.6 42.4736C109.142 42.4319 106.823 40.0171 106.823 36.3949ZM110.729 35.1875H114.309C114.228 33.8135 113.495 33.1057 112.56 33.1057C111.461 33.0641 110.851 33.8552 110.729 35.1875ZM122.65 32.6477H122.732C123.546 31.0656 124.603 30.4411 125.946 30.4411C126.272 30.4411 126.475 30.4827 126.597 30.566V34.0633H126.516C124.197 33.647 122.854 34.7711 122.854 37.3525V42.1405H118.907V30.6909H122.65V32.6477ZM127.004 42.1405H130.788C130.951 42.6401 131.439 43.0981 132.375 43.0981C133.636 43.0981 134.084 42.307 134.084 41.0996V40.2669H134.002C133.392 41.0163 132.538 41.5576 131.317 41.5576C128.916 41.5576 126.801 39.7257 126.801 36.1451C126.801 32.8559 128.51 30.3162 131.114 30.3162C132.619 30.3162 133.514 30.9407 134.125 31.8983H134.206V30.6493H137.949V40.5584C137.949 42.3903 137.339 43.8059 136.403 44.6386C135.427 45.5129 134.043 45.8876 132.456 45.8876C129.445 45.9293 127.37 44.6802 127.004 42.1405ZM134.247 35.9785C134.247 34.563 133.596 33.3972 132.456 33.3972C131.358 33.3972 130.666 34.3964 130.666 35.9785C130.666 37.519 131.358 38.6015 132.456 38.6015C133.555 38.6015 134.247 37.4774 134.247 35.9785Z" fill="black"/>
</g>
<defs>
<clipPath id="clip0_1_952">
<rect width="105" height="20" fill="white" transform="translate(33 26)"/>
</clipPath>
</defs>
</svg>
