<svg width="170" height="72" viewBox="0 0 170 72" fill="none" xmlns="http://www.w3.org/2000/svg">
<g clip-path="url(#clip0_1_973)">
<rect width="111" height="20" transform="translate(29 26)" fill="white"/>
<path d="M127.271 26.5283H125.461C125.351 26.5283 125.26 26.6224 125.26 26.7359V35.4884C125.26 38.5412 124.096 40.0237 121.694 40.0237C119.321 40.0237 118.168 38.5412 118.168 35.4884V26.7359C118.168 26.6224 118.078 26.5283 117.968 26.5283H116.158C116.049 26.5283 115.958 26.6224 115.958 26.7359V35.3814C115.958 39.8161 117.94 42.1615 121.691 42.1615C125.47 42.1615 127.465 39.8161 127.465 35.3814V26.7359C127.468 26.6224 127.38 26.5283 127.271 26.5283Z" fill="black"/>
<path d="M134.699 29.6855C133.287 29.6855 132.079 30.237 131.196 31.2816L131.03 29.9937C131.017 29.8899 130.933 29.8153 130.832 29.8153H129.355C129.245 29.8153 129.154 29.9094 129.154 30.0229V45.3123C129.154 45.4258 129.245 45.5199 129.355 45.5199H131.061C131.171 45.5199 131.262 45.4258 131.262 45.3123V39.9466C132.048 40.8516 133.263 41.348 134.703 41.348C137.822 41.348 140.001 38.9506 140.001 35.5151C139.998 31.9726 137.918 29.6855 134.699 29.6855ZM137.85 35.5184C137.85 37.8184 136.516 39.3626 134.534 39.3626C132.561 39.3626 131.236 37.799 131.236 35.473C131.236 33.2346 132.593 31.6709 134.534 31.6709C136.519 31.6709 137.85 33.2183 137.85 35.5184Z" fill="black"/>
<path d="M70.2506 28.1986C72.3862 28.1986 73.9079 29.36 74.4277 31.3876C74.4496 31.4784 74.531 31.54 74.6218 31.54H76.4317C76.4912 31.54 76.5476 31.5141 76.5852 31.4654C76.6227 31.42 76.6384 31.3584 76.629 31.2967C76.0685 28.0689 73.6574 26.0608 70.3352 26.0608C66.0579 26.0608 63.1865 29.2303 63.1865 33.9439C63.1865 38.7322 65.9921 41.8237 70.3352 41.8237C73.6449 41.8237 76.0497 39.8189 76.6071 36.5878C76.6165 36.5262 76.6008 36.4645 76.5632 36.4191C76.5257 36.3737 76.4693 36.3445 76.4098 36.3445H74.5999C74.5091 36.3445 74.4309 36.4094 74.4058 36.497C73.886 38.5213 72.3736 39.6827 70.2506 39.6827C67.3699 39.6827 65.4348 37.3761 65.4348 33.9407C65.4348 30.5052 67.373 28.1986 70.2506 28.1986Z" fill="black"/>
<path d="M79.3046 26.042C78.5625 26.042 78.002 26.6227 78.002 27.3915C78.002 28.1604 78.5625 28.7411 79.3046 28.7411C80.0467 28.7411 80.6071 28.1604 80.6071 27.3915C80.6071 26.6227 80.0467 26.042 79.3046 26.042Z" fill="black"/>
<path d="M80.154 30.2881H78.4475C78.3379 30.2881 78.2471 30.3822 78.2471 30.4957V41.4899C78.2471 41.6034 78.3379 41.6975 78.4475 41.6975H80.154C80.2636 41.6975 80.3544 41.6034 80.3544 41.4899V30.4925C80.3544 30.3789 80.2636 30.2881 80.154 30.2881Z" fill="black"/>
<path d="M87.8812 30.2884H87.4022C85.6017 30.2884 84.7814 31.0053 84.3242 31.6055L84.1676 30.4636C84.152 30.363 84.0674 30.2852 83.9704 30.2852H82.4924C82.3828 30.2852 82.292 30.3792 82.292 30.4928V41.4869C82.292 41.6005 82.3828 41.6946 82.4924 41.6946H84.1989C84.3085 41.6946 84.3993 41.6005 84.3993 41.4869V35.8844C84.3993 34.5933 84.7406 32.4262 87.0296 32.4262H87.8812C87.9908 32.4262 88.0816 32.3322 88.0816 32.2186V30.4928C88.0816 30.3792 87.9939 30.2884 87.8812 30.2884Z" fill="black"/>
<path d="M93.6159 32.1433C95.003 32.1433 96.0614 32.9673 96.3776 34.2909C96.3996 34.385 96.4778 34.4499 96.5718 34.4499H98.3003C98.3596 34.4499 98.4161 34.4239 98.4533 34.3753C98.4913 34.3298 98.5071 34.2682 98.4975 34.2065C98.0528 31.6697 96.2524 30.158 93.6817 30.158C90.4377 30.158 88.2583 32.4937 88.2583 35.9681C88.2583 39.4685 90.4126 41.8237 93.619 41.8237C96.2085 41.8237 98.0342 40.2925 98.4975 37.7329C98.5099 37.6713 98.494 37.6096 98.4533 37.561C98.4127 37.5123 98.3596 37.4863 98.3003 37.4863H96.5937C96.4997 37.4863 96.4183 37.5545 96.3996 37.6485C96.1021 39.0175 95.0656 39.8383 93.619 39.8383C91.6964 39.8383 90.4063 38.2844 90.4063 35.9713C90.4032 33.681 91.6964 32.1433 93.6159 32.1433Z" fill="black"/>
<path d="M101.975 26.5547H100.269C100.159 26.5547 100.068 26.6488 100.068 26.7623V41.4872C100.068 41.6007 100.159 41.6948 100.269 41.6948H101.975C102.085 41.6948 102.176 41.6007 102.176 41.4872V26.7623C102.176 26.6488 102.085 26.5547 101.975 26.5547Z" fill="black"/>
<path d="M108.559 30.158C105.428 30.158 103.324 32.5034 103.324 35.9908C103.324 39.4782 105.519 41.8237 108.788 41.8237C111.256 41.8237 113.147 40.26 113.604 37.84C113.616 37.7783 113.601 37.7167 113.563 37.668C113.526 37.6193 113.469 37.5934 113.41 37.5934H111.682C111.591 37.5934 111.512 37.6583 111.487 37.7491C111.162 39.0565 110.106 39.835 108.663 39.835C106.828 39.835 105.601 38.5471 105.516 36.5488L113.554 36.539C113.654 36.539 113.745 36.4483 113.754 36.3347C113.773 36.0816 113.795 35.8189 113.795 35.5723C113.711 32.2828 111.656 30.158 108.559 30.158ZM111.6 34.664H105.644C105.888 33.1879 107.11 32.1239 108.578 32.1239C110.222 32.1239 111.371 33.0939 111.6 34.664Z" fill="black"/>
<path fill-rule="evenodd" clip-rule="evenodd" d="M36.6354 26.001C32.4248 26.001 29 29.55 29 33.9133C29 38.2766 32.4248 41.8223 36.6354 41.8223C40.846 41.8223 44.2709 38.2733 44.2709 33.9101C44.2709 29.5467 40.8429 26.001 36.6354 26.001Z" fill="black"/>
<path fill-rule="evenodd" clip-rule="evenodd" d="M59.5397 34.4056L52.955 26.2739C52.6599 25.9103 52.1164 25.9071 51.8213 26.2739L45.2211 34.4056C45.0192 34.6534 45.19 35.0299 45.5037 35.0299H47.1344C47.4139 35.0299 47.6096 34.8529 47.6996 34.7402L50.902 30.9431C51.0324 30.7887 51.2778 30.8852 51.2778 31.0879V41.3949C51.2778 41.662 51.4859 41.8776 51.7436 41.8776H53.0171C53.2749 41.8776 53.483 41.662 53.483 41.3949V31.0751C53.483 30.8691 53.7284 30.7726 53.8588 30.9302L57.0735 34.7596C57.1667 34.8722 57.3438 35.0331 57.6979 35.0331H59.257C59.5707 35.0331 59.7416 34.6534 59.5397 34.4056Z" fill="black"/>
</g>
<defs>
<clipPath id="clip0_1_973">
<rect width="111" height="20" fill="white" transform="translate(29 26)"/>
</clipPath>
</defs>
</svg>
