<svg width="170" height="72" viewBox="0 0 170 72" fill="none" xmlns="http://www.w3.org/2000/svg">
<g clip-path="url(#clip0_1_964)">
<path d="M49.576 21.0037H50.4119C53.3139 21.0653 56.1686 22.2065 58.2189 24.2267C57.4619 24.9824 56.6891 25.7072 55.9478 26.4629C54.7965 25.445 53.4085 24.6585 51.8944 24.381C49.6549 23.9183 47.2418 24.3347 45.3649 25.5838C43.3146 26.8947 41.9267 29.1153 41.627 31.4902C41.2958 33.8343 41.974 36.3017 43.5354 38.1215C45.0337 39.8949 47.3206 41.0053 49.6864 41.0824C51.8944 41.2057 54.1971 40.5426 55.8059 39.0313C57.0676 37.9672 57.6512 36.348 57.8404 34.775C55.2223 34.775 52.6042 34.7904 49.9861 34.775V31.5982H61.0106C61.5783 35.0063 60.7582 38.8463 58.1085 41.2829C56.3421 43.0101 53.8975 44.0279 51.4055 44.2283C48.9924 44.4597 46.5005 44.0124 44.3555 42.8713C41.7847 41.5296 39.7344 39.2626 38.725 36.5947C37.7787 34.1427 37.7629 31.3669 38.6461 28.8994C39.4505 26.6479 40.9961 24.6585 42.9834 23.2706C44.8918 21.8981 47.2102 21.1425 49.576 21.0037Z" fill="#3780FF"/>
<path d="M112.821 21.804H116.196V43.8258C115.076 43.8258 113.941 43.8412 112.821 43.8103C112.837 36.4852 112.821 29.1446 112.821 21.804Z" fill="#38B137"/>
<path d="M68.5192 29.4386C70.6011 29.053 72.8564 29.4848 74.5756 30.7031C76.137 31.7826 77.2252 33.479 77.5565 35.3295C77.9823 37.4731 77.4461 39.8172 76.0266 41.5135C74.4967 43.4104 71.989 44.4282 69.5443 44.274C67.3047 44.1506 65.1282 43.0557 63.8034 41.2668C62.3051 39.2928 61.9423 36.5787 62.7624 34.2655C63.5826 31.7826 65.901 29.8858 68.5192 29.4386ZM68.9923 32.3686C68.1407 32.5845 67.3521 33.0626 66.7843 33.7411C65.2544 35.53 65.349 38.4447 67.0366 40.1102C67.9987 41.0663 69.4497 41.5135 70.7903 41.2514C72.0363 41.0355 73.1246 40.2181 73.7239 39.1386C74.7648 37.3035 74.4652 34.7744 72.8722 33.3402C71.847 32.4149 70.3487 32.0294 68.9923 32.3686Z" fill="#FA3913"/>
<path d="M85.2359 29.4377C87.6174 28.9905 90.2198 29.6382 92.002 31.2729C94.904 33.8174 95.2194 38.5826 92.7433 41.5127C91.2449 43.3633 88.8161 44.3811 86.4188 44.2732C84.1319 44.2115 81.8765 43.1011 80.5201 41.266C78.9902 39.2458 78.659 36.4699 79.5265 34.1104C80.3939 31.7047 82.6651 29.8695 85.2359 29.4377ZM85.709 32.3678C84.8574 32.5837 84.0688 33.0618 83.501 33.7249C81.9869 35.4829 82.05 38.3513 83.6745 40.0323C84.6365 41.0347 86.1349 41.5281 87.5228 41.2506C88.753 41.0192 89.857 40.2173 90.4563 39.1378C91.4815 37.2872 91.1818 34.7581 89.5731 33.3239C88.548 32.3987 87.0496 32.0285 85.709 32.3678Z" fill="#FCBD06"/>
<path d="M99.4169 30.3324C101.231 29.2221 103.644 28.9136 105.599 29.8698C106.215 30.1319 106.719 30.5792 107.208 31.0264C107.224 30.61 107.208 30.1782 107.224 29.7464C108.281 29.7618 109.337 29.7464 110.41 29.7618V43.3636C110.394 45.4146 109.858 47.589 108.344 49.0849C106.688 50.735 104.148 51.2439 101.862 50.9046C99.4169 50.55 97.2877 48.8073 96.3414 46.6021C97.2877 46.1548 98.2814 45.8001 99.2592 45.3838C99.8112 46.6483 100.931 47.7278 102.335 47.9746C103.738 48.2213 105.363 47.882 106.278 46.7409C107.255 45.5688 107.255 43.965 107.208 42.5308C106.483 43.2248 105.647 43.8416 104.637 44.0729C102.445 44.6744 100.032 43.9342 98.3444 42.4845C96.6411 41.0349 95.6317 38.7988 95.7263 36.5781C95.7736 34.0644 97.2246 31.6432 99.4169 30.3324ZM102.682 32.3064C101.72 32.4606 100.821 32.9849 100.206 33.7097C98.723 35.4369 98.723 38.1974 100.221 39.8937C101.073 40.8961 102.445 41.4513 103.77 41.3125C105.016 41.1891 106.167 40.4181 106.782 39.354C107.823 37.5497 107.65 35.0977 106.246 33.5247C105.379 32.5531 103.991 32.075 102.682 32.3064Z" fill="#3780FF"/>
<path d="M120.249 31.1193C122.142 29.3921 125.06 28.806 127.489 29.7159C129.791 30.5641 131.258 32.7077 131.999 34.9129C128.577 36.3009 125.17 37.6734 121.748 39.0613C122.221 39.9403 122.946 40.7422 123.924 41.0661C125.296 41.5441 126.937 41.3745 128.088 40.4801C128.545 40.1408 128.908 39.6936 129.255 39.2618C130.122 39.8324 130.99 40.3875 131.857 40.9581C130.627 42.7624 128.561 44.027 126.337 44.2275C123.877 44.5205 121.259 43.5952 119.666 41.7138C117.048 38.7529 117.3 33.7872 120.249 31.1193ZM121.937 33.9722C121.401 34.7279 121.18 35.6532 121.196 36.563C123.482 35.6377 125.769 34.7125 128.056 33.7717C127.678 32.9081 126.763 32.3838 125.832 32.245C124.334 31.9829 122.773 32.7694 121.937 33.9722Z" fill="#FA3913"/>
</g>
<defs>
<clipPath id="clip0_1_964">
<rect width="94" height="30" fill="white" transform="translate(38 21)"/>
</clipPath>
</defs>
</svg>
