<svg width="17" height="17" viewBox="0 0 17 17" fill="none" xmlns="http://www.w3.org/2000/svg">
<g clip-path="url(#clip0_1_3104)">
<path d="M15.7526 11.6392L11.658 9.81669C11.4784 9.7367 11.268 9.77719 11.1306 9.91809C10.8586 10.1973 10.2165 10.8522 9.82353 11.2381C9.04185 10.6894 8.2066 9.96799 7.38847 9.13372C7.38627 9.13152 7.38407 9.12932 7.38186 9.12711C6.56007 8.32122 5.86498 7.51532 5.31178 6.72704C5.78585 6.24844 6.62073 5.42444 6.63113 5.41417C6.77019 5.27694 6.80982 5.06791 6.73044 4.88922L4.91635 0.803228C4.82291 0.592611 4.59027 0.48082 4.36743 0.539651L1.21588 1.37001C0.259419 1.61341 -0.207436 2.61487 0.0879415 3.57354C0.999514 6.53269 2.31165 9.05544 4.8733 11.6521C4.87415 11.6529 4.87501 11.6538 4.87587 11.6546L4.89226 11.671C4.89311 11.6719 4.89397 11.6727 4.89482 11.6736C8.27949 15.0129 11.3329 15.9537 12.9734 16.4591C13.9225 16.7514 14.9308 16.2963 15.1769 15.3317L16.0154 12.1894C16.0749 11.9663 15.9635 11.733 15.7526 11.6392ZM14.2685 15.0923C14.268 15.0942 14.2675 15.0962 14.267 15.0981C14.1563 15.5355 13.6864 15.6959 13.2499 15.5613C11.5767 15.0458 8.77643 14.1831 5.55578 11.0063L5.54074 10.9911C2.36363 7.77021 1.43298 4.74905 0.98557 3.29699C0.85103 2.85998 1.01174 2.39044 1.44876 2.27999C1.45022 2.27962 1.45169 2.27926 1.45316 2.27877L4.22016 1.54993L5.74035 4.97386C5.35153 5.35864 4.5904 6.11378 4.3662 6.35081C4.2165 6.50908 4.19534 6.74966 4.3152 6.93178C4.93482 7.87332 5.74426 8.83651 6.7209 9.79456C7.69277 10.7853 8.69388 11.6282 9.61597 12.2323C9.79393 12.3489 10.028 12.3313 10.1865 12.1895C10.4342 11.9679 11.1897 11.2006 11.5746 10.8076L15.0044 12.3344L14.2685 15.0923Z" fill="#0070F0" fill-opacity="0.9"/>
<path d="M8.01581 1.45496C11.9176 1.45496 15.092 4.61531 15.092 8.49985C15.092 8.75914 15.3023 8.96951 15.5616 8.96951C15.821 8.96951 16.0312 8.75914 16.0312 8.49985C16.0312 4.09733 12.4356 0.515625 8.01581 0.515625C7.75639 0.515625 7.54614 0.725875 7.54614 0.985292C7.54614 1.24471 7.75639 1.45496 8.01581 1.45496Z" fill="#0070F0" fill-opacity="0.9"/>
<path d="M8.01581 3.33362C10.8644 3.33362 13.182 5.65114 13.182 8.49984C13.182 8.75914 13.3923 8.96951 13.6517 8.96951C13.911 8.96951 14.1214 8.75914 14.1214 8.49984C14.1214 5.13316 11.3824 2.39429 8.01581 2.39429C7.75639 2.39429 7.54614 2.60454 7.54614 2.86395C7.54614 3.12325 7.75639 3.33362 8.01581 3.33362Z" fill="#0070F0" fill-opacity="0.9"/>
<path d="M8.01581 5.21216C9.82855 5.21216 11.3034 6.68697 11.3034 8.49983C11.3034 8.75913 11.5136 8.9695 11.773 8.9695C12.0324 8.9695 12.2427 8.75913 12.2427 8.49983C12.2427 6.16911 10.3465 4.27283 8.01581 4.27283C7.75639 4.27283 7.54614 4.4832 7.54614 4.74249C7.54614 5.00191 7.75639 5.21216 8.01581 5.21216Z" fill="#0070F0" fill-opacity="0.9"/>
</g>
<defs>
<clipPath id="clip0_1_3104">
<rect width="16.0313" height="16" fill="white" transform="translate(0 0.5)"/>
</clipPath>
</defs>
</svg>
