<svg width="16" height="17" viewBox="0 0 16 17" fill="none" xmlns="http://www.w3.org/2000/svg">
<path d="M14.5938 3.01904H1.40625C0.630844 3.01904 0 3.64989 0 4.42529V12.5747C0 13.3501 0.630844 13.981 1.40625 13.981H14.5938C15.3692 13.981 16 13.3501 16 12.5747V4.42529C16 3.64989 15.3692 3.01904 14.5938 3.01904ZM14.4102 3.95654L14.2225 4.11282L8.55794 8.82973C8.23462 9.09891 7.76531 9.09891 7.44206 8.82973L1.77747 4.11282L1.58978 3.95654H14.4102ZM0.9375 4.63335L5.55288 8.47657L0.9375 11.5482V4.63335ZM14.5938 13.0435H1.40625C1.17975 13.0435 0.990313 12.882 0.946906 12.6681L6.30456 9.10248L6.84219 9.55016C7.17762 9.82948 7.58884 9.96913 8.00003 9.96913C8.41122 9.96913 8.82241 9.82948 9.15788 9.55016L9.6955 9.10248L15.0531 12.6681C15.0097 12.882 14.8202 13.0435 14.5938 13.0435ZM15.0625 11.5482L10.4471 8.4766L15.0625 4.63335V11.5482Z" fill="#0070F0" fill-opacity="0.9"/>
</svg>
