<svg width="500" height="500" viewBox="0 0 500 500" fill="none" xmlns="http://www.w3.org/2000/svg">
<path d="M409 255.09C320.59 204.09 177.72 204.09 89.8802 255.09C2.04024 306.09 2.55024 388.9 91.0002 439.94C179.45 490.98 322.28 490.99 410.12 439.94C497.96 388.89 497.45 306.14 409 255.09Z" fill="#F5F5F5"/>
<path d="M46.4701 332.87C53.0101 329.1 63.5801 329.1 70.0801 332.87C76.5801 336.64 76.5401 342.77 70.0001 346.55C63.4601 350.33 52.8901 350.32 46.4001 346.55C39.9101 342.78 39.9301 336.65 46.4701 332.87Z" fill="#E0E0E0"/>
<path d="M429.76 305.91C436.62 301.91 447.7 301.91 454.51 305.91C461.32 309.91 461.29 316.29 454.43 320.25C447.57 324.21 436.49 324.25 429.68 320.25C422.87 316.25 422.9 309.87 429.76 305.91Z" fill="#E0E0E0"/>
<path d="M59.6606 365.64C58.4906 366.32 58.4806 367.42 59.6606 368.09L69.1606 373.62C69.8169 373.955 70.5435 374.13 71.2806 374.13C72.0176 374.13 72.7442 373.955 73.4006 373.62L270.681 259.72C270.938 259.635 271.163 259.471 271.322 259.251C271.481 259.031 271.566 258.766 271.566 258.495C271.566 258.223 271.481 257.959 271.322 257.739C271.163 257.519 270.938 257.355 270.681 257.27L261.171 251.74C260.514 251.405 259.788 251.23 259.051 251.23C258.313 251.23 257.587 251.405 256.931 251.74L59.6606 365.64Z" fill="#E0E0E0"/>
<path d="M442.09 352.45C442.176 352.48 442.25 352.536 442.303 352.611C442.355 352.685 442.384 352.774 442.384 352.865C442.384 352.956 442.355 353.045 442.303 353.119C442.25 353.194 442.176 353.25 442.09 353.28L438.87 355.15C438.647 355.263 438.4 355.322 438.15 355.322C437.899 355.322 437.653 355.263 437.43 355.15L365.36 313.74C365.275 313.707 365.202 313.65 365.15 313.575C365.099 313.5 365.071 313.411 365.071 313.32C365.071 313.229 365.099 313.14 365.15 313.065C365.202 312.99 365.275 312.933 365.36 312.9L368.58 311.03C368.802 310.921 369.047 310.865 369.295 310.865C369.543 310.865 369.787 310.921 370.01 311.03L442.09 352.45Z" fill="#E0E0E0"/>
<path d="M147.07 408.6C165.9 397.72 196.34 397.72 215.07 408.6C233.8 419.48 233.68 437.1 214.85 447.98C196.02 458.86 165.57 458.85 146.85 447.98C128.13 437.11 128.23 419.47 147.07 408.6Z" fill="#E0E0E0"/>
<path d="M353 322.18C336.52 312.67 309.89 312.67 293.52 322.18C277.15 331.69 277.24 347.12 293.71 356.63C310.18 366.14 336.82 366.14 353.19 356.63C369.56 347.12 369.51 331.69 353 322.18Z" fill="#E0E0E0"/>
<path d="M189.651 383.86L203.651 391.94C204.411 392.379 205.273 392.61 206.151 392.61C207.028 392.61 207.89 392.379 208.651 391.94L279.921 350.8C280.074 350.713 280.202 350.586 280.291 350.433C280.381 350.281 280.427 350.107 280.427 349.93C280.427 349.753 280.381 349.579 280.291 349.427C280.202 349.274 280.074 349.147 279.921 349.06L265.731 341.06C264.97 340.621 264.108 340.39 263.231 340.39C262.353 340.39 261.491 340.621 260.731 341.06L189.611 382.12C189.459 382.211 189.333 382.34 189.248 382.495C189.162 382.65 189.119 382.825 189.123 383.002C189.127 383.179 189.178 383.351 189.271 383.502C189.364 383.653 189.495 383.776 189.651 383.86Z" fill="#E0E0E0"/>
<path d="M306.34 87.8902L310.07 85.7202L349.5 108.4V112.72L306.34 87.8902Z" fill="#F5F5F5"/>
<path d="M306.34 87.8901L349.5 112.72V117.64L306.33 92.8401L306.34 87.8901Z" fill="#E0E0E0"/>
<path d="M372.04 125.69L375.77 123.52L415.2 146.2V150.51L372.04 125.69Z" fill="#F5F5F5"/>
<path d="M372.04 125.69L415.2 150.51V155.44L372.03 130.64L372.04 125.69Z" fill="#E0E0E0"/>
<path d="M306.55 46.45L310.28 44.28L310.06 155.93L306.33 158.1L306.55 46.45Z" fill="#F0F0F0"/>
<path d="M306.33 158.1L310.06 155.93L353.01 180.58L349.28 182.75L306.33 158.1Z" fill="#F5F5F5"/>
<path d="M302.27 39L353.8 68.65L353.56 190.16L302 160.55L302.27 39ZM349.27 182.71L349.49 71.07L306.55 46.45L306.33 158.1L349.28 182.75" fill="#E0E0E0"/>
<path d="M302.27 39.0401L306 36.8701L357.54 66.4801L353.8 68.6501L302.27 39.0401Z" fill="#F5F5F5"/>
<path d="M353.8 68.6502L357.54 66.4802L357.29 187.99L353.56 190.16L353.8 68.6502Z" fill="#F0F0F0"/>
<path d="M372.25 84.2501L375.98 82.0801L375.76 193.73L372.03 195.9L372.25 84.2501Z" fill="#F0F0F0"/>
<path d="M372.03 195.9L375.76 193.73L418.71 218.38L414.98 220.55L372.03 195.9Z" fill="#F5F5F5"/>
<path d="M368 76.8401L419.53 106.45L419.26 228L367.72 198.39L368 76.8401ZM415 220.55L415.22 108.9L372.25 84.2501L372 195.9L415 220.55Z" fill="#E0E0E0"/>
<path d="M367.97 76.8402L371.7 74.6702L423.23 104.28L419.5 106.45L367.97 76.8402Z" fill="#F5F5F5"/>
<path d="M419.5 106.45L423.23 104.28L422.99 225.79L419.26 227.96L419.5 106.45Z" fill="#F0F0F0"/>
<path d="M42.4006 311.15L58.2406 311.61L74.0706 311.15C74.7506 321.84 72.6606 332.74 69.7906 338.06C69.1115 339.428 68.0155 340.545 66.6606 341.25C61.9906 343.94 54.4406 343.94 49.8006 341.25C48.4197 340.546 47.3117 339.402 46.6506 338C43.7906 332.62 41.7206 321.79 42.4006 311.15Z" fill="white"/>
<path d="M47.0802 304.66C40.8702 308.24 40.8402 314.05 47.0002 317.66C53.1602 321.27 63.1902 321.24 69.4002 317.66C75.6102 314.08 75.6302 308.27 69.4702 304.66C63.3102 301.05 53.2802 301.08 47.0802 304.66Z" fill="#EBEBEB"/>
<path d="M49.5298 306.09C44.6898 308.88 44.6698 313.41 49.4698 316.21C54.2698 319.01 62.0998 319 66.9398 316.21C71.7798 313.42 71.8098 308.88 66.9998 306.09C62.1898 303.3 54.3698 303.29 49.5298 306.09Z" fill="#E0E0E0"/>
<g opacity="0.15">
<path opacity="0.15" d="M49.5298 306.09C44.6898 308.88 44.6698 313.41 49.4698 316.21C54.2698 319.01 62.0998 319 66.9398 316.21C71.7798 313.42 71.8098 308.88 66.9998 306.09C62.1898 303.3 54.3698 303.29 49.5298 306.09Z" fill="black"/>
</g>
<path d="M32.2002 243.58C67.8902 255.27 68.2002 279.14 60.2002 296.14C58.2002 299.58 52.0402 301.42 46.6902 280.28L56.0002 281.49L45.1002 276L42.2702 267.52L51.3702 268.2L39.8102 263.33C37.6887 256.594 35.147 249.998 32.2002 243.58Z" fill="#0070F0"/>
<path opacity="0.2" d="M32.2002 243.58C67.8902 255.27 68.2002 279.14 60.2002 296.14C58.2002 299.58 52.0402 301.42 46.6902 280.28L56.0002 281.49L45.1002 276L42.2702 267.52L51.3702 268.2L39.8102 263.33C37.6887 256.594 35.147 249.998 32.2002 243.58Z" fill="black"/>
<path opacity="0.2" d="M32.2002 243.58C67.8902 255.27 68.2002 279.14 60.2002 296.14C58.2002 299.58 52.0402 301.42 46.6902 280.28L56.0002 281.49L45.1002 276L42.2702 267.52L51.3702 268.2L39.8102 263.33C37.6887 256.594 35.147 249.998 32.2002 243.58Z" fill="white"/>
<path d="M42.2998 249.55C61.1098 263.83 62.8098 280.21 57.4998 297.3C59.3798 282.25 61.4098 267 42.2998 249.55Z" fill="white"/>
<path d="M92.6406 267.83C57.4706 272.78 53.2006 295 57.8706 312.13C59.1906 315.67 64.6006 318.41 73.0806 299.61L64.1606 299.17L75.2506 295.83L79.2506 288.41L70.6606 287.52L82.2306 284.92C85.3477 279.016 88.8242 273.308 92.6406 267.83Z" fill="#0070F0"/>
<path opacity="0.2" d="M92.6406 267.83C57.4706 272.78 53.2006 295 57.8706 312.13C59.1906 315.67 64.6006 318.41 73.0806 299.61L64.1606 299.17L75.2506 295.83L79.2506 288.41L70.6606 287.52L82.2306 284.92C85.3477 279.016 88.8242 273.308 92.6406 267.83Z" fill="white"/>
<path opacity="0.1" d="M92.6406 267.83C57.4706 272.78 53.2006 295 57.8706 312.13C59.1906 315.67 64.6006 318.41 73.0806 299.61L64.1606 299.17L75.2506 295.83L79.2506 288.41L70.6606 287.52L82.2306 284.92C85.3477 279.016 88.8242 273.308 92.6406 267.83Z" fill="black"/>
<path d="M82.2497 271.71C62.3497 281.89 58.0497 296.85 60.1597 313.71C60.9097 299.33 61.5497 284.82 82.2497 271.71Z" fill="white"/>
<path d="M21.9102 276.14C54.1602 276.67 60.4902 296.14 58.2102 312.14C57.4202 315.48 52.8502 318.55 43.0902 302.56L51.0902 301.16L40.7202 299.39L36.2402 293.15L43.8802 291.39L33.1602 290.34C29.7036 285.381 25.9466 280.639 21.9102 276.14Z" fill="#0070F0"/>
<path d="M31.71 278.48C50.78 285.42 56.33 298.43 56.31 313.81C54 301 51.84 288 31.71 278.48Z" fill="white"/>
<path opacity="0.2" d="M21.9102 276.14C54.1602 276.67 60.4902 296.14 58.2102 312.14C57.4202 315.48 52.8502 318.55 43.0902 302.56L51.0902 301.16L40.7202 299.39L36.2402 293.15L43.8802 291.39L33.1602 290.34C29.7036 285.381 25.9466 280.639 21.9102 276.14Z" fill="white"/>
<path d="M425.49 283.13L442.09 283.61L458.7 283.13C459.41 294.34 457.22 305.77 454.21 311.35C453.498 312.782 452.349 313.952 450.93 314.69C446.03 317.52 438.11 317.52 433.24 314.69C431.798 313.94 430.645 312.734 429.96 311.26C426.94 305.65 424.78 294.28 425.49 283.13Z" fill="white"/>
<path d="M430.39 276.32C423.89 280.08 423.85 286.17 430.32 289.93C436.79 293.69 447.32 293.68 453.8 289.93C460.28 286.18 460.34 280.08 453.87 276.32C447.4 272.56 436.9 272.57 430.39 276.32Z" fill="#EBEBEB"/>
<path d="M433 277.82C427.93 280.75 427.9 285.5 432.94 288.43C437.98 291.36 446.19 291.36 451.26 288.43C456.33 285.5 456.37 280.75 451.32 277.82C446.27 274.89 438 274.89 433 277.82Z" fill="#E0E0E0"/>
<g opacity="0.15">
<path opacity="0.15" d="M433 277.82C427.93 280.75 427.9 285.5 432.94 288.43C437.98 291.36 446.19 291.36 451.26 288.43C456.33 285.5 456.37 280.75 451.32 277.82C446.27 274.89 438 274.89 433 277.82Z" fill="black"/>
</g>
<path d="M450.56 249.15C453.26 245.79 456.4 242.78 458.88 239.25C460.57 236.85 461.98 233.9 461.27 231.05C460.873 229.74 460.118 228.568 459.089 227.665C458.061 226.762 456.8 226.165 455.45 225.94C452.725 225.532 449.944 226.153 447.65 227.68C445.381 229.203 443.386 231.1 441.75 233.29C432.409 245.13 427.993 260.116 429.42 275.13C429.446 276.851 429.982 278.525 430.96 279.94C431.559 280.647 432.35 281.167 433.236 281.436C434.123 281.706 435.069 281.714 435.96 281.46C440.48 280.11 439.88 274 440.62 270.46C441.639 265.523 443.392 260.767 445.82 256.35C447.183 253.814 448.769 251.404 450.56 249.15Z" fill="#0070F0"/>
<path opacity="0.2" d="M450.56 249.15C453.26 245.79 456.4 242.78 458.88 239.25C460.57 236.85 461.98 233.9 461.27 231.05C460.873 229.74 460.118 228.568 459.089 227.665C458.061 226.762 456.8 226.165 455.45 225.94C452.725 225.532 449.944 226.153 447.65 227.68C445.381 229.203 443.386 231.1 441.75 233.29C432.409 245.13 427.993 260.116 429.42 275.13C429.446 276.851 429.982 278.525 430.96 279.94C431.559 280.647 432.35 281.167 433.236 281.436C434.123 281.706 435.069 281.714 435.96 281.46C440.48 280.11 439.88 274 440.62 270.46C441.639 265.523 443.392 260.767 445.82 256.35C447.183 253.814 448.769 251.404 450.56 249.15Z" fill="white"/>
<path d="M435.64 276.9C435.727 276.882 435.805 276.837 435.863 276.77C435.921 276.703 435.955 276.618 435.96 276.53C436.27 269.27 438.63 244.53 455.71 230.43C455.792 230.363 455.844 230.267 455.855 230.162C455.867 230.057 455.836 229.952 455.77 229.87C455.702 229.79 455.606 229.74 455.502 229.729C455.398 229.717 455.293 229.747 455.21 229.81C437.88 244.08 435.49 269.15 435.21 276.5C435.207 276.603 435.244 276.703 435.313 276.779C435.382 276.855 435.478 276.902 435.58 276.91L435.64 276.9Z" fill="#F0F0F0"/>
<path d="M433.14 277.69C433.502 279.279 434.18 280.778 435.133 282.099C436.087 283.421 437.296 284.536 438.69 285.38C441.303 286.616 444.208 287.101 447.08 286.78C449.99 286.459 452.851 285.788 455.6 284.78C456.97 284.32 458.49 283.7 458.6 282C458.621 281.554 458.542 281.109 458.369 280.697C458.196 280.285 457.933 279.917 457.6 279.62C457.319 279.346 457.022 279.088 456.71 278.85C456.571 278.741 456.467 278.592 456.414 278.424C456.36 278.255 456.359 278.074 456.409 277.905C456.46 277.735 456.561 277.585 456.698 277.473C456.836 277.362 457.004 277.295 457.18 277.28C457.995 277.231 458.807 277.13 459.61 276.98C461.483 276.677 463.243 275.884 464.71 274.68C465.771 273.73 466.579 272.531 467.06 271.19C467.47 270.05 467.59 268.62 466.72 267.77C466.184 267.321 465.532 267.034 464.84 266.94C464.227 266.813 463.617 266.703 463.01 266.61C462.835 266.584 462.673 266.501 462.549 266.374C462.425 266.247 462.347 266.083 462.325 265.907C462.303 265.731 462.34 265.553 462.43 265.4C462.519 265.247 462.656 265.128 462.82 265.06L465.4 263.99C466.139 263.747 466.808 263.328 467.35 262.77C467.687 262.25 467.906 261.664 467.993 261.05C468.079 260.437 468.03 259.812 467.85 259.22C467.53 257.61 466.98 256.05 466.6 254.46C466.15 252.871 466.092 251.197 466.43 249.58C461.599 249.056 456.713 249.394 452 250.58C450.581 250.879 449.24 251.468 448.06 252.31C446.45 253.59 446.06 255.52 446.21 257.61C446.213 257.695 446.187 257.778 446.137 257.847C446.087 257.915 446.015 257.965 445.933 257.988C445.852 258.011 445.765 258.006 445.686 257.974C445.608 257.941 445.542 257.884 445.5 257.81L443.86 254.81C443.611 254.38 443.212 254.057 442.738 253.906C442.265 253.754 441.752 253.784 441.3 253.99C439.855 254.723 438.576 255.744 437.54 256.99C436.963 257.645 436.523 258.409 436.246 259.237C435.97 260.065 435.862 260.94 435.93 261.81C436.124 264.2 436.526 266.569 437.13 268.89C437.156 269.017 437.144 269.149 437.096 269.269C437.048 269.389 436.965 269.492 436.858 269.566C436.752 269.639 436.626 269.68 436.496 269.683C436.367 269.685 436.239 269.649 436.13 269.58L436.05 269.52C435.608 269.182 435.055 269.021 434.5 269.07C433.05 269.25 432.67 270.72 432.58 271.98C432.542 273.899 432.73 275.815 433.14 277.69Z" fill="#0070F0"/>
<path opacity="0.2" d="M433.14 277.69C433.502 279.279 434.18 280.778 435.133 282.099C436.087 283.421 437.296 284.536 438.69 285.38C441.303 286.616 444.208 287.101 447.08 286.78C449.99 286.459 452.851 285.788 455.6 284.78C456.97 284.32 458.49 283.7 458.6 282C458.621 281.554 458.542 281.109 458.369 280.697C458.196 280.285 457.933 279.917 457.6 279.62C457.319 279.346 457.022 279.088 456.71 278.85C456.571 278.741 456.467 278.592 456.414 278.424C456.36 278.255 456.359 278.074 456.409 277.905C456.46 277.735 456.561 277.585 456.698 277.473C456.836 277.362 457.004 277.295 457.18 277.28C457.995 277.231 458.807 277.13 459.61 276.98C461.483 276.677 463.243 275.884 464.71 274.68C465.771 273.73 466.579 272.531 467.06 271.19C467.47 270.05 467.59 268.62 466.72 267.77C466.184 267.321 465.532 267.034 464.84 266.94C464.227 266.813 463.617 266.703 463.01 266.61C462.835 266.584 462.673 266.501 462.549 266.374C462.425 266.247 462.347 266.083 462.325 265.907C462.303 265.731 462.34 265.553 462.43 265.4C462.519 265.247 462.656 265.128 462.82 265.06L465.4 263.99C466.139 263.747 466.808 263.328 467.35 262.77C467.687 262.25 467.906 261.664 467.993 261.05C468.079 260.437 468.03 259.812 467.85 259.22C467.53 257.61 466.98 256.05 466.6 254.46C466.15 252.871 466.092 251.197 466.43 249.58C461.599 249.056 456.713 249.394 452 250.58C450.581 250.879 449.24 251.468 448.06 252.31C446.45 253.59 446.06 255.52 446.21 257.61C446.213 257.695 446.187 257.778 446.137 257.847C446.087 257.915 446.015 257.965 445.933 257.988C445.852 258.011 445.765 258.006 445.686 257.974C445.608 257.941 445.542 257.884 445.5 257.81L443.86 254.81C443.611 254.38 443.212 254.057 442.738 253.906C442.265 253.754 441.752 253.784 441.3 253.99C439.855 254.723 438.576 255.744 437.54 256.99C436.963 257.645 436.523 258.409 436.246 259.237C435.97 260.065 435.862 260.94 435.93 261.81C436.124 264.2 436.526 266.569 437.13 268.89C437.156 269.017 437.144 269.149 437.096 269.269C437.048 269.389 436.965 269.492 436.858 269.566C436.752 269.639 436.626 269.68 436.496 269.683C436.367 269.685 436.239 269.649 436.13 269.58L436.05 269.52C435.608 269.182 435.055 269.021 434.5 269.07C433.05 269.25 432.67 270.72 432.58 271.98C432.542 273.899 432.73 275.815 433.14 277.69Z" fill="black"/>
<path opacity="0.2" d="M433.14 277.69C433.502 279.279 434.18 280.778 435.133 282.099C436.087 283.421 437.296 284.536 438.69 285.38C441.303 286.616 444.208 287.101 447.08 286.78C449.99 286.459 452.851 285.788 455.6 284.78C456.97 284.32 458.49 283.7 458.6 282C458.621 281.554 458.542 281.109 458.369 280.697C458.196 280.285 457.933 279.917 457.6 279.62C457.319 279.346 457.022 279.088 456.71 278.85C456.571 278.741 456.467 278.592 456.414 278.424C456.36 278.255 456.359 278.074 456.409 277.905C456.46 277.735 456.561 277.585 456.698 277.473C456.836 277.362 457.004 277.295 457.18 277.28C457.995 277.231 458.807 277.13 459.61 276.98C461.483 276.677 463.243 275.884 464.71 274.68C465.771 273.73 466.579 272.531 467.06 271.19C467.47 270.05 467.59 268.62 466.72 267.77C466.184 267.321 465.532 267.034 464.84 266.94C464.227 266.813 463.617 266.703 463.01 266.61C462.835 266.584 462.673 266.501 462.549 266.374C462.425 266.247 462.347 266.083 462.325 265.907C462.303 265.731 462.34 265.553 462.43 265.4C462.519 265.247 462.656 265.128 462.82 265.06L465.4 263.99C466.139 263.747 466.808 263.328 467.35 262.77C467.687 262.25 467.906 261.664 467.993 261.05C468.079 260.437 468.03 259.812 467.85 259.22C467.53 257.61 466.98 256.05 466.6 254.46C466.15 252.871 466.092 251.197 466.43 249.58C461.599 249.056 456.713 249.394 452 250.58C450.581 250.879 449.24 251.468 448.06 252.31C446.45 253.59 446.06 255.52 446.21 257.61C446.213 257.695 446.187 257.778 446.137 257.847C446.087 257.915 446.015 257.965 445.933 257.988C445.852 258.011 445.765 258.006 445.686 257.974C445.608 257.941 445.542 257.884 445.5 257.81L443.86 254.81C443.611 254.38 443.212 254.057 442.738 253.906C442.265 253.754 441.752 253.784 441.3 253.99C439.855 254.723 438.576 255.744 437.54 256.99C436.963 257.645 436.523 258.409 436.246 259.237C435.97 260.065 435.862 260.94 435.93 261.81C436.124 264.2 436.526 266.569 437.13 268.89C437.156 269.017 437.144 269.149 437.096 269.269C437.048 269.389 436.965 269.492 436.858 269.566C436.752 269.639 436.626 269.68 436.496 269.683C436.367 269.685 436.239 269.649 436.13 269.58L436.05 269.52C435.608 269.182 435.055 269.021 434.5 269.07C433.05 269.25 432.67 270.72 432.58 271.98C432.542 273.899 432.73 275.815 433.14 277.69Z" fill="white"/>
<path d="M440.79 285C441.7 281.131 443.004 277.364 444.68 273.76C444.676 273.703 444.685 273.646 444.708 273.594C444.731 273.542 444.766 273.496 444.81 273.46L445.08 272.87C444.608 268.379 443.306 264.015 441.24 260C441.214 259.955 441.198 259.906 441.191 259.855C441.185 259.804 441.188 259.752 441.202 259.703C441.215 259.653 441.238 259.606 441.27 259.566C441.301 259.525 441.34 259.491 441.385 259.465C441.43 259.439 441.479 259.423 441.53 259.416C441.581 259.41 441.633 259.413 441.683 259.427C441.732 259.44 441.779 259.463 441.82 259.495C441.86 259.526 441.894 259.565 441.92 259.61C443.866 263.362 445.148 267.421 445.71 271.61C449 265.02 454.24 257.32 462.33 251.69C462.416 251.648 462.514 251.639 462.606 251.663C462.699 251.687 462.779 251.744 462.834 251.822C462.888 251.901 462.912 251.996 462.903 252.091C462.893 252.186 462.849 252.274 462.78 252.34C454.44 258.14 449.17 266.19 445.97 272.87C450.277 270.919 455.059 270.269 459.73 271C459.833 271.022 459.924 271.083 459.982 271.171C460.04 271.259 460.061 271.367 460.04 271.47C460.024 271.546 459.986 271.616 459.931 271.671C459.876 271.726 459.806 271.764 459.73 271.78H459.58C459.5 271.78 451.95 270.39 445.42 274.04C443.761 277.616 442.471 281.352 441.57 285.19C441.554 285.266 441.516 285.336 441.461 285.391C441.406 285.446 441.336 285.484 441.26 285.5H441.11C441.056 285.489 441.004 285.468 440.958 285.437C440.912 285.406 440.873 285.365 440.843 285.319C440.813 285.272 440.793 285.22 440.784 285.165C440.775 285.11 440.777 285.054 440.79 285Z" fill="#F0F0F0"/>
<path d="M260.46 260.19C258.716 261.078 256.787 261.54 254.83 261.54C252.873 261.54 250.944 261.078 249.2 260.19C247.64 259.29 246.85 258.11 246.85 256.93V261.54C246.85 262.72 247.64 263.9 249.2 264.8C250.944 265.688 252.873 266.151 254.83 266.151C256.787 266.151 258.716 265.688 260.46 264.8C261.098 264.508 261.649 264.053 262.057 263.481C262.464 262.909 262.713 262.239 262.78 261.54V256.93C262.713 257.629 262.464 258.299 262.057 258.871C261.649 259.443 261.098 259.898 260.46 260.19Z" fill="#E0E0E0"/>
<path d="M249.199 260.19C250.943 261.078 252.872 261.54 254.829 261.54C256.786 261.54 258.715 261.078 260.459 260.19C261.142 259.96 261.735 259.522 262.155 258.937C262.575 258.352 262.801 257.65 262.801 256.93C262.801 256.21 262.575 255.508 262.155 254.923C261.735 254.338 261.142 253.9 260.459 253.67C258.717 252.777 256.787 252.312 254.829 252.312C252.871 252.312 250.942 252.777 249.199 253.67C248.558 253.957 248.005 254.411 247.599 254.984C247.193 255.558 246.948 256.23 246.889 256.93C246.849 258.11 247.639 259.29 249.199 260.19Z" fill="#F0F0F0"/>
<path d="M252.56 45.4299V256.43C252.578 256.628 252.649 256.818 252.765 256.979C252.881 257.141 253.038 257.269 253.22 257.35C253.714 257.601 254.26 257.732 254.815 257.732C255.369 257.732 255.915 257.601 256.41 257.35C256.591 257.269 256.748 257.141 256.864 256.979C256.98 256.818 257.051 256.628 257.07 256.43V45.4299H252.56Z" fill="#E0E0E0"/>
<path d="M253.76 43.4799C254.264 43.8064 254.683 44.2493 254.981 44.7714C255.278 45.2935 255.446 45.8795 255.47 46.4799C255.47 47.5699 254.69 47.9999 253.75 47.4799C253.254 47.1566 252.842 46.721 252.547 46.2084C252.251 45.6958 252.081 45.1207 252.05 44.5299C252.05 43.3699 252.82 42.9299 253.76 43.4799Z" fill="#E0E0E0"/>
<path d="M272.43 36.4899C272.434 36.4601 272.434 36.4297 272.43 36.3999V36.3199C272.43 36.3199 272.43 36.2599 272.43 36.2399C272.43 36.2199 272.43 36.1799 272.43 36.1499C272.43 36.1499 272.43 36.0899 272.43 36.0599C272.434 36.0301 272.434 35.9997 272.43 35.9699V35.8899C272.435 35.8568 272.435 35.823 272.43 35.7899V35.7299V35.6499V35.5599V35.4999V35.4199V35.3599V35.2799L272.38 35.1899V35.1199L272.33 35.0299V34.9799C272.308 34.9609 272.29 34.9369 272.28 34.9099L272.21 34.7999L272.1 34.6499L272.02 34.5499L271.96 34.4699L271.89 34.3899L271.83 34.3199L271.75 34.2499L271.67 34.1899H271.59H271.52L271.44 34.1399H271.38H271.31H271.24H271.17H270.71H270.61H270.52L270.39 34.1999L253.39 44.0699L253.53 44.0099H253.63H253.95H254.09H254.24L254.4 44.0799L254.57 44.1699L254.74 44.2799L254.9 44.3899L255.05 44.5099C255.099 44.554 255.146 44.6008 255.19 44.6499C255.239 44.7041 255.286 44.7608 255.33 44.8199L255.47 44.9999L255.59 45.1699L255.65 45.2799L255.71 45.3699L255.79 45.5199C255.824 45.5846 255.854 45.6514 255.88 45.7199L255.96 45.9199C255.96 45.9899 256.01 46.0599 256.03 46.1199L256.09 46.3099C256.093 46.3765 256.093 46.4433 256.09 46.5099V46.7099C256.09 46.7799 256.09 46.8499 256.09 46.9099C256.085 46.9731 256.085 47.0366 256.09 47.0999C256.095 47.1531 256.095 47.2067 256.09 47.2599C256.09 47.2599 256.09 47.3599 256.09 47.4099C256.094 47.4498 256.094 47.49 256.09 47.5299C256.07 47.572 256.047 47.6121 256.02 47.6499C256.002 47.6809 255.978 47.7081 255.95 47.7299C255.95 47.7299 255.95 47.7799 255.88 47.7899L255.78 47.8599L272.78 37.9899L272.88 37.9199L272.94 37.8499L273 37.7599L273.06 37.6399V37.5599V37.4699V36.8999C273.064 36.8701 273.064 36.8397 273.06 36.8099V36.7299C273.06 36.7299 273.06 36.7299 273.06 36.6499V36.5699L272.43 36.4899Z" fill="#E6E6E6"/>
<path d="M73 145.75V316.31L252.72 212.73V41.6299L73 145.75Z" fill="#0070F0"/>
<path opacity="0.4" d="M73 145.75V316.31L252.72 212.73V41.6299L73 145.75Z" fill="white"/>
<path d="M76.62 143.69C77.6675 144.371 78.5388 145.291 79.1627 146.374C79.7867 147.457 80.1456 148.672 80.21 149.92C80.21 152.21 78.58 153.13 76.59 151.98C75.5438 151.299 74.6733 150.381 74.0495 149.3C73.4256 148.219 73.066 147.006 73 145.76C73 143.47 74.62 142.54 76.62 143.69Z" fill="#0070F0"/>
<path d="M260.66 45.44V45.27C260.66 45.27 260.66 45.21 260.66 45.19C260.66 45.19 260.66 45.19 260.66 45.13C260.66 44.95 260.66 44.95 260.66 44.77H260.66V44.6C260.654 44.5368 260.654 44.4732 260.66 44.41C260.66 44.41 260.66 44.41 260.66 44.35C260.664 44.3202 260.664 44.2898 260.66 44.26C260.647 44.1958 260.63 44.1324 260.61 44.07C260.613 44.0234 260.613 43.9766 260.61 43.93V43.88L260.55 43.7C260.533 43.6346 260.509 43.571 260.48 43.51V43.45C260.48 43.45 260.48 43.37 260.48 43.34L260.41 43.16L260.35 43.04V42.9C260.327 42.8382 260.301 42.7781 260.27 42.72L260.18 42.53L260.1 42.38L260 42.19L259.6 42L259.5 41.84L259.36 41.61L259.13 41.28L258.97 41.07L258.83 40.9L258.69 40.73L258.55 40.58C258.519 40.5442 258.486 40.5108 258.45 40.48L258.3 40.32L258.22 40.25L258.06 40.11L257.99 40.05L257.83 39.93L257.72 39.84L257.57 39.74L257.42 39.65L257.31 39.58L257.16 39.51L257.07 39.46H257.01L256.87 39.4L256.72 39.34H256.62H256.47L256 39H255.92H255.77H255.25H255.04H254.99L254.79 39.05C254.696 39.0851 254.606 39.1286 254.52 39.18L74.0498 143.44L74.3298 143.31L74.5498 143.25C74.6395 143.24 74.7301 143.24 74.8198 143.25H75.1798H75.4798L75.7998 143.34C75.9198 143.378 76.0368 143.425 76.1498 143.48L76.5098 143.66L76.8698 143.89L77.1998 144.13L77.5098 144.4C77.617 144.489 77.7173 144.586 77.8098 144.69L78.1098 145.04C78.2098 145.16 78.3098 145.29 78.3998 145.42C78.4911 145.534 78.5746 145.655 78.6498 145.78L78.7998 146.01L78.9198 146.2C78.9162 146.233 78.9162 146.267 78.9198 146.3L79.0998 146.63C79.1698 146.77 79.2398 146.91 79.2998 147.05C79.3598 147.19 79.4098 147.33 79.4598 147.47C79.5198 147.62 79.5598 147.76 79.6098 147.9L79.7198 148.31C79.7198 148.45 79.7798 148.6 79.7998 148.74C79.7998 148.89 79.7998 149.03 79.7998 149.17C79.7998 149.31 79.7998 149.45 79.7998 149.59C79.7998 149.73 79.7998 149.86 79.7998 149.98C79.8061 150.09 79.8061 150.2 79.7998 150.31C79.7998 150.41 79.7998 150.51 79.7198 150.61V150.66C79.6893 150.749 79.6525 150.836 79.6098 150.92C79.5691 151.01 79.5224 151.097 79.4698 151.18C79.4198 151.24 79.3798 151.31 79.3298 151.36L79.2698 151.42L79.1398 151.56L79.0798 151.61L78.8698 151.75L259.62 47.92L259.82 47.77L259.88 47.72L260.02 47.59L260.07 47.53C260.122 47.4709 260.169 47.4074 260.21 47.34L260.35 47.09C260.379 47.036 260.403 46.979 260.42 46.92V46.84V46.78C260.42 46.72 260.42 46.65 260.42 46.59C260.421 46.5667 260.421 46.5433 260.42 46.52C260.416 46.4968 260.416 46.4732 260.42 46.45C260.425 46.3935 260.425 46.3365 260.42 46.28C260.425 46.2469 260.425 46.2131 260.42 46.18V46C260.425 45.9434 260.425 45.8866 260.42 45.83C260.425 45.7701 260.425 45.7099 260.42 45.65C260.511 45.5945 260.593 45.5234 260.66 45.44Z" fill="#0070F0"/>
<path opacity="0.2" d="M260.66 45.44V45.27C260.66 45.27 260.66 45.21 260.66 45.19C260.66 45.19 260.66 45.19 260.66 45.13C260.66 44.95 260.66 44.95 260.66 44.77H260.66V44.6C260.654 44.5368 260.654 44.4732 260.66 44.41C260.66 44.41 260.66 44.41 260.66 44.35C260.664 44.3202 260.664 44.2898 260.66 44.26C260.647 44.1958 260.63 44.1324 260.61 44.07C260.613 44.0234 260.613 43.9766 260.61 43.93V43.88L260.55 43.7C260.533 43.6346 260.509 43.571 260.48 43.51V43.45C260.48 43.45 260.48 43.37 260.48 43.34L260.41 43.16L260.35 43.04V42.9C260.327 42.8382 260.301 42.7781 260.27 42.72L260.18 42.53L260.1 42.38L260 42.19L259.6 42L259.5 41.84L259.36 41.61L259.13 41.28L258.97 41.07L258.83 40.9L258.69 40.73L258.55 40.58C258.519 40.5442 258.486 40.5108 258.45 40.48L258.3 40.32L258.22 40.25L258.06 40.11L257.99 40.05L257.83 39.93L257.72 39.84L257.57 39.74L257.42 39.65L257.31 39.58L257.16 39.51L257.07 39.46H257.01L256.87 39.4L256.72 39.34H256.62H256.47L256 39H255.92H255.77H255.25H255.04H254.99L254.79 39.05C254.696 39.0851 254.606 39.1286 254.52 39.18L74.0498 143.44L74.3298 143.31L74.5498 143.25C74.6395 143.24 74.7301 143.24 74.8198 143.25H75.1798H75.4798L75.7998 143.34C75.9198 143.378 76.0368 143.425 76.1498 143.48L76.5098 143.66L76.8698 143.89L77.1998 144.13L77.5098 144.4C77.617 144.489 77.7173 144.586 77.8098 144.69L78.1098 145.04C78.2098 145.16 78.3098 145.29 78.3998 145.42C78.4911 145.534 78.5746 145.655 78.6498 145.78L78.7998 146.01L78.9198 146.2C78.9162 146.233 78.9162 146.267 78.9198 146.3L79.0998 146.63C79.1698 146.77 79.2398 146.91 79.2998 147.05C79.3598 147.19 79.4098 147.33 79.4598 147.47C79.5198 147.62 79.5598 147.76 79.6098 147.9L79.7198 148.31C79.7198 148.45 79.7798 148.6 79.7998 148.74C79.7998 148.89 79.7998 149.03 79.7998 149.17C79.7998 149.31 79.7998 149.45 79.7998 149.59C79.7998 149.73 79.7998 149.86 79.7998 149.98C79.8061 150.09 79.8061 150.2 79.7998 150.31C79.7998 150.41 79.7998 150.51 79.7198 150.61V150.66C79.6893 150.749 79.6525 150.836 79.6098 150.92C79.5691 151.01 79.5224 151.097 79.4698 151.18C79.4198 151.24 79.3798 151.31 79.3298 151.36L79.2698 151.42L79.1398 151.56L79.0798 151.61L78.8698 151.75L259.62 47.92L259.82 47.77L259.88 47.72L260.02 47.59L260.07 47.53C260.122 47.4709 260.169 47.4074 260.21 47.34L260.35 47.09C260.379 47.036 260.403 46.979 260.42 46.92V46.84V46.78C260.42 46.72 260.42 46.65 260.42 46.59C260.421 46.5667 260.421 46.5433 260.42 46.52C260.416 46.4968 260.416 46.4732 260.42 46.45C260.425 46.3935 260.425 46.3365 260.42 46.28C260.425 46.2469 260.425 46.2131 260.42 46.18V46C260.425 45.9434 260.425 45.8866 260.42 45.83C260.425 45.7701 260.425 45.7099 260.42 45.65C260.511 45.5945 260.593 45.5234 260.66 45.44Z" fill="white"/>
<path d="M78.65 365.1C76.9061 365.988 74.9769 366.45 73.02 366.45C71.0631 366.45 69.1339 365.988 67.39 365.1C66.738 364.818 66.173 364.367 65.7529 363.794C65.3329 363.221 65.073 362.547 65 361.84V366.45C65.0702 367.153 65.3256 367.826 65.7401 368.398C66.1547 368.971 66.7136 369.423 67.36 369.71C69.1039 370.598 71.0331 371.06 72.99 371.06C74.9469 371.06 76.8761 370.598 78.62 369.71C79.2744 369.432 79.8414 368.983 80.2605 368.409C80.6796 367.835 80.9352 367.158 81 366.45V361.84C80.9379 362.544 80.6868 363.219 80.2732 363.793C79.8596 364.367 79.2988 364.818 78.65 365.1Z" fill="#E0E0E0"/>
<path d="M67.3891 365.1C69.1331 365.988 71.0622 366.45 73.0191 366.45C74.976 366.45 76.9052 365.988 78.6491 365.1C79.298 364.818 79.8587 364.367 80.2723 363.793C80.686 363.219 80.937 362.544 80.9991 361.84C80.9991 360.66 80.2091 359.48 78.6491 358.58C76.9059 357.69 74.9765 357.226 73.0191 357.226C71.0618 357.226 69.1324 357.69 67.3891 358.58C66.7079 358.812 66.1165 359.252 65.6977 359.838C65.2789 360.423 65.0537 361.125 65.0537 361.845C65.0537 362.565 65.2789 363.266 65.6977 363.852C66.1165 364.437 66.7079 364.877 67.3891 365.11V365.1Z" fill="#F0F0F0"/>
<path d="M70.7393 150.34V361.34C70.7615 361.538 70.835 361.727 70.9525 361.889C71.0699 362.05 71.2274 362.178 71.4093 362.26C71.9034 362.511 72.4499 362.642 73.0043 362.642C73.5586 362.642 74.1051 362.511 74.5993 362.26C74.7805 362.179 74.9365 362.051 75.051 361.889C75.1654 361.727 75.2339 361.538 75.2493 361.34V150.34H70.7393Z" fill="#E0E0E0"/>
<path d="M59.3196 155.84C59.8162 156.162 60.2292 156.597 60.5248 157.11C60.8203 157.623 60.9899 158.199 61.0196 158.79C61.0196 159.88 60.2496 160.31 59.3096 159.79C58.8062 159.462 58.3884 159.019 58.0909 158.497C57.7935 157.975 57.625 157.39 57.5996 156.79C57.6096 155.73 58.3696 155.29 59.3196 155.84Z" fill="#E0E0E0"/>
<path d="M78 148.85C77.9951 148.82 77.9951 148.79 78 148.76V148.68C77.9957 148.653 77.9957 148.626 78 148.6C78 148.6 78 148.54 78 148.51C78 148.51 78 148.46 78 148.43C78 148.4 78 148.37 78 148.34V148.25C77.9953 148.22 77.9953 148.19 78 148.16V148.1V148.02V147.93V147.87V147.79V147.73V147.65V147.56V147.48C77.9951 147.454 77.9951 147.426 78 147.4V147.35V147.28L77.93 147.17L77.82 147.02L77.74 146.92L77.68 146.84L77 146.6L76.93 146.53V146.48L76.86 146.41L76.78 146.35L76.71 146.3H76.65H76.58L76.3 146H76.23H76.16H76.09H76.04H75.58H75.48H75.38L75.25 146.06L58.25 155.93L58.38 155.87H58.49H58.66C58.7032 155.865 58.7468 155.865 58.79 155.87H58.93H59.09L59.25 155.94L59.42 156.03L59.59 156.14L59.74 156.25L59.89 156.37L60.04 156.51C60.0896 156.564 60.1364 156.621 60.18 156.68L60.32 156.86L60.44 157.03C60.4691 157.063 60.4927 157.1 60.51 157.14L60.57 157.23V157.28L60.66 157.43L60.75 157.63C60.7723 157.698 60.7991 157.765 60.83 157.83C60.83 157.9 60.83 157.97 60.9 158.03C60.9045 158.093 60.9045 158.157 60.9 158.22C60.9 158.29 60.9 158.36 60.9 158.42C60.9054 158.487 60.9054 158.553 60.9 158.62C60.9047 158.687 60.9047 158.753 60.9 158.82C60.9052 158.883 60.9052 158.947 60.9 159.01C60.9055 159.063 60.9055 159.117 60.9 159.17V159.32C60.9039 159.36 60.9039 159.4 60.9 159.44L60.83 159.56L60.76 159.64C60.76 159.64 60.76 159.69 60.7 159.7L60.6 159.77L77.6 149.9L77.7 149.83L77.77 149.76L77.83 149.67C77.857 149.632 77.8804 149.592 77.9 149.55V149.47C77.9047 149.454 77.9047 149.436 77.9 149.42C77.9047 149.39 77.9047 149.36 77.9 149.33V149.25C77.9 149.25 77.9 149.19 77.9 149.16V149C77.9049 148.974 77.9049 148.946 77.9 148.92L78 148.85Z" fill="#E6E6E6"/>
<path d="M121.719 256.6L121.689 248.55L105.779 257.74L105.799 265.79L121.719 256.6Z" fill="#0070F0"/>
<path d="M121.67 240.76L105.76 249.95L105.78 257.74L121.69 248.55L121.67 240.76Z" fill="#0070F0"/>
<path d="M105.799 265.79L105.779 257.74L105.799 265.79Z" fill="#0070F0"/>
<path d="M141.8 199.46L125.89 208.64L125.95 231.01L141.86 221.83L141.8 199.46Z" fill="#0070F0"/>
<path d="M126.019 254.12L141.929 244.93L141.859 221.83L125.949 231.01L126.019 254.12Z" fill="#0070F0"/>
<path d="M146.069 183.86L146.239 242.44L146.149 212.67L162.069 203.49L161.989 174.67L146.069 183.86Z" fill="#0070F0"/>
<path d="M182.279 186.66L166.359 195.85L166.409 213.02L182.319 203.84L182.279 186.66Z" fill="#0070F0"/>
<path d="M146.239 242.44L162.149 233.25L162.069 203.49L146.149 212.67L146.239 242.44Z" fill="#0070F0"/>
<path d="M206.899 207.42L222.809 198.23L222.689 155.32L206.779 164.51L206.899 207.42Z" fill="#0070F0"/>
<path d="M186.68 219.09L202.59 209.91L202.5 177.69L186.58 186.88L186.68 219.09Z" fill="#0070F0"/>
<path d="M166.459 230.76L182.369 221.58L182.319 203.84L166.409 213.02L166.459 230.76Z" fill="#0070F0"/>
<path opacity="0.2" d="M121.719 256.6L121.689 248.55L105.779 257.74L105.799 265.79L121.719 256.6Z" fill="black"/>
<path opacity="0.2" d="M126.019 254.12L141.929 244.93L141.859 221.83L125.949 231.01L126.019 254.12Z" fill="black"/>
<path opacity="0.2" d="M146.239 242.44L162.149 233.25L162.069 203.49L146.149 212.67L146.239 242.44Z" fill="black"/>
<path opacity="0.2" d="M206.899 207.42L222.809 198.23L222.689 155.32L206.779 164.51L206.899 207.42Z" fill="black"/>
<path opacity="0.2" d="M186.68 219.09L202.59 209.91L202.5 177.69L186.58 186.88L186.68 219.09Z" fill="black"/>
<path opacity="0.2" d="M166.459 230.76L182.369 221.58L182.319 203.84L166.409 213.02L166.459 230.76Z" fill="black"/>
<path d="M206.779 164.51L222.689 155.32L222.569 113.78L206.659 122.96L206.779 164.51Z" fill="#0070F0"/>
<path d="M206.779 164.51L206.899 207.42L206.779 164.51Z" fill="#0070F0"/>
<path d="M186.5 155.69L186.68 219.09L186.58 186.88L202.5 177.69L202.41 146.51L186.5 155.69Z" fill="#0070F0"/>
<path d="M174.59 163.1L214.75 93.55L219.56 96.29L222.46 76.22L206.56 88.88L211.17 91.51L174.57 154.9L150.93 141.42L105.68 223.91L150.95 149.63L174.59 163.1Z" fill="#0070F0"/>
<path opacity="0.2" d="M174.59 163.1L214.75 93.55L219.56 96.29L222.46 76.22L206.56 88.88L211.17 91.51L174.57 154.9L150.93 141.42L105.68 223.91L150.95 149.63L174.59 163.1Z" fill="black"/>
<path d="M243.589 196.45L243.579 193.84L98.0893 277.83L97.7593 158.42L95.4793 159.73L95.8193 279.15L85.0693 285.35L85.0793 287.96L95.8293 281.76L95.8593 294.14L98.1393 292.83L98.0993 280.45L243.589 196.45Z" fill="#0070F0"/>
<path opacity="0.8" d="M243.589 196.45L243.579 193.84L98.0893 277.83L97.7593 158.42L95.4793 159.73L95.8193 279.15L85.0693 285.35L85.0793 287.96L95.8293 281.76L95.8593 294.14L98.1393 292.83L98.0993 280.45L243.589 196.45Z" fill="white"/>
<path d="M372.359 239.11L372.229 290.42C372.256 290.886 372.391 291.339 372.624 291.744C372.857 292.148 373.18 292.493 373.569 292.75L440.219 331.23V332.75L441.849 331.75H441.899C442.019 331.649 442.112 331.521 442.173 331.377C442.234 331.233 442.26 331.076 442.249 330.92L442.389 277.58L440.709 278.64L372.359 239.11Z" fill="#0070F0"/>
<path opacity="0.3" d="M372.359 239.11L372.229 290.42C372.256 290.886 372.391 291.339 372.624 291.744C372.857 292.148 373.18 292.493 373.569 292.75L440.219 331.23V332.75L441.849 331.75H441.899C442.019 331.649 442.112 331.521 442.173 331.377C442.234 331.233 442.26 331.076 442.249 330.92L442.389 277.58L440.709 278.64L372.359 239.11Z" fill="white"/>
<path d="M441.06 273.13L373.72 234.25C373.573 234.149 373.399 234.094 373.22 234.094C373.042 234.094 372.867 234.149 372.72 234.25L371.12 235.25L372.4 235.97V239.14L440.75 278.6L442.43 277.54V275.48C442.403 275.008 442.265 274.549 442.027 274.141C441.789 273.732 441.457 273.386 441.06 273.13Z" fill="#0070F0"/>
<path d="M440.71 278.57L440.57 331.91C440.57 332.77 439.96 333.11 439.22 332.68L371.89 293.81C371.502 293.554 371.179 293.211 370.946 292.808C370.714 292.405 370.578 291.954 370.55 291.49L370.69 238.14L440.71 278.57Z" fill="#0070F0"/>
<g opacity="0.5">
<path opacity="0.5" d="M440.71 278.57L440.57 331.91C440.57 332.77 439.96 333.11 439.22 332.68L371.89 293.81C371.502 293.554 371.179 293.211 370.946 292.808C370.714 292.405 370.578 291.954 370.55 291.49L370.69 238.14L440.71 278.57Z" fill="white"/>
</g>
<path d="M372.619 236.78C372.79 236.888 372.933 237.035 373.035 237.209C373.138 237.383 373.198 237.578 373.209 237.78C373.209 238.15 372.939 238.31 372.619 238.12C372.45 238.01 372.309 237.863 372.207 237.689C372.104 237.516 372.044 237.321 372.029 237.12C371.999 236.74 372.299 236.59 372.619 236.78Z" fill="#F5F5F5"/>
<path d="M374.33 237.76C374.5 237.869 374.642 238.016 374.744 238.19C374.847 238.364 374.907 238.559 374.92 238.76C374.92 239.13 374.65 239.28 374.33 239.1C374.161 238.991 374.02 238.843 373.917 238.67C373.815 238.496 373.754 238.301 373.74 238.1C373.74 237.73 374 237.57 374.33 237.76Z" fill="#F5F5F5"/>
<path d="M376 238.75C376.17 238.859 376.312 239.006 376.414 239.18C376.516 239.354 376.577 239.549 376.59 239.75C376.59 240.12 376.33 240.27 376 240.08C375.829 239.972 375.687 239.825 375.584 239.652C375.482 239.478 375.422 239.282 375.41 239.08C375.45 238.71 375.72 238.56 376 238.75Z" fill="#F5F5F5"/>
<path d="M439.38 274.19C439.768 274.447 440.091 274.79 440.323 275.192C440.556 275.595 440.691 276.046 440.72 276.51V278.57L370.72 238.14V236.08C370.72 235.23 371.33 234.89 372.07 235.31L439.38 274.19ZM374.33 239.12C374.65 239.3 374.92 239.12 374.92 238.78C374.906 238.579 374.846 238.384 374.744 238.21C374.641 238.036 374.499 237.889 374.33 237.78C374.01 237.59 373.74 237.78 373.74 238.12C373.754 238.321 373.814 238.516 373.917 238.69C374.019 238.863 374.161 239.011 374.33 239.12ZM376.04 240.12C376.37 240.31 376.63 240.12 376.63 239.79C376.616 239.589 376.556 239.394 376.454 239.22C376.351 239.046 376.209 238.899 376.04 238.79C375.72 238.6 375.45 238.79 375.45 239.13C375.461 239.332 375.521 239.528 375.624 239.701C375.726 239.875 375.869 240.022 376.04 240.13V240.12ZM372.62 238.13C372.94 238.32 373.21 238.13 373.21 237.79C373.198 237.589 373.138 237.393 373.036 237.219C372.933 237.045 372.79 236.898 372.62 236.79C372.3 236.6 372.03 236.79 372.03 237.12C372.044 237.321 372.104 237.516 372.207 237.69C372.309 237.863 372.451 238.011 372.62 238.12" fill="#0070F0"/>
<g opacity="0.2">
<path opacity="0.2" d="M439.38 274.19C439.768 274.447 440.091 274.79 440.323 275.192C440.556 275.595 440.691 276.046 440.72 276.51V278.57L370.72 238.14V236.08C370.72 235.23 371.33 234.89 372.07 235.31L439.38 274.19ZM374.33 239.12C374.65 239.3 374.92 239.12 374.92 238.78C374.906 238.579 374.846 238.384 374.744 238.21C374.641 238.036 374.499 237.889 374.33 237.78C374.01 237.59 373.74 237.78 373.74 238.12C373.754 238.321 373.814 238.516 373.917 238.69C374.019 238.863 374.161 239.011 374.33 239.12ZM376.04 240.12C376.37 240.31 376.63 240.12 376.63 239.79C376.616 239.589 376.556 239.394 376.454 239.22C376.351 239.046 376.209 238.899 376.04 238.79C375.72 238.6 375.45 238.79 375.45 239.13C375.461 239.332 375.521 239.528 375.624 239.701C375.726 239.875 375.869 240.022 376.04 240.13V240.12ZM372.62 238.13C372.94 238.32 373.21 238.13 373.21 237.79C373.198 237.589 373.138 237.393 373.036 237.219C372.933 237.045 372.79 236.898 372.62 236.79C372.3 236.6 372.03 236.79 372.03 237.12C372.044 237.321 372.104 237.516 372.207 237.69C372.309 237.863 372.451 238.011 372.62 238.12" fill="white"/>
</g>
<path opacity="0.5" d="M441.06 273.13L373.72 234.25C373.573 234.149 373.398 234.094 373.22 234.094C373.041 234.094 372.867 234.149 372.72 234.25L371.13 235.25C371.28 235.18 371.447 235.151 371.612 235.167C371.777 235.183 371.936 235.243 372.07 235.34L439.41 274.22C439.798 274.476 440.121 274.82 440.353 275.222C440.586 275.625 440.722 276.076 440.75 276.54V278.6L442.43 277.54V275.48C442.403 275.008 442.265 274.549 442.027 274.141C441.788 273.732 441.457 273.386 441.06 273.13Z" fill="white"/>
<g opacity="0.5">
<path opacity="0.5" d="M376.899 287.36L434.469 320.6L434.539 280.07C432.619 279.27 430.119 280.14 428.319 281.19C426.594 282.346 424.95 283.619 423.399 285C421.837 286.402 419.861 287.258 417.769 287.44C414.819 287.5 412.289 285.44 409.449 284.59C405.299 283.37 400.889 284.86 396.769 286.21C392.649 287.56 388.089 288.8 384.099 287.1C382.945 286.477 381.745 285.942 380.509 285.5C379.792 285.43 379.07 285.568 378.43 285.898C377.79 286.227 377.258 286.735 376.899 287.36Z" fill="white"/>
</g>
<path d="M389.99 274.01L389.98 275.51L377.99 268.59L378 267.09L389.99 274.01Z" fill="white"/>
<path d="M378 264.55V266.05L393.35 274.92V273.41L378 264.55Z" fill="white"/>
<path d="M397.44 269.83L397.43 271.33L378.02 260.12V258.62L397.44 269.83Z" fill="white"/>
<path d="M406.45 272.49V274L378.02 257.58L378.03 256.08L406.45 272.49Z" fill="white"/>
<path d="M406.46 269.96V271.46L378.03 255.05L378.04 253.55L406.46 269.96Z" fill="white"/>
<path d="M393.35 258.67L393.34 261.01L378.04 252.17L378.05 249.84L393.35 258.67Z" fill="white"/>
<path d="M418.959 273.22L424.519 277.23L422.939 282.51L421.699 279.6L382.859 284.68L420.199 276.12L418.959 273.22Z" fill="#0070F0"/>
<path opacity="0.1" d="M440.57 258.72C440.58 258.876 440.554 259.032 440.493 259.177C440.433 259.321 440.339 259.449 440.22 259.55L441.85 258.55H441.9C442.019 258.449 442.113 258.321 442.173 258.177C442.234 258.032 442.26 257.876 442.25 257.72L442.39 204.37L440.71 205.44L440.57 258.72Z" fill="black"/>
<path d="M372.359 165.91L372.229 217.23C372.258 217.694 372.394 218.145 372.626 218.548C372.859 218.95 373.182 219.293 373.569 219.55L440.219 258V259.53L441.849 258.53H441.899C442.019 258.429 442.112 258.301 442.173 258.157C442.234 258.012 442.26 257.856 442.249 257.7L442.389 204.35L440.709 205.42L372.359 165.91Z" fill="#0070F0"/>
<path opacity="0.3" d="M372.359 165.91L372.229 217.23C372.258 217.694 372.394 218.145 372.626 218.548C372.859 218.95 373.182 219.293 373.569 219.55L440.219 258V259.53L441.849 258.53H441.899C442.019 258.429 442.112 258.301 442.173 258.157C442.234 258.012 442.26 257.856 442.249 257.7L442.389 204.35L440.709 205.42L372.359 165.91Z" fill="white"/>
<path d="M441.06 199.93L373.72 161.06C373.573 160.958 373.399 160.904 373.22 160.904C373.042 160.904 372.867 160.958 372.72 161.06L371.12 162.06L372.4 162.79V165.95L440.75 205.42L442.43 204.35V202.29C442.405 201.816 442.267 201.355 442.029 200.945C441.791 200.535 441.459 200.187 441.06 199.93Z" fill="#0070F0"/>
<path d="M440.71 205.38L440.57 258.72C440.57 259.58 439.96 259.92 439.22 259.49L371.89 220.62C371.501 220.363 371.177 220.018 370.944 219.613C370.712 219.209 370.577 218.756 370.55 218.29L370.69 164.95L440.71 205.38Z" fill="#0070F0"/>
<g opacity="0.5">
<path opacity="0.5" d="M440.71 205.38L440.57 258.72C440.57 259.58 439.96 259.92 439.22 259.49L371.89 220.62C371.501 220.363 371.177 220.018 370.944 219.613C370.712 219.209 370.577 218.756 370.55 218.29L370.69 164.95L440.71 205.38Z" fill="white"/>
</g>
<path d="M373.032 164.94C373.262 164.807 373.261 164.377 373.03 163.981C372.8 163.585 372.427 163.371 372.198 163.505C371.969 163.638 371.97 164.067 372.2 164.463C372.431 164.86 372.803 165.073 373.032 164.94Z" fill="#F5F5F5"/>
<path d="M374.33 164.57C374.5 164.679 374.642 164.826 374.744 165C374.847 165.173 374.907 165.369 374.92 165.57C374.92 165.94 374.65 166.09 374.33 165.9C374.16 165.791 374.018 165.644 373.915 165.471C373.813 165.297 373.753 165.101 373.74 164.9C373.74 164.53 374 164.38 374.33 164.57Z" fill="#F5F5F5"/>
<path d="M376 165.56C376.17 165.668 376.313 165.815 376.415 165.989C376.518 166.163 376.578 166.359 376.59 166.56C376.59 166.94 376.33 167.09 376 166.9C375.83 166.791 375.689 166.644 375.586 166.47C375.484 166.296 375.424 166.101 375.41 165.9C375.45 165.52 375.72 165.37 376 165.56Z" fill="#F5F5F5"/>
<path d="M439.38 201C439.771 201.253 440.096 201.595 440.329 201.998C440.562 202.402 440.696 202.855 440.72 203.32V205.38L370.72 164.95V162.89C370.72 162.04 371.33 161.69 372.07 162.12L439.38 201ZM374.33 165.92C374.65 166.11 374.92 165.92 374.92 165.59C374.906 165.389 374.846 165.193 374.744 165.02C374.641 164.846 374.499 164.699 374.33 164.59C374.01 164.4 373.74 164.59 373.74 164.93C373.752 165.131 373.812 165.327 373.915 165.501C374.017 165.674 374.16 165.822 374.33 165.93V165.92ZM376.04 166.93C376.37 167.12 376.63 166.93 376.63 166.59C376.617 166.389 376.557 166.193 376.455 166.019C376.352 165.845 376.21 165.698 376.04 165.59C375.72 165.4 375.45 165.59 375.45 165.92C375.463 166.121 375.523 166.316 375.626 166.49C375.728 166.664 375.87 166.811 376.04 166.92V166.93ZM372.62 164.92C372.94 165.11 373.21 164.92 373.21 164.59C373.196 164.389 373.136 164.193 373.034 164.02C372.931 163.846 372.789 163.699 372.62 163.59C372.3 163.41 372.03 163.59 372.03 163.93C372.041 164.132 372.101 164.327 372.204 164.501C372.306 164.675 372.449 164.822 372.62 164.93" fill="#0070F0"/>
<g opacity="0.2">
<path opacity="0.2" d="M439.38 201C439.771 201.253 440.096 201.595 440.329 201.998C440.562 202.402 440.696 202.855 440.72 203.32V205.38L370.72 164.95V162.89C370.72 162.04 371.33 161.69 372.07 162.12L439.38 201ZM374.33 165.92C374.65 166.11 374.92 165.92 374.92 165.59C374.906 165.389 374.846 165.193 374.744 165.02C374.641 164.846 374.499 164.699 374.33 164.59C374.01 164.4 373.74 164.59 373.74 164.93C373.752 165.131 373.812 165.327 373.915 165.501C374.017 165.674 374.16 165.822 374.33 165.93V165.92ZM376.04 166.93C376.37 167.12 376.63 166.93 376.63 166.59C376.617 166.389 376.557 166.193 376.455 166.019C376.352 165.845 376.21 165.698 376.04 165.59C375.72 165.4 375.45 165.59 375.45 165.92C375.463 166.121 375.523 166.316 375.626 166.49C375.728 166.664 375.87 166.811 376.04 166.92V166.93ZM372.62 164.92C372.94 165.11 373.21 164.92 373.21 164.59C373.196 164.389 373.136 164.193 373.034 164.02C372.931 163.846 372.789 163.699 372.62 163.59C372.3 163.41 372.03 163.59 372.03 163.93C372.041 164.132 372.101 164.327 372.204 164.501C372.306 164.675 372.449 164.822 372.62 164.93" fill="white"/>
</g>
<path opacity="0.5" d="M441.06 199.93L373.72 161.06C373.573 160.958 373.398 160.904 373.22 160.904C373.041 160.904 372.867 160.958 372.72 161.06L371.13 162.06C371.283 161.998 371.448 161.974 371.612 161.992C371.776 162.009 371.934 162.067 372.07 162.16L439.38 201C439.771 201.253 440.097 201.595 440.329 201.998C440.562 202.402 440.696 202.855 440.72 203.32V205.38L442.4 204.31V202.25C442.372 201.786 442.236 201.335 442.003 200.932C441.771 200.529 441.448 200.186 441.06 199.93Z" fill="white"/>
<path d="M386.18 211.17L386.13 217.09L381.86 214.62L381.84 221.82L386.11 224.28L381.84 221.82L381.91 208.7L386.18 211.17Z" fill="#0070F0"/>
<path d="M392.62 206.7L392.55 218.47L388.28 216L388.25 225.52L392.53 227.99L388.25 225.52L388.35 204.24L392.62 206.7Z" fill="#0070F0"/>
<path d="M399.01 220.74L398.96 224.06L394.71 221.61L394.66 229.22L398.94 231.69L394.66 229.22L394.74 218.27L399.01 220.74Z" fill="#0070F0"/>
<path d="M405.42 215.75L405.37 228.76L401.09 226.29L401.07 232.92L405.35 235.39L401.07 232.92L401.14 213.28L405.42 215.75Z" fill="#0070F0"/>
<path d="M379.76 212.11L379.71 214.7L375.44 212.23L375.42 218.11L379.7 220.58L375.42 218.11L375.48 209.64L379.76 212.11Z" fill="#0070F0"/>
<path d="M411.81 223.87L411.77 234.77L407.5 232.3L407.49 236.63L411.76 239.09L407.49 236.63L407.53 221.41L411.81 223.87Z" fill="#0070F0"/>
<path d="M418.229 224.81L418.189 237.68L413.919 235.22L413.899 240.33L418.179 242.8L413.899 240.33L413.949 222.34L418.229 224.81Z" fill="#0070F0"/>
<path d="M424.66 222.04L424.61 239.54L420.33 237.08L420.31 244.03L424.59 246.5L420.31 244.03L420.38 219.57L424.66 222.04Z" fill="#0070F0"/>
<path d="M431.089 215.69L431.029 241.63L426.749 239.16L426.729 247.73L430.999 250.2L426.729 247.73L426.809 213.22L431.089 215.69Z" fill="#0070F0"/>
<path d="M437.48 211.08L437.43 247.53L433.16 245.06L433.14 251.44L437.42 253.9L433.14 251.44L433.2 208.61L437.48 211.08Z" fill="#0070F0"/>
<path d="M398.96 224.06L398.94 231.69L394.66 229.22L394.71 221.61L398.96 224.06Z" fill="#0070F0"/>
<path d="M405.37 228.76L405.35 235.39L401.07 232.92L401.09 226.29L405.37 228.76Z" fill="#0070F0"/>
<path d="M379.71 214.7L379.7 220.58L375.42 218.11L375.44 212.23L379.71 214.7Z" fill="#0070F0"/>
<path d="M411.77 234.77L411.76 239.09L407.49 236.63L407.5 232.3L411.77 234.77Z" fill="#0070F0"/>
<path d="M424.61 239.54L424.59 246.5L420.31 244.03L420.33 237.08L424.61 239.54Z" fill="#0070F0"/>
<path d="M431.029 241.63L430.999 250.2L426.729 247.73L426.749 239.16L431.029 241.63Z" fill="#0070F0"/>
<path d="M386.13 217.09L386.11 224.28L381.84 221.82L381.86 214.62L386.13 217.09Z" fill="#0070F0"/>
<path d="M392.55 218.47L392.53 227.99L388.25 225.52L388.28 216L392.55 218.47Z" fill="#0070F0"/>
<path d="M418.189 237.68L418.179 242.8L413.899 240.33L413.919 235.22L418.189 237.68Z" fill="#0070F0"/>
<path d="M437.43 247.53L437.42 253.9L433.14 251.44L433.16 245.06L437.43 247.53Z" fill="#0070F0"/>
<g opacity="0.2">
<path opacity="0.2" d="M398.96 226.87L398.94 231.69L394.66 229.22L394.71 224.42L398.96 226.87Z" fill="black"/>
</g>
<path opacity="0.2" d="M405.37 228.76L405.35 235.39L401.07 232.92L401.09 226.29L405.37 228.76Z" fill="black"/>
<path opacity="0.2" d="M379.71 216.99L379.7 220.58L375.42 218.11L375.44 214.52L379.71 216.99Z" fill="black"/>
<path opacity="0.2" d="M411.77 234.77L411.76 239.09L407.49 236.63L407.5 232.3L411.77 234.77Z" fill="black"/>
<path opacity="0.2" d="M424.61 232.49L424.59 246.5L420.31 244.03L420.33 230.02L424.61 232.49Z" fill="black"/>
<path opacity="0.2" d="M431.029 227.88L430.999 250.2L426.729 247.73L426.749 225.41L431.029 227.88Z" fill="black"/>
<path opacity="0.2" d="M386.13 217.09L386.11 224.28L381.84 221.82L381.86 214.62L386.13 217.09Z" fill="black"/>
<path opacity="0.2" d="M392.55 218.47L392.53 227.99L388.25 225.52L388.28 216L392.55 218.47Z" fill="black"/>
<path opacity="0.2" d="M418.189 237.68L418.179 242.8L413.899 240.33L413.919 235.22L418.189 237.68Z" fill="black"/>
<path opacity="0.2" d="M437.43 222.13L437.42 253.9L433.14 251.44L433.16 219.66L437.43 222.13Z" fill="black"/>
<path d="M392.63 201.87L392.62 205.41L388.35 202.94L388.36 199.4L392.63 201.87Z" fill="#0070F0"/>
<path d="M379.76 209.13V210.82L375.49 208.35V206.66L379.76 209.13Z" fill="#0070F0"/>
<path d="M411.81 221.68V222.58L407.54 220.11V219.21L411.81 221.68Z" fill="#0070F0"/>
<path d="M405.43 212.39L405.42 214.46L401.14 211.99L401.15 209.92L405.43 212.39Z" fill="#0070F0"/>
<path d="M399.02 216.87V219.44L394.74 216.98L394.75 214.4L399.02 216.87Z" fill="#0070F0"/>
<path d="M386.19 207.52V209.88L381.91 207.41L381.92 205.05L386.19 207.52Z" fill="#0070F0"/>
<path d="M424.67 218.5L424.66 220.74L420.39 218.27V216.04L424.67 218.5Z" fill="#0070F0"/>
<path d="M437.49 207.84L437.48 209.78L433.21 207.31V205.38L437.49 207.84Z" fill="#0070F0"/>
<path d="M418.24 222.21L418.23 223.51L413.95 221.04L413.96 219.74L418.24 222.21Z" fill="#0070F0"/>
<path d="M431.1 211.34L431.09 214.4L426.82 211.93L426.83 208.87L431.1 211.34Z" fill="#0070F0"/>
<g opacity="0.8">
<path opacity="0.8" d="M392.631 201.87L392.621 205.41L388.351 202.94L388.361 199.4L392.631 201.87Z" fill="white"/>
<path opacity="0.8" d="M379.76 209.13V210.82L375.49 208.35V206.66L379.76 209.13Z" fill="white"/>
<path opacity="0.8" d="M411.81 221.68V222.58L407.54 220.11V219.21L411.81 221.68Z" fill="white"/>
<path opacity="0.8" d="M405.431 212.39L405.421 214.46L401.141 211.99L401.151 209.92L405.431 212.39Z" fill="white"/>
<path opacity="0.8" d="M399.02 216.87V219.44L394.74 216.98L394.75 214.4L399.02 216.87Z" fill="white"/>
<path opacity="0.8" d="M386.19 207.52V209.88L381.91 207.41L381.92 205.05L386.19 207.52Z" fill="white"/>
<path opacity="0.8" d="M424.671 218.5L424.661 220.74L420.391 218.27V216.04L424.671 218.5Z" fill="white"/>
<path opacity="0.8" d="M437.49 207.84L437.48 209.78L433.21 207.31V205.38L437.49 207.84Z" fill="white"/>
<path opacity="0.8" d="M418.24 222.21L418.23 223.51L413.95 221.04L413.96 219.74L418.24 222.21Z" fill="white"/>
<path opacity="0.8" d="M431.1 211.34L431.09 214.4L426.82 211.93L426.83 208.87L431.1 211.34Z" fill="white"/>
</g>
<path d="M263.24 270.37L250.74 277.58V349.98L263.24 357.19L275.74 349.98V277.58L263.24 270.37Z" fill="#0070F0"/>
<path opacity="0.1" d="M263.24 284.8V357.19L250.74 349.98V277.58L263.24 284.8Z" fill="black"/>
<path opacity="0.2" d="M263.24 284.8V357.19L275.74 349.98V277.58L263.24 284.8Z" fill="black"/>
<path d="M244.99 297.63L232.5 304.85V361.12L244.99 368.33L257.49 361.12V304.85L244.99 297.63Z" fill="#0070F0"/>
<path opacity="0.5" d="M232.5 304.85L244.99 297.63L257.49 304.85L244.99 312.06L232.5 304.85Z" fill="white"/>
<path opacity="0.4" d="M244.99 312.06V368.33L232.5 361.12V304.85L244.99 312.06Z" fill="white"/>
<path opacity="0.3" d="M244.99 312.06V368.33L257.49 361.12V304.85L244.99 312.06Z" fill="white"/>
<path d="M225.95 338.03L213.45 345.25V372.03L225.95 379.24L238.44 372.03V345.25L225.95 338.03Z" fill="#0070F0"/>
<path opacity="0.1" d="M225.95 352.46V379.24L213.45 372.03V345.25L225.95 352.46Z" fill="black"/>
<path opacity="0.2" d="M225.95 352.46V379.24L238.44 372.03V345.25L225.95 352.46Z" fill="black"/>
<path d="M206.9 330.82L194.41 338.03V382.94L206.9 390.15L219.4 382.94V338.03L206.9 330.82Z" fill="#0070F0"/>
<path opacity="0.5" d="M194.41 338.03L206.9 330.82L219.4 338.03L206.9 345.25L194.41 338.03Z" fill="white"/>
<path opacity="0.4" d="M206.9 345.25V390.15L194.41 382.94V338.03L206.9 345.25Z" fill="white"/>
<path opacity="0.3" d="M206.9 345.25V390.15L219.4 382.94V338.03L206.9 345.25Z" fill="white"/>
<path d="M280.1 312L283.1 325L277.98 324.9C273.98 334.9 257.61 370.85 219.3 392.97C230.56 386.18 241.73 375.92 251.3 363.58C260.405 351.784 267.748 338.727 273.1 324.82L267.89 324.72L280.1 312Z" fill="#455A64"/>
<path d="M346.56 97.25C346.14 96.5043 345.529 95.8832 344.79 95.45L320.46 81.45C318.33 80.23 313.28 81.89 313.28 85.31V102.71C313.28 103.547 313.5 104.368 313.92 105.092C314.34 105.816 314.944 106.415 315.67 106.83L334.45 117.56L331.2 115.71L332.76 120.12C332.783 120.183 332.829 120.234 332.888 120.264C332.948 120.294 333.017 120.299 333.08 120.28C333.35 120.14 334.58 119.48 335.27 119.02H335.32H335.38L335.76 118.4L339.99 120.81C340.692 121.247 341.496 121.492 342.322 121.518C343.149 121.544 343.967 121.352 344.695 120.96C345.423 120.568 346.034 119.991 346.467 119.287C346.9 118.582 347.139 117.776 347.16 116.95V99.57C347.162 98.7581 346.955 97.9593 346.56 97.25Z" fill="#0070F0"/>
<path opacity="0.2" d="M335.39 119H335.33H335.28C334.59 119.46 333.36 120.12 333.09 120.26C333.154 120.243 333.211 120.204 333.25 120.15L334.75 117.71L334.46 117.54L335.78 118.3L335.39 119Z" fill="white"/>
<path opacity="0.4" d="M341.83 99.93C341.529 99.313 341.096 98.77 340.56 98.34C340.376 98.1964 340.183 98.066 339.98 97.95L315.65 84C315.409 83.8645 315.138 83.794 314.861 83.7956C314.585 83.7971 314.314 83.8707 314.074 84.009C313.835 84.1473 313.636 84.3455 313.497 84.5842C313.358 84.8229 313.283 85.0937 313.28 85.37C313.28 81.95 318.33 80.29 320.46 81.51L344.79 95.51C345.529 95.9433 346.14 96.5643 346.56 97.31L341.83 99.93Z" fill="white"/>
<path opacity="0.2" d="M342.37 119.4V105.4C342.37 105.21 342.37 101.66 342.37 101.48C342.295 100.932 342.126 100.401 341.87 99.91L346.6 97.23C346.999 97.9384 347.209 98.7372 347.21 99.55V116.89C347.192 117.718 346.955 118.526 346.523 119.232C346.09 119.938 345.478 120.516 344.75 120.909C344.021 121.301 343.201 121.493 342.373 121.465C341.546 121.437 340.741 121.191 340.04 120.75C340.278 120.878 340.544 120.944 340.814 120.939C341.084 120.935 341.349 120.862 341.583 120.727C341.816 120.591 342.011 120.398 342.149 120.166C342.287 119.934 342.363 119.67 342.37 119.4Z" fill="white"/>
<path d="M326.98 95.21L333.08 106.94L329.63 104.95L329.61 110.68L324.28 107.6L324.29 101.87L320.84 99.88L326.98 95.21Z" fill="white"/>
<path d="M316.28 168.4C314.768 168.595 313.34 169.204 312.154 170.161C310.968 171.117 310.07 172.384 309.56 173.82L301.73 195.72L284.52 185.18C283.475 184.402 282.682 183.335 282.24 182.11L281.44 179.92C280.89 178.422 279.913 177.118 278.63 176.17C276.708 174.729 274.977 173.049 273.48 171.17C272.996 171.698 272.71 172.376 272.67 173.091C272.63 173.805 272.838 174.512 273.26 175.09C273.885 175.925 274.57 176.714 275.31 177.45L273.46 177.58C272.123 177.675 270.79 177.346 269.65 176.64L264.95 173.77C264.816 173.686 264.661 173.64 264.503 173.636C264.345 173.632 264.189 173.67 264.05 173.746C263.912 173.823 263.796 173.935 263.715 174.071C263.634 174.207 263.591 174.362 263.59 174.52C263.654 176.844 264.114 179.14 264.95 181.31C265.325 182.345 265.92 183.286 266.693 184.07C267.467 184.853 268.4 185.461 269.43 185.85C271.93 186.85 274.35 187.63 275.74 188.1C276.53 188.362 277.273 188.75 277.94 189.25L279.33 190.25L298 208.43C298.944 209.206 300.052 209.759 301.24 210.048C302.428 210.337 303.666 210.354 304.861 210.099C306.057 209.843 307.179 209.321 308.145 208.572C309.111 207.822 309.895 206.864 310.44 205.77L316.54 193.55L320.1 167.91L316.28 168.4Z" fill="#FFA8A7"/>
<path opacity="0.2" d="M301.729 195.72L306.759 199.49L303.129 191.81L301.729 195.72Z" fill="black"/>
<path d="M320.1 167.91L316.1 168.32C314.341 168.499 312.668 169.171 311.274 170.259C309.88 171.347 308.821 172.807 308.22 174.47L302.58 190C305.41 196.92 315.28 197.72 315.28 197.72L318.66 191.78L320.1 167.91Z" fill="#455A64"/>
<path opacity="0.4" d="M320.1 167.91L316.1 168.32C314.341 168.499 312.668 169.171 311.274 170.259C309.88 171.347 308.821 172.807 308.22 174.47L302.58 190C305.41 196.92 315.28 197.72 315.28 197.72L318.66 191.78L320.1 167.91Z" fill="white"/>
<path d="M303.17 334.72C303.993 335.503 304.967 336.109 306.034 336.502C307.1 336.894 308.235 337.063 309.37 337C311.639 336.849 313.862 336.286 315.93 335.34C318.03 334.48 320.67 332.06 322.93 332.11C325.15 332.09 327.367 331.94 329.57 331.66C329.65 328.632 329.334 325.606 328.63 322.66L318 322.39C315.14 326.3 309.58 329.56 305.37 330.79C304.722 330.971 304.137 331.325 303.677 331.815C303.216 332.306 302.899 332.912 302.76 333.57V333.64C302.848 334.016 302.986 334.379 303.17 334.72Z" fill="#455A64"/>
<path d="M322.93 332.11C320.67 332.06 318.03 334.48 315.93 335.34C313.862 336.286 311.639 336.849 309.37 337C308.235 337.063 307.1 336.894 306.034 336.502C304.967 336.109 303.993 335.503 303.17 334.72C303 334.377 302.876 334.014 302.8 333.64V333.57C302.7 334.035 302.7 334.515 302.8 334.98C302.876 335.354 303 335.717 303.17 336.06C303.991 336.845 304.966 337.453 306.032 337.845C307.099 338.237 308.235 338.406 309.37 338.34C311.638 338.192 313.861 337.633 315.93 336.69C318.03 335.82 320.67 333.41 322.93 333.45C325.115 333.471 327.3 333.347 329.47 333.08C329.47 332.6 329.55 332.13 329.57 331.66C327.367 331.94 325.15 332.09 322.93 332.11Z" fill="#263238"/>
<path d="M352.83 335.71C352.837 336.788 352.733 337.864 352.52 338.92C352.178 340.803 351.126 342.482 349.58 343.61C348.156 344.419 346.547 344.846 344.91 344.85C343.471 344.996 342.018 344.847 340.64 344.41C339.607 344.039 338.728 343.336 338.14 342.41C338.146 342.426 338.146 342.444 338.14 342.46C338.34 343.156 338.707 343.794 339.209 344.316C339.71 344.839 340.332 345.232 341.02 345.46C342.396 345.905 343.851 346.058 345.29 345.91C346.928 345.905 348.537 345.474 349.96 344.66C351.497 343.531 352.546 341.857 352.89 339.98C353.111 338.925 353.218 337.848 353.21 336.77C353.213 336.032 353.368 335.303 353.663 334.627C353.959 333.951 354.39 333.343 354.93 332.84C355.2 332.59 355.45 332.33 355.68 332.07C355.846 331.879 355.973 331.657 356.052 331.417C356.131 331.176 356.161 330.922 356.14 330.67C356.13 330.473 356.11 330.276 356.08 330.08C355.69 330.53 354.78 331.62 354.55 331.83C354.017 332.328 353.59 332.928 353.294 333.595C352.999 334.261 352.841 334.981 352.83 335.71Z" fill="#263238"/>
<path d="M344.73 324.52C345.08 326.724 344.795 328.982 343.91 331.03C343.015 333.064 341.855 334.971 340.46 336.7C339.774 337.515 339.171 338.396 338.66 339.33C338.162 340.246 337.979 341.3 338.14 342.33C338.728 343.256 339.607 343.959 340.64 344.33C342.018 344.767 343.471 344.916 344.91 344.77C346.547 344.766 348.156 344.339 349.58 343.53C351.126 342.402 352.178 340.723 352.52 338.84C352.733 337.784 352.837 336.708 352.83 335.63C352.835 334.892 352.991 334.162 353.289 333.486C353.586 332.811 354.019 332.203 354.56 331.7C354.79 331.49 355.7 330.4 356.09 329.95C355.876 328.342 355.338 326.794 354.51 325.4L344.73 324.52Z" fill="#455A64"/>
<path d="M313.45 219.92L314.33 280.32L317.18 322.6C324.4 327.16 329.62 323.43 329.62 323.43C332.36 303.43 332.73 291.08 331.24 282.75L332.61 250.15L336.71 283.99L343.62 325.47C351.02 330.27 356.25 325.47 356.25 325.47C356.25 310.12 357.62 292.95 353.39 281.88C355.197 261.427 354.525 240.831 351.39 220.54L313.45 219.92Z" fill="#263238"/>
<path opacity="0.3" d="M331.099 237.7L332.609 250.15L331.999 265.42L329.219 240.32C322.779 237.8 321.939 234.25 321.939 234.25C324.657 236.147 327.806 237.333 331.099 237.7Z" fill="black"/>
<path d="M327.17 167.16L320.1 167.91C314.32 173.01 311.33 183.71 312.58 195.53C313.341 203.636 313.631 211.78 313.45 219.92C329.12 231.36 348.91 223.03 351.4 220.54L350.23 206.05C350.104 204.416 350.375 202.776 351.02 201.27C352.5 197.84 355.15 191.07 355.5 185.83C355.715 181.159 354.731 176.512 352.64 172.33L342.38 167.85L327.17 167.16Z" fill="#455A64"/>
<g opacity="0.5">
<path opacity="0.5" d="M327.17 167.16L320.1 167.91C314.32 173.01 311.33 183.71 312.58 195.53C313.341 203.636 313.631 211.78 313.45 219.92C329.12 231.36 348.91 223.03 351.4 220.54L350.23 206.05C350.104 204.416 350.375 202.776 351.02 201.27C352.5 197.84 355.15 191.07 355.5 185.83C355.715 181.159 354.731 176.512 352.64 172.33L342.38 167.85L327.17 167.16Z" fill="white"/>
</g>
<path d="M325.2 177.46C321.573 186.218 319.602 195.573 319.39 205.05L322.3 211.3L326.85 205.3C326.5 196.14 326.684 186.968 327.4 177.83L325.2 177.46Z" fill="#455A64"/>
<path d="M325 172.33C324.874 174.044 324.955 175.766 325.24 177.46C325.922 177.796 326.684 177.934 327.44 177.86C328.83 176.631 330.021 175.194 330.97 173.6L327.44 172.33H325Z" fill="#455A64"/>
<path d="M327.399 172.33C330.399 173.45 333.149 178.86 333.149 178.86C341.149 172.08 342.379 167.86 342.379 167.86C341.341 166.279 340.031 164.894 338.509 163.77L327.399 172.33Z" fill="#455A64"/>
<path d="M327.399 172.33C325.079 172.39 323.029 175.62 323.029 175.62C322.659 169.96 327.399 165.62 327.399 165.62V172.33Z" fill="#455A64"/>
<g opacity="0.35">
<path opacity="0.35" d="M327.399 172.33C330.399 173.45 333.149 178.86 333.149 178.86C341.149 172.08 342.379 167.86 342.379 167.86C341.341 166.279 340.031 164.894 338.509 163.77L327.399 172.33Z" fill="white"/>
<path opacity="0.35" d="M327.399 172.33C325.079 172.39 323.029 175.62 323.029 175.62C322.659 169.96 327.399 165.62 327.399 165.62V172.33Z" fill="white"/>
</g>
<path d="M342.38 140.93C341.361 139.738 339.935 138.968 338.38 138.77L317.38 140.77C314.95 145.98 316.89 149.42 316.89 149.42C316.56 157.37 316.29 162.42 319.74 164.1C322.168 165.087 324.803 165.458 327.41 165.18C329.848 165.028 332.23 164.382 334.41 163.28L334.52 163.22C335.278 162.808 335.939 162.238 336.456 161.547C336.974 160.857 337.337 160.063 337.52 159.22C337.878 157.67 338.122 156.096 338.25 154.51C338.282 153.611 338.378 152.715 338.54 151.83C338.701 150.941 339.11 150.116 339.72 149.45C340.025 149.125 340.405 148.88 340.827 148.737C341.249 148.594 341.7 148.557 342.14 148.63C342.293 148.669 342.44 148.726 342.58 148.8C343.18 145.23 343.36 142.17 342.38 140.93Z" fill="#263238"/>
<path d="M334.679 141.54C334.328 143.024 334.439 144.581 334.999 146C335.551 147.411 335.996 148.862 336.329 150.34C336.606 151.824 336.407 153.357 335.759 154.72C335.432 155.388 334.963 155.977 334.384 156.445C333.805 156.913 333.131 157.25 332.409 157.43C330.149 157.92 327.939 156.58 325.679 156.14C323.502 155.751 321.258 156.152 319.349 157.27C319.187 157.367 319.003 157.421 318.814 157.425C318.624 157.429 318.438 157.385 318.271 157.295C318.105 157.205 317.964 157.073 317.864 156.913C317.764 156.753 317.707 156.569 317.699 156.38C317.429 151.81 317.439 144.64 318.099 141.27L334.679 141.54Z" fill="#FFA8A7"/>
<path d="M338.66 156.77C338.66 156.77 338.66 158.63 338.57 160.84C339.527 160.034 340.223 158.962 340.57 157.76C339.828 157.694 339.142 157.339 338.66 156.77Z" fill="#37474F"/>
<path d="M325.01 149.65L321.18 154.37L324.7 155.63L325.01 149.65Z" fill="#F28F8F"/>
<path d="M327.91 158L324.91 158.92C325.096 159.273 325.392 159.554 325.753 159.722C326.115 159.89 326.521 159.935 326.91 159.85C327.264 159.703 327.556 159.439 327.738 159.102C327.92 158.765 327.981 158.376 327.91 158Z" fill="#F28F8F"/>
<path opacity="0.3" d="M327.91 158L324.91 158.92C325.096 159.273 325.392 159.554 325.753 159.722C326.115 159.89 326.521 159.935 326.91 159.85C327.264 159.703 327.556 159.439 327.738 159.102C327.92 158.765 327.981 158.376 327.91 158Z" fill="black"/>
<path d="M326 159.76C326.319 159.885 326.669 159.906 327 159.82C327.284 159.72 327.531 159.537 327.709 159.294C327.888 159.052 327.989 158.761 328 158.46C327.606 158.396 327.202 158.474 326.86 158.68C326.649 158.79 326.464 158.943 326.316 159.129C326.168 159.315 326.06 159.53 326 159.76Z" fill="#F28F8F"/>
<path d="M330.23 150.69C330.216 150.898 330.14 151.098 330.013 151.264C329.886 151.43 329.712 151.554 329.514 151.622C329.316 151.689 329.103 151.697 328.901 151.643C328.699 151.589 328.517 151.477 328.379 151.321C328.24 151.164 328.151 150.97 328.122 150.763C328.094 150.556 328.127 150.345 328.218 150.157C328.309 149.969 328.454 149.812 328.634 149.705C328.814 149.599 329.021 149.549 329.23 149.56C329.512 149.578 329.776 149.707 329.963 149.919C330.15 150.13 330.246 150.408 330.23 150.69Z" fill="#263238"/>
<path d="M321.42 149.86C321.404 150.139 321.279 150.401 321.071 150.589C320.863 150.776 320.589 150.874 320.309 150.86C320.043 150.824 319.8 150.69 319.629 150.483C319.457 150.276 319.369 150.013 319.383 149.744C319.397 149.476 319.511 149.223 319.703 149.035C319.895 148.847 320.151 148.738 320.42 148.73C320.56 148.738 320.697 148.773 320.823 148.834C320.95 148.895 321.063 148.981 321.156 149.086C321.249 149.191 321.32 149.314 321.365 149.447C321.411 149.579 321.429 149.72 321.42 149.86Z" fill="#263238"/>
<path d="M320.619 145.56L318.199 147.07C318.113 146.772 318.119 146.454 318.217 146.159C318.315 145.864 318.501 145.607 318.749 145.42C319.042 145.263 319.374 145.193 319.705 145.218C320.036 145.243 320.353 145.362 320.619 145.56Z" fill="#263238"/>
<path d="M329.63 145.92L331.87 147.68C331.987 147.393 332.015 147.078 331.951 146.775C331.886 146.472 331.733 146.195 331.51 145.98C331.234 145.794 330.911 145.69 330.579 145.68C330.246 145.669 329.917 145.752 329.63 145.92Z" fill="#263238"/>
<path d="M344 150.31C343.72 149.638 343.204 149.09 342.55 148.77C342.411 148.696 342.263 148.639 342.11 148.6C341.67 148.527 341.22 148.564 340.797 148.707C340.375 148.85 339.995 149.095 339.69 149.42C339.08 150.086 338.671 150.911 338.51 151.8C338.349 152.685 338.252 153.581 338.22 154.48C338.091 156.103 337.84 157.714 337.47 159.3C337.279 160.128 336.912 160.906 336.395 161.581C335.877 162.255 335.221 162.811 334.47 163.21H334.37C332.19 164.312 329.808 164.958 327.37 165.11V172.28L337.31 166.4C337.657 166.192 337.947 165.899 338.151 165.55C338.356 165.2 338.469 164.805 338.48 164.4C338.48 163.25 338.53 161.99 338.56 160.82C338.61 158.61 338.65 156.75 338.65 156.75C339.12 157.313 339.791 157.672 340.52 157.75C340.849 157.824 341.191 157.824 341.52 157.75C341.993 157.599 342.429 157.354 342.804 157.029C343.179 156.704 343.484 156.306 343.7 155.86C344.143 154.96 344.382 153.973 344.4 152.97C344.476 152.064 344.339 151.153 344 150.31Z" fill="#FFA8A7"/>
<path opacity="0.2" d="M335.83 163.12C336.414 162.352 336.83 161.469 337.05 160.53C336.51 161.671 335.62 162.61 334.51 163.21H334.41C332.23 164.312 329.848 164.958 327.41 165.11V167C328.828 166.875 330.225 166.576 331.57 166.11C333.242 165.532 334.718 164.496 335.83 163.12Z" fill="black"/>
<path d="M339.66 139.36C337.19 141.56 333.27 142.56 329.99 142.98C326.694 143.34 323.359 143.058 320.17 142.15C318.797 141.921 317.55 141.212 316.65 140.15C316.222 139.451 315.969 138.658 315.913 137.84C315.857 137.022 316 136.202 316.329 135.451C316.658 134.7 317.163 134.039 317.803 133.525C318.442 133.011 319.196 132.66 320 132.5C323.11 131.93 326.09 134.35 329.24 134.16C330.613 133.977 331.957 133.62 333.24 133.1C334.514 132.584 335.926 132.52 337.24 132.92C337.781 133.155 338.266 133.503 338.661 133.941C339.056 134.379 339.353 134.897 339.53 135.46C339.942 136.721 339.987 138.074 339.66 139.36Z" fill="#263238"/>
<path d="M307.18 220.24L300 190.77C299.888 190.315 299.684 189.887 299.402 189.513C299.121 189.138 298.766 188.824 298.36 188.59L280.36 178.22C280.256 178.162 280.139 178.131 280.02 178.13C279.663 178.123 279.312 178.23 279.019 178.435C278.727 178.64 278.506 178.932 278.39 179.27C278.322 179.413 278.305 179.575 278.34 179.73L285.56 209.2C285.672 209.657 285.875 210.086 286.156 210.462C286.438 210.839 286.793 211.154 287.2 211.39L305.2 221.75C305.345 221.834 305.516 221.862 305.68 221.83C306.001 221.768 306.303 221.633 306.564 221.436C306.824 221.238 307.035 220.983 307.18 220.69C307.184 220.67 307.184 220.65 307.18 220.63C307.217 220.503 307.217 220.367 307.18 220.24Z" fill="#0070F0"/>
<path opacity="0.3" d="M306.19 221L299 191.51C298.886 191.054 298.682 190.626 298.4 190.25C298.119 189.874 297.765 189.558 297.36 189.32L279.36 178.96C279.275 178.909 279.181 178.876 279.082 178.864C278.984 178.852 278.885 178.861 278.79 178.89C278.696 178.92 278.608 178.969 278.534 179.034C278.46 179.099 278.4 179.18 278.36 179.27C278.292 179.413 278.275 179.575 278.31 179.73L285.53 209.2C285.641 209.657 285.844 210.086 286.126 210.462C286.408 210.839 286.763 211.154 287.17 211.39L305.17 221.75C305.287 221.809 305.42 221.834 305.551 221.822C305.682 221.809 305.807 221.76 305.912 221.68C306.016 221.599 306.096 221.491 306.142 221.367C306.187 221.243 306.197 221.109 306.17 220.98L306.19 221Z" fill="black"/>
<path d="M349.93 171.12C345.93 175.23 341.21 188.75 339.24 194.87L334.89 207.07C328.62 207.39 327.98 208.25 322.83 209.15C321.19 209.44 317.45 210.24 314.97 210.52C314.514 210.545 314.056 210.545 313.6 210.52C311.51 210.24 309.88 208.1 304 207.44L304.94 211.21C301.19 211.97 296.66 206.74 294.74 207.59C292.82 208.44 295.52 210.38 295.52 210.38C295.349 211.126 295.407 211.907 295.685 212.62C295.963 213.333 296.449 213.946 297.08 214.38C297.08 216.74 299.25 218.74 304.71 220.03C307.59 220.61 310.71 219.48 313.36 219.48H315.51L339.51 220.01C340.902 220.01 342.267 219.622 343.452 218.891C344.637 218.16 345.595 217.114 346.22 215.87C348.22 211.79 351.22 205.87 351.96 204.04C362.44 178.93 361.57 173.61 349.93 171.12Z" fill="#FFA8A7"/>
<path opacity="0.2" d="M334.89 207.07C337.409 207.059 339.921 207.354 342.37 207.95C340.676 205.996 338.554 204.46 336.17 203.46L334.89 207.07Z" fill="black"/>
<path d="M349.93 171.12C341 180.32 337.05 198 337.05 198C344.83 206.41 353.36 202.69 353.36 202.69C353.36 202.69 357.72 193.58 359.28 185.91C361.41 174.24 357 172.51 349.93 171.12Z" fill="#455A64"/>
<path opacity="0.4" d="M349.93 171.12C341 180.32 337.05 198 337.05 198C344.83 206.41 353.36 202.69 353.36 202.69C353.36 202.69 357.72 193.58 359.28 185.91C361.41 174.24 357 172.51 349.93 171.12Z" fill="white"/>
<path d="M317.26 214.09H314.07V210.28L317.26 209.88V214.09Z" fill="#37474F"/>
<path d="M317.26 219.87H314.07V216.06L317.26 215.66V219.87Z" fill="#37474F"/>
<path d="M319 216C319 214.6 317.53 213.47 315.72 213.47C313.91 213.47 312.43 214.6 312.43 216V216.82H312.63C312.958 217.343 313.414 217.773 313.955 218.072C314.495 218.371 315.102 218.527 315.72 218.527C316.337 218.527 316.944 218.371 317.485 218.072C318.025 217.773 318.481 217.343 318.81 216.82H319V216Z" fill="#263238"/>
<path d="M319 216.85C319 218.25 317.53 219.39 315.72 219.39C313.91 219.39 312.43 218.25 312.43 216.85C312.43 215.45 313.9 214.32 315.72 214.32C317.54 214.32 319 215.46 319 216.85Z" fill="#455A64"/>
<path d="M315.669 218.36C315.14 218.412 314.609 218.272 314.174 217.965C313.739 217.659 313.429 217.206 313.299 216.69C313.295 216.743 313.295 216.797 313.299 216.85C313.441 217.377 313.753 217.842 314.186 218.174C314.618 218.506 315.149 218.686 315.694 218.686C316.24 218.686 316.77 218.506 317.203 218.174C317.636 217.842 317.948 217.377 318.089 216.85C318.094 216.797 318.094 216.743 318.089 216.69C317.959 217.216 317.641 217.675 317.196 217.983C316.75 218.291 316.207 218.425 315.669 218.36Z" fill="#263238"/>
<path d="M315.67 218.36C315.978 218.252 316.251 218.06 316.458 217.807C316.665 217.554 316.798 217.249 316.843 216.925C316.888 216.602 316.843 216.272 316.713 215.972C316.582 215.672 316.372 215.414 316.105 215.226C315.838 215.037 315.524 214.926 315.198 214.905C314.872 214.883 314.546 214.951 314.256 215.103C313.966 215.254 313.724 215.482 313.555 215.762C313.386 216.042 313.298 216.363 313.3 216.69C313.429 217.206 313.74 217.659 314.175 217.965C314.61 218.272 315.14 218.412 315.67 218.36Z" fill="#37474F"/>
<path d="M154.88 269.82C149.44 265.48 144.94 273.62 141.66 282.7C139.66 288.2 137.66 293.58 136.31 296.95C135.891 298.037 135.757 299.212 135.92 300.366C136.082 301.519 136.537 302.612 137.24 303.54L146.91 316.4L151.23 307.06L145.87 298.94L151.33 288.94L154.88 269.82Z" fill="#455A64"/>
<path opacity="0.2" d="M147.32 296.29L151.32 288.96L153.19 278.87L146.96 282.57C146.097 284.764 145.683 287.109 145.745 289.466C145.807 291.824 146.343 294.144 147.32 296.29Z" fill="black"/>
<path opacity="0.2" d="M144.37 313L146.91 316.38L151.23 307.04L148.23 302.52C147.631 304.501 146.858 306.425 145.92 308.27C145.191 309.769 144.67 311.36 144.37 313Z" fill="black"/>
<path d="M168.881 434.6C169.111 433.79 169.301 432.97 169.461 432.14C170.498 433.858 171.922 435.31 173.621 436.38C175.091 437.261 176.676 437.934 178.331 438.38C181.259 439.211 184.287 439.635 187.331 439.64C188.34 439.745 189.352 439.463 190.161 438.85C190.427 438.576 190.614 438.236 190.702 437.864C190.79 437.492 190.776 437.104 190.661 436.74C190.546 436.421 190.357 436.133 190.111 435.9C190.441 435.99 190.781 436.07 191.111 436.14C192.307 436.306 193.465 436.681 194.531 437.25C195.048 437.543 195.465 437.988 195.724 438.524C195.983 439.06 196.072 439.662 195.981 440.25C195.768 440.755 195.449 441.209 195.045 441.58C194.641 441.951 194.162 442.23 193.641 442.4C189.779 444.101 185.428 444.329 181.411 443.04C178.931 442.24 176.541 440.85 173.941 440.92C172.451 440.92 170.821 441.45 169.581 440.64C169.143 440.31 168.792 439.878 168.56 439.381C168.328 438.884 168.222 438.338 168.251 437.79C168.318 436.703 168.53 435.63 168.881 434.6Z" fill="#37474F"/>
<path d="M148.88 418.48C149.232 419.164 149.727 419.764 150.33 420.24C150.845 420.635 151.443 420.909 152.078 421.041C152.714 421.172 153.371 421.158 154 421C155.198 420.56 156.265 419.824 157.1 418.86L160.35 415.69C161.2 414.87 162.12 413.88 162.04 412.69C161.939 412.08 161.641 411.52 161.191 411.096C160.741 410.671 160.165 410.406 159.55 410.34C158.822 410.243 158.082 410.287 157.37 410.47L157.69 410.23C158.522 409.641 159.414 409.142 160.35 408.74C161.343 408.22 162.487 408.068 163.58 408.31C164.226 408.562 164.782 409.001 165.176 409.571C165.57 410.142 165.784 410.817 165.79 411.51C165.783 412.907 165.288 414.259 164.39 415.33C163.509 416.403 162.546 417.406 161.51 418.33C160.164 419.629 158.923 421.033 157.8 422.53C157.024 423.678 156.144 424.753 155.17 425.74C154.183 426.731 152.849 427.298 151.45 427.32C150.87 427.307 150.303 427.135 149.813 426.823C149.323 426.511 148.928 426.071 148.67 425.55C148.425 424.855 148.343 424.112 148.43 423.38C148.495 421.74 148.645 420.104 148.88 418.48Z" fill="#37474F"/>
<path d="M190.63 436.71C190.515 436.391 190.327 436.103 190.08 435.87C185.654 434.799 181.453 432.954 177.67 430.42C178.25 416.86 183.17 381.65 183.17 381.65C183.17 381.65 184.88 351.57 182.6 322.71L145.37 319C144.37 322.39 142.01 335.15 149.25 368.73C143.25 385.59 147.44 395.03 149.25 415.73H149.32C149.32 415.89 149.25 416.05 149.22 416.21C149.08 416.94 148.99 417.68 148.88 418.42C149.232 419.104 149.726 419.704 150.33 420.18C150.84 420.586 151.435 420.87 152.07 421.012C152.706 421.155 153.366 421.15 154 421C155.198 420.56 156.264 419.824 157.1 418.86L160.35 415.69C161.2 414.87 162.12 413.88 162.04 412.69C161.939 412.08 161.64 411.52 161.191 411.096C160.741 410.671 160.165 410.406 159.55 410.34C158.822 410.243 158.081 410.287 157.37 410.47C157.02 410.74 156.69 411 156.37 411.24L162.63 373.43L164.1 346.28L167.78 380.11C162.63 394.79 170.18 402.93 170.18 426.4C170.118 428.326 169.891 430.243 169.5 432.13C170.537 433.848 171.962 435.3 173.66 436.37C175.13 437.251 176.715 437.924 178.37 438.37C181.298 439.201 184.326 439.625 187.37 439.63C188.379 439.735 189.391 439.453 190.2 438.84C190.458 438.557 190.634 438.21 190.71 437.835C190.786 437.459 190.758 437.071 190.63 436.71Z" fill="#FFA8A7"/>
<path opacity="0.2" d="M190.63 436.71C190.515 436.391 190.327 436.103 190.08 435.87C185.654 434.799 181.453 432.954 177.67 430.42C178.25 416.86 183.17 381.65 183.17 381.65C183.17 381.65 184.88 351.57 182.6 322.71L145.37 319C144.37 322.39 142.01 335.15 149.25 368.73C143.25 385.59 147.44 395.03 149.25 415.73H149.32C149.32 415.89 149.25 416.05 149.22 416.21C149.08 416.94 148.99 417.68 148.88 418.42C149.232 419.104 149.726 419.704 150.33 420.18C150.84 420.586 151.435 420.87 152.07 421.012C152.706 421.155 153.366 421.15 154 421C155.198 420.56 156.264 419.824 157.1 418.86L160.35 415.69C161.2 414.87 162.12 413.88 162.04 412.69C161.939 412.08 161.64 411.52 161.191 411.096C160.741 410.671 160.165 410.406 159.55 410.34C158.822 410.243 158.081 410.287 157.37 410.47C157.02 410.74 156.69 411 156.37 411.24L162.63 373.43L164.1 346.28L167.78 380.11C162.63 394.79 170.18 402.93 170.18 426.4C170.118 428.326 169.891 430.243 169.5 432.13C170.537 433.848 171.962 435.3 173.66 436.37C175.13 437.251 176.715 437.924 178.37 438.37C181.298 439.201 184.326 439.625 187.37 439.63C188.379 439.735 189.391 439.453 190.2 438.84C190.458 438.557 190.634 438.21 190.71 437.835C190.786 437.459 190.758 437.071 190.63 436.71Z" fill="black"/>
<path opacity="0.2" d="M183.74 363.35C183.89 352.18 183.74 337.29 182.6 322.71L145.37 319C144.47 322.19 142.3 333.67 148.06 363C152.373 366.19 157.508 368.081 162.86 368.45L164.06 346.34L166.49 368.75C172.703 369.089 178.83 367.171 183.74 363.35Z" fill="black"/>
<path d="M182.62 321.54L145.37 319C141.75 329.26 142.48 341.51 145.37 359.13C149.87 364.72 166.55 369.2 176.43 363.72L177.61 351.55L179 364C182 362.89 184.66 361.92 185.28 357.51C185.199 345.474 184.311 333.457 182.62 321.54Z" fill="#0070F0"/>
<path d="M176.67 250.82L179.27 255.69L177 257.25C176.82 255.17 176.8 252.9 176.67 250.82Z" fill="#F28F8F"/>
<path opacity="0.3" d="M176.67 250.82L179.27 255.69L177 257.25C176.82 255.17 176.8 252.9 176.67 250.82Z" fill="black"/>
<path d="M206.93 313C209.838 314.425 212.971 315.338 216.19 315.7C219.424 316.055 222.692 315.49 225.62 314.07C228.564 312.564 230.805 309.971 231.87 306.84C231.406 306.343 230.788 306.017 230.116 305.918C229.444 305.818 228.758 305.949 228.17 306.29C225.342 307.864 222.009 308.263 218.89 307.4C219.872 306.398 220.75 305.299 221.51 304.12C221.89 303.54 222.23 302.78 221.85 302.2C221.677 301.985 221.441 301.83 221.175 301.758C220.909 301.687 220.627 301.701 220.37 301.8C219.859 302.01 219.392 302.312 218.99 302.69C216.631 304.59 213.849 305.894 210.88 306.49C209.66 308.55 208.14 311 206.93 313Z" fill="#FFA8A7"/>
<path d="M172.88 272.55C168.02 271.05 153.88 267.96 150.3 271.19C147.17 274.02 145.14 283.75 149.36 296.24C150.584 299.805 150.406 303.702 148.86 307.14C147.028 311.08 145.598 315.194 144.59 319.42C156 331 176 329.21 183.53 324.28C183.43 315.02 182.631 305.78 181.14 296.64L172.88 272.55Z" fill="#455A64"/>
<path d="M174.59 243.74C176.229 246.267 177.234 249.152 177.52 252.15C177.81 255.141 177.853 258.151 177.65 261.15C177.717 262.314 177.432 263.471 176.83 264.47C176.363 264.973 175.789 265.364 175.15 265.615C174.511 265.866 173.825 265.97 173.14 265.92C171.77 265.92 170.52 265.92 169.03 265.92L168.74 272.12C163.84 274.84 158.34 272.94 156.91 271.01L157.16 264.94C164.77 266.37 168.88 263.76 169.59 259.05C168.82 259.192 168.027 259.164 167.269 258.967C166.51 258.77 165.804 258.409 165.2 257.91C164.657 257.371 164.245 256.715 163.995 255.992C163.746 255.269 163.665 254.499 163.76 253.74C163.82 253.057 164.093 252.41 164.54 251.89C164.946 251.501 165.452 251.234 166.002 251.119C166.552 251.005 167.123 251.046 167.65 251.24C168.705 251.648 169.578 252.422 170.11 253.42C170.634 254.416 171.018 255.479 171.25 256.58C171.698 256.218 172.025 255.729 172.189 255.178C172.353 254.626 172.347 254.038 172.17 253.49C171.96 252.93 171.56 252.39 171.64 251.8C171.72 251.21 172.42 250.72 172.74 250.13C172.989 249.605 173.032 249.005 172.86 248.45C172.677 247.905 172.429 247.385 172.12 246.9C172.801 245.743 173.632 244.681 174.59 243.74Z" fill="#FFA8A7"/>
<path opacity="0.2" d="M174.59 243.74C176.229 246.267 177.234 249.152 177.52 252.15C177.81 255.141 177.853 258.151 177.65 261.15C177.717 262.314 177.432 263.471 176.83 264.47C176.363 264.973 175.789 265.364 175.15 265.615C174.511 265.866 173.825 265.97 173.14 265.92C171.77 265.92 170.52 265.92 169.03 265.92L168.74 272.12C163.84 274.84 158.34 272.94 156.91 271.01L157.16 264.94C164.77 266.37 168.88 263.76 169.59 259.05C168.82 259.192 168.027 259.164 167.269 258.967C166.51 258.77 165.804 258.409 165.2 257.91C164.657 257.371 164.245 256.715 163.995 255.992C163.746 255.269 163.665 254.499 163.76 253.74C163.82 253.057 164.093 252.41 164.54 251.89C164.946 251.501 165.452 251.234 166.002 251.119C166.552 251.005 167.123 251.046 167.65 251.24C168.705 251.648 169.578 252.422 170.11 253.42C170.634 254.416 171.018 255.479 171.25 256.58C171.698 256.218 172.025 255.729 172.189 255.178C172.353 254.626 172.347 254.038 172.17 253.49C171.96 252.93 171.56 252.39 171.64 251.8C171.72 251.21 172.42 250.72 172.74 250.13C172.989 249.605 173.032 249.005 172.86 248.45C172.677 247.905 172.429 247.385 172.12 246.9C172.801 245.743 173.632 244.681 174.59 243.74Z" fill="black"/>
<path opacity="0.2" d="M182.67 308.38C181.99 301.5 181.14 296.64 181.14 296.64L174.77 278.06L172.37 281.37C173.82 290.15 177.27 301 182.67 308.38Z" fill="black"/>
<path opacity="0.2" d="M206.93 313C209.838 314.425 212.971 315.338 216.19 315.7C219.424 316.055 222.692 315.49 225.62 314.07C228.564 312.564 230.805 309.971 231.87 306.84C231.406 306.343 230.788 306.017 230.116 305.918C229.444 305.818 228.758 305.949 228.17 306.29C225.342 307.864 222.009 308.263 218.89 307.4C219.872 306.398 220.75 305.299 221.51 304.12C221.89 303.54 222.23 302.78 221.85 302.2C221.677 301.985 221.441 301.83 221.175 301.758C220.909 301.687 220.627 301.701 220.37 301.8C219.859 302.01 219.392 302.312 218.99 302.69C216.631 304.59 213.849 305.894 210.88 306.49C209.66 308.55 208.14 311 206.93 313Z" fill="black"/>
<path d="M172.881 272.55C181.881 268.65 182.881 277.18 187.781 286.25C190.781 292.08 194.511 297.7 194.511 297.7C199.662 300.981 205.237 303.545 211.081 305.32C213.031 310.47 208.511 315.52 208.511 315.52L189.291 307.14C186.031 305.716 183.285 303.329 181.421 300.3C174.501 289.08 169.431 281.13 172.881 272.55Z" fill="#455A64"/>
<path d="M173.941 246.73C175.941 244.49 178.061 242.07 178.501 239.09C178.744 237.398 178.417 235.673 177.569 234.189C176.722 232.704 175.404 231.544 173.823 230.894C172.243 230.243 170.49 230.138 168.843 230.595C167.196 231.053 165.749 232.047 164.731 233.42C159.891 231.25 152.961 232.64 149.621 236.77C146.281 240.9 146.011 247.03 146.621 252.48C147.231 257.93 148.341 263.48 146.961 268.81C145.721 273.57 142.491 277.89 142.611 282.81C142.695 284.488 143.122 286.13 143.865 287.637C144.608 289.143 145.651 290.482 146.931 291.57C149.511 293.729 152.661 295.094 156.001 295.5C158.96 295.973 161.991 295.66 164.791 294.59C167.597 293.493 169.883 291.374 171.191 288.66C172.731 285.24 172.271 281.28 171.421 277.66C170.571 274.04 169.421 270.37 169.521 266.66C169.771 259.79 174.381 253.53 173.941 246.73Z" fill="#263238"/>
</svg>
