<svg width="72" height="72" viewBox="0 0 72 72" fill="none" xmlns="http://www.w3.org/2000/svg">
<rect width="72" height="72" rx="36" fill="#FAFBFC"/>
<path d="M47.6 25.2C47.4 25 47 25 46.7 25L41 26.7V46.8L47.3 45C47.7 44.9 48 44.5 48 44V26C48 25.7 47.9 25.4 47.6 25.2Z" fill="#D6B1FF"/>
<path d="M39 26.7L33 25.2V45.2999L39 46.7999V26.7Z" fill="#2EC5CE"/>
<path d="M31 25.2L24.7 27C24.3 27.2 24 27.6 24 28V46C24 46.2999 24.1 46.5999 24.4 46.7999C24.6 46.9 24.8 47 25 47H25.3L31 45.2999V25.2Z" fill="#8C30F5"/>
</svg>
