<svg width="72" height="72" viewBox="0 0 72 72" fill="none" xmlns="http://www.w3.org/2000/svg">
<rect width="72" height="72" rx="36" fill="#FAFBFC"/>
<path d="M33 34H26C25.7348 34 25.4804 33.8946 25.2929 33.7071C25.1054 33.5196 25 33.2652 25 33V26C25 25.7348 25.1054 25.4804 25.2929 25.2929C25.4804 25.1054 25.7348 25 26 25H33C33.2652 25 33.5196 25.1054 33.7071 25.2929C33.8946 25.4804 34 25.7348 34 26V33C34 33.2652 33.8946 33.5196 33.7071 33.7071C33.5196 33.8946 33.2652 34 33 34Z" fill="#8C30F5"/>
<path d="M33 47H26C25.7348 47 25.4804 46.8946 25.2929 46.7071C25.1054 46.5196 25 46.2652 25 46V39C25 38.7348 25.1054 38.4804 25.2929 38.2929C25.4804 38.1054 25.7348 38 26 38H33C33.2652 38 33.5196 38.1054 33.7071 38.2929C33.8946 38.4804 34 38.7348 34 39V46C34 46.2652 33.8946 46.5196 33.7071 46.7071C33.5196 46.8946 33.2652 47 33 47Z" fill="#8C30F5"/>
<path d="M37 26H47V28H37V26Z" fill="#2EC5CE"/>
<path d="M47 39H37V41H47V39Z" fill="#2EC5CE"/>
<path d="M47 44H37V46H47V44Z" fill="#D6B1FF"/>
<path d="M47 31H37V33H47V31Z" fill="#D6B1FF"/>
</svg>
