<svg width="72" height="72" viewBox="0 0 72 72" fill="none" xmlns="http://www.w3.org/2000/svg">
<rect width="72" height="72" rx="36" fill="#FAFBFC"/>
<path d="M45 48H36C35.7348 48 35.4804 47.8946 35.2929 47.7071C35.1054 47.5196 35 47.2652 35 47V45C35 44.7348 35.1054 44.4804 35.2929 44.2929C35.4804 44.1054 35.7348 44 36 44H45C45.2652 44 45.5196 44.1054 45.7071 44.2929C45.8946 44.4804 46 44.7348 46 45V47C46 47.2652 45.8946 47.5196 45.7071 47.7071C45.5196 47.8946 45.2652 48 45 48Z" fill="#D6B1FF"/>
<path d="M45 24H27C26.7348 24 26.4804 24.1054 26.2929 24.2929C26.1054 24.4804 26 24.7348 26 25V27C26 27.2652 26.1054 27.5196 26.2929 27.7071C26.4804 27.8946 26.7348 28 27 28H45C45.2652 28 45.5196 27.8946 45.7071 27.7071C45.8946 27.5196 46 27.2652 46 27V25C46 24.7348 45.8946 24.4804 45.7071 24.2929C45.5196 24.1054 45.2652 24 45 24Z" fill="#2EC5CE"/>
<path d="M45 30H27C26.7348 30 26.4804 30.1054 26.2929 30.2929C26.1054 30.4804 26 30.7348 26 31V41C26 41.2652 26.1054 41.5196 26.2929 41.7071C26.4804 41.8946 26.7348 42 27 42H45C45.2652 42 45.5196 41.8946 45.7071 41.7071C45.8946 41.5196 46 41.2652 46 41V31C46 30.7348 45.8946 30.4804 45.7071 30.2929C45.5196 30.1054 45.2652 30 45 30Z" fill="#8C30F5"/>
</svg>
