<svg width="130" height="40" viewBox="0 0 130 40" fill="none" xmlns="http://www.w3.org/2000/svg">
<g clip-path="url(#clip0_260_1724)">
<path d="M37.2662 28.3497C37.0623 27.8622 36.8711 27.3497 36.6672 26.9122L35.7241 24.8247L35.6858 24.7872C32.8819 18.7872 29.8868 12.6872 26.7133 6.68719L26.5858 6.43719C26.2672 5.84969 25.9486 5.19969 25.6172 4.59969C25.2093 3.88719 24.8142 3.12469 24.1642 2.39969C23.5307 1.6411 22.7333 1.02992 21.8296 0.610255C20.926 0.190588 19.9386 -0.0270996 18.9388 -0.0270996C17.9389 -0.0270996 16.9515 0.190588 16.0479 0.610255C15.1442 1.02992 14.3469 1.6411 13.7133 2.39969C13.1142 3.12469 12.6682 3.88719 12.2603 4.59969C11.9417 5.24969 11.6231 5.88719 11.2917 6.47469L11.1642 6.72469C8.0417 12.7247 4.99562 18.8247 2.1917 24.8247L2.11523 24.8997C1.83484 25.5497 1.50346 26.2247 1.18484 26.9497C0.980914 27.3872 0.776992 27.8622 0.57307 28.3872C0.0225236 29.7619 -0.153283 31.2536 0.062976 32.7153C0.279235 34.177 0.880097 35.5581 1.80634 36.7227C2.73259 37.8873 3.95225 38.795 5.34512 39.3565C6.73799 39.918 8.256 40.1138 9.74954 39.9247C11.1814 39.7398 12.5602 39.2721 13.8025 38.5497C15.4593 37.6372 17.0525 36.3122 18.8368 34.3997C20.6211 36.3122 22.2525 37.6372 23.8711 38.5622C25.4277 39.4582 27.1904 39.9528 28.9946 39.9997C31.084 40.0082 33.106 39.275 34.6872 37.9356C36.2685 36.5961 37.3022 34.7408 37.5976 32.7122C37.9389 31.2544 37.8234 29.7295 37.2662 28.3372V28.3497ZM18.9642 30.4247C16.7721 27.6747 15.3446 25.1497 14.8603 22.9872C14.6597 22.1859 14.6164 21.3544 14.7329 20.5372C14.8221 19.8997 15.0642 19.3372 15.3956 18.8622C16.1603 17.7747 17.4986 17.0997 18.9642 17.0997C19.6603 17.0788 20.3507 17.2278 20.9736 17.5333C21.5965 17.8387 22.1323 18.291 22.5329 18.8497C22.8643 19.3497 23.1064 19.8997 23.1829 20.5372C23.3103 21.2622 23.2593 22.0997 23.0554 22.9872C22.5711 25.1122 21.1437 27.6622 18.9642 30.4247ZM35.2015 32.2747C35.0567 33.3046 34.6393 34.2794 33.9908 35.1018C33.3423 35.9242 32.4854 36.5657 31.5054 36.9622C30.5368 37.3622 29.4662 37.4747 28.4211 37.3622C27.4015 37.2372 26.3819 36.9122 25.3368 36.3122C23.6016 35.2603 22.0412 33.9534 20.7103 32.4372C23.3868 29.1872 25.0054 26.2247 25.6172 23.5872C25.9103 22.3372 25.9486 21.2122 25.8211 20.1747C25.662 19.1913 25.2881 18.2532 24.725 17.4247C24.0822 16.5263 23.2241 15.7965 22.2263 15.2995C21.2284 14.8026 20.1214 14.5537 19.0025 14.5747C16.6446 14.5747 14.5417 15.6497 13.2672 17.4122C12.6935 18.2386 12.3227 19.1842 12.1839 20.1747C12.0182 21.2247 12.0564 22.3872 12.3878 23.5872C12.9995 26.2247 14.6564 29.2247 17.2946 32.4622C15.9863 34.0074 14.4224 35.3258 12.6682 36.3622C11.6103 36.9622 10.6035 37.2747 9.58386 37.3997C7.99822 37.5989 6.3965 37.1762 5.12684 36.2236C3.85719 35.2709 3.02224 33.8653 2.80346 32.3122C2.67601 31.3122 2.76523 30.3122 3.17307 29.1872C3.30052 28.7872 3.4917 28.3872 3.69562 27.9122C3.97601 27.2622 4.30738 26.5872 4.62601 25.9122L4.67699 25.8247C7.42993 19.8622 10.4378 13.7747 13.5603 7.81219L13.6878 7.56219C14.0064 6.96219 14.325 6.32469 14.6564 5.72469C14.9878 5.08719 15.3446 4.47469 15.8035 3.97469C16.2006 3.50971 16.6969 3.13578 17.2573 2.87921C17.8177 2.62264 18.4286 2.48967 19.0471 2.48967C19.6656 2.48967 20.2765 2.62264 20.8369 2.87921C21.3973 3.13578 21.8936 3.50971 22.2907 3.97469C22.7368 4.47469 23.1064 5.08719 23.4378 5.72469C23.7564 6.32469 24.075 6.97469 24.4064 7.56219L24.5339 7.81219C27.6437 13.7747 30.6515 19.8622 33.4554 25.8247L33.4937 25.8622C33.825 26.5122 34.1054 27.2372 34.4241 27.8622C34.628 28.3497 34.8319 28.7372 34.9594 29.1497C35.2015 30.2747 35.329 31.2747 35.2015 32.2747ZM52.9427 30.1497C51.9823 30.1635 51.0311 29.965 50.1595 29.569C49.288 29.173 48.5186 28.5896 47.9084 27.8622C46.5371 26.3121 45.8093 24.3135 45.8692 22.2622C45.8482 20.1662 46.5995 18.1332 47.9848 16.5372C48.6257 15.8005 49.4234 15.2105 50.3218 14.8088C51.2202 14.4071 52.1975 14.2034 53.1848 14.2122C54.1139 14.1872 55.0341 14.3944 55.859 14.8143C56.684 15.2341 57.3865 15.8528 57.9005 16.6122L58.028 14.6497H61.7495V29.7497H58.0152L57.8878 27.5497C57.3578 28.3605 56.6253 29.025 55.7598 29.4801C54.8943 29.9351 53.9246 30.1656 52.9427 30.1497ZM53.9113 26.5497C54.6505 26.5497 55.3005 26.3497 55.9123 25.9872C56.4731 25.5872 56.9319 25.0622 57.2888 24.4247C57.6074 23.7872 57.7731 23.0247 57.7731 22.1747C57.8228 21.4364 57.6762 20.6982 57.3478 20.0321C57.0194 19.366 56.5204 18.7949 55.8995 18.3747C55.303 18.0101 54.6142 17.8169 53.9113 17.8169C53.2084 17.8169 52.5196 18.0101 51.9231 18.3747C51.3623 18.7747 50.9035 19.2997 50.5466 19.9372C50.2096 20.6402 50.0438 21.4105 50.0623 22.1872C50.0126 22.9254 50.1591 23.6637 50.4875 24.3298C50.8159 24.9959 51.315 25.5669 51.9358 25.9872C52.5348 26.3497 53.1848 26.5497 53.9113 26.5497ZM68.1221 10.5747C68.1221 11.0122 68.0456 11.4122 67.8417 11.7372C67.6378 12.0497 67.3574 12.3372 66.9878 12.5372C66.6182 12.7372 66.2231 12.8122 65.8152 12.8122C65.4074 12.8122 64.9995 12.7372 64.6299 12.5372C64.2804 12.3463 63.9864 12.0709 63.776 11.7372C63.5786 11.3811 63.4818 10.9798 63.4956 10.5747C63.4956 10.1247 63.5848 9.72469 63.776 9.41219C63.9799 9.03719 64.2731 8.81219 64.6299 8.61219C64.9995 8.41219 65.3946 8.32469 65.8152 8.32469C66.2209 8.31552 66.6221 8.40975 66.9795 8.59818C67.337 8.78661 67.6384 9.06278 67.8544 9.39969C68.0399 9.76412 68.1318 10.1675 68.1221 10.5747ZM63.7888 29.6997V14.6247H67.8417V29.7247H63.776L63.7888 29.6997ZM78.675 18.5747V18.6247C78.4839 18.5372 78.229 18.4997 78.0378 18.4622C77.7829 18.4122 77.579 18.4122 77.3368 18.4122C76.2025 18.4122 75.3486 18.7372 74.7878 19.4122C74.176 20.0997 73.8956 21.0622 73.8956 22.2997V29.7122H69.8299V14.6122H73.5643L73.6917 16.8997C74.0995 16.0997 74.5839 15.4997 75.2721 15.0497C75.9567 14.6125 76.7626 14.3941 77.579 14.4247C77.8721 14.4247 78.1525 14.4497 78.3946 14.4997C78.5221 14.5372 78.5986 14.5372 78.675 14.5747V18.5747ZM80.3064 29.6997V8.42469H84.3594V16.5497C84.9329 15.8247 85.5829 15.2622 86.3986 14.8247C87.6899 14.2037 89.1569 14.0276 90.5628 14.3247C91.9687 14.6218 93.2316 15.3748 94.1476 16.4622C95.5219 18.0154 96.2499 20.0191 96.1868 22.0747C96.2078 24.1707 95.4565 26.2036 94.0711 27.7997C93.4303 28.5364 92.6326 29.1264 91.7342 29.5281C90.8357 29.9298 89.8585 30.1334 88.8711 30.1247C87.9421 30.1496 87.0219 29.9424 86.1969 29.5226C85.372 29.1028 84.6695 28.4841 84.1554 27.7247L84.028 29.6872L80.3064 29.7247V29.6997ZM88.1447 26.5497C88.8711 26.5497 89.5211 26.3497 90.1329 25.9872C90.6937 25.5872 91.1525 25.0622 91.5094 24.4247C91.8407 23.7872 91.9937 23.0247 91.9937 22.1747C91.9937 21.3372 91.8407 20.5747 91.5094 19.9372C91.1747 19.3225 90.7044 18.7887 90.1329 18.3747C89.5363 18.0101 88.8475 17.8169 88.1447 17.8169C87.4418 17.8169 86.753 18.0101 86.1564 18.3747C85.5829 18.7747 85.1368 19.2997 84.7672 19.9372C84.4302 20.6402 84.2644 21.4105 84.2829 22.1872C84.2332 22.9254 84.3797 23.6637 84.7081 24.3298C85.0365 24.9959 85.5355 25.5669 86.1564 25.9872C86.7554 26.3497 87.4054 26.5497 88.1447 26.5497ZM97.7162 29.7122V14.6122H101.451L101.578 16.5747C102.047 15.8224 102.713 15.2068 103.506 14.7914C104.299 14.3761 105.191 14.1761 106.09 14.2122C107.117 14.1948 108.127 14.4748 108.993 15.0173C109.859 15.5598 110.543 16.3406 110.958 17.2622C111.404 18.2122 111.647 19.3872 111.647 20.6997V29.7497H107.581V21.2247C107.581 20.1747 107.339 19.3497 106.854 18.7372C106.37 18.1372 105.707 17.8122 104.866 17.8122C104.254 17.8122 103.719 17.9372 103.248 18.2122C102.802 18.4997 102.432 18.8622 102.152 19.3747C101.868 19.8927 101.727 20.4744 101.744 21.0622V29.7122H97.7162ZM113.673 29.7122V8.41219H117.739V16.5372C118.289 15.8081 119.006 15.215 119.831 14.8049C120.656 14.3948 121.568 14.179 122.493 14.1747C123.453 14.1609 124.404 14.3594 125.276 14.7554C126.147 15.1514 126.917 15.7347 127.527 16.4622C128.892 18.0153 129.614 20.0129 129.553 22.0622C129.576 24.1584 128.824 26.1917 127.438 27.7872C126.797 28.5239 125.999 29.1139 125.101 29.5156C124.202 29.9173 123.225 30.1209 122.238 30.1122C121.309 30.1371 120.389 29.9299 119.564 29.5101C118.739 29.0903 118.036 28.4716 117.522 27.7122L117.407 29.6747L113.673 29.7122ZM121.55 26.5497C122.289 26.5497 122.939 26.3497 123.538 25.9872C124.111 25.5872 124.557 25.0622 124.927 24.4247C125.246 23.7872 125.411 23.0247 125.411 22.1747C125.461 21.4364 125.314 20.6982 124.986 20.0321C124.658 19.366 124.159 18.7949 123.538 18.3747C122.941 18.0101 122.252 17.8169 121.55 17.8169C120.847 17.8169 120.158 18.0101 119.561 18.3747C119.001 18.7747 118.542 19.2997 118.185 19.9372C117.829 20.634 117.662 21.4088 117.701 22.1872C117.651 22.9254 117.797 23.6637 118.126 24.3298C118.454 24.9959 118.953 25.5669 119.574 25.9872C120.173 26.3497 120.785 26.5497 121.55 26.5497Z" fill="#FF385C"/>
</g>
<defs>
<clipPath id="clip0_260_1724">
<rect width="130" height="40" fill="white"/>
</clipPath>
</defs>
</svg>
