<svg width="170" height="72" viewBox="0 0 170 72" fill="none" xmlns="http://www.w3.org/2000/svg">
<path d="M125.926 31.0139C125.202 30.0669 124.274 29.3006 123.213 28.7734C122.153 28.2462 120.987 27.9721 119.806 27.9721C118.625 27.9721 117.46 28.2462 116.399 28.7734C115.339 29.3006 114.411 30.0669 113.687 31.0139C112.716 32.4187 112.207 34.0984 112.232 35.8139C112.207 37.5293 112.716 39.209 113.687 40.6138C114.411 41.5608 115.339 42.3271 116.399 42.8543C117.46 43.3815 118.625 43.6556 119.806 43.6556C120.987 43.6556 122.153 43.3815 123.213 42.8543C124.274 42.3271 125.202 41.5608 125.926 40.6138C126.896 39.2088 127.405 37.5292 127.38 35.8139C127.405 34.0985 126.896 32.4189 125.926 31.0139ZM123.502 37.6139C122.946 39.2999 121.627 40.6138 119.8 40.6558C117.973 40.6978 116.655 39.2999 116.105 37.6139C115.712 36.447 115.712 35.1807 116.105 34.0139C116.661 32.3279 117.979 31.0139 119.8 30.9719C121.621 30.9299 122.946 32.3279 123.502 34.0139C123.893 35.1789 123.893 36.4428 123.502 37.6079V37.6139ZM67.7762 43.2539C67.7762 43.3716 67.7301 43.4845 67.6481 43.5678C67.566 43.6511 67.4547 43.6979 67.3387 43.6979H64.7963C64.6803 43.6979 64.569 43.6511 64.4869 43.5678C64.4049 43.4845 64.3588 43.3716 64.3588 43.2539V22.0439C64.3588 21.9261 64.4049 21.8132 64.4869 21.7299C64.569 21.6466 64.6803 21.5999 64.7963 21.5999H67.3387C67.4547 21.5999 67.566 21.6466 67.6481 21.7299C67.7301 21.8132 67.7762 21.9261 67.7762 22.0439V43.2539ZM61.8046 43.2539C61.8046 43.3716 61.7585 43.4845 61.6764 43.5678C61.5944 43.6511 61.4831 43.6979 61.3671 43.6979H58.8247C58.7087 43.6979 58.5974 43.6511 58.5153 43.5678C58.4333 43.4845 58.3872 43.3716 58.3872 43.2539V22.0439C58.3872 21.9271 58.4324 21.8151 58.5132 21.732C58.594 21.6489 58.7038 21.6014 58.8188 21.5999H61.3612C61.4772 21.5999 61.5885 21.6466 61.6705 21.7299C61.7526 21.8132 61.7987 21.9261 61.7987 22.0439V43.2539H61.8046ZM111.659 28.8539V30.6539C111.669 30.7315 111.66 30.8106 111.632 30.8838C111.605 30.957 111.559 31.0219 111.5 31.0727C111.442 31.1235 111.371 31.1584 111.295 31.1743C111.22 31.1903 111.141 31.1867 111.068 31.1639C108.194 30.5639 106.426 31.8599 106.426 34.5539V43.2539C106.426 43.3716 106.38 43.4845 106.298 43.5678C106.216 43.6511 106.105 43.6979 105.989 43.6979H103.446C103.33 43.6979 103.219 43.6511 103.137 43.5678C103.055 43.4845 103.009 43.3716 103.009 43.2539V34.3679C102.994 33.5273 103.153 32.6929 103.475 31.9188C103.798 31.1446 104.278 30.4479 104.883 29.8739C106.126 28.6407 107.798 27.9551 109.536 27.9659C110.131 27.9675 110.725 28.0237 111.31 28.1339C111.612 28.2359 111.659 28.4159 111.659 28.8779V28.8539ZM100.774 35.8079C100.806 34.0914 100.296 32.4094 99.3194 31.0079C98.5954 30.0609 97.6676 29.2946 96.607 28.7674C95.5464 28.2402 94.381 27.9661 93.2 27.9661C92.0189 27.9661 90.8536 28.2402 89.7929 28.7674C88.7323 29.2946 87.8045 30.0609 87.0805 31.0079C86.1197 32.4186 85.605 34.0929 85.605 35.8079C85.605 37.5228 86.1197 39.1971 87.0805 40.6079C87.7929 41.5676 88.7183 42.3433 89.7816 42.8719C90.8449 43.4004 92.0161 43.667 93.2 43.6499C94.7506 43.655 96.2676 43.1913 97.5575 42.3179V44.2139C97.5575 46.7878 95.3403 47.2558 93.9213 47.3458C92.9449 47.3786 91.9676 47.3244 91.0005 47.1838C90.6103 47.1238 90.3383 47.1838 90.3383 47.6098V49.8899C90.3406 49.9411 90.3528 49.9914 90.3743 50.0378C90.3957 50.0842 90.426 50.1259 90.4633 50.1605C90.5007 50.195 90.5443 50.2218 90.5919 50.2392C90.6394 50.2566 90.6899 50.2643 90.7404 50.2618C94.0336 50.5498 96.2508 50.4898 97.9181 49.5238C99.0862 48.8229 99.9532 47.7033 100.348 46.3859C100.643 45.3693 100.785 44.3134 100.768 43.2539V35.8079H100.774ZM93.2 40.6439C91.373 40.6439 90.0545 39.2879 89.4987 37.6019C89.1055 36.435 89.1055 35.1687 89.4987 34.0019C90.0545 32.3159 91.373 30.9599 93.2 30.9599C97.2855 30.9599 97.4215 35.1899 97.4215 35.8019C97.4215 36.4139 97.2855 40.6439 93.2 40.6439ZM56.0576 34.2539C56.0576 32.2079 55.6083 30.6539 54.6386 29.5799C53.669 28.5059 51.7179 27.9719 49.9086 27.9719C48.0926 27.9646 46.3072 28.4471 44.7352 29.3699C44.686 29.3994 44.6453 29.4416 44.6173 29.4921C44.5893 29.5427 44.5749 29.5998 44.5756 29.6579L44.7115 31.9139C44.7236 31.984 44.7539 32.0497 44.7992 32.1041C44.8445 32.1585 44.9032 32.1998 44.9694 32.2236C45.0356 32.2474 45.1068 32.2529 45.1758 32.2396C45.2447 32.2263 45.309 32.1946 45.3619 32.1479C47.5791 30.7619 50.2397 30.5039 51.5937 31.1999C51.9662 31.4177 52.2731 31.7345 52.4815 32.1161C52.6898 32.4978 52.7917 32.9298 52.7762 33.3659V33.6959H49.0809C47.4904 33.6959 42.6185 34.2959 42.6185 38.8379V38.8859C42.5806 39.577 42.7038 40.2675 42.9781 40.9014C43.2524 41.5352 43.67 42.0945 44.1972 42.5338C45.3486 43.357 46.7405 43.7609 48.1467 43.6798H55.626C55.7421 43.6798 55.8534 43.6331 55.9354 43.5498C56.0175 43.4665 56.0636 43.3536 56.0636 43.2359V34.2359L56.0576 34.2539ZM52.7762 40.9079H48.3596C47.7929 40.8914 47.2453 40.6963 46.7927 40.3498C46.56 40.184 46.3708 39.9626 46.242 39.7053C46.1131 39.448 46.0485 39.1625 46.0537 38.8739C46.0537 38.0639 46.5917 36.4439 49.2819 36.4439H52.7762V40.9079ZM77.1357 27.9719C72.6126 27.9719 70.632 31.0499 69.9993 33.6539C69.8253 34.3562 69.7379 35.0777 69.7392 35.8019C69.7147 37.5172 70.2237 39.1968 71.1936 40.6018C71.9185 41.5478 72.8465 42.3135 73.9069 42.8406C74.9673 43.3678 76.1323 43.6425 77.3131 43.6439C79.7549 43.7339 81.3868 43.3139 82.6343 42.5939C82.756 42.5142 82.8499 42.3978 82.903 42.2611C82.956 42.1244 82.9655 41.9743 82.93 41.8319V39.8339C82.93 39.4258 82.6875 39.2339 82.3387 39.4799C80.8785 40.4295 79.1455 40.8523 77.4195 40.6798C76.4366 40.6667 75.4923 40.2891 74.7648 39.6182C74.0372 38.9473 73.5767 38.0295 73.47 37.0379H83.5212C83.63 37.0379 83.7343 36.9944 83.8118 36.917C83.8892 36.8395 83.9335 36.7342 83.9351 36.6239C84.1125 33.8339 83.3143 27.9719 77.1357 27.9719ZM73.5232 34.2779C73.5435 33.8185 73.6537 33.3679 73.8472 32.9522C74.0408 32.5365 74.3138 32.164 74.6505 31.8563C74.9873 31.5487 75.3809 31.3121 75.8086 31.1602C76.2362 31.0084 76.6894 30.9443 77.1416 30.9719C77.5745 30.945 78.008 31.0124 78.413 31.1696C78.818 31.3268 79.1852 31.5702 79.4899 31.8834C79.7946 32.1965 80.0297 32.5722 80.1794 32.9852C80.3291 33.3982 80.39 33.839 80.358 34.2779H73.5232Z" fill="#FF5A00"/>
</svg>
