<svg width="134" height="40" viewBox="0 0 134 40" fill="none" xmlns="http://www.w3.org/2000/svg">
<path fill-rule="evenodd" clip-rule="evenodd" d="M84.1039 12.227L81.9251 8.57296L78.0576 10.4L75.8787 6.73512L72.0112 8.57296L69.8433 4.89729L65.9758 6.73512L63.7969 3.07026L59.9294 4.9081L57.7615 1.23242L53.8831 3.07026L45.6797 29.5784L55.648 32.6054C56.0235 31.4106 56.8173 30.3885 57.8859 29.7238C58.9545 29.0591 60.2275 28.7957 61.4748 28.9811C62.7221 29.1665 63.8615 29.7885 64.6869 30.7347C65.5124 31.681 65.9696 32.889 65.9758 34.1405V34.2486C65.9976 34.7243 65.9431 35.2 65.8015 35.6757L75.9332 38.7567L84.1039 12.227Z" fill="#D61920"/>
<path fill-rule="evenodd" clip-rule="evenodd" d="M54.2318 27.3946C53.9798 27.3532 53.7511 27.2236 53.5872 27.0292C53.4233 26.8348 53.3351 26.5885 53.3385 26.3351V13.3621C53.337 13.2198 53.3642 13.0785 53.4184 12.9467C53.4727 12.8149 53.5529 12.6951 53.6543 12.5945C53.7558 12.4938 53.8764 12.4142 54.0093 12.3604C54.1421 12.3066 54.2844 12.2796 54.4279 12.281H63.8733C64.4298 12.2796 64.9812 12.387 65.4959 12.597C66.0106 12.8071 66.4786 13.1156 66.8731 13.5051C67.2676 13.8946 67.581 14.3574 67.7953 14.8671C68.0096 15.3768 68.1206 15.9234 68.1221 16.4756V26.3351C68.1218 26.4943 68.086 26.6515 68.0174 26.7954C67.9488 26.9394 67.849 27.0665 67.7252 27.1677C67.6013 27.2689 67.4565 27.3417 67.301 27.3809C67.1455 27.4202 66.9832 27.4248 66.8256 27.3946C66.5756 27.3509 66.3495 27.2203 66.1878 27.0261C66.0261 26.8319 65.9393 26.587 65.9432 26.3351V16.4865C65.9432 15.9417 65.7251 15.4192 65.3369 15.034C64.9487 14.6488 64.4223 14.4324 63.8733 14.4324H61.8143V26.3243C61.8151 26.4691 61.7866 26.6127 61.7305 26.7464C61.6743 26.8801 61.5917 27.0013 61.4874 27.1027C61.3634 27.2247 61.2113 27.3151 61.0443 27.3659C60.8773 27.4168 60.7004 27.4266 60.5287 27.3946C60.2767 27.3532 60.048 27.2236 59.8841 27.0292C59.7202 26.8348 59.632 26.5885 59.6354 26.3351V14.4324H55.5173V26.3243C55.5184 26.4833 55.484 26.6406 55.4167 26.785C55.3495 26.9293 55.2509 27.0571 55.1281 27.1593C55.0054 27.2616 54.8614 27.3356 54.7065 27.3763C54.5515 27.417 54.3894 27.4232 54.2318 27.3946ZM69.9414 33.0486C69.6875 33.007 69.4573 32.8758 69.2932 32.6791C69.1291 32.4825 69.042 32.2336 69.0481 31.9783C69.0493 31.6947 69.1627 31.4229 69.364 31.2216C69.5651 31.0179 69.8392 30.9013 70.1266 30.8973C71.0526 30.8973 71.8479 30.3135 72.1094 29.4378L73.2315 25.7297L69.5601 13.5459C69.5163 13.4096 69.5002 13.2661 69.5127 13.1236C69.5252 12.9811 69.5661 12.8425 69.633 12.7158C69.6999 12.5891 69.7914 12.4769 69.9023 12.3855C70.0132 12.2942 70.1413 12.2256 70.2791 12.1837C70.5535 12.1083 70.8467 12.1402 71.0981 12.273C71.3495 12.4057 71.5399 12.6292 71.63 12.8973L74.3536 21.9783L77.1208 12.8973C77.2515 12.4 77.8071 12.0648 78.3736 12.1729L78.4499 12.1837C79.0382 12.3675 79.365 12.9837 79.1907 13.5567L75.4103 26.054L74.212 30.054C73.9431 30.9148 73.4098 31.6708 72.6868 32.2162C71.9513 32.7635 71.0568 33.0594 70.1375 33.0594C70.0719 33.0619 70.0063 33.0583 69.9414 33.0486Z" fill="#FEFEFE"/>
<path fill-rule="evenodd" clip-rule="evenodd" d="M3.35548 25.027H5.49077C6.05997 25.027 6.60586 24.8026 7.00834 24.4032C7.41083 24.0038 7.63694 23.4621 7.63694 22.8973V16.6594C7.63838 16.3798 7.58429 16.1025 7.47775 15.8436C7.37122 15.5847 7.21433 15.3491 7.01605 15.1503C6.81777 14.9516 6.58198 14.7935 6.32214 14.6852C6.0623 14.5768 5.7835 14.5203 5.50166 14.5189H3.35548V25.0054V25.027ZM2.01548 27.254C1.75389 27.2102 1.51675 27.0749 1.34691 26.8727C1.17708 26.6704 1.08576 26.4146 1.08946 26.1513V6.77837C1.08754 6.63014 1.11546 6.48303 1.17158 6.34566C1.2277 6.20828 1.3109 6.08341 1.41629 5.97837C1.54381 5.84698 1.7019 5.74868 1.87666 5.69213C2.05143 5.63558 2.23752 5.6225 2.41857 5.65404C2.96329 5.76215 3.35548 6.2162 3.35548 6.76755V12.2811H5.49077C6.06967 12.2796 6.64317 12.3916 7.17842 12.6104C7.71367 12.8293 8.20015 13.1508 8.61 13.5565C9.01985 13.9622 9.34503 14.4441 9.56689 14.9747C9.78876 15.5053 9.90296 16.0742 9.90296 16.6486V22.8865C9.90008 24.0439 9.43545 25.1532 8.61067 25.9717C7.78589 26.7901 6.66807 27.2512 5.50166 27.254H2.22247C2.14966 27.2583 2.0766 27.2547 2.00459 27.2432L2.01548 27.254Z" fill="#333545"/>
<path fill-rule="evenodd" clip-rule="evenodd" d="M17.5834 14.4324C17.4611 14.4112 17.3372 14.4004 17.213 14.4C16.9304 14.3971 16.65 14.4502 16.3883 14.5562C16.1266 14.6622 15.8888 14.819 15.6889 15.0173C15.4891 15.2157 15.3311 15.4516 15.2243 15.7113C15.1174 15.971 15.0639 16.2492 15.0668 16.5297V23.027C15.0654 23.3071 15.1199 23.5847 15.2272 23.8437C15.3346 24.1028 15.4926 24.3381 15.6922 24.5362C15.8918 24.7342 16.129 24.891 16.39 24.9976C16.651 25.1041 16.9308 25.1582 17.213 25.1567C17.7822 25.1567 18.3281 24.9324 18.7306 24.533C19.1331 24.1336 19.3592 23.5919 19.3592 23.027V16.5405C19.3592 15.4919 18.6075 14.6162 17.5834 14.4324ZM16.4395 27.3513C15.4181 27.173 14.4929 26.6425 13.8272 25.8533C13.1614 25.0641 12.798 24.067 12.8008 23.0378V16.5405C12.7989 15.9655 12.9126 15.3959 13.1352 14.865C13.3578 14.3341 13.6848 13.8526 14.0972 13.4486C14.5063 13.0428 14.9921 12.7212 15.5268 12.5023C16.0615 12.2834 16.6346 12.1714 17.213 12.173C18.3803 12.173 19.4998 12.6331 20.3252 13.4522C21.1506 14.2713 21.6143 15.3822 21.6143 16.5405V23.0378C21.6143 24.2054 21.1567 25.3081 20.3179 26.1405C19.9105 26.5455 19.4265 26.8667 18.8936 27.0856C18.3608 27.3046 17.7897 27.4169 17.213 27.4162C16.9537 27.4173 16.6949 27.3956 16.4395 27.3513ZM29.2948 14.4432C29.1725 14.422 29.0486 14.4111 28.9244 14.4108C28.6417 14.4079 28.3613 14.461 28.0996 14.567C27.8379 14.673 27.6002 14.8298 27.4003 15.0281C27.2004 15.2265 27.0425 15.4624 26.9356 15.7221C26.8288 15.9818 26.7753 16.26 26.7782 16.5405V23.0378C26.7768 23.3179 26.8313 23.5955 26.9386 23.8545C27.046 24.1136 27.204 24.3489 27.4036 24.547C27.6032 24.745 27.8403 24.9018 28.1014 25.0084C28.3624 25.1149 28.6421 25.169 28.9244 25.1676C29.2066 25.169 29.4864 25.1149 29.7474 25.0084C30.0084 24.9018 30.2456 24.745 30.4452 24.547C30.6448 24.3489 30.8028 24.1136 30.9101 23.8545C31.0175 23.5955 31.072 23.3179 31.0706 23.0378V16.5405C31.0706 15.5027 30.3189 14.627 29.2948 14.4432ZM28.1509 27.3513C27.1314 27.1707 26.2088 26.6392 25.5453 25.8503C24.8817 25.0613 24.5198 24.0654 24.5231 23.0378V16.5405C24.5248 15.9034 24.6666 15.2743 24.9386 14.6972C25.2107 14.1201 25.6063 13.6088 26.098 13.1991C26.5897 12.7894 27.1656 12.4911 27.7855 12.3251C28.4054 12.1591 29.0543 12.1293 29.687 12.2378C30.7086 12.4136 31.6349 12.9415 32.3025 13.7287C32.9702 14.5159 33.3364 15.5117 33.3366 16.5405V23.0378C33.3379 23.6153 33.223 24.1873 32.9985 24.7201C32.774 25.2529 32.4444 25.7358 32.0293 26.1405C31.6218 26.5455 31.1378 26.8667 30.605 27.0856C30.0722 27.3046 29.5011 27.4169 28.9244 27.4162C28.6629 27.4162 28.4015 27.3946 28.1509 27.3513ZM37.1605 27.3946C36.8989 27.3507 36.6617 27.2155 36.4919 27.0132C36.3221 26.811 36.2308 26.5551 36.2345 26.2919V6.77837C36.2345 6.47567 36.3434 6.18378 36.5613 5.97837C36.6898 5.85248 36.847 5.75923 37.0196 5.70653C37.1922 5.65383 37.3751 5.64324 37.5527 5.67567C38.0974 5.76216 38.5005 6.22702 38.5005 6.77837V18.3243L43.708 12.5297C43.9694 12.2486 44.3616 12.1189 44.7538 12.1838C44.9516 12.2166 45.1368 12.3014 45.2903 12.4294C45.4439 12.5574 45.56 12.7238 45.6268 12.9114C45.6935 13.099 45.7083 13.301 45.6698 13.4962C45.6312 13.6915 45.5406 13.8729 45.4075 14.0216L41.4746 18.3784L45.5382 25.7622C45.6114 25.8867 45.6587 26.0245 45.6774 26.1674C45.6961 26.3104 45.6858 26.4556 45.6471 26.5946C45.605 26.7378 45.5341 26.871 45.4386 26.9862C45.3431 27.1015 45.225 27.1962 45.0915 27.2649C44.8609 27.3964 44.5906 27.4424 44.3289 27.3946C44.1662 27.3673 44.0115 27.3047 43.8759 27.2113C43.7403 27.1178 43.6272 26.9959 43.5445 26.854L39.8841 20.173L38.4896 21.6973V26.2919C38.4896 26.5901 38.3702 26.876 38.1577 27.0869C37.9453 27.2978 37.6571 27.4162 37.3566 27.4162C37.2803 27.4162 37.2149 27.4162 37.1387 27.3946H37.1605ZM87.0673 27.3838C86.4547 27.2819 85.8727 27.0457 85.3638 26.6922C84.8549 26.3387 84.432 25.8769 84.1258 25.3405C83.9762 25.0777 83.937 24.7669 84.0169 24.4757C84.1041 24.1946 84.2893 23.9567 84.5398 23.8054C84.7725 23.6793 85.042 23.6372 85.3024 23.6865C85.6293 23.7405 85.9234 23.9351 86.0868 24.227C86.381 24.7243 86.8494 25.0486 87.4268 25.1459C87.7245 25.1973 88.03 25.1811 88.3206 25.0987C88.6111 25.0164 88.8791 24.8699 89.1045 24.6703C89.5403 24.2703 89.7582 23.6973 89.7037 23.1351C89.6916 22.847 89.6114 22.5657 89.4694 22.314C89.3275 22.0624 89.1278 21.8474 88.8867 21.6865L85.8363 19.5351C85.3393 19.1888 84.9254 18.738 84.6241 18.2148C84.3228 17.6915 84.1415 17.1088 84.0932 16.5081C84.0537 15.902 84.1539 15.295 84.3861 14.7331C84.6183 14.1711 84.9763 13.669 85.4332 13.2649C85.8788 12.8537 86.4112 12.5463 86.9917 12.3649C87.5721 12.1835 88.1859 12.1327 88.7886 12.2162C90.0741 12.4324 91.12 13.1676 91.7192 14.2054C91.8636 14.4648 91.9011 14.7695 91.8239 15.0557C91.7467 15.342 91.5608 15.5874 91.3052 15.7405C91.0745 15.8721 90.8043 15.9181 90.5426 15.8703C90.3798 15.843 90.2251 15.7804 90.0896 15.6869C89.954 15.5935 89.8408 15.4715 89.7582 15.3297C89.6215 15.1004 89.4354 14.9039 89.2131 14.7543C88.9908 14.6048 88.738 14.5059 88.4727 14.4649C88.2012 14.4161 87.9221 14.4308 87.6573 14.5077C87.3926 14.5847 87.1495 14.7217 86.9475 14.9081C86.7502 15.0929 86.5962 15.3184 86.4964 15.5687C86.3967 15.819 86.3535 16.0881 86.3701 16.3567C86.3919 16.8865 86.6969 17.4054 87.1545 17.7081L90.2049 19.8162C90.7227 20.176 91.1508 20.6484 91.4567 21.1973C91.7626 21.7463 91.938 22.3573 91.9697 22.9838C92.0202 23.6073 91.9234 24.234 91.687 24.8139C91.4506 25.3938 91.0811 25.911 90.608 26.3243C90.1477 26.7487 89.598 27.0659 88.9987 27.2529C88.3994 27.4399 87.7657 27.492 87.1436 27.4054L87.0564 27.3838H87.0673ZM95.8154 27.4162C95.5538 27.3706 95.3166 27.2351 95.1453 27.0336C94.9741 26.832 94.8796 26.5771 94.8785 26.3135V6.79999C94.8771 6.65194 94.9054 6.50509 94.9618 6.36803C95.0182 6.23097 95.1016 6.10645 95.2071 6.00176C95.3126 5.89707 95.4381 5.8143 95.5762 5.75831C95.7143 5.70232 95.8623 5.67423 96.0115 5.67567L96.2294 5.68648C96.7741 5.79459 97.1445 6.23783 97.1445 6.79999V12.3135H99.2907C99.8691 12.3121 100.442 12.4241 100.977 12.6431C101.511 12.8621 101.997 13.1837 102.406 13.5896C102.815 13.9954 103.139 14.4775 103.36 15.008C103.581 15.5385 103.693 16.1071 103.692 16.6811V26.3027C103.693 26.4659 103.658 26.6274 103.589 26.7756C103.52 26.9238 103.419 27.0552 103.293 27.1604C103.167 27.2656 103.02 27.3421 102.861 27.3844C102.702 27.4268 102.536 27.4339 102.374 27.4054C101.829 27.3081 101.437 26.8432 101.437 26.2919V16.6703C101.437 16.3911 101.381 16.1147 101.273 15.8569C101.165 15.5991 101.007 15.365 100.808 15.1681C100.608 14.9712 100.372 14.8154 100.111 14.7095C99.8509 14.6037 99.572 14.5499 99.2907 14.5513H97.1445V26.3027C97.1458 26.467 97.1103 26.6296 97.0408 26.7787C96.9712 26.9279 96.8693 27.0599 96.7422 27.1653C96.6152 27.2707 96.4662 27.3469 96.3059 27.3884C96.1457 27.4299 95.9782 27.4357 95.8154 27.4054V27.4162ZM111.373 14.454C111.064 14.3984 110.747 14.411 110.443 14.4909C110.14 14.5708 109.858 14.7161 109.618 14.9163C109.378 15.1165 109.185 15.3669 109.053 15.6495C108.921 15.9321 108.854 16.24 108.856 16.5513V23.0486C108.854 23.3278 108.909 23.6045 109.015 23.8628C109.122 24.1212 109.279 24.356 109.477 24.5539C109.676 24.7518 109.912 24.9089 110.172 25.016C110.431 25.1232 110.71 25.1784 110.991 25.1784C111.558 25.1784 112.102 24.9622 112.506 24.5622C112.707 24.3645 112.867 24.1287 112.976 23.8688C113.084 23.6089 113.139 23.33 113.137 23.0486V16.5405C113.137 15.5027 112.397 14.6162 111.362 14.4432L111.373 14.454ZM110.218 27.3405C109.199 27.1623 108.277 26.6329 107.613 25.8457C106.949 25.0586 106.587 24.0642 106.59 23.0378V16.5405C106.59 15.9025 106.731 15.2722 107.002 14.6937C107.273 14.1153 107.669 13.6027 108.161 13.1918C108.653 12.7809 109.229 12.4816 109.85 12.315C110.47 12.1483 111.12 12.1183 111.754 12.227C112.777 12.4031 113.705 12.9326 114.373 13.722C115.041 14.5114 115.406 15.5098 115.403 16.5405V23.0378C115.404 23.6136 115.289 24.1837 115.064 24.7146C114.84 25.2456 114.51 25.7267 114.096 26.1297C113.596 26.6277 112.983 26.9979 112.307 27.2088C111.632 27.4197 110.915 27.4649 110.218 27.3405Z" fill="#333545"/>
<path fill-rule="evenodd" clip-rule="evenodd" d="M132.802 13.5567C132.839 13.4194 132.848 13.2761 132.83 13.1352C132.811 12.9942 132.764 12.8582 132.693 12.7351C132.61 12.6039 132.502 12.4904 132.375 12.4012C132.248 12.3121 132.104 12.2492 131.952 12.2162C131.671 12.1635 131.38 12.2192 131.139 12.3719C130.899 12.5246 130.725 12.7628 130.655 13.0378C130.655 13.0919 129.435 17.9676 128.477 21.6757L128.455 21.7513L128.433 21.6757L126.254 13.0486C126.212 12.838 126.106 12.6453 125.95 12.4964C125.794 12.3476 125.596 12.2497 125.383 12.2162C125.318 12.2036 125.252 12.1963 125.186 12.1946C124.685 12.1946 124.25 12.5405 124.108 13.0378C124.097 13.0919 122.877 17.9676 121.929 21.6757L121.907 21.7513L121.886 21.6757C120.959 17.9676 119.707 13.0919 119.707 13.0378C119.655 12.8309 119.545 12.6432 119.388 12.4974C119.231 12.3516 119.036 12.2539 118.824 12.2162C118.643 12.1844 118.456 12.1978 118.281 12.2552C118.107 12.3127 117.949 12.4124 117.823 12.5453C117.696 12.6782 117.605 12.8403 117.557 13.0168C117.51 13.1934 117.507 13.3789 117.55 13.5567L120.829 26.5621C120.891 26.8005 121.03 27.012 121.225 27.1644C121.419 27.3167 121.659 27.4014 121.907 27.4054C122.441 27.4054 122.866 27.0594 122.975 26.5621L125.154 17.9243L125.186 17.8486L125.208 17.9243C126.167 21.6757 127.387 26.573 127.387 26.573C127.452 26.8067 127.591 27.0136 127.783 27.1634C127.975 27.3132 128.211 27.398 128.455 27.4054C128.706 27.4132 128.952 27.3329 129.149 27.1786C129.346 27.0244 129.482 26.8061 129.533 26.5621L132.802 13.5567Z" fill="#333545"/>
</svg>
