<svg width="40" height="40" viewBox="0 0 40 40" fill="none" xmlns="http://www.w3.org/2000/svg">
<g clip-path="url(#clip0_1_824)">
<path d="M38.5714 30V35.7143C38.5714 36.472 38.2704 37.1988 37.7346 37.7346C37.1988 38.2704 36.472 38.5714 35.7143 38.5714H30" stroke="#FF9752" stroke-width="3" stroke-linecap="round" stroke-linejoin="round"/>
<path d="M30 1.42859H35.7143C36.472 1.42859 37.1988 1.72961 37.7346 2.26543C38.2704 2.80124 38.5714 3.52797 38.5714 4.28573V10" stroke="#FF9752" stroke-width="3" stroke-linecap="round" stroke-linejoin="round"/>
<path d="M1.42871 10V4.28573C1.42871 3.52797 1.72973 2.80124 2.26555 2.26543C2.80137 1.72961 3.52809 1.42859 4.28585 1.42859H10.0001" stroke="#FF9752" stroke-width="3" stroke-linecap="round" stroke-linejoin="round"/>
<path d="M10.0001 38.5714H4.28585C3.52809 38.5714 2.80137 38.2704 2.26555 37.7346C1.72973 37.1988 1.42871 36.472 1.42871 35.7143V30" stroke="#FF9752" stroke-width="3" stroke-linecap="round" stroke-linejoin="round"/>
<path d="M19.9999 18.5714C23.1558 18.5714 25.7142 16.013 25.7142 12.8571C25.7142 9.70119 23.1558 7.14282 19.9999 7.14282C16.844 7.14282 14.2856 9.70119 14.2856 12.8571C14.2856 16.013 16.844 18.5714 19.9999 18.5714Z" stroke="#FF9752" stroke-width="3" stroke-linecap="round" stroke-linejoin="round"/>
<path d="M29.0288 30C28.2163 28.2938 26.937 26.8528 25.3391 25.8438C23.7411 24.8349 21.89 24.2994 20.0003 24.2994C18.1105 24.2994 16.2594 24.8349 14.6614 25.8438C13.0635 26.8528 11.7842 28.2938 10.9717 30" stroke="#FF9752" stroke-width="3" stroke-linecap="round" stroke-linejoin="round"/>
</g>
<defs>
<clipPath id="clip0_1_824">
<rect width="40" height="40" fill="white"/>
</clipPath>
</defs>
</svg>
