<svg width="56" height="56" viewBox="0 0 56 56" fill="none" xmlns="http://www.w3.org/2000/svg">
<path d="M42.6668 20V14.6666C42.6668 14.313 42.5264 13.9739 42.2763 13.7238C42.0263 13.4738 41.6871 13.3333 41.3335 13.3333H14.6668C14.3132 13.3333 13.9741 13.4738 13.724 13.7238C13.474 13.9739 13.3335 14.313 13.3335 14.6666V20H42.6668Z" fill="#2EC5CE"/>
<path d="M13.3335 22.6666V41.3333C13.3335 41.6869 13.474 42.0261 13.724 42.2761C13.9741 42.5262 14.3132 42.6666 14.6668 42.6666H21.3335V22.6666H13.3335Z" fill="#D6B1FF"/>
<path d="M24 42.6666H41.3333C41.687 42.6666 42.0261 42.5262 42.2761 42.2761C42.5262 42.0261 42.6667 41.6869 42.6667 41.3333V22.6666H24V42.6666Z" fill="#8C30F5"/>
</svg>
