<svg width="284" height="176" viewBox="0 0 284 176" fill="none" xmlns="http://www.w3.org/2000/svg">
<g clip-path="url(#clip0_1_835)">
<path d="M4.28606 38.5714L35.7146 38.5714C37.2926 38.5714 38.5718 37.2922 38.5718 35.7143L38.5718 4.2857C38.5718 2.70774 37.2926 1.42855 35.7146 1.42855L4.28606 1.42855C2.7081 1.42855 1.42892 2.70774 1.42892 4.2857L1.42892 35.7143C1.42892 37.2922 2.7081 38.5714 4.28606 38.5714Z" stroke="#45C491" stroke-width="3" stroke-linecap="round" stroke-linejoin="round"/>
<path d="M8.57178 8.57141H14.2861" stroke="#45C491" stroke-width="3" stroke-linecap="round" stroke-linejoin="round"/>
<path d="M8.57178 15.7144H21.4289" stroke="#45C491" stroke-width="3" stroke-linecap="round" stroke-linejoin="round"/>
<path d="M32.8575 15.7144L24.2861 30.0001L14.2861 24.2858L8.57178 32.8572" stroke="#45C491" stroke-width="3" stroke-linecap="round" stroke-linejoin="round"/>
</g>
<path d="M10.89 75.09C10.542 74.358 10.038 73.794 9.378 73.398C8.718 72.99 7.95 72.786 7.074 72.786C6.198 72.786 5.406 72.99 4.698 73.398C4.002 73.794 3.45 74.37 3.042 75.126C2.646 75.87 2.448 76.734 2.448 77.718C2.448 78.702 2.646 79.566 3.042 80.31C3.45 81.054 4.002 81.63 4.698 82.038C5.406 82.434 6.198 82.632 7.074 82.632C8.298 82.632 9.306 82.266 10.098 81.534C10.89 80.802 11.352 79.812 11.484 78.564H6.48V77.232H13.23V78.492C13.134 79.524 12.81 80.472 12.258 81.336C11.706 82.188 10.98 82.866 10.08 83.37C9.18 83.862 8.178 84.108 7.074 84.108C5.91 84.108 4.848 83.838 3.888 83.298C2.928 82.746 2.166 81.984 1.602 81.012C1.05 80.04 0.774 78.942 0.774 77.718C0.774 76.494 1.05 75.396 1.602 74.424C2.166 73.44 2.928 72.678 3.888 72.138C4.848 71.586 5.91 71.31 7.074 71.31C8.406 71.31 9.582 71.64 10.602 72.3C11.634 72.96 12.384 73.89 12.852 75.09H10.89ZM24.3958 78.69C24.3958 79.002 24.3778 79.332 24.3418 79.68H16.4578C16.5178 80.652 16.8478 81.414 17.4478 81.966C18.0598 82.506 18.7978 82.776 19.6618 82.776C20.3698 82.776 20.9578 82.614 21.4258 82.29C21.9058 81.954 22.2418 81.51 22.4338 80.958H24.1978C23.9338 81.906 23.4058 82.68 22.6138 83.28C21.8218 83.868 20.8378 84.162 19.6618 84.162C18.7258 84.162 17.8858 83.952 17.1418 83.532C16.4098 83.112 15.8338 82.518 15.4138 81.75C14.9938 80.97 14.7838 80.07 14.7838 79.05C14.7838 78.03 14.9878 77.136 15.3958 76.368C15.8038 75.6 16.3738 75.012 17.1058 74.604C17.8498 74.184 18.7018 73.974 19.6618 73.974C20.5978 73.974 21.4258 74.178 22.1458 74.586C22.8658 74.994 23.4178 75.558 23.8018 76.278C24.1978 76.986 24.3958 77.79 24.3958 78.69ZM22.7038 78.348C22.7038 77.724 22.5658 77.19 22.2898 76.746C22.0138 76.29 21.6358 75.948 21.1558 75.72C20.6878 75.48 20.1658 75.36 19.5898 75.36C18.7618 75.36 18.0538 75.624 17.4658 76.152C16.8898 76.68 16.5598 77.412 16.4758 78.348H22.7038ZM28.5559 75.486V81.3C28.5559 81.78 28.6579 82.122 28.8619 82.326C29.0659 82.518 29.4199 82.614 29.9239 82.614H31.1299V84H29.6539C28.7419 84 28.0579 83.79 27.6019 83.37C27.1459 82.95 26.9179 82.26 26.9179 81.3V75.486H25.6399V74.136H26.9179V71.652H28.5559V74.136H31.1299V75.486H28.5559ZM42.2153 84.162C41.2913 84.162 40.4513 83.952 39.6953 83.532C38.9513 83.112 38.3633 82.518 37.9313 81.75C37.5113 80.97 37.3013 80.07 37.3013 79.05C37.3013 78.042 37.5173 77.154 37.9493 76.386C38.3933 75.606 38.9933 75.012 39.7493 74.604C40.5053 74.184 41.3513 73.974 42.2873 73.974C43.2233 73.974 44.0693 74.184 44.8253 74.604C45.5813 75.012 46.1753 75.6 46.6073 76.368C47.0513 77.136 47.2733 78.03 47.2733 79.05C47.2733 80.07 47.0453 80.97 46.5893 81.75C46.1453 82.518 45.5393 83.112 44.7713 83.532C44.0033 83.952 43.1513 84.162 42.2153 84.162ZM42.2153 82.722C42.8033 82.722 43.3553 82.584 43.8713 82.308C44.3873 82.032 44.8013 81.618 45.1133 81.066C45.4373 80.514 45.5993 79.842 45.5993 79.05C45.5993 78.258 45.4433 77.586 45.1313 77.034C44.8193 76.482 44.4113 76.074 43.9073 75.81C43.4033 75.534 42.8573 75.396 42.2693 75.396C41.6693 75.396 41.1173 75.534 40.6133 75.81C40.1213 76.074 39.7253 76.482 39.4253 77.034C39.1253 77.586 38.9753 78.258 38.9753 79.05C38.9753 79.854 39.1193 80.532 39.4073 81.084C39.7073 81.636 40.1033 82.05 40.5953 82.326C41.0873 82.59 41.6273 82.722 42.2153 82.722ZM54.233 73.956C55.433 73.956 56.405 74.322 57.149 75.054C57.893 75.774 58.265 76.818 58.265 78.186V84H56.645V78.42C56.645 77.436 56.399 76.686 55.907 76.17C55.415 75.642 54.743 75.378 53.891 75.378C53.027 75.378 52.337 75.648 51.821 76.188C51.317 76.728 51.065 77.514 51.065 78.546V84H49.427V74.136H51.065V75.54C51.389 75.036 51.827 74.646 52.379 74.37C52.943 74.094 53.561 73.956 54.233 73.956ZM69.9407 78.69C69.9407 79.002 69.9227 79.332 69.8867 79.68H62.0027C62.0627 80.652 62.3927 81.414 62.9927 81.966C63.6047 82.506 64.3427 82.776 65.2067 82.776C65.9147 82.776 66.5027 82.614 66.9707 82.29C67.4507 81.954 67.7867 81.51 67.9787 80.958H69.7427C69.4787 81.906 68.9507 82.68 68.1587 83.28C67.3667 83.868 66.3827 84.162 65.2067 84.162C64.2707 84.162 63.4307 83.952 62.6867 83.532C61.9547 83.112 61.3787 82.518 60.9587 81.75C60.5387 80.97 60.3287 80.07 60.3287 79.05C60.3287 78.03 60.5327 77.136 60.9407 76.368C61.3487 75.6 61.9187 75.012 62.6507 74.604C63.3947 74.184 64.2467 73.974 65.2067 73.974C66.1427 73.974 66.9707 74.178 67.6907 74.586C68.4107 74.994 68.9627 75.558 69.3467 76.278C69.7427 76.986 69.9407 77.79 69.9407 78.69ZM68.2487 78.348C68.2487 77.724 68.1107 77.19 67.8347 76.746C67.5587 76.29 67.1807 75.948 66.7007 75.72C66.2327 75.48 65.7107 75.36 65.1347 75.36C64.3067 75.36 63.5987 75.624 63.0107 76.152C62.4347 76.68 62.1047 77.412 62.0207 78.348H68.2487ZM80.3936 84.162C79.6376 84.162 78.9596 84.036 78.3596 83.784C77.7596 83.52 77.2856 83.16 76.9376 82.704C76.5896 82.236 76.3976 81.702 76.3616 81.102H78.0536C78.1016 81.594 78.3296 81.996 78.7376 82.308C79.1576 82.62 79.7036 82.776 80.3756 82.776C80.9996 82.776 81.4916 82.638 81.8516 82.362C82.2116 82.086 82.3916 81.738 82.3916 81.318C82.3916 80.886 82.1996 80.568 81.8156 80.364C81.4316 80.148 80.8376 79.938 80.0336 79.734C79.3016 79.542 78.7016 79.35 78.2336 79.158C77.7776 78.954 77.3816 78.66 77.0456 78.276C76.7216 77.88 76.5596 77.364 76.5596 76.728C76.5596 76.224 76.7096 75.762 77.0096 75.342C77.3096 74.922 77.7356 74.592 78.2876 74.352C78.8396 74.1 79.4696 73.974 80.1776 73.974C81.2696 73.974 82.1516 74.25 82.8236 74.802C83.4956 75.354 83.8556 76.11 83.9036 77.07H82.2656C82.2296 76.554 82.0196 76.14 81.6356 75.828C81.2636 75.516 80.7596 75.36 80.1236 75.36C79.5356 75.36 79.0676 75.486 78.7196 75.738C78.3716 75.99 78.1976 76.32 78.1976 76.728C78.1976 77.052 78.2996 77.322 78.5036 77.538C78.7196 77.742 78.9836 77.91 79.2956 78.042C79.6196 78.162 80.0636 78.3 80.6276 78.456C81.3356 78.648 81.9116 78.84 82.3556 79.032C82.7996 79.212 83.1776 79.488 83.4896 79.86C83.8136 80.232 83.9816 80.718 83.9936 81.318C83.9936 81.858 83.8436 82.344 83.5436 82.776C83.2436 83.208 82.8176 83.55 82.2656 83.802C81.7256 84.042 81.1016 84.162 80.3936 84.162ZM88.3039 75.486V81.3C88.3039 81.78 88.4059 82.122 88.6099 82.326C88.8139 82.518 89.1679 82.614 89.6719 82.614H90.8779V84H89.4019C88.4899 84 87.8059 83.79 87.3499 83.37C86.8939 82.95 86.6659 82.26 86.6659 81.3V75.486H85.3879V74.136H86.6659V71.652H88.3039V74.136H90.8779V75.486H88.3039ZM101.863 78.69C101.863 79.002 101.845 79.332 101.809 79.68H93.9246C93.9846 80.652 94.3146 81.414 94.9146 81.966C95.5266 82.506 96.2646 82.776 97.1286 82.776C97.8366 82.776 98.4246 82.614 98.8926 82.29C99.3726 81.954 99.7086 81.51 99.9006 80.958H101.665C101.401 81.906 100.873 82.68 100.081 83.28C99.2886 83.868 98.3046 84.162 97.1286 84.162C96.1926 84.162 95.3526 83.952 94.6086 83.532C93.8766 83.112 93.3006 82.518 92.8806 81.75C92.4606 80.97 92.2506 80.07 92.2506 79.05C92.2506 78.03 92.4546 77.136 92.8626 76.368C93.2706 75.6 93.8406 75.012 94.5726 74.604C95.3166 74.184 96.1686 73.974 97.1286 73.974C98.0646 73.974 98.8926 74.178 99.6126 74.586C100.333 74.994 100.885 75.558 101.269 76.278C101.665 76.986 101.863 77.79 101.863 78.69ZM100.171 78.348C100.171 77.724 100.033 77.19 99.7566 76.746C99.4806 76.29 99.1026 75.948 98.6226 75.72C98.1546 75.48 97.6326 75.36 97.0566 75.36C96.2286 75.36 95.5206 75.624 94.9326 76.152C94.3566 76.68 94.0266 77.412 93.9426 78.348H100.171ZM105.663 75.954C105.987 75.39 106.467 74.922 107.103 74.55C107.751 74.166 108.501 73.974 109.353 73.974C110.229 73.974 111.021 74.184 111.729 74.604C112.449 75.024 113.013 75.618 113.421 76.386C113.829 77.142 114.033 78.024 114.033 79.032C114.033 80.028 113.829 80.916 113.421 81.696C113.013 82.476 112.449 83.082 111.729 83.514C111.021 83.946 110.229 84.162 109.353 84.162C108.513 84.162 107.769 83.976 107.121 83.604C106.485 83.22 105.999 82.746 105.663 82.182V88.68H104.025V74.136H105.663V75.954ZM112.359 79.032C112.359 78.288 112.209 77.64 111.909 77.088C111.609 76.536 111.201 76.116 110.685 75.828C110.181 75.54 109.623 75.396 109.011 75.396C108.411 75.396 107.853 75.546 107.337 75.846C106.833 76.134 106.425 76.56 106.113 77.124C105.813 77.676 105.663 78.318 105.663 79.05C105.663 79.794 105.813 80.448 106.113 81.012C106.425 81.564 106.833 81.99 107.337 82.29C107.853 82.578 108.411 82.722 109.011 82.722C109.623 82.722 110.181 82.578 110.685 82.29C111.201 81.99 111.609 81.564 111.909 81.012C112.209 80.448 112.359 79.788 112.359 79.032ZM120.376 79.05C120.376 78.03 120.58 77.142 120.988 76.386C121.396 75.618 121.96 75.024 122.68 74.604C123.412 74.184 124.246 73.974 125.182 73.974C126.394 73.974 127.39 74.268 128.17 74.856C128.962 75.444 129.484 76.26 129.736 77.304H127.972C127.804 76.704 127.474 76.23 126.982 75.882C126.502 75.534 125.902 75.36 125.182 75.36C124.246 75.36 123.49 75.684 122.914 76.332C122.338 76.968 122.05 77.874 122.05 79.05C122.05 80.238 122.338 81.156 122.914 81.804C123.49 82.452 124.246 82.776 125.182 82.776C125.902 82.776 126.502 82.608 126.982 82.272C127.462 81.936 127.792 81.456 127.972 80.832H129.736C129.472 81.84 128.944 82.65 128.152 83.262C127.36 83.862 126.37 84.162 125.182 84.162C124.246 84.162 123.412 83.952 122.68 83.532C121.96 83.112 121.396 82.518 120.988 81.75C120.58 80.982 120.376 80.082 120.376 79.05ZM133.559 70.68V84H131.921V70.68H133.559ZM140.653 84.162C139.729 84.162 138.889 83.952 138.133 83.532C137.389 83.112 136.801 82.518 136.369 81.75C135.949 80.97 135.739 80.07 135.739 79.05C135.739 78.042 135.955 77.154 136.387 76.386C136.831 75.606 137.431 75.012 138.187 74.604C138.943 74.184 139.789 73.974 140.725 73.974C141.661 73.974 142.507 74.184 143.263 74.604C144.019 75.012 144.613 75.6 145.045 76.368C145.489 77.136 145.711 78.03 145.711 79.05C145.711 80.07 145.483 80.97 145.027 81.75C144.583 82.518 143.977 83.112 143.209 83.532C142.441 83.952 141.589 84.162 140.653 84.162ZM140.653 82.722C141.241 82.722 141.793 82.584 142.309 82.308C142.825 82.032 143.239 81.618 143.551 81.066C143.875 80.514 144.037 79.842 144.037 79.05C144.037 78.258 143.881 77.586 143.569 77.034C143.257 76.482 142.849 76.074 142.345 75.81C141.841 75.534 141.295 75.396 140.707 75.396C140.107 75.396 139.555 75.534 139.051 75.81C138.559 76.074 138.163 76.482 137.863 77.034C137.563 77.586 137.413 78.258 137.413 79.05C137.413 79.854 137.557 80.532 137.845 81.084C138.145 81.636 138.541 82.05 139.033 82.326C139.525 82.59 140.065 82.722 140.653 82.722ZM151.357 84.162C150.601 84.162 149.923 84.036 149.323 83.784C148.723 83.52 148.249 83.16 147.901 82.704C147.553 82.236 147.361 81.702 147.325 81.102H149.017C149.065 81.594 149.293 81.996 149.701 82.308C150.121 82.62 150.667 82.776 151.339 82.776C151.963 82.776 152.455 82.638 152.815 82.362C153.175 82.086 153.355 81.738 153.355 81.318C153.355 80.886 153.163 80.568 152.779 80.364C152.395 80.148 151.801 79.938 150.997 79.734C150.265 79.542 149.665 79.35 149.197 79.158C148.741 78.954 148.345 78.66 148.009 78.276C147.685 77.88 147.523 77.364 147.523 76.728C147.523 76.224 147.673 75.762 147.973 75.342C148.273 74.922 148.699 74.592 149.251 74.352C149.803 74.1 150.433 73.974 151.141 73.974C152.233 73.974 153.115 74.25 153.787 74.802C154.459 75.354 154.819 76.11 154.867 77.07H153.229C153.193 76.554 152.983 76.14 152.599 75.828C152.227 75.516 151.723 75.36 151.087 75.36C150.499 75.36 150.031 75.486 149.683 75.738C149.335 75.99 149.161 76.32 149.161 76.728C149.161 77.052 149.263 77.322 149.467 77.538C149.683 77.742 149.947 77.91 150.259 78.042C150.583 78.162 151.027 78.3 151.591 78.456C152.299 78.648 152.875 78.84 153.319 79.032C153.763 79.212 154.141 79.488 154.453 79.86C154.777 80.232 154.945 80.718 154.957 81.318C154.957 81.858 154.807 82.344 154.507 82.776C154.207 83.208 153.781 83.55 153.229 83.802C152.689 84.042 152.065 84.162 151.357 84.162ZM166.269 78.69C166.269 79.002 166.251 79.332 166.215 79.68H158.331C158.391 80.652 158.721 81.414 159.321 81.966C159.933 82.506 160.671 82.776 161.535 82.776C162.243 82.776 162.831 82.614 163.299 82.29C163.779 81.954 164.115 81.51 164.307 80.958H166.071C165.807 81.906 165.279 82.68 164.487 83.28C163.695 83.868 162.711 84.162 161.535 84.162C160.599 84.162 159.759 83.952 159.015 83.532C158.283 83.112 157.707 82.518 157.287 81.75C156.867 80.97 156.657 80.07 156.657 79.05C156.657 78.03 156.861 77.136 157.269 76.368C157.677 75.6 158.247 75.012 158.979 74.604C159.723 74.184 160.575 73.974 161.535 73.974C162.471 73.974 163.299 74.178 164.019 74.586C164.739 74.994 165.291 75.558 165.675 76.278C166.071 76.986 166.269 77.79 166.269 78.69ZM164.577 78.348C164.577 77.724 164.439 77.19 164.163 76.746C163.887 76.29 163.509 75.948 163.029 75.72C162.561 75.48 162.039 75.36 161.463 75.36C160.635 75.36 159.927 75.624 159.339 76.152C158.763 76.68 158.433 77.412 158.349 78.348H164.577ZM170.069 75.738C170.357 75.174 170.765 74.736 171.293 74.424C171.833 74.112 172.487 73.956 173.255 73.956V75.648H172.823C170.987 75.648 170.069 76.644 170.069 78.636V84H168.431V74.136H170.069V75.738ZM181.943 75.486V81.3C181.943 81.78 182.045 82.122 182.249 82.326C182.453 82.518 182.807 82.614 183.311 82.614H184.517V84H183.041C182.129 84 181.445 83.79 180.989 83.37C180.533 82.95 180.305 82.26 180.305 81.3V75.486H179.027V74.136H180.305V71.652H181.943V74.136H184.517V75.486H181.943ZM190.803 84.162C189.879 84.162 189.039 83.952 188.283 83.532C187.539 83.112 186.951 82.518 186.519 81.75C186.099 80.97 185.889 80.07 185.889 79.05C185.889 78.042 186.105 77.154 186.537 76.386C186.981 75.606 187.581 75.012 188.337 74.604C189.093 74.184 189.939 73.974 190.875 73.974C191.811 73.974 192.657 74.184 193.413 74.604C194.169 75.012 194.763 75.6 195.195 76.368C195.639 77.136 195.861 78.03 195.861 79.05C195.861 80.07 195.633 80.97 195.177 81.75C194.733 82.518 194.127 83.112 193.359 83.532C192.591 83.952 191.739 84.162 190.803 84.162ZM190.803 82.722C191.391 82.722 191.943 82.584 192.459 82.308C192.975 82.032 193.389 81.618 193.701 81.066C194.025 80.514 194.187 79.842 194.187 79.05C194.187 78.258 194.031 77.586 193.719 77.034C193.407 76.482 192.999 76.074 192.495 75.81C191.991 75.534 191.445 75.396 190.857 75.396C190.257 75.396 189.705 75.534 189.201 75.81C188.709 76.074 188.313 76.482 188.013 77.034C187.713 77.586 187.563 78.258 187.563 79.05C187.563 79.854 187.707 80.532 187.995 81.084C188.295 81.636 188.691 82.05 189.183 82.326C189.675 82.59 190.215 82.722 190.803 82.722ZM206.306 84.162C205.55 84.162 204.872 84.036 204.272 83.784C203.672 83.52 203.198 83.16 202.85 82.704C202.502 82.236 202.31 81.702 202.274 81.102H203.966C204.014 81.594 204.242 81.996 204.65 82.308C205.07 82.62 205.616 82.776 206.288 82.776C206.912 82.776 207.404 82.638 207.764 82.362C208.124 82.086 208.304 81.738 208.304 81.318C208.304 80.886 208.112 80.568 207.728 80.364C207.344 80.148 206.75 79.938 205.946 79.734C205.214 79.542 204.614 79.35 204.146 79.158C203.69 78.954 203.294 78.66 202.958 78.276C202.634 77.88 202.472 77.364 202.472 76.728C202.472 76.224 202.622 75.762 202.922 75.342C203.222 74.922 203.648 74.592 204.2 74.352C204.752 74.1 205.382 73.974 206.09 73.974C207.182 73.974 208.064 74.25 208.736 74.802C209.408 75.354 209.768 76.11 209.816 77.07H208.178C208.142 76.554 207.932 76.14 207.548 75.828C207.176 75.516 206.672 75.36 206.036 75.36C205.448 75.36 204.98 75.486 204.632 75.738C204.284 75.99 204.11 76.32 204.11 76.728C204.11 77.052 204.212 77.322 204.416 77.538C204.632 77.742 204.896 77.91 205.208 78.042C205.532 78.162 205.976 78.3 206.54 78.456C207.248 78.648 207.824 78.84 208.268 79.032C208.712 79.212 209.09 79.488 209.402 79.86C209.726 80.232 209.894 80.718 209.906 81.318C209.906 81.858 209.756 82.344 209.456 82.776C209.156 83.208 208.73 83.55 208.178 83.802C207.638 84.042 207.014 84.162 206.306 84.162ZM221.218 78.69C221.218 79.002 221.2 79.332 221.164 79.68H213.28C213.34 80.652 213.67 81.414 214.27 81.966C214.882 82.506 215.62 82.776 216.484 82.776C217.192 82.776 217.78 82.614 218.248 82.29C218.728 81.954 219.064 81.51 219.256 80.958H221.02C220.756 81.906 220.228 82.68 219.436 83.28C218.644 83.868 217.66 84.162 216.484 84.162C215.548 84.162 214.708 83.952 213.964 83.532C213.232 83.112 212.656 82.518 212.236 81.75C211.816 80.97 211.606 80.07 211.606 79.05C211.606 78.03 211.81 77.136 212.218 76.368C212.626 75.6 213.196 75.012 213.928 74.604C214.672 74.184 215.524 73.974 216.484 73.974C217.42 73.974 218.248 74.178 218.968 74.586C219.688 74.994 220.24 75.558 220.624 76.278C221.02 76.986 221.218 77.79 221.218 78.69ZM219.526 78.348C219.526 77.724 219.388 77.19 219.112 76.746C218.836 76.29 218.458 75.948 217.978 75.72C217.51 75.48 216.988 75.36 216.412 75.36C215.584 75.36 214.876 75.624 214.288 76.152C213.712 76.68 213.382 77.412 213.298 78.348H219.526ZM225.018 70.68V84H223.38V70.68H225.018ZM231.824 75.486H229.754V84H228.116V75.486H226.838V74.136H228.116V73.434C228.116 72.33 228.398 71.526 228.962 71.022C229.538 70.506 230.456 70.248 231.716 70.248V71.616C230.996 71.616 230.486 71.76 230.186 72.048C229.898 72.324 229.754 72.786 229.754 73.434V74.136H231.824V75.486ZM240.574 76.71V78.096H233.392V76.71H240.574ZM2.232 100.534C1.92 100.534 1.656 100.426 1.44 100.21C1.224 99.994 1.116 99.73 1.116 99.418C1.116 99.106 1.224 98.842 1.44 98.626C1.656 98.41 1.92 98.302 2.232 98.302C2.532 98.302 2.784 98.41 2.988 98.626C3.204 98.842 3.312 99.106 3.312 99.418C3.312 99.73 3.204 99.994 2.988 100.21C2.784 100.426 2.532 100.534 2.232 100.534ZM3.024 102.136V112H1.386V102.136H3.024ZM17.6777 101.956C18.4457 101.956 19.1297 102.118 19.7297 102.442C20.3297 102.754 20.8037 103.228 21.1517 103.864C21.4997 104.5 21.6737 105.274 21.6737 106.186V112H20.0537V106.42C20.0537 105.436 19.8077 104.686 19.3157 104.17C18.8357 103.642 18.1817 103.378 17.3537 103.378C16.5017 103.378 15.8237 103.654 15.3197 104.206C14.8157 104.746 14.5637 105.532 14.5637 106.564V112H12.9437V106.42C12.9437 105.436 12.6977 104.686 12.2057 104.17C11.7257 103.642 11.0717 103.378 10.2437 103.378C9.39169 103.378 8.71369 103.654 8.20969 104.206C7.70569 104.746 7.45369 105.532 7.45369 106.564V112H5.81569V102.136H7.45369V103.558C7.77769 103.042 8.20969 102.646 8.74969 102.37C9.30169 102.094 9.90769 101.956 10.5677 101.956C11.3957 101.956 12.1277 102.142 12.7637 102.514C13.3997 102.886 13.8737 103.432 14.1857 104.152C14.4617 103.456 14.9177 102.916 15.5537 102.532C16.1897 102.148 16.8977 101.956 17.6777 101.956ZM25.9986 103.954C26.3226 103.39 26.8026 102.922 27.4386 102.55C28.0866 102.166 28.8366 101.974 29.6886 101.974C30.5646 101.974 31.3566 102.184 32.0646 102.604C32.7846 103.024 33.3486 103.618 33.7566 104.386C34.1646 105.142 34.3686 106.024 34.3686 107.032C34.3686 108.028 34.1646 108.916 33.7566 109.696C33.3486 110.476 32.7846 111.082 32.0646 111.514C31.3566 111.946 30.5646 112.162 29.6886 112.162C28.8486 112.162 28.1046 111.976 27.4566 111.604C26.8206 111.22 26.3346 110.746 25.9986 110.182V116.68H24.3606V102.136H25.9986V103.954ZM32.6946 107.032C32.6946 106.288 32.5446 105.64 32.2446 105.088C31.9446 104.536 31.5366 104.116 31.0206 103.828C30.5166 103.54 29.9586 103.396 29.3466 103.396C28.7466 103.396 28.1886 103.546 27.6726 103.846C27.1686 104.134 26.7606 104.56 26.4486 105.124C26.1486 105.676 25.9986 106.318 25.9986 107.05C25.9986 107.794 26.1486 108.448 26.4486 109.012C26.7606 109.564 27.1686 109.99 27.6726 110.29C28.1886 110.578 28.7466 110.722 29.3466 110.722C29.9586 110.722 30.5166 110.578 31.0206 110.29C31.5366 109.99 31.9446 109.564 32.2446 109.012C32.5446 108.448 32.6946 107.788 32.6946 107.032ZM38.1627 103.738C38.4507 103.174 38.8587 102.736 39.3867 102.424C39.9267 102.112 40.5807 101.956 41.3487 101.956V103.648H40.9167C39.0807 103.648 38.1627 104.644 38.1627 106.636V112H36.5247V102.136H38.1627V103.738ZM47.5415 112.162C46.6175 112.162 45.7775 111.952 45.0215 111.532C44.2775 111.112 43.6895 110.518 43.2575 109.75C42.8375 108.97 42.6275 108.07 42.6275 107.05C42.6275 106.042 42.8435 105.154 43.2755 104.386C43.7195 103.606 44.3195 103.012 45.0755 102.604C45.8315 102.184 46.6775 101.974 47.6135 101.974C48.5495 101.974 49.3955 102.184 50.1515 102.604C50.9075 103.012 51.5015 103.6 51.9335 104.368C52.3775 105.136 52.5995 106.03 52.5995 107.05C52.5995 108.07 52.3715 108.97 51.9155 109.75C51.4715 110.518 50.8655 111.112 50.0975 111.532C49.3295 111.952 48.4775 112.162 47.5415 112.162ZM47.5415 110.722C48.1295 110.722 48.6815 110.584 49.1975 110.308C49.7135 110.032 50.1275 109.618 50.4395 109.066C50.7635 108.514 50.9255 107.842 50.9255 107.05C50.9255 106.258 50.7695 105.586 50.4575 105.034C50.1455 104.482 49.7375 104.074 49.2335 103.81C48.7295 103.534 48.1835 103.396 47.5955 103.396C46.9955 103.396 46.4435 103.534 45.9395 103.81C45.4475 104.074 45.0515 104.482 44.7515 105.034C44.4515 105.586 44.3015 106.258 44.3015 107.05C44.3015 107.854 44.4455 108.532 44.7335 109.084C45.0335 109.636 45.4295 110.05 45.9215 110.326C46.4135 110.59 46.9535 110.722 47.5415 110.722ZM58.4252 110.488L61.4852 102.136H63.2312L59.3612 112H57.4532L53.5832 102.136H55.3472L58.4252 110.488ZM73.843 106.69C73.843 107.002 73.825 107.332 73.789 107.68H65.905C65.965 108.652 66.295 109.414 66.895 109.966C67.507 110.506 68.245 110.776 69.109 110.776C69.817 110.776 70.405 110.614 70.873 110.29C71.353 109.954 71.689 109.51 71.881 108.958H73.645C73.381 109.906 72.853 110.68 72.061 111.28C71.269 111.868 70.285 112.162 69.109 112.162C68.173 112.162 67.333 111.952 66.589 111.532C65.857 111.112 65.281 110.518 64.861 109.75C64.441 108.97 64.231 108.07 64.231 107.05C64.231 106.03 64.435 105.136 64.843 104.368C65.251 103.6 65.821 103.012 66.553 102.604C67.297 102.184 68.149 101.974 69.109 101.974C70.045 101.974 70.873 102.178 71.593 102.586C72.313 102.994 72.865 103.558 73.249 104.278C73.645 104.986 73.843 105.79 73.843 106.69ZM72.151 106.348C72.151 105.724 72.013 105.19 71.737 104.746C71.461 104.29 71.083 103.948 70.603 103.72C70.135 103.48 69.613 103.36 69.037 103.36C68.209 103.36 67.501 103.624 66.913 104.152C66.337 104.68 66.007 105.412 65.923 106.348H72.151ZM87.8671 101.956C88.6351 101.956 89.3191 102.118 89.9191 102.442C90.5191 102.754 90.9931 103.228 91.3411 103.864C91.6891 104.5 91.8631 105.274 91.8631 106.186V112H90.2431V106.42C90.2431 105.436 89.9971 104.686 89.5051 104.17C89.0251 103.642 88.3711 103.378 87.5431 103.378C86.6911 103.378 86.0131 103.654 85.5091 104.206C85.0051 104.746 84.7531 105.532 84.7531 106.564V112H83.1331V106.42C83.1331 105.436 82.8871 104.686 82.3951 104.17C81.9151 103.642 81.2611 103.378 80.4331 103.378C79.5811 103.378 78.9031 103.654 78.3991 104.206C77.8951 104.746 77.6431 105.532 77.6431 106.564V112H76.0051V102.136H77.6431V103.558C77.9671 103.042 78.3991 102.646 78.9391 102.37C79.4911 102.094 80.0971 101.956 80.7571 101.956C81.5851 101.956 82.3171 102.142 82.9531 102.514C83.5891 102.886 84.0631 103.432 84.3751 104.152C84.6511 103.456 85.1071 102.916 85.7431 102.532C86.3791 102.148 87.0871 101.956 87.8671 101.956ZM103.55 106.69C103.55 107.002 103.532 107.332 103.496 107.68H95.6121C95.6721 108.652 96.0021 109.414 96.6021 109.966C97.2141 110.506 97.9521 110.776 98.8161 110.776C99.5241 110.776 100.112 110.614 100.58 110.29C101.06 109.954 101.396 109.51 101.588 108.958H103.352C103.088 109.906 102.56 110.68 101.768 111.28C100.976 111.868 99.9921 112.162 98.8161 112.162C97.8801 112.162 97.0401 111.952 96.2961 111.532C95.5641 111.112 94.9881 110.518 94.5681 109.75C94.1481 108.97 93.9381 108.07 93.9381 107.05C93.9381 106.03 94.1421 105.136 94.5501 104.368C94.9581 103.6 95.5281 103.012 96.2601 102.604C97.0041 102.184 97.8561 101.974 98.8161 101.974C99.7521 101.974 100.58 102.178 101.3 102.586C102.02 102.994 102.572 103.558 102.956 104.278C103.352 104.986 103.55 105.79 103.55 106.69ZM101.858 106.348C101.858 105.724 101.72 105.19 101.444 104.746C101.168 104.29 100.79 103.948 100.31 103.72C99.8421 103.48 99.3201 103.36 98.7441 103.36C97.9161 103.36 97.2081 103.624 96.6201 104.152C96.0441 104.68 95.7141 105.412 95.6301 106.348H101.858ZM110.518 101.956C111.718 101.956 112.69 102.322 113.434 103.054C114.178 103.774 114.55 104.818 114.55 106.186V112H112.93V106.42C112.93 105.436 112.684 104.686 112.192 104.17C111.7 103.642 111.028 103.378 110.176 103.378C109.312 103.378 108.622 103.648 108.106 104.188C107.602 104.728 107.35 105.514 107.35 106.546V112H105.712V102.136H107.35V103.54C107.674 103.036 108.112 102.646 108.664 102.37C109.228 102.094 109.846 101.956 110.518 101.956ZM119.224 103.486V109.3C119.224 109.78 119.326 110.122 119.53 110.326C119.734 110.518 120.088 110.614 120.592 110.614H121.798V112H120.322C119.41 112 118.726 111.79 118.27 111.37C117.814 110.95 117.586 110.26 117.586 109.3V103.486H116.308V102.136H117.586V99.652H119.224V102.136H121.798V103.486H119.224ZM127.969 107.032C127.969 106.024 128.173 105.142 128.581 104.386C128.989 103.618 129.547 103.024 130.255 102.604C130.975 102.184 131.773 101.974 132.649 101.974C133.513 101.974 134.263 102.16 134.899 102.532C135.535 102.904 136.009 103.372 136.321 103.936V102.136H137.977V112H136.321V110.164C135.997 110.74 135.511 111.22 134.863 111.604C134.227 111.976 133.483 112.162 132.631 112.162C131.755 112.162 130.963 111.946 130.255 111.514C129.547 111.082 128.989 110.476 128.581 109.696C128.173 108.916 127.969 108.028 127.969 107.032ZM136.321 107.05C136.321 106.306 136.171 105.658 135.871 105.106C135.571 104.554 135.163 104.134 134.647 103.846C134.143 103.546 133.585 103.396 132.973 103.396C132.361 103.396 131.803 103.54 131.299 103.828C130.795 104.116 130.393 104.536 130.093 105.088C129.793 105.64 129.643 106.288 129.643 107.032C129.643 107.788 129.793 108.448 130.093 109.012C130.393 109.564 130.795 109.99 131.299 110.29C131.803 110.578 132.361 110.722 132.973 110.722C133.585 110.722 134.143 110.578 134.647 110.29C135.163 109.99 135.571 109.564 135.871 109.012C136.171 108.448 136.321 107.794 136.321 107.05ZM145.551 101.956C146.751 101.956 147.723 102.322 148.467 103.054C149.211 103.774 149.583 104.818 149.583 106.186V112H147.963V106.42C147.963 105.436 147.717 104.686 147.225 104.17C146.733 103.642 146.061 103.378 145.209 103.378C144.345 103.378 143.655 103.648 143.139 104.188C142.635 104.728 142.383 105.514 142.383 106.546V112H140.745V102.136H142.383V103.54C142.707 103.036 143.145 102.646 143.697 102.37C144.261 102.094 144.879 101.956 145.551 101.956ZM151.647 107.032C151.647 106.024 151.851 105.142 152.259 104.386C152.667 103.618 153.225 103.024 153.933 102.604C154.653 102.184 155.457 101.974 156.345 101.974C157.113 101.974 157.827 102.154 158.487 102.514C159.147 102.862 159.651 103.324 159.999 103.9V98.68H161.655V112H159.999V110.146C159.675 110.734 159.195 111.22 158.559 111.604C157.923 111.976 157.179 112.162 156.327 112.162C155.451 112.162 154.653 111.946 153.933 111.514C153.225 111.082 152.667 110.476 152.259 109.696C151.851 108.916 151.647 108.028 151.647 107.032ZM159.999 107.05C159.999 106.306 159.849 105.658 159.549 105.106C159.249 104.554 158.841 104.134 158.325 103.846C157.821 103.546 157.263 103.396 156.651 103.396C156.039 103.396 155.481 103.54 154.977 103.828C154.473 104.116 154.071 104.536 153.771 105.088C153.471 105.64 153.321 106.288 153.321 107.032C153.321 107.788 153.471 108.448 153.771 109.012C154.071 109.564 154.473 109.99 154.977 110.29C155.481 110.578 156.039 110.722 156.651 110.722C157.263 110.722 157.821 110.578 158.325 110.29C158.841 109.99 159.249 109.564 159.549 109.012C159.849 108.448 159.999 107.794 159.999 107.05ZM170.86 103.954C171.184 103.39 171.664 102.922 172.3 102.55C172.948 102.166 173.698 101.974 174.55 101.974C175.426 101.974 176.218 102.184 176.926 102.604C177.646 103.024 178.21 103.618 178.618 104.386C179.026 105.142 179.23 106.024 179.23 107.032C179.23 108.028 179.026 108.916 178.618 109.696C178.21 110.476 177.646 111.082 176.926 111.514C176.218 111.946 175.426 112.162 174.55 112.162C173.71 112.162 172.966 111.976 172.318 111.604C171.682 111.22 171.196 110.746 170.86 110.182V116.68H169.222V102.136H170.86V103.954ZM177.556 107.032C177.556 106.288 177.406 105.64 177.106 105.088C176.806 104.536 176.398 104.116 175.882 103.828C175.378 103.54 174.82 103.396 174.208 103.396C173.608 103.396 173.05 103.546 172.534 103.846C172.03 104.134 171.622 104.56 171.31 105.124C171.01 105.676 170.86 106.318 170.86 107.05C170.86 107.794 171.01 108.448 171.31 109.012C171.622 109.564 172.03 109.99 172.534 110.29C173.05 110.578 173.608 110.722 174.208 110.722C174.82 110.722 175.378 110.578 175.882 110.29C176.398 109.99 176.806 109.564 177.106 109.012C177.406 108.448 177.556 107.788 177.556 107.032ZM190.386 106.69C190.386 107.002 190.368 107.332 190.332 107.68H182.448C182.508 108.652 182.838 109.414 183.438 109.966C184.05 110.506 184.788 110.776 185.652 110.776C186.36 110.776 186.948 110.614 187.416 110.29C187.896 109.954 188.232 109.51 188.424 108.958H190.188C189.924 109.906 189.396 110.68 188.604 111.28C187.812 111.868 186.828 112.162 185.652 112.162C184.716 112.162 183.876 111.952 183.132 111.532C182.4 111.112 181.824 110.518 181.404 109.75C180.984 108.97 180.774 108.07 180.774 107.05C180.774 106.03 180.978 105.136 181.386 104.368C181.794 103.6 182.364 103.012 183.096 102.604C183.84 102.184 184.692 101.974 185.652 101.974C186.588 101.974 187.416 102.178 188.136 102.586C188.856 102.994 189.408 103.558 189.792 104.278C190.188 104.986 190.386 105.79 190.386 106.69ZM188.694 106.348C188.694 105.724 188.556 105.19 188.28 104.746C188.004 104.29 187.626 103.948 187.146 103.72C186.678 103.48 186.156 103.36 185.58 103.36C184.752 103.36 184.044 103.624 183.456 104.152C182.88 104.68 182.55 105.412 182.466 106.348H188.694ZM194.186 103.738C194.474 103.174 194.882 102.736 195.41 102.424C195.95 102.112 196.604 101.956 197.372 101.956V103.648H196.94C195.104 103.648 194.186 104.644 194.186 106.636V112H192.548V102.136H194.186V103.738ZM202.755 112.162C201.999 112.162 201.321 112.036 200.721 111.784C200.121 111.52 199.647 111.16 199.299 110.704C198.951 110.236 198.759 109.702 198.723 109.102H200.415C200.463 109.594 200.691 109.996 201.099 110.308C201.519 110.62 202.065 110.776 202.737 110.776C203.361 110.776 203.853 110.638 204.213 110.362C204.573 110.086 204.753 109.738 204.753 109.318C204.753 108.886 204.561 108.568 204.177 108.364C203.793 108.148 203.199 107.938 202.395 107.734C201.663 107.542 201.063 107.35 200.595 107.158C200.139 106.954 199.743 106.66 199.407 106.276C199.083 105.88 198.921 105.364 198.921 104.728C198.921 104.224 199.071 103.762 199.371 103.342C199.671 102.922 200.097 102.592 200.649 102.352C201.201 102.1 201.831 101.974 202.539 101.974C203.631 101.974 204.513 102.25 205.185 102.802C205.857 103.354 206.217 104.11 206.265 105.07H204.627C204.591 104.554 204.381 104.14 203.997 103.828C203.625 103.516 203.121 103.36 202.485 103.36C201.897 103.36 201.429 103.486 201.081 103.738C200.733 103.99 200.559 104.32 200.559 104.728C200.559 105.052 200.661 105.322 200.865 105.538C201.081 105.742 201.345 105.91 201.657 106.042C201.981 106.162 202.425 106.3 202.989 106.456C203.697 106.648 204.273 106.84 204.717 107.032C205.161 107.212 205.539 107.488 205.851 107.86C206.175 108.232 206.343 108.718 206.355 109.318C206.355 109.858 206.205 110.344 205.905 110.776C205.605 111.208 205.179 111.55 204.627 111.802C204.087 112.042 203.463 112.162 202.755 112.162ZM212.969 112.162C212.045 112.162 211.205 111.952 210.449 111.532C209.705 111.112 209.117 110.518 208.685 109.75C208.265 108.97 208.055 108.07 208.055 107.05C208.055 106.042 208.271 105.154 208.703 104.386C209.147 103.606 209.747 103.012 210.503 102.604C211.259 102.184 212.105 101.974 213.041 101.974C213.977 101.974 214.823 102.184 215.579 102.604C216.335 103.012 216.929 103.6 217.361 104.368C217.805 105.136 218.027 106.03 218.027 107.05C218.027 108.07 217.799 108.97 217.343 109.75C216.899 110.518 216.293 111.112 215.525 111.532C214.757 111.952 213.905 112.162 212.969 112.162ZM212.969 110.722C213.557 110.722 214.109 110.584 214.625 110.308C215.141 110.032 215.555 109.618 215.867 109.066C216.191 108.514 216.353 107.842 216.353 107.05C216.353 106.258 216.197 105.586 215.885 105.034C215.573 104.482 215.165 104.074 214.661 103.81C214.157 103.534 213.611 103.396 213.023 103.396C212.423 103.396 211.871 103.534 211.367 103.81C210.875 104.074 210.479 104.482 210.179 105.034C209.879 105.586 209.729 106.258 209.729 107.05C209.729 107.854 209.873 108.532 210.161 109.084C210.461 109.636 210.857 110.05 211.349 110.326C211.841 110.59 212.381 110.722 212.969 110.722ZM224.987 101.956C226.187 101.956 227.159 102.322 227.903 103.054C228.647 103.774 229.019 104.818 229.019 106.186V112H227.399V106.42C227.399 105.436 227.153 104.686 226.661 104.17C226.169 103.642 225.497 103.378 224.645 103.378C223.781 103.378 223.091 103.648 222.575 104.188C222.071 104.728 221.819 105.514 221.819 106.546V112H220.181V102.136H221.819V103.54C222.143 103.036 222.581 102.646 223.133 102.37C223.697 102.094 224.315 101.956 224.987 101.956ZM231.083 107.032C231.083 106.024 231.287 105.142 231.695 104.386C232.103 103.618 232.661 103.024 233.369 102.604C234.089 102.184 234.887 101.974 235.763 101.974C236.627 101.974 237.377 102.16 238.013 102.532C238.649 102.904 239.123 103.372 239.435 103.936V102.136H241.091V112H239.435V110.164C239.111 110.74 238.625 111.22 237.977 111.604C237.341 111.976 236.597 112.162 235.745 112.162C234.869 112.162 234.077 111.946 233.369 111.514C232.661 111.082 232.103 110.476 231.695 109.696C231.287 108.916 231.083 108.028 231.083 107.032ZM239.435 107.05C239.435 106.306 239.285 105.658 238.985 105.106C238.685 104.554 238.277 104.134 237.761 103.846C237.257 103.546 236.699 103.396 236.087 103.396C235.475 103.396 234.917 103.54 234.413 103.828C233.909 104.116 233.507 104.536 233.207 105.088C232.907 105.64 232.757 106.288 232.757 107.032C232.757 107.788 232.907 108.448 233.207 109.012C233.507 109.564 233.909 109.99 234.413 110.29C234.917 110.578 235.475 110.722 236.087 110.722C236.699 110.722 237.257 110.578 237.761 110.29C238.277 109.99 238.685 109.564 238.985 109.012C239.285 108.448 239.435 107.794 239.435 107.05ZM245.497 98.68V112H243.859V98.68H245.497ZM5.454 129.974C6.306 129.974 7.05 130.16 7.686 130.532C8.334 130.904 8.814 131.372 9.126 131.936V130.136H10.782V140.216C10.782 141.116 10.59 141.914 10.206 142.61C9.822 143.318 9.27 143.87 8.55 144.266C7.842 144.662 7.014 144.86 6.066 144.86C4.77 144.86 3.69 144.554 2.826 143.942C1.962 143.33 1.452 142.496 1.296 141.44H2.916C3.096 142.04 3.468 142.52 4.032 142.88C4.596 143.252 5.274 143.438 6.066 143.438C6.966 143.438 7.698 143.156 8.262 142.592C8.838 142.028 9.126 141.236 9.126 140.216V138.146C8.802 138.722 8.322 139.202 7.686 139.586C7.05 139.97 6.306 140.162 5.454 140.162C4.578 140.162 3.78 139.946 3.06 139.514C2.352 139.082 1.794 138.476 1.386 137.696C0.978 136.916 0.774 136.028 0.774 135.032C0.774 134.024 0.978 133.142 1.386 132.386C1.794 131.618 2.352 131.024 3.06 130.604C3.78 130.184 4.578 129.974 5.454 129.974ZM9.126 135.05C9.126 134.306 8.976 133.658 8.676 133.106C8.376 132.554 7.968 132.134 7.452 131.846C6.948 131.546 6.39 131.396 5.778 131.396C5.166 131.396 4.608 131.54 4.104 131.828C3.6 132.116 3.198 132.536 2.898 133.088C2.598 133.64 2.448 134.288 2.448 135.032C2.448 135.788 2.598 136.448 2.898 137.012C3.198 137.564 3.6 137.99 4.104 138.29C4.608 138.578 5.166 138.722 5.778 138.722C6.39 138.722 6.948 138.578 7.452 138.29C7.968 137.99 8.376 137.564 8.676 137.012C8.976 136.448 9.126 135.794 9.126 135.05ZM15.1881 131.738C15.4761 131.174 15.8841 130.736 16.4121 130.424C16.9521 130.112 17.6061 129.956 18.3741 129.956V131.648H17.9421C16.1061 131.648 15.1881 132.644 15.1881 134.636V140H13.5501V130.136H15.1881V131.738ZM24.5669 140.162C23.6429 140.162 22.8029 139.952 22.0469 139.532C21.3029 139.112 20.7149 138.518 20.2829 137.75C19.8629 136.97 19.6529 136.07 19.6529 135.05C19.6529 134.042 19.8689 133.154 20.3009 132.386C20.7449 131.606 21.3449 131.012 22.1009 130.604C22.8569 130.184 23.7029 129.974 24.6389 129.974C25.5749 129.974 26.4209 130.184 27.1769 130.604C27.9329 131.012 28.5269 131.6 28.9589 132.368C29.4029 133.136 29.6249 134.03 29.6249 135.05C29.6249 136.07 29.3969 136.97 28.9409 137.75C28.4969 138.518 27.8909 139.112 27.1229 139.532C26.3549 139.952 25.5029 140.162 24.5669 140.162ZM24.5669 138.722C25.1549 138.722 25.7069 138.584 26.2229 138.308C26.7389 138.032 27.1529 137.618 27.4649 137.066C27.7889 136.514 27.9509 135.842 27.9509 135.05C27.9509 134.258 27.7949 133.586 27.4829 133.034C27.1709 132.482 26.7629 132.074 26.2589 131.81C25.7549 131.534 25.2089 131.396 24.6209 131.396C24.0209 131.396 23.4689 131.534 22.9649 131.81C22.4729 132.074 22.0769 132.482 21.7769 133.034C21.4769 133.586 21.3269 134.258 21.3269 135.05C21.3269 135.854 21.4709 136.532 21.7589 137.084C22.0589 137.636 22.4549 138.05 22.9469 138.326C23.4389 138.59 23.9789 138.722 24.5669 138.722ZM44.9186 130.136L41.8406 140H40.1486L37.7726 132.17L35.3966 140H33.7046L30.6086 130.136H32.2826L34.5506 138.416L36.9986 130.136H38.6726L41.0666 138.434L43.2986 130.136H44.9186ZM48.5422 131.486V137.3C48.5422 137.78 48.6442 138.122 48.8482 138.326C49.0522 138.518 49.4062 138.614 49.9102 138.614H51.1162V140H49.6402C48.7282 140 48.0442 139.79 47.5882 139.37C47.1322 138.95 46.9042 138.26 46.9042 137.3V131.486H45.6262V130.136H46.9042V127.652H48.5422V130.136H51.1162V131.486H48.5422ZM57.9968 129.956C58.7408 129.956 59.4128 130.118 60.0128 130.442C60.6128 130.754 61.0808 131.228 61.4168 131.864C61.7648 132.5 61.9388 133.274 61.9388 134.186V140H60.3188V134.42C60.3188 133.436 60.0728 132.686 59.5808 132.17C59.0888 131.642 58.4168 131.378 57.5648 131.378C56.7008 131.378 56.0108 131.648 55.4948 132.188C54.9908 132.728 54.7388 133.514 54.7388 134.546V140H53.1008V126.68H54.7388V131.54C55.0628 131.036 55.5068 130.646 56.0708 130.37C56.6468 130.094 57.2888 129.956 57.9968 129.956ZM71.0513 131.972C71.3873 131.384 71.8793 130.904 72.5273 130.532C73.1753 130.16 73.9133 129.974 74.7413 129.974C75.6293 129.974 76.4273 130.184 77.1353 130.604C77.8433 131.024 78.4013 131.618 78.8093 132.386C79.2173 133.142 79.4213 134.024 79.4213 135.032C79.4213 136.028 79.2173 136.916 78.8093 137.696C78.4013 138.476 77.8373 139.082 77.1173 139.514C76.4093 139.946 75.6173 140.162 74.7413 140.162C73.8893 140.162 73.1393 139.976 72.4913 139.604C71.8553 139.232 71.3753 138.758 71.0513 138.182V140H69.4133V126.68H71.0513V131.972ZM77.7473 135.032C77.7473 134.288 77.5973 133.64 77.2973 133.088C76.9973 132.536 76.5893 132.116 76.0733 131.828C75.5693 131.54 75.0113 131.396 74.3993 131.396C73.7993 131.396 73.2413 131.546 72.7253 131.846C72.2213 132.134 71.8133 132.56 71.5013 133.124C71.2013 133.676 71.0513 134.318 71.0513 135.05C71.0513 135.794 71.2013 136.448 71.5013 137.012C71.8133 137.564 72.2213 137.99 72.7253 138.29C73.2413 138.578 73.7993 138.722 74.3993 138.722C75.0113 138.722 75.5693 138.578 76.0733 138.29C76.5893 137.99 76.9973 137.564 77.2973 137.012C77.5973 136.448 77.7473 135.788 77.7473 135.032ZM90.0734 130.136L84.1334 144.644H82.4414L84.3854 139.892L80.4074 130.136H82.2254L85.3214 138.128L88.3814 130.136H90.0734ZM98.1568 126.68V140H96.5188V126.68H98.1568ZM109.949 134.69C109.949 135.002 109.931 135.332 109.895 135.68H102.011C102.071 136.652 102.401 137.414 103.001 137.966C103.613 138.506 104.351 138.776 105.215 138.776C105.923 138.776 106.511 138.614 106.979 138.29C107.459 137.954 107.795 137.51 107.987 136.958H109.751C109.487 137.906 108.959 138.68 108.167 139.28C107.375 139.868 106.391 140.162 105.215 140.162C104.279 140.162 103.439 139.952 102.695 139.532C101.963 139.112 101.387 138.518 100.967 137.75C100.547 136.97 100.337 136.07 100.337 135.05C100.337 134.03 100.541 133.136 100.949 132.368C101.357 131.6 101.927 131.012 102.659 130.604C103.403 130.184 104.255 129.974 105.215 129.974C106.151 129.974 106.979 130.178 107.699 130.586C108.419 130.994 108.971 131.558 109.355 132.278C109.751 132.986 109.949 133.79 109.949 134.69ZM108.257 134.348C108.257 133.724 108.119 133.19 107.843 132.746C107.567 132.29 107.189 131.948 106.709 131.72C106.241 131.48 105.719 131.36 105.143 131.36C104.315 131.36 103.607 131.624 103.019 132.152C102.443 132.68 102.113 133.412 102.029 134.348H108.257ZM111.499 135.032C111.499 134.024 111.703 133.142 112.111 132.386C112.519 131.618 113.077 131.024 113.785 130.604C114.505 130.184 115.303 129.974 116.179 129.974C117.043 129.974 117.793 130.16 118.429 130.532C119.065 130.904 119.539 131.372 119.851 131.936V130.136H121.507V140H119.851V138.164C119.527 138.74 119.041 139.22 118.393 139.604C117.757 139.976 117.013 140.162 116.161 140.162C115.285 140.162 114.493 139.946 113.785 139.514C113.077 139.082 112.519 138.476 112.111 137.696C111.703 136.916 111.499 136.028 111.499 135.032ZM119.851 135.05C119.851 134.306 119.701 133.658 119.401 133.106C119.101 132.554 118.693 132.134 118.177 131.846C117.673 131.546 117.115 131.396 116.503 131.396C115.891 131.396 115.333 131.54 114.829 131.828C114.325 132.116 113.923 132.536 113.623 133.088C113.323 133.64 113.173 134.288 113.173 135.032C113.173 135.788 113.323 136.448 113.623 137.012C113.923 137.564 114.325 137.99 114.829 138.29C115.333 138.578 115.891 138.722 116.503 138.722C117.115 138.722 117.673 138.578 118.177 138.29C118.693 137.99 119.101 137.564 119.401 137.012C119.701 136.448 119.851 135.794 119.851 135.05ZM125.913 131.738C126.201 131.174 126.609 130.736 127.137 130.424C127.677 130.112 128.331 129.956 129.099 129.956V131.648H128.667C126.831 131.648 125.913 132.644 125.913 134.636V140H124.275V130.136H125.913V131.738ZM135.796 129.956C136.996 129.956 137.968 130.322 138.712 131.054C139.456 131.774 139.828 132.818 139.828 134.186V140H138.208V134.42C138.208 133.436 137.962 132.686 137.47 132.17C136.978 131.642 136.306 131.378 135.454 131.378C134.59 131.378 133.9 131.648 133.384 132.188C132.88 132.728 132.628 133.514 132.628 134.546V140H130.99V130.136H132.628V131.54C132.952 131.036 133.39 130.646 133.942 130.37C134.506 130.094 135.124 129.956 135.796 129.956ZM143.349 128.534C143.037 128.534 142.773 128.426 142.557 128.21C142.341 127.994 142.233 127.73 142.233 127.418C142.233 127.106 142.341 126.842 142.557 126.626C142.773 126.41 143.037 126.302 143.349 126.302C143.649 126.302 143.901 126.41 144.105 126.626C144.321 126.842 144.429 127.106 144.429 127.418C144.429 127.73 144.321 127.994 144.105 128.21C143.901 128.426 143.649 128.534 143.349 128.534ZM144.141 130.136V140H142.503V130.136H144.141ZM151.739 129.956C152.939 129.956 153.911 130.322 154.655 131.054C155.399 131.774 155.771 132.818 155.771 134.186V140H154.151V134.42C154.151 133.436 153.905 132.686 153.413 132.17C152.921 131.642 152.249 131.378 151.397 131.378C150.533 131.378 149.843 131.648 149.327 132.188C148.823 132.728 148.571 133.514 148.571 134.546V140H146.933V130.136H148.571V131.54C148.895 131.036 149.333 130.646 149.885 130.37C150.449 130.094 151.067 129.956 151.739 129.956ZM162.515 129.974C163.367 129.974 164.111 130.16 164.747 130.532C165.395 130.904 165.875 131.372 166.187 131.936V130.136H167.843V140.216C167.843 141.116 167.651 141.914 167.267 142.61C166.883 143.318 166.331 143.87 165.611 144.266C164.903 144.662 164.075 144.86 163.127 144.86C161.831 144.86 160.751 144.554 159.887 143.942C159.023 143.33 158.513 142.496 158.357 141.44H159.977C160.157 142.04 160.529 142.52 161.093 142.88C161.657 143.252 162.335 143.438 163.127 143.438C164.027 143.438 164.759 143.156 165.323 142.592C165.899 142.028 166.187 141.236 166.187 140.216V138.146C165.863 138.722 165.383 139.202 164.747 139.586C164.111 139.97 163.367 140.162 162.515 140.162C161.639 140.162 160.841 139.946 160.121 139.514C159.413 139.082 158.855 138.476 158.447 137.696C158.039 136.916 157.835 136.028 157.835 135.032C157.835 134.024 158.039 133.142 158.447 132.386C158.855 131.618 159.413 131.024 160.121 130.604C160.841 130.184 161.639 129.974 162.515 129.974ZM166.187 135.05C166.187 134.306 166.037 133.658 165.737 133.106C165.437 132.554 165.029 132.134 164.513 131.846C164.009 131.546 163.451 131.396 162.839 131.396C162.227 131.396 161.669 131.54 161.165 131.828C160.661 132.116 160.259 132.536 159.959 133.088C159.659 133.64 159.509 134.288 159.509 135.032C159.509 135.788 159.659 136.448 159.959 137.012C160.259 137.564 160.661 137.99 161.165 138.29C161.669 138.578 162.227 138.722 162.839 138.722C163.451 138.722 164.009 138.578 164.513 138.29C165.029 137.99 165.437 137.564 165.737 137.012C166.037 136.448 166.187 135.794 166.187 135.05ZM187.271 129.956C188.039 129.956 188.723 130.118 189.323 130.442C189.923 130.754 190.397 131.228 190.745 131.864C191.093 132.5 191.267 133.274 191.267 134.186V140H189.647V134.42C189.647 133.436 189.401 132.686 188.909 132.17C188.429 131.642 187.775 131.378 186.947 131.378C186.095 131.378 185.417 131.654 184.913 132.206C184.409 132.746 184.157 133.532 184.157 134.564V140H182.537V134.42C182.537 133.436 182.291 132.686 181.799 132.17C181.319 131.642 180.665 131.378 179.837 131.378C178.985 131.378 178.307 131.654 177.803 132.206C177.299 132.746 177.047 133.532 177.047 134.564V140H175.409V130.136H177.047V131.558C177.371 131.042 177.803 130.646 178.343 130.37C178.895 130.094 179.501 129.956 180.161 129.956C180.989 129.956 181.721 130.142 182.357 130.514C182.993 130.886 183.467 131.432 183.779 132.152C184.055 131.456 184.511 130.916 185.147 130.532C185.783 130.148 186.491 129.956 187.271 129.956ZM198.256 140.162C197.332 140.162 196.492 139.952 195.736 139.532C194.992 139.112 194.404 138.518 193.972 137.75C193.552 136.97 193.342 136.07 193.342 135.05C193.342 134.042 193.558 133.154 193.99 132.386C194.434 131.606 195.034 131.012 195.79 130.604C196.546 130.184 197.392 129.974 198.328 129.974C199.264 129.974 200.11 130.184 200.866 130.604C201.622 131.012 202.216 131.6 202.648 132.368C203.092 133.136 203.314 134.03 203.314 135.05C203.314 136.07 203.086 136.97 202.63 137.75C202.186 138.518 201.58 139.112 200.812 139.532C200.044 139.952 199.192 140.162 198.256 140.162ZM198.256 138.722C198.844 138.722 199.396 138.584 199.912 138.308C200.428 138.032 200.842 137.618 201.154 137.066C201.478 136.514 201.64 135.842 201.64 135.05C201.64 134.258 201.484 133.586 201.172 133.034C200.86 132.482 200.452 132.074 199.948 131.81C199.444 131.534 198.898 131.396 198.31 131.396C197.71 131.396 197.158 131.534 196.654 131.81C196.162 132.074 195.766 132.482 195.466 133.034C195.166 133.586 195.016 134.258 195.016 135.05C195.016 135.854 195.16 136.532 195.448 137.084C195.748 137.636 196.144 138.05 196.636 138.326C197.128 138.59 197.668 138.722 198.256 138.722ZM207.106 131.738C207.394 131.174 207.802 130.736 208.33 130.424C208.87 130.112 209.524 129.956 210.292 129.956V131.648H209.86C208.024 131.648 207.106 132.644 207.106 134.636V140H205.468V130.136H207.106V131.738ZM221.183 134.69C221.183 135.002 221.165 135.332 221.129 135.68H213.245C213.305 136.652 213.635 137.414 214.235 137.966C214.847 138.506 215.585 138.776 216.449 138.776C217.157 138.776 217.745 138.614 218.213 138.29C218.693 137.954 219.029 137.51 219.221 136.958H220.985C220.721 137.906 220.193 138.68 219.401 139.28C218.609 139.868 217.625 140.162 216.449 140.162C215.513 140.162 214.673 139.952 213.929 139.532C213.197 139.112 212.621 138.518 212.201 137.75C211.781 136.97 211.571 136.07 211.571 135.05C211.571 134.03 211.775 133.136 212.183 132.368C212.591 131.6 213.161 131.012 213.893 130.604C214.637 130.184 215.489 129.974 216.449 129.974C217.385 129.974 218.213 130.178 218.933 130.586C219.653 130.994 220.205 131.558 220.589 132.278C220.985 132.986 221.183 133.79 221.183 134.69ZM219.491 134.348C219.491 133.724 219.353 133.19 219.077 132.746C218.801 132.29 218.423 131.948 217.943 131.72C217.475 131.48 216.953 131.36 216.377 131.36C215.549 131.36 214.841 131.624 214.253 132.152C213.677 132.68 213.347 133.412 213.263 134.348H219.491ZM227.532 135.032C227.532 134.024 227.736 133.142 228.144 132.386C228.552 131.618 229.11 131.024 229.818 130.604C230.538 130.184 231.336 129.974 232.212 129.974C233.076 129.974 233.826 130.16 234.462 130.532C235.098 130.904 235.572 131.372 235.884 131.936V130.136H237.54V140H235.884V138.164C235.56 138.74 235.074 139.22 234.426 139.604C233.79 139.976 233.046 140.162 232.194 140.162C231.318 140.162 230.526 139.946 229.818 139.514C229.11 139.082 228.552 138.476 228.144 137.696C227.736 136.916 227.532 136.028 227.532 135.032ZM235.884 135.05C235.884 134.306 235.734 133.658 235.434 133.106C235.134 132.554 234.726 132.134 234.21 131.846C233.706 131.546 233.148 131.396 232.536 131.396C231.924 131.396 231.366 131.54 230.862 131.828C230.358 132.116 229.956 132.536 229.656 133.088C229.356 133.64 229.206 134.288 229.206 135.032C229.206 135.788 229.356 136.448 229.656 137.012C229.956 137.564 230.358 137.99 230.862 138.29C231.366 138.578 231.924 138.722 232.536 138.722C233.148 138.722 233.706 138.578 234.21 138.29C234.726 137.99 235.134 137.564 235.434 137.012C235.734 136.448 235.884 135.794 235.884 135.05ZM241.946 131.972C242.282 131.384 242.774 130.904 243.422 130.532C244.07 130.16 244.808 129.974 245.636 129.974C246.524 129.974 247.322 130.184 248.03 130.604C248.738 131.024 249.296 131.618 249.704 132.386C250.112 133.142 250.316 134.024 250.316 135.032C250.316 136.028 250.112 136.916 249.704 137.696C249.296 138.476 248.732 139.082 248.012 139.514C247.304 139.946 246.512 140.162 245.636 140.162C244.784 140.162 244.034 139.976 243.386 139.604C242.75 139.232 242.27 138.758 241.946 138.182V140H240.308V126.68H241.946V131.972ZM248.642 135.032C248.642 134.288 248.492 133.64 248.192 133.088C247.892 132.536 247.484 132.116 246.968 131.828C246.464 131.54 245.906 131.396 245.294 131.396C244.694 131.396 244.136 131.546 243.62 131.846C243.116 132.134 242.708 132.56 242.396 133.124C242.096 133.676 241.946 134.318 241.946 135.05C241.946 135.794 242.096 136.448 242.396 137.012C242.708 137.564 243.116 137.99 243.62 138.29C244.136 138.578 244.694 138.722 245.294 138.722C245.906 138.722 246.464 138.578 246.968 138.29C247.484 137.99 247.892 137.564 248.192 137.012C248.492 136.448 248.642 135.788 248.642 135.032ZM256.774 140.162C255.85 140.162 255.01 139.952 254.254 139.532C253.51 139.112 252.922 138.518 252.49 137.75C252.07 136.97 251.86 136.07 251.86 135.05C251.86 134.042 252.076 133.154 252.508 132.386C252.952 131.606 253.552 131.012 254.308 130.604C255.064 130.184 255.91 129.974 256.846 129.974C257.782 129.974 258.628 130.184 259.384 130.604C260.14 131.012 260.734 131.6 261.166 132.368C261.61 133.136 261.832 134.03 261.832 135.05C261.832 136.07 261.604 136.97 261.148 137.75C260.704 138.518 260.098 139.112 259.33 139.532C258.562 139.952 257.71 140.162 256.774 140.162ZM256.774 138.722C257.362 138.722 257.914 138.584 258.43 138.308C258.946 138.032 259.36 137.618 259.672 137.066C259.996 136.514 260.158 135.842 260.158 135.05C260.158 134.258 260.002 133.586 259.69 133.034C259.378 132.482 258.97 132.074 258.466 131.81C257.962 131.534 257.416 131.396 256.828 131.396C256.228 131.396 255.676 131.534 255.172 131.81C254.68 132.074 254.284 132.482 253.984 133.034C253.684 133.586 253.534 134.258 253.534 135.05C253.534 135.854 253.678 136.532 253.966 137.084C254.266 137.636 254.662 138.05 255.154 138.326C255.646 138.59 256.186 138.722 256.774 138.722ZM272.734 130.136V140H271.096V138.542C270.784 139.046 270.346 139.442 269.782 139.73C269.23 140.006 268.618 140.144 267.946 140.144C267.178 140.144 266.488 139.988 265.876 139.676C265.264 139.352 264.778 138.872 264.418 138.236C264.07 137.6 263.896 136.826 263.896 135.914V130.136H265.516V135.698C265.516 136.67 265.762 137.42 266.254 137.948C266.746 138.464 267.418 138.722 268.27 138.722C269.146 138.722 269.836 138.452 270.34 137.912C270.844 137.372 271.096 136.586 271.096 135.554V130.136H272.734ZM277.497 131.486V137.3C277.497 137.78 277.599 138.122 277.803 138.326C278.007 138.518 278.361 138.614 278.865 138.614H280.071V140H278.595C277.683 140 276.999 139.79 276.543 139.37C276.087 138.95 275.859 138.26 275.859 137.3V131.486H274.581V130.136H275.859V127.652H277.497V130.136H280.071V131.486H277.497ZM9.882 158.136L3.942 172.644H2.25L4.194 167.892L0.216 158.136H2.034L5.13 166.128L8.19 158.136H9.882ZM15.8306 168.162C14.9066 168.162 14.0666 167.952 13.3106 167.532C12.5666 167.112 11.9786 166.518 11.5466 165.75C11.1266 164.97 10.9166 164.07 10.9166 163.05C10.9166 162.042 11.1326 161.154 11.5646 160.386C12.0086 159.606 12.6086 159.012 13.3646 158.604C14.1206 158.184 14.9666 157.974 15.9026 157.974C16.8386 157.974 17.6846 158.184 18.4406 158.604C19.1966 159.012 19.7906 159.6 20.2226 160.368C20.6666 161.136 20.8886 162.03 20.8886 163.05C20.8886 164.07 20.6606 164.97 20.2046 165.75C19.7606 166.518 19.1546 167.112 18.3866 167.532C17.6186 167.952 16.7666 168.162 15.8306 168.162ZM15.8306 166.722C16.4186 166.722 16.9706 166.584 17.4866 166.308C18.0026 166.032 18.4166 165.618 18.7286 165.066C19.0526 164.514 19.2146 163.842 19.2146 163.05C19.2146 162.258 19.0586 161.586 18.7466 161.034C18.4346 160.482 18.0266 160.074 17.5226 159.81C17.0186 159.534 16.4726 159.396 15.8846 159.396C15.2846 159.396 14.7326 159.534 14.2286 159.81C13.7366 160.074 13.3406 160.482 13.0406 161.034C12.7406 161.586 12.5906 162.258 12.5906 163.05C12.5906 163.854 12.7346 164.532 13.0226 165.084C13.3226 165.636 13.7186 166.05 14.2106 166.326C14.7026 166.59 15.2426 166.722 15.8306 166.722ZM31.7903 158.136V168H30.1523V166.542C29.8403 167.046 29.4023 167.442 28.8383 167.73C28.2863 168.006 27.6743 168.144 27.0023 168.144C26.2343 168.144 25.5443 167.988 24.9323 167.676C24.3203 167.352 23.8343 166.872 23.4743 166.236C23.1263 165.6 22.9523 164.826 22.9523 163.914V158.136H24.5723V163.698C24.5723 164.67 24.8183 165.42 25.3103 165.948C25.8023 166.464 26.4743 166.722 27.3263 166.722C28.2023 166.722 28.8923 166.452 29.3963 165.912C29.9003 165.372 30.1523 164.586 30.1523 163.554V158.136H31.7903ZM36.1939 159.738C36.4819 159.174 36.8899 158.736 37.4179 158.424C37.9579 158.112 38.6119 157.956 39.3799 157.956V159.648H38.9479C37.1119 159.648 36.1939 160.644 36.1939 162.636V168H34.5559V158.136H36.1939V159.738ZM44.7628 168.162C44.0068 168.162 43.3288 168.036 42.7288 167.784C42.1288 167.52 41.6548 167.16 41.3068 166.704C40.9588 166.236 40.7668 165.702 40.7308 165.102H42.4228C42.4708 165.594 42.6988 165.996 43.1068 166.308C43.5268 166.62 44.0728 166.776 44.7448 166.776C45.3688 166.776 45.8608 166.638 46.2208 166.362C46.5808 166.086 46.7608 165.738 46.7608 165.318C46.7608 164.886 46.5688 164.568 46.1848 164.364C45.8008 164.148 45.2068 163.938 44.4028 163.734C43.6708 163.542 43.0708 163.35 42.6028 163.158C42.1468 162.954 41.7508 162.66 41.4148 162.276C41.0908 161.88 40.9288 161.364 40.9288 160.728C40.9288 160.224 41.0788 159.762 41.3788 159.342C41.6788 158.922 42.1048 158.592 42.6568 158.352C43.2088 158.1 43.8388 157.974 44.5468 157.974C45.6388 157.974 46.5208 158.25 47.1928 158.802C47.8648 159.354 48.2248 160.11 48.2728 161.07H46.6348C46.5988 160.554 46.3888 160.14 46.0048 159.828C45.6328 159.516 45.1288 159.36 44.4928 159.36C43.9048 159.36 43.4368 159.486 43.0888 159.738C42.7408 159.99 42.5668 160.32 42.5668 160.728C42.5668 161.052 42.6688 161.322 42.8728 161.538C43.0888 161.742 43.3528 161.91 43.6648 162.042C43.9888 162.162 44.4328 162.3 44.9968 162.456C45.7048 162.648 46.2808 162.84 46.7248 163.032C47.1688 163.212 47.5468 163.488 47.8588 163.86C48.1828 164.232 48.3508 164.718 48.3628 165.318C48.3628 165.858 48.2128 166.344 47.9128 166.776C47.6128 167.208 47.1868 167.55 46.6348 167.802C46.0948 168.042 45.4708 168.162 44.7628 168.162ZM59.6751 162.69C59.6751 163.002 59.6571 163.332 59.6211 163.68H51.7371C51.7971 164.652 52.1271 165.414 52.7271 165.966C53.3391 166.506 54.0771 166.776 54.9411 166.776C55.6491 166.776 56.2371 166.614 56.7051 166.29C57.1851 165.954 57.5211 165.51 57.7131 164.958H59.4771C59.2131 165.906 58.6851 166.68 57.8931 167.28C57.1011 167.868 56.1171 168.162 54.9411 168.162C54.0051 168.162 53.1651 167.952 52.4211 167.532C51.6891 167.112 51.1131 166.518 50.6931 165.75C50.2731 164.97 50.0631 164.07 50.0631 163.05C50.0631 162.03 50.2671 161.136 50.6751 160.368C51.0831 159.6 51.6531 159.012 52.3851 158.604C53.1291 158.184 53.9811 157.974 54.9411 157.974C55.8771 157.974 56.7051 158.178 57.4251 158.586C58.1451 158.994 58.6971 159.558 59.0811 160.278C59.4771 160.986 59.6751 161.79 59.6751 162.69ZM57.9831 162.348C57.9831 161.724 57.8451 161.19 57.5691 160.746C57.2931 160.29 56.9151 159.948 56.4351 159.72C55.9671 159.48 55.4451 159.36 54.8691 159.36C54.0411 159.36 53.3331 159.624 52.7451 160.152C52.1691 160.68 51.8391 161.412 51.7551 162.348H57.9831ZM63.4752 154.68V168H61.8372V154.68H63.4752ZM70.2809 159.486H68.2109V168H66.5729V159.486H65.2949V158.136H66.5729V157.434C66.5729 156.33 66.8549 155.526 67.4189 155.022C67.9949 154.506 68.9129 154.248 70.1729 154.248V155.616C69.4529 155.616 68.9429 155.76 68.6429 156.048C68.3549 156.324 68.2109 156.786 68.2109 157.434V158.136H70.2809V159.486Z" fill="#17181A"/>
<defs>
<clipPath id="clip0_1_835">
<rect width="40" height="40" fill="white"/>
</clipPath>
</defs>
</svg>
