<svg width="140" height="40" viewBox="0 0 140 40" fill="none" xmlns="http://www.w3.org/2000/svg">
<g clip-path="url(#clip0_260_1761)">
<path d="M15.1612 6.62115V17.9041H4.88077V6.62115H0V33.5546H4.88077V22.638H15.1612V33.5546H20.042V6.62115H15.1612Z" fill="#33475B"/>
<path d="M35.6623 24.8483C35.6623 25.9277 35.2369 26.9629 34.4797 27.7262C33.7225 28.4894 32.6954 28.9182 31.6245 28.9182C30.5536 28.9182 29.5266 28.4894 28.7694 27.7262C28.0121 26.9629 27.5867 25.9277 27.5867 24.8483V13.3123H22.957V24.8483C22.957 27.1631 23.8693 29.3831 25.4932 31.0199C27.1171 32.6567 29.3196 33.5763 31.6162 33.5763C33.9127 33.5763 36.1152 32.6567 37.7391 31.0199C39.363 29.3831 40.2753 27.1631 40.2753 24.8483V13.3123H35.6623V24.8483Z" fill="#33475B"/>
<path d="M69.9645 14.5006C69.9645 12.1361 71.5165 11.3864 73.2168 11.3864C74.587 11.3864 76.3973 12.4374 77.581 13.7124L80.6133 10.1114C79.0995 8.04809 76.029 6.62115 73.5157 6.62115C68.4938 6.62115 64.8613 9.5859 64.8613 14.5006C64.8613 23.619 75.919 20.7266 75.919 25.8294C75.919 27.4033 74.4029 28.7941 72.6668 28.7941C69.9286 28.7941 69.0415 27.4443 67.7836 26.0174L64.4189 29.5437C66.5712 32.2072 69.2256 33.5594 72.4061 33.5594C77.1769 33.5594 81.015 30.5585 81.015 25.8679C81.015 15.7444 69.9573 18.8899 69.9573 14.5006" fill="#33475B"/>
<path d="M138.371 29.252C135.636 29.252 134.858 28.0589 134.858 26.2318V18.1451H139.11V14.0474H134.858V8.64099L130.164 10.7645V27.237C130.164 31.4503 133.048 33.5738 137.003 33.5738C137.624 33.5852 138.244 33.5351 138.854 33.4244L140 29.1749C139.483 29.211 138.89 29.2472 138.371 29.2472" fill="#33475B"/>
<path d="M53.2842 13.4472C50.9909 13.4472 49.3911 14.1173 47.8439 15.6479V6.78253H43.207V23.214C43.207 29.3652 47.6191 33.5786 52.5764 33.5786C58.0765 33.5786 62.9143 29.2905 62.9143 23.5153C62.9143 17.8124 58.4615 13.4496 53.2842 13.4496V13.4472ZM53.2555 28.8759C52.215 28.8759 51.1979 28.5649 50.3327 27.9822C49.4675 27.3996 48.7932 26.5714 48.395 25.6024C47.9968 24.6335 47.8926 23.5672 48.0956 22.5386C48.2986 21.51 48.7997 20.5651 49.5355 19.8235C50.2712 19.0819 51.2086 18.5768 52.2292 18.3722C53.2497 18.1676 54.3075 18.2726 55.2688 18.674C56.2302 19.0753 57.0518 19.755 57.6299 20.627C58.208 21.4991 58.5165 22.5243 58.5165 23.5731C58.5165 24.9795 57.9623 26.3283 56.9756 27.3228C55.989 28.3172 54.6508 28.8759 53.2555 28.8759Z" fill="#33475B"/>
<path d="M103.632 23.2696C103.632 17.4847 98.8039 13.2063 93.2942 13.2063C88.3369 13.2063 83.9248 17.4196 83.9248 23.5709V40.0119H88.5616V31.1346C90.1065 32.6628 91.7087 33.3352 93.9996 33.3352C99.1769 33.3352 103.63 28.9749 103.63 23.2696H103.632ZM99.2415 23.2117C99.2415 24.2605 98.9329 25.2858 98.3548 26.1578C97.7767 27.0298 96.9551 27.7095 95.9938 28.1109C95.0324 28.5122 93.9746 28.6172 92.9541 28.4126C91.9336 28.208 90.9962 27.703 90.2604 26.9614C89.5246 26.2198 89.0236 25.2749 88.8206 24.2462C88.6176 23.2176 88.7218 22.1514 89.12 21.1824C89.5181 20.2135 90.1925 19.3853 91.0576 18.8026C91.9228 18.2199 92.9399 17.9089 93.9805 17.9089C95.3758 17.9089 96.7139 18.4676 97.7006 19.4621C98.6872 20.4565 99.2415 21.8053 99.2415 23.2117Z" fill="#33475B"/>
<path d="M118.612 12.9798V8.28439C119.227 7.99445 119.748 7.53424 120.115 6.95731C120.481 6.38038 120.677 5.71047 120.68 5.02558V4.91711C120.68 3.95821 120.302 3.03858 119.629 2.36053C118.957 1.68249 118.044 1.30156 117.093 1.30156H116.985C116.034 1.30156 115.122 1.68249 114.449 2.36053C113.776 3.03858 113.398 3.95821 113.398 4.91711V5.02558C113.402 5.71047 113.598 6.38038 113.964 6.95731C114.33 7.53424 114.851 7.99445 115.467 8.28439V12.9798C113.698 13.2526 112.031 13.9918 110.636 15.1226L97.8617 5.09307C97.9521 4.76233 98.0003 4.42133 98.0052 4.0783C98.0066 3.27254 97.7709 2.48445 97.3279 1.81372C96.8849 1.14298 96.2545 0.619745 95.5164 0.31018C94.7784 0.000615035 93.9658 -0.0813674 93.1815 0.0746023C92.3972 0.230572 91.6764 0.617487 91.1103 1.18641C90.5442 1.75533 90.1582 2.48069 90.0011 3.27076C89.8441 4.06082 89.923 4.88009 90.2279 5.62493C90.5329 6.36977 91.0501 7.00673 91.7143 7.45523C92.3784 7.90373 93.1596 8.14363 93.959 8.14459C94.658 8.14144 95.344 7.95362 95.9486 7.59985L108.53 17.4655C107.399 19.1864 106.809 21.2107 106.837 23.2745C106.865 25.3383 107.509 27.3458 108.685 29.0352L104.859 32.8918C104.549 32.7922 104.227 32.7394 103.902 32.7351C103.246 32.7356 102.605 32.9322 102.059 33.3C101.514 33.6678 101.089 34.1903 100.838 34.8015C100.587 35.4128 100.521 36.0852 100.649 36.734C100.777 37.3827 101.094 37.9787 101.558 38.4464C102.022 38.9141 102.613 39.2327 103.257 39.3619C103.9 39.4911 104.567 39.425 105.174 39.1721C105.78 38.9192 106.299 38.4907 106.663 37.9409C107.028 37.3911 107.223 36.7446 107.224 36.0831C107.22 35.7558 107.167 35.4308 107.068 35.119L110.854 31.3034C112.088 32.2608 113.524 32.9208 115.05 33.2328C116.577 33.5447 118.154 33.5004 119.661 33.1032C121.168 32.706 122.564 31.9664 123.744 30.9412C124.923 29.9159 125.854 28.6321 126.466 27.1882C127.077 25.7442 127.352 24.1784 127.271 22.6106C127.189 21.0429 126.752 19.5147 125.994 18.1433C125.236 16.7719 124.177 15.5936 122.897 14.6986C121.617 13.8035 120.151 13.2156 118.612 12.9798ZM117.043 28.4206C116.007 28.4196 114.995 28.1093 114.135 27.5288C113.274 26.9483 112.604 26.1237 112.208 25.1592C111.812 24.1947 111.709 23.1336 111.912 22.11C112.114 21.0864 112.613 20.1463 113.345 19.4084C114.078 18.6706 115.011 18.1681 116.026 17.9646C117.042 17.761 118.094 17.8655 119.051 18.2648C120.008 18.6641 120.826 19.3403 121.401 20.2079C121.977 21.0756 122.284 22.0957 122.285 23.1395C122.285 24.5395 121.733 25.8821 120.751 26.8721C119.769 27.862 118.437 28.4182 117.048 28.4182" fill="#FF7A59"/>
</g>
<defs>
<clipPath id="clip0_260_1761">
<rect width="140" height="40" fill="white"/>
</clipPath>
</defs>
</svg>
