<svg width="11" height="12" viewBox="0 0 11 12" fill="none" xmlns="http://www.w3.org/2000/svg">
<path fill-rule="evenodd" clip-rule="evenodd" d="M0.25 2.75C0.25 1.64543 1.14543 0.75 2.25 0.75H8.75C9.85457 0.75 10.75 1.64543 10.75 2.75V9.25C10.75 10.3546 9.85457 11.25 8.75 11.25H2.25C1.14543 11.25 0.25 10.3546 0.25 9.25V2.75ZM5.50005 4.15C4.47832 4.15 3.65005 4.97828 3.65005 6C3.65005 7.02173 4.47832 7.85 5.50005 7.85C6.52178 7.85 7.35005 7.02173 7.35005 6C7.35005 4.97828 6.52178 4.15 5.50005 4.15ZM2.45005 6C2.45005 4.31553 3.81558 2.95 5.50005 2.95C7.18452 2.95 8.55005 4.31553 8.55005 6C8.55005 7.68447 7.18452 9.05 5.50005 9.05C3.81558 9.05 2.45005 7.68447 2.45005 6ZM8.64995 3.55C9.03655 3.55 9.34995 3.2366 9.34995 2.85C9.34995 2.4634 9.03655 2.15 8.64995 2.15C8.26335 2.15 7.94995 2.4634 7.94995 2.85C7.94995 3.2366 8.26335 3.55 8.64995 3.55Z" fill="#515458"/>
</svg>
