<svg width="7" height="7" viewBox="0 0 7 7" fill="none" xmlns="http://www.w3.org/2000/svg">
<path d="M6.26217 6.49657C5.68707 6.48288 5.12566 6.48288 4.55056 6.49657C4.42732 6.49657 4.39994 6.46919 4.39994 6.34595C4.39994 5.33268 4.39994 4.30572 4.39994 3.29245C4.39994 3.05967 4.38625 2.8269 4.31778 2.60781C4.11239 1.89578 3.29082 1.63562 2.70202 2.11487C2.38709 2.36134 2.26385 2.70366 2.26385 3.11444C2.26385 4.07294 2.26385 5.03144 2.26385 5.98994C2.26385 6.11318 2.25016 6.23641 2.26385 6.37334C2.27754 6.48288 2.22277 6.51027 2.12692 6.49657C1.53813 6.49657 0.963027 6.49657 0.374233 6.49657C0.26469 6.49657 0.237305 6.46919 0.237305 6.35965C0.250998 5.497 0.250998 4.63435 0.250998 3.75801C0.250998 2.68997 0.250998 1.62193 0.237305 0.567577C0.237305 0.444342 0.26469 0.416956 0.374233 0.416956C0.963027 0.416956 1.53813 0.416956 2.12692 0.416956C2.23646 0.416956 2.26385 0.444342 2.26385 0.553885C2.26385 0.77297 2.26385 0.992055 2.26385 1.25222C2.30493 1.21114 2.31862 1.19745 2.33231 1.18375C2.86634 0.403263 3.61945 0.184178 4.50948 0.321106C5.53645 0.48542 6.19371 1.19745 6.35802 2.29287C6.3991 2.55304 6.41279 2.8132 6.41279 3.07337C6.41279 4.16879 6.41279 5.25053 6.41279 6.34595C6.41279 6.4555 6.38541 6.49657 6.26217 6.49657Z" fill="#515458"/>
</svg>
