<svg width="16" height="16" viewBox="0 0 16 16" fill="none" xmlns="http://www.w3.org/2000/svg">
<path d="M15.3333 8.65291H0.666667C0.298665 8.65291 0 8.35425 0 7.98625C0 7.61825 0.298665 7.31958 0.666667 7.31958H15.3333C15.7013 7.31958 16 7.61825 16 7.98625C16 8.35425 15.7013 8.65291 15.3333 8.65291Z" fill="#1F284F"/>
<path d="M15.3333 3.54159H0.666667C0.298665 3.54159 0 3.24292 0 2.87492C0 2.50692 0.298665 2.20825 0.666667 2.20825H15.3333C15.7013 2.20825 16 2.50692 16 2.87492C16 3.24292 15.7013 3.54159 15.3333 3.54159Z" fill="#1F284F"/>
<path d="M15.3333 13.7638H0.666667C0.298665 13.7638 0 13.4651 0 13.0971C0 12.7291 0.298665 12.4304 0.666667 12.4304H15.3333C15.7013 12.4304 16 12.7291 16 13.0971C16 13.4651 15.7013 13.7638 15.3333 13.7638Z" fill="#1F284F"/>
</svg>
