<svg width="16" height="14" viewBox="0 0 16 14" fill="none" xmlns="http://www.w3.org/2000/svg">
<g opacity="0.3" clip-path="url(#clip0_260_1773)">
<path fill-rule="evenodd" clip-rule="evenodd" d="M15.9298 2.18655C13.5439 3.40131 12.351 4.82863 12.351 6.46855C13.3679 6.59002 14.2088 7.02024 14.8738 7.75922C15.5387 8.4982 15.8712 9.35357 15.8712 10.3254C15.8712 11.3579 15.5485 12.2285 14.9031 12.9371C14.2577 13.6457 13.4461 14 12.4683 14C11.3731 14 10.4246 13.5394 9.62279 12.6182C8.82096 11.697 8.42005 10.5785 8.42005 9.26247C8.42005 5.31451 10.5517 2.22705 14.8151 0L15.9298 2.18655ZM7.50978 2.18655C5.10429 3.40131 3.90156 4.82863 3.90156 6.46855C4.93808 6.59002 5.78878 7.02024 6.45372 7.75922C7.11865 8.4982 7.45111 9.35357 7.45111 10.3254C7.45111 11.3579 7.12354 12.2285 6.46838 12.9371C5.81323 13.6457 4.99675 14 4.0189 14C2.92372 14 1.98012 13.5394 1.18807 12.6182C0.39602 11.697 0 10.5785 0 9.26247C0 5.31451 2.12188 2.22705 6.36571 0L7.50978 2.18655Z" fill="#2EC5CE"/>
</g>
<defs>
<clipPath id="clip0_260_1773">
<rect width="16" height="14" fill="white"/>
</clipPath>
</defs>
</svg>
