<svg width="11" height="10" viewBox="0 0 11 10" fill="none" xmlns="http://www.w3.org/2000/svg">
<path d="M9.86036 2.74638C9.86036 2.84783 9.86036 2.94928 9.86036 3.03623C9.86036 6.03623 7.65011 9.5 3.62132 9.5C2.37631 9.5 1.22922 9.12319 0.25 8.48551C0.417866 8.5 0.599722 8.51449 0.767588 8.51449C1.78878 8.51449 2.74002 8.15217 3.49542 7.54348C2.53019 7.52899 1.71883 6.86232 1.45304 5.96377C1.59293 5.99275 1.71883 6.00725 1.87271 6.00725C2.06855 6.00725 2.2644 5.97826 2.44625 5.92029C1.43905 5.71739 0.683655 4.80435 0.683655 3.7029C0.683655 3.68841 0.683655 3.68841 0.683655 3.67391C0.977421 3.84783 1.31315 3.94928 1.67687 3.96377C1.08933 3.55797 0.697644 2.86232 0.697644 2.06522C0.697644 1.64493 0.809555 1.25362 0.99141 0.92029C2.06855 2.2971 3.69126 3.19565 5.50982 3.2971C5.46785 3.13768 5.45386 2.94928 5.45386 2.77536C5.45386 1.51449 6.43308 0.5 7.65011 0.5C8.27961 0.5 8.85316 0.775362 9.24485 1.21014C9.74844 1.1087 10.2101 0.92029 10.6437 0.65942C10.4759 1.19565 10.1261 1.63043 9.6785 1.92029C10.1261 1.86232 10.5458 1.74638 10.9375 1.55797C10.6577 2.02174 10.294 2.42754 9.86036 2.74638Z" fill="#515458"/>
</svg>
