<svg width="32" height="32" viewBox="0 0 32 32" fill="none" xmlns="http://www.w3.org/2000/svg">
<g clip-path="url(#clip0_1_1932)">
<path d="M8.625 27.6562C9.14194 27.6562 9.5625 27.2357 9.5625 26.7188C9.5625 26.2018 9.14194 25.7812 8.625 25.7812C8.10806 25.7812 7.6875 26.2018 7.6875 26.7188C7.6875 27.2357 8.10806 27.6562 8.625 27.6562Z" fill="#0070F0" fill-opacity="0.9"/>
<path d="M23.3227 14.3389C22.9216 14.3389 22.5649 14.0837 22.4354 13.7042L21.3592 10.5505L20.1079 13.7435C19.9672 14.1026 19.6208 14.3389 19.2351 14.3389H16.509L15.3407 18.196C15.2249 18.5782 14.8798 18.8451 14.4807 18.861C14.4682 18.8615 14.4557 18.8617 14.4432 18.8617C14.0589 18.8617 13.7118 18.6265 13.5706 18.2663L10.5469 10.5504L9.47069 13.7042C9.34113 14.0837 8.9845 14.3389 8.58344 14.3389H5V20.125H27V14.3389H23.3227Z" fill="#0070F0" fill-opacity="0.9"/>
<path d="M7.91281 12.4639L9.59888 7.523C9.72594 7.15069 10.0719 6.89725 10.4652 6.8885C10.8578 6.87881 11.2154 7.11744 11.359 7.48369L14.33 15.065L14.9162 13.1296C15.0359 12.7343 15.4004 12.4639 15.8134 12.4639H18.5956L20.5473 7.48369C20.6908 7.11744 21.0457 6.88025 21.4411 6.8885C21.8344 6.89725 22.1803 7.15069 22.3074 7.523L23.9934 12.4639H27V5H5V12.4639H7.91281Z" fill="#0070F0" fill-opacity="0.9"/>
<path d="M3.125 20.125V4.0625C3.125 3.54475 3.54475 3.125 4.0625 3.125H27.9375C28.4552 3.125 28.875 3.54475 28.875 4.0625V20.125H32V3.61569C32 1.622 30.378 0 28.3843 0H3.61569C1.622 0 0 1.622 0 3.61569V20.125H3.125Z" fill="#0070F0" fill-opacity="0.9"/>
<path d="M27.9375 22H4.0625H0V28.3843C0 30.378 1.622 32 3.61569 32H28.3844C30.378 32 32 30.378 32 28.3843V22H27.9375ZM23.5625 25.4688C23.5625 24.951 23.9823 24.5312 24.5 24.5312C25.0177 24.5312 25.4375 24.951 25.4375 25.4688V27.9688C25.4375 28.4865 25.0177 28.9062 24.5 28.9062C23.9823 28.9062 23.5625 28.4865 23.5625 27.9688V25.4688ZM18.9375 25.4688C18.9375 24.951 19.3573 24.5312 19.875 24.5312C20.3927 24.5312 20.8125 24.951 20.8125 25.4688V27.9688C20.8125 28.4865 20.3927 28.9062 19.875 28.9062C19.3573 28.9062 18.9375 28.4865 18.9375 27.9688V25.4688ZM14.3125 25.4688C14.3125 24.951 14.7323 24.5312 15.25 24.5312C15.7677 24.5312 16.1875 24.951 16.1875 25.4688V27.9688C16.1875 28.4865 15.7677 28.9062 15.25 28.9062C14.7323 28.9062 14.3125 28.4865 14.3125 27.9688V25.4688ZM8.625 23.9062C10.1758 23.9062 11.4375 25.1679 11.4375 26.7188C11.4375 28.2696 10.1758 29.5312 8.625 29.5312C7.07419 29.5312 5.8125 28.2696 5.8125 26.7188C5.8125 25.1679 7.07419 23.9062 8.625 23.9062Z" fill="#0070F0" fill-opacity="0.9"/>
</g>
<defs>
<clipPath id="clip0_1_1932">
<rect width="32" height="32" fill="white"/>
</clipPath>
</defs>
</svg>
