<svg width="32" height="32" viewBox="0 0 32 32" fill="none" xmlns="http://www.w3.org/2000/svg">
<g clip-path="url(#clip0_1_1942)">
<path d="M10.5903 30.5716C11.5951 31.4927 12.8995 32 14.2635 32C15.6274 32 16.9318 31.4927 17.9367 30.5716C18.5555 30.0043 19.0279 29.3104 19.3275 28.5448H9.19946C9.49903 29.3104 9.9714 30.0044 10.5903 30.5716Z" fill="#0070F0" fill-opacity="0.9"/>
<path d="M19.0731 15.6046L16.7931 17.0391L15.3907 14.8101H5.31812V18.0133H20.5372V16.4189C20.0237 16.1971 19.5334 15.9244 19.0731 15.6046Z" fill="#0070F0" fill-opacity="0.9"/>
<path d="M23.2259 19.8883H5.30094C5.09244 22.6285 2.79781 24.7947 0.005125 24.7947H0V26.6697H28.5268V24.7947H28.5217C25.7291 24.7947 23.4344 22.6284 23.2259 19.8883Z" fill="#0070F0" fill-opacity="0.9"/>
<path d="M15.5412 9.94925C15.4779 9.53156 15.4461 9.10837 15.4461 8.68219C15.4461 8.23425 15.4813 7.78975 15.5513 7.35144L13.2425 5.89875L16.2976 1.04306C15.8415 0.411812 15.0999 0 14.2636 0C12.8803 0 11.755 1.12531 11.755 2.5085C11.755 3.58613 12.4381 4.50706 13.394 4.86144C9.14087 5.27362 5.75037 8.6765 5.35693 12.935H14.2111L13.2425 11.3955L15.5412 9.94925Z" fill="#0070F0" fill-opacity="0.9"/>
<path d="M30.3798 2.75463L28.4826 3.94831C27.6387 3.12594 26.5766 2.52656 25.3922 2.24662V0H22.3497V2.24662C21.1653 2.52656 20.1032 3.12594 19.2593 3.94831L17.3619 2.75463L15.7417 5.32981L17.6239 6.51406C17.3874 7.19356 17.2585 7.92294 17.2585 8.68206C17.2585 9.41981 17.38 10.1296 17.6039 10.7928L15.7417 11.9644L17.3619 14.5397L19.2157 13.3734C20.0665 14.2177 21.1449 14.8328 22.3496 15.1176V17.2944H25.3921V15.1176C26.5969 14.8328 27.6753 14.2177 28.5261 13.3734L30.3798 14.5397L32.0001 11.9645L30.1378 10.7928C30.3618 10.1297 30.4833 9.41981 30.4833 8.68213C30.4833 7.92306 30.3543 7.19369 30.1178 6.51412L32.0001 5.32987L30.3798 2.75463ZM23.8709 11.9644C22.061 11.9644 20.5885 10.492 20.5885 8.68206C20.5885 6.87212 22.061 5.39969 23.8709 5.39969C25.6808 5.39969 27.1533 6.87212 27.1533 8.68206C27.1533 10.492 25.6808 11.9644 23.8709 11.9644Z" fill="#0070F0" fill-opacity="0.9"/>
<path d="M24.0925 10.0762C24.8604 9.95174 25.382 9.22828 25.2575 8.46033C25.133 7.69238 24.4096 7.17074 23.6417 7.29523C22.8737 7.41971 22.3521 8.14318 22.4766 8.91113C22.6011 9.67908 23.3246 10.2007 24.0925 10.0762Z" fill="#0070F0" fill-opacity="0.9"/>
</g>
<defs>
<clipPath id="clip0_1_1942">
<rect width="32" height="32" fill="white"/>
</clipPath>
</defs>
</svg>
