<svg width="32" height="32" viewBox="0 0 32 32" fill="none" xmlns="http://www.w3.org/2000/svg">
<path d="M21.854 6.01605C21.7183 5.02414 21.3285 4.08412 20.7226 3.28714C20.1167 2.49017 19.3151 1.86327 18.3956 1.46723C17.4761 1.0712 16.4699 0.919465 15.4745 1.02674C14.4791 1.13402 13.5283 1.49667 12.7143 2.07953C11.9003 2.66239 11.2507 3.44568 10.8286 4.35346C10.4064 5.26124 10.2259 6.26271 10.3046 7.26076C10.3834 8.25882 10.7186 9.2196 11.278 10.0499C11.8373 10.8803 12.6017 11.552 13.497 12L13.003 12.9275C12.9618 13.0053 12.9415 13.0923 12.9438 13.1803C12.9462 13.2682 12.9712 13.354 13.0165 13.4295C13.0617 13.5049 13.1257 13.5673 13.2021 13.6108C13.2786 13.6543 13.365 13.6773 13.453 13.6775H18.547C18.6301 13.6768 18.7119 13.6559 18.7852 13.6166C18.8585 13.5773 18.9211 13.5208 18.9677 13.452C19.0144 13.3831 19.0436 13.304 19.0528 13.2213C19.0621 13.1387 19.0512 13.055 19.021 12.9775L18.6435 12.0245C19.7425 11.4879 20.6443 10.6184 21.2207 9.53966C21.7971 8.46095 22.0187 7.22796 21.854 6.01605ZM14.4705 3.48355C14.5714 3.48345 14.6701 3.51329 14.754 3.56929C14.838 3.62529 14.9034 3.70494 14.9421 3.79815C14.9807 3.89136 14.9909 3.99395 14.9712 4.09292C14.9515 4.1919 14.903 4.28282 14.8316 4.35417C14.7602 4.42553 14.6693 4.47411 14.5704 4.49377C14.4714 4.51344 14.3688 4.5033 14.2756 4.46463C14.1824 4.42597 14.1027 4.36052 14.0467 4.27658C13.9907 4.19263 13.9609 4.09396 13.961 3.99305C13.9615 3.85808 14.0154 3.7288 14.1108 3.63336C14.2062 3.53793 14.3355 3.48408 14.4705 3.48355ZM17.528 9.08905H16.5085V12.656H15.4895V9.08905H14.4705C14.3354 9.08905 14.2058 9.03537 14.1102 8.93982C14.0147 8.84427 13.961 8.71468 13.961 8.57955C13.961 8.44442 14.0147 8.31483 14.1102 8.21928C14.2058 8.12373 14.3354 8.07005 14.4705 8.07005H17.528C17.6631 8.07005 17.7927 8.12373 17.8882 8.21928C17.9838 8.31483 18.0375 8.44442 18.0375 8.57955C18.0375 8.71468 17.9838 8.84427 17.8882 8.93982C17.7927 9.03537 17.6631 9.08905 17.528 9.08905ZM19.393 6.85705H19.3265C19.2038 6.85695 19.0852 6.81261 18.9925 6.73216C18.8999 6.65171 18.8393 6.54054 18.822 6.41905C18.7364 5.81916 18.4554 5.26424 18.0224 4.84035C17.5893 4.41646 17.0286 4.14728 16.427 4.07455C16.2926 4.05849 16.1701 3.9901 16.0858 3.88424C16.0016 3.77837 15.9625 3.64356 15.977 3.50905C15.9842 3.44219 16.0047 3.37744 16.0371 3.31854C16.0696 3.25964 16.1134 3.20776 16.1661 3.16591C16.2187 3.12406 16.2791 3.09307 16.3438 3.07472C16.4085 3.05638 16.4762 3.05105 16.543 3.05905C17.3685 3.1602 18.1378 3.53044 18.7318 4.11255C19.3258 4.69466 19.7116 5.45623 19.8295 6.27955C19.8389 6.34615 19.835 6.41394 19.8181 6.47904C19.8012 6.54414 19.7717 6.60527 19.7311 6.65892C19.6906 6.71257 19.6398 6.75769 19.5818 6.79169C19.5238 6.82569 19.4596 6.8479 19.393 6.85705Z" fill="#0070F0" fill-opacity="0.9"/>
<path d="M20.5446 21.8791C20.445 21.8799 20.3475 21.8513 20.2641 21.797C20.1806 21.7427 20.1151 21.665 20.0756 21.5736L18.6906 18.6306C18.6809 18.61 18.6645 18.5933 18.6441 18.5833C18.6237 18.5733 18.6005 18.5706 18.5783 18.5755C18.5561 18.5805 18.5363 18.5928 18.5221 18.6106C18.5079 18.6283 18.5001 18.6503 18.5001 18.6731V29.9766L17.5001 29.9866V18.7366C17.5001 18.7146 17.4928 18.6932 17.4794 18.6758C17.466 18.6584 17.4472 18.6459 17.426 18.6402C17.4048 18.6345 17.3822 18.6359 17.3619 18.6443C17.3416 18.6527 17.3246 18.6676 17.3136 18.6866L15.6136 21.6366C15.5673 21.7112 15.5027 21.7728 15.426 21.8156C15.3493 21.8583 15.2629 21.8809 15.1751 21.8811H4.12109V30.4606C4.12149 30.5956 4.1753 30.7249 4.27076 30.8204C4.36622 30.9159 4.49559 30.9697 4.63059 30.9701H27.9331C28.0681 30.9697 28.1976 30.9159 28.2931 30.8204C28.3886 30.725 28.4426 30.5956 28.4431 30.4606V21.8791H20.5446ZM11.9226 28.2001C11.9226 28.2335 11.916 28.2667 11.9032 28.2976C11.8904 28.3285 11.8716 28.3566 11.8479 28.3802C11.8242 28.4039 11.7961 28.4226 11.7651 28.4353C11.7342 28.4481 11.7011 28.4546 11.6676 28.4546H8.10009C8.0326 28.4546 7.96786 28.4278 7.92013 28.38C7.87241 28.3323 7.84559 28.2676 7.84559 28.2001V26.6691C7.84559 26.6016 7.87241 26.5368 7.92013 26.4891C7.96786 26.4414 8.0326 26.4146 8.10009 26.4146H11.6671C11.7006 26.4145 11.7337 26.421 11.7646 26.4338C11.7956 26.4466 11.8237 26.4653 11.8474 26.4889C11.8711 26.5126 11.8898 26.5407 11.9027 26.5716C11.9155 26.6025 11.9221 26.6356 11.9221 26.6691L11.9226 28.2001ZM20.0756 25.9051H21.6046C21.7397 25.9051 21.8693 25.9588 21.9649 26.0543C22.0604 26.1499 22.1141 26.2794 22.1141 26.4146C22.1141 26.5497 22.0604 26.6793 21.9649 26.7748C21.8693 26.8704 21.7397 26.9241 21.6046 26.9241H20.0756C19.9405 26.9241 19.8109 26.8704 19.7153 26.7748C19.6198 26.6793 19.5661 26.5497 19.5661 26.4146C19.5661 26.2794 19.6198 26.1499 19.7153 26.0543C19.8109 25.9588 19.9405 25.9051 20.0756 25.9051ZM22.6256 28.9626H20.0756C19.9432 28.9584 19.8175 28.9029 19.7253 28.8078C19.6331 28.7126 19.5816 28.5853 19.5816 28.4528C19.5816 28.3203 19.6331 28.193 19.7253 28.0979C19.8175 28.0028 19.9432 27.9472 20.0756 27.9431H22.6256C22.758 27.9472 22.8836 28.0028 22.9758 28.0979C23.0681 28.193 23.1196 28.3203 23.1196 28.4528C23.1196 28.5853 23.0681 28.7126 22.9758 28.8078C22.8836 28.9029 22.758 28.9584 22.6256 28.9626Z" fill="#0070F0" fill-opacity="0.9"/>
<path d="M26.1905 8.07004H23.6405C23.5081 8.06589 23.3825 8.01037 23.2903 7.91522C23.198 7.82008 23.1465 7.69278 23.1465 7.56029C23.1465 7.42779 23.198 7.3005 23.2903 7.20535C23.3825 7.11021 23.5081 7.05469 23.6405 7.05054H26.1905C26.3229 7.05469 26.4486 7.11021 26.5408 7.20535C26.633 7.3005 26.6846 7.42779 26.6846 7.56029C26.6846 7.69278 26.633 7.82008 26.5408 7.91522C26.4486 8.01037 26.3229 8.06589 26.1905 8.07004Z" fill="#0070F0" fill-opacity="0.9"/>
<path d="M23.5063 4.8941C23.4056 4.89396 23.3072 4.86398 23.2234 4.80797C23.1397 4.75195 23.0745 4.67239 23.0359 4.57934C22.9974 4.48628 22.9872 4.38389 23.0068 4.28507C23.0263 4.18626 23.0747 4.09545 23.1458 4.0241L24.9458 2.2241C25.0417 2.13025 25.1707 2.07802 25.3049 2.07874C25.4391 2.07947 25.5676 2.13309 25.6624 2.22796C25.7573 2.32284 25.8109 2.45132 25.8117 2.58549C25.8124 2.71967 25.7602 2.84871 25.6663 2.9446L23.8663 4.7446C23.8191 4.792 23.763 4.8296 23.7012 4.85526C23.6395 4.88091 23.5732 4.89411 23.5063 4.8941Z" fill="#0070F0" fill-opacity="0.9"/>
<path d="M25.3073 13.0471C25.2404 13.0471 25.1741 13.0338 25.1123 13.008C25.0506 12.9823 24.9945 12.9446 24.9473 12.8971L23.1473 11.0971C23.0535 11.0012 23.0012 10.8721 23.002 10.738C23.0027 10.6038 23.0563 10.4753 23.1512 10.3804C23.2461 10.2856 23.3745 10.2319 23.5087 10.2312C23.6429 10.2305 23.7719 10.2827 23.8678 10.3766L25.6678 12.1766C25.7392 12.2478 25.7878 12.3387 25.8075 12.4376C25.8272 12.5364 25.8171 12.639 25.7785 12.7321C25.7399 12.8253 25.6745 12.9049 25.5906 12.9609C25.5068 13.0168 25.4082 13.0467 25.3073 13.0466V13.0471Z" fill="#0070F0" fill-opacity="0.9"/>
<path d="M8.35556 8.07004H5.80556C5.67313 8.06589 5.54751 8.01037 5.4553 7.91522C5.36309 7.82008 5.31152 7.69278 5.31152 7.56029C5.31152 7.42779 5.36309 7.3005 5.4553 7.20535C5.54751 7.11021 5.67313 7.05469 5.80556 7.05054H8.35556C8.48799 7.05469 8.61361 7.11021 8.70582 7.20535C8.79803 7.3005 8.84959 7.42779 8.84959 7.56029C8.84959 7.69278 8.79803 7.82008 8.70582 7.91522C8.61361 8.01037 8.48799 8.06589 8.35556 8.07004Z" fill="#0070F0" fill-opacity="0.9"/>
<path d="M8.49209 4.8941C8.42508 4.89408 8.35873 4.88082 8.29687 4.85508C8.235 4.82934 8.17883 4.79162 8.13159 4.7441L6.33159 2.9441C6.24193 2.84761 6.19311 2.72016 6.19539 2.58846C6.19766 2.45677 6.25085 2.33108 6.34379 2.23775C6.43673 2.14442 6.5622 2.09071 6.69389 2.08789C6.82557 2.08506 6.95323 2.13334 7.05009 2.2226L8.85009 4.0226C8.92116 4.09392 8.96954 4.18468 8.98911 4.28345C9.00869 4.38221 8.99859 4.48456 8.96009 4.5776C8.92159 4.67064 8.85642 4.7502 8.77278 4.80625C8.68914 4.86231 8.59078 4.89235 8.49009 4.8926L8.49209 4.8941Z" fill="#0070F0" fill-opacity="0.9"/>
<path d="M6.69062 13.047C6.58979 13.0471 6.49119 13.0173 6.40732 12.9613C6.32345 12.9053 6.25807 12.8257 6.21947 12.7325C6.18087 12.6394 6.17078 12.5369 6.19048 12.438C6.21018 12.3391 6.25878 12.2483 6.33012 12.177L8.13013 10.377C8.22696 10.2888 8.35405 10.2413 8.48501 10.2443C8.61597 10.2473 8.74073 10.3007 8.83339 10.3932C8.92605 10.4858 8.97949 10.6106 8.9826 10.7415C8.98572 10.8725 8.93828 10.9996 8.85013 11.0965L7.05012 12.8965C7.00309 12.9441 6.94711 12.9819 6.88541 13.0077C6.82371 13.0335 6.75751 13.0469 6.69062 13.047Z" fill="#0070F0" fill-opacity="0.9"/>
<path d="M28.9675 16.0445C28.9276 15.9552 28.8627 15.8793 28.7806 15.8261C28.6985 15.7729 28.6028 15.7445 28.505 15.7445H19.0549V15.1C19.04 14.979 18.9784 14.8686 18.8832 14.7924C18.788 14.7162 18.6668 14.6802 18.5454 14.692H13.4499C13.3286 14.6802 13.2074 14.7162 13.1122 14.7924C13.017 14.8686 12.9554 14.979 12.9404 15.1V15.742H4.31944C4.23167 15.7422 4.1454 15.7648 4.06877 15.8075C3.99213 15.8503 3.92766 15.9119 3.88144 15.9865L1.16494 20.4735C1.14167 20.5122 1.12908 20.5563 1.12844 20.6014C1.12781 20.6466 1.13915 20.691 1.16131 20.7303C1.18348 20.7696 1.21567 20.8023 1.2546 20.8251C1.29354 20.8479 1.33783 20.86 1.38294 20.86H14.7444C14.7883 20.8601 14.8314 20.8487 14.8696 20.8272C14.9078 20.8056 14.9398 20.7746 14.9624 20.737L17.2904 16.887C17.3131 16.8495 17.3451 16.8185 17.3833 16.797C17.4215 16.7754 17.4646 16.7641 17.5084 16.764H18.9154C18.9647 16.764 19.0129 16.7781 19.0543 16.8047C19.0957 16.8313 19.1286 16.8692 19.149 16.914L20.809 20.706C20.8292 20.7509 20.8621 20.789 20.9035 20.8156C20.9449 20.8422 20.9932 20.8563 21.0424 20.856H30.716C30.7582 20.8561 30.7999 20.8457 30.8371 20.8257C30.8744 20.8057 30.906 20.7767 30.9292 20.7413C30.9525 20.706 30.9665 20.6654 30.9701 20.6233C30.9738 20.5812 30.9668 20.5388 30.95 20.5L28.9675 16.0445Z" fill="#0070F0" fill-opacity="0.9"/>
</svg>
