<svg width="32" height="32" viewBox="0 0 32 32" fill="none" xmlns="http://www.w3.org/2000/svg">
<g clip-path="url(#clip0_1_2107)">
<path d="M15.998 0.333008C7.164 0.333008 0 7.525 0 16.397C0 23.493 4.584 29.513 10.944 31.639C11.744 31.787 12.036 31.291 12.036 30.865C12.036 30.483 12.022 29.473 12.014 28.133C7.564 29.103 6.624 25.979 6.624 25.979C5.898 24.123 4.848 23.629 4.848 23.629C3.394 22.633 4.956 22.653 4.956 22.653C6.562 22.767 7.406 24.309 7.406 24.309C8.834 26.763 11.152 26.055 12.064 25.643C12.208 24.605 12.622 23.897 13.08 23.495C9.528 23.089 5.792 21.711 5.792 15.557C5.792 13.803 6.416 12.369 7.44 11.245C7.274 10.839 6.726 9.205 7.596 6.995C7.596 6.995 8.94 6.56301 11.996 8.641C13.272 8.28501 14.64 8.107 16.002 8.101C17.36 8.109 18.73 8.28501 20.008 8.643C23.062 6.56501 24.404 6.997 24.404 6.997C25.276 9.209 24.728 10.841 24.564 11.247C25.59 12.371 26.208 13.805 26.208 15.559C26.208 21.729 22.468 23.087 18.904 23.485C19.478 23.981 19.99 24.961 19.99 26.459C19.99 28.607 19.97 30.339 19.97 30.865C19.97 31.295 20.258 31.795 21.07 31.637C27.42 29.509 32 23.491 32 16.397C32 7.525 24.836 0.333008 15.998 0.333008Z" fill="#0070F0" fill-opacity="0.9"/>
</g>
<defs>
<clipPath id="clip0_1_2107">
<rect width="32" height="32" fill="white"/>
</clipPath>
</defs>
</svg>
