<svg width="32" height="32" viewBox="0 0 32 32" fill="none" xmlns="http://www.w3.org/2000/svg">
<g clip-path="url(#clip0_1_2099)">
<path d="M16 0C12.8355 0 9.74207 0.938384 7.11089 2.69649C4.4797 4.45459 2.42894 6.95345 1.21794 9.87706C0.0069325 12.8007 -0.309921 16.0177 0.307443 19.1214C0.924807 22.2251 2.44866 25.0761 4.6863 27.3137C6.92394 29.5513 9.77487 31.0752 12.8786 31.6926C15.9823 32.3099 19.1993 31.9931 22.1229 30.7821C25.0466 29.5711 27.5454 27.5203 29.3035 24.8891C31.0616 22.2579 32 19.1645 32 16C31.9995 11.7567 30.3136 7.68734 27.3131 4.68688C24.3127 1.68641 20.2433 0.000530313 16 0V0ZM9.93501 16.78L11.575 15.135C11.8152 14.899 12.126 14.748 12.46 14.705L13.73 14.545C13.6021 15.3705 13.1772 16.1208 12.535 16.655L9.89501 18.88C9.62742 18.5934 9.48194 18.2139 9.48941 17.8219C9.49687 17.4299 9.6567 17.0562 9.93501 16.78ZM13.18 24.395C13.179 24.5454 13.1185 24.6893 13.0117 24.7952C12.9049 24.9011 12.7604 24.9603 12.61 24.96H12.26C12.1104 24.9593 11.9671 24.8996 11.8613 24.7937C11.7555 24.6879 11.6957 24.5446 11.695 24.395V22.04C11.6957 21.8904 11.7554 21.7471 11.8613 21.6412C11.9671 21.5354 12.1104 21.4757 12.26 21.475H12.61C12.7604 21.4746 12.9049 21.5339 13.0117 21.6398C13.1185 21.7457 13.179 21.8896 13.18 22.04V24.395ZM15.025 22.785C15.025 22.8599 15.0103 22.934 14.9817 23.0032C14.9531 23.0723 14.9111 23.1352 14.8581 23.1881C14.8052 23.2411 14.7424 23.2831 14.6732 23.3117C14.604 23.3403 14.5299 23.355 14.455 23.355H14.105C14.0304 23.3549 13.9566 23.3401 13.8877 23.3114C13.8189 23.2827 13.7564 23.2406 13.7039 23.1876C13.6514 23.1346 13.6098 23.0718 13.5817 23.0027C13.5536 22.9336 13.5394 22.8596 13.54 22.785V20.36C13.5394 20.2854 13.5536 20.2114 13.5817 20.1423C13.6098 20.0732 13.6514 20.0104 13.7039 19.9574C13.7564 19.9044 13.8189 19.8623 13.8877 19.8336C13.9566 19.8049 14.0304 19.7901 14.105 19.79H14.455C14.5299 19.79 14.604 19.8047 14.6732 19.8333C14.7424 19.862 14.8052 19.9039 14.8581 19.9569C14.9111 20.0098 14.9531 20.0727 14.9817 20.1418C15.0103 20.211 15.025 20.2851 15.025 20.36V22.785ZM16.865 21.75C16.864 21.9004 16.8035 22.0443 16.6967 22.1502C16.5899 22.2561 16.4454 22.3153 16.295 22.315H15.95C15.8754 22.3156 15.8014 22.3014 15.7323 22.2733C15.6632 22.2452 15.6004 22.2037 15.5474 22.1511C15.4944 22.0986 15.4524 22.0361 15.4236 21.9673C15.3949 21.8985 15.3801 21.8246 15.38 21.75V19.24C15.3802 19.1657 15.3951 19.0921 15.4239 19.0236C15.4528 18.9551 15.4949 18.8929 15.5479 18.8408C15.601 18.7887 15.6638 18.7477 15.7328 18.7201C15.8019 18.6925 15.8757 18.6789 15.95 18.68H16.295C16.3692 18.6793 16.4429 18.6932 16.5117 18.7209C16.5805 18.7487 16.6432 18.7898 16.6962 18.8418C16.7491 18.8938 16.7913 18.9557 16.8202 19.0241C16.8492 19.0924 16.8644 19.1658 16.865 19.24V21.75ZM18.31 20.525C18.31 20.6695 18.2526 20.8082 18.1504 20.9104C18.0482 21.0126 17.9096 21.07 17.765 21.07C17.6205 21.07 17.4818 21.0126 17.3796 20.9104C17.2774 20.8082 17.22 20.6695 17.22 20.525V18.405C17.22 18.2605 17.2774 18.1218 17.3796 18.0196C17.4818 17.9174 17.6205 17.86 17.765 17.86C17.9096 17.86 18.0482 17.9174 18.1504 18.0196C18.2526 18.1218 18.31 18.2605 18.31 18.405V20.525ZM23.34 12.075C23.1489 11.9079 22.9039 11.8155 22.65 11.815H18.12C18.0723 11.815 18.0265 11.834 17.9927 11.8677C17.959 11.9015 17.94 11.9473 17.94 11.995C17.94 12.0427 17.959 12.0885 17.9927 12.1223C18.0265 12.156 18.0723 12.175 18.12 12.175H22.65C22.833 12.175 23.0085 12.2477 23.1379 12.3771C23.2673 12.5065 23.34 12.682 23.34 12.865C23.34 13.048 23.2673 13.2235 23.1379 13.3529C23.0085 13.4823 22.833 13.555 22.65 13.555H20.38C20.3329 13.555 20.2878 13.5737 20.2545 13.607C20.2212 13.6403 20.2025 13.6854 20.2025 13.7325C20.2025 13.7796 20.2212 13.8247 20.2545 13.858C20.2878 13.8913 20.3329 13.91 20.38 13.91H21.805C21.988 13.91 22.1635 13.9827 22.2929 14.1121C22.4223 14.2415 22.495 14.417 22.495 14.6C22.495 14.783 22.4223 14.9585 22.2929 15.0879C22.1635 15.2173 21.988 15.29 21.805 15.29H20.355C20.3314 15.2899 20.3079 15.2945 20.286 15.3035C20.2641 15.3125 20.2443 15.3258 20.2275 15.3425C20.2108 15.3592 20.1975 15.3791 20.1885 15.401C20.1795 15.4229 20.1749 15.4463 20.175 15.47C20.1757 15.5175 20.1948 15.5629 20.2285 15.5966C20.2621 15.6302 20.3075 15.6494 20.355 15.65H21.52C21.7024 15.65 21.8772 15.7224 22.0062 15.8514C22.1351 15.9803 22.2075 16.1552 22.2075 16.3375C22.2075 16.5198 22.1351 16.6947 22.0062 16.8236C21.8772 16.9526 21.7024 17.025 21.52 17.025H20.31C20.2623 17.025 20.2165 17.044 20.1827 17.0777C20.149 17.1115 20.13 17.1573 20.13 17.205C20.13 17.2527 20.149 17.2985 20.1827 17.3323C20.2165 17.366 20.2623 17.385 20.31 17.385H21.115C21.2649 17.385 21.4086 17.4445 21.5145 17.5505C21.6205 17.6564 21.68 17.8002 21.68 17.95C21.68 18.0998 21.6205 18.2436 21.5145 18.3495C21.4086 18.4555 21.2649 18.515 21.115 18.515H18.67V18.405C18.67 18.1656 18.5749 17.9361 18.4057 17.7668C18.2364 17.5976 18.0069 17.5025 17.7675 17.5025C17.5281 17.5025 17.2986 17.5976 17.1293 17.7668C16.9601 17.9361 16.865 18.1656 16.865 18.405V18.515C16.7025 18.3875 16.5016 18.3187 16.295 18.32H15.95C15.8288 18.3196 15.7088 18.3431 15.5967 18.3891C15.4846 18.4351 15.3827 18.5028 15.2968 18.5882C15.2109 18.6737 15.1426 18.7752 15.096 18.8871C15.0494 18.9989 15.0253 19.1188 15.025 19.24V19.63C14.8629 19.5017 14.6617 19.4329 14.455 19.435H14.105C13.8598 19.4353 13.6247 19.5328 13.4513 19.7063C13.2779 19.8797 13.1803 20.1148 13.18 20.36V21.31C13.0179 21.1817 12.8167 21.1129 12.61 21.115H12.26C12.1385 21.1147 12.0181 21.1385 11.9057 21.1849C11.7934 21.2312 11.6913 21.2994 11.6053 21.3853C11.5194 21.4713 11.4513 21.5733 11.4049 21.6857C11.3585 21.798 11.3347 21.9185 11.335 22.04V23.95L9.31001 26L6.04001 22.59L12.765 16.935C13.4942 16.3235 13.9701 15.4628 14.1 14.52L14.125 14.345V14.34L14.195 13.84C14.2772 13.2621 14.5024 12.7139 14.85 12.245L15.975 10.73C16.1232 10.5332 16.315 10.3734 16.5354 10.2632C16.7557 10.1531 16.9986 10.0955 17.245 10.095H17.605C17.8598 10.096 18.1123 10.0461 18.3475 9.94822C18.5828 9.85034 18.7961 9.70645 18.975 9.525L22.5 6L25.96 9.46L23.34 12.075Z" fill="#0070F0" fill-opacity="0.9"/>
</g>
<defs>
<clipPath id="clip0_1_2099">
<rect width="32" height="32" fill="white"/>
</clipPath>
</defs>
</svg>
