<svg width="48" height="48" viewBox="0 0 48 48" fill="none" xmlns="http://www.w3.org/2000/svg">
<rect x="0.5" y="0.5" width="47" height="47" rx="23.5" stroke="#515458"/>
<path fill-rule="evenodd" clip-rule="evenodd" d="M13.5 15.5C13.5 14.3954 14.3954 13.5 15.5 13.5H32.5C33.6046 13.5 34.5 14.3954 34.5 15.5V32.5C34.5 33.6046 33.6046 34.5 32.5 34.5H15.5C14.3954 34.5 13.5 33.6046 13.5 32.5V15.5ZM24.0001 19.7C21.6253 19.7 19.7001 21.6252 19.7001 24C19.7001 26.3748 21.6253 28.3 24.0001 28.3C26.3749 28.3 28.3001 26.3748 28.3001 24C28.3001 21.6252 26.3749 19.7 24.0001 19.7ZM18.5001 24C18.5001 20.9624 20.9625 18.5 24.0001 18.5C27.0377 18.5 29.5001 20.9624 29.5001 24C29.5001 27.0376 27.0377 29.5 24.0001 29.5C20.9625 29.5 18.5001 27.0376 18.5001 24ZM30.2999 19.1C31.0731 19.1 31.6999 18.4732 31.6999 17.7C31.6999 16.9268 31.0731 16.3 30.2999 16.3C29.5267 16.3 28.8999 16.9268 28.8999 17.7C28.8999 18.4732 29.5267 19.1 30.2999 19.1Z" fill="#515458"/>
</svg>
