<svg width="48" height="48" viewBox="0 0 48 48" fill="none" xmlns="http://www.w3.org/2000/svg">
<rect x="0.5" y="0.5" width="47" height="47" rx="23.5" stroke="#515458"/>
<path d="M33.5243 32.9931C32.3741 32.9658 31.2513 32.9658 30.1011 32.9931C29.8546 32.9931 29.7999 32.9384 29.7999 32.6919C29.7999 30.6654 29.7999 28.6114 29.7999 26.5849C29.7999 26.1193 29.7725 25.6538 29.6356 25.2156C29.2248 23.7916 27.5816 23.2712 26.404 24.2297C25.7742 24.7227 25.5277 25.4073 25.5277 26.2289C25.5277 28.1459 25.5277 30.0629 25.5277 31.9799C25.5277 32.2264 25.5003 32.4728 25.5277 32.7467C25.5551 32.9658 25.4455 33.0205 25.2538 32.9931C24.0763 32.9931 22.9261 32.9931 21.7485 32.9931C21.5294 32.9931 21.4746 32.9384 21.4746 32.7193C21.502 30.994 21.502 29.2687 21.502 27.516C21.502 25.3799 21.502 23.2439 21.4746 21.1352C21.4746 20.8887 21.5294 20.8339 21.7485 20.8339C22.9261 20.8339 24.0763 20.8339 25.2538 20.8339C25.4729 20.8339 25.5277 20.8887 25.5277 21.1078C25.5277 21.5459 25.5277 21.9841 25.5277 22.5044C25.6099 22.4223 25.6372 22.3949 25.6646 22.3675C26.7327 20.8065 28.2389 20.3684 30.019 20.6422C32.0729 20.9708 33.3874 22.3949 33.716 24.5857C33.7982 25.1061 33.8256 25.6264 33.8256 26.1467C33.8256 28.3376 33.8256 30.5011 33.8256 32.6919C33.8256 32.911 33.7708 32.9931 33.5243 32.9931Z" fill="#515458"/>
<path d="M19.2825 26.9141C19.2825 28.8311 19.2825 30.7481 19.2825 32.6651C19.2825 32.9116 19.2278 32.9937 18.9813 32.9937C17.8311 32.9664 16.6809 32.9937 15.5307 32.9937C15.3116 32.9937 15.2568 32.939 15.2568 32.7199C15.2568 28.8585 15.2568 24.9697 15.2568 21.1083C15.2568 20.9166 15.3116 20.8345 15.5307 20.8345C16.7083 20.8345 17.8859 20.8345 19.0635 20.8345C19.3099 20.8345 19.3373 20.9166 19.3373 21.1357C19.2825 23.0527 19.2825 24.9697 19.2825 26.9141Z" fill="#515458"/>
<path d="M19.477 17.6575C19.2031 18.7529 18.0803 19.3828 16.7932 19.1637C15.4239 18.9446 14.6571 17.6027 15.15 16.2882C15.4786 15.4666 16.2728 14.9737 17.2861 15.0011C18.8197 14.9737 19.833 16.2061 19.477 17.6575Z" fill="#515458"/>
</svg>
