<svg width="48" height="48" viewBox="0 0 48 48" fill="none" xmlns="http://www.w3.org/2000/svg">
<rect x="0.5" y="0.5" width="47" height="47" rx="23.5" stroke="#515458"/>
<path d="M32.7207 19.4928C32.7207 19.6957 32.7207 19.8986 32.7207 20.0725C32.7207 26.0725 28.3002 33 20.2426 33C17.7526 33 15.4584 32.2464 13.5 30.971C13.8357 31 14.1994 31.029 14.5352 31.029C16.5776 31.029 18.48 30.3043 19.9908 29.087C18.0604 29.058 16.4377 27.7246 15.9061 25.9275C16.1859 25.9855 16.4377 26.0145 16.7454 26.0145C17.1371 26.0145 17.5288 25.9565 17.8925 25.8406C15.8781 25.4348 14.3673 23.6087 14.3673 21.4058C14.3673 21.3768 14.3673 21.3768 14.3673 21.3478C14.9548 21.6957 15.6263 21.8986 16.3537 21.9275C15.1787 21.1159 14.3953 19.7246 14.3953 18.1304C14.3953 17.2899 14.6191 16.5072 14.9828 15.8406C17.1371 18.5942 20.3825 20.3913 24.0196 20.5942C23.9357 20.2754 23.9077 19.8986 23.9077 19.5507C23.9077 17.029 25.8662 15 28.3002 15C29.5592 15 30.7063 15.5507 31.4897 16.4203C32.4969 16.2174 33.4202 15.8406 34.2875 15.3188C33.9517 16.3913 33.2523 17.2609 32.357 17.8406C33.2523 17.7246 34.0916 17.4928 34.875 17.1159C34.3154 18.0435 33.588 18.8551 32.7207 19.4928Z" fill="#515458"/>
</svg>
